G04 #@! TF.GenerationSoftware,KiCad,Pcbnew,9.0.4*
G04 #@! TF.CreationDate,2025-09-20T14:32:32-07:00*
G04 #@! TF.ProjectId,Macro_Pad,4d616372-6f5f-4506-9164-2e6b69636164,rev?*
G04 #@! TF.SameCoordinates,Original*
G04 #@! TF.FileFunction,Copper,L2,Bot*
G04 #@! TF.FilePolarity,Positive*
%FSLAX46Y46*%
G04 Gerber Fmt 4.6, Leading zero omitted, Abs format (unit mm)*
G04 Created by KiCad (PCBNEW 9.0.4) date 2025-09-20 14:32:32*
%MOMM*%
%LPD*%
G01*
G04 APERTURE LIST*
G04 #@! TA.AperFunction,ComponentPad*
%ADD10R,1.390000X1.390000*%
G04 #@! TD*
G04 #@! TA.AperFunction,ComponentPad*
%ADD11C,1.390000*%
G04 #@! TD*
G04 #@! TA.AperFunction,ComponentPad*
%ADD12C,3.600000*%
G04 #@! TD*
G04 #@! TA.AperFunction,ConnectorPad*
%ADD13C,5.700000*%
G04 #@! TD*
G04 #@! TA.AperFunction,ComponentPad*
%ADD14C,1.600000*%
G04 #@! TD*
G04 #@! TA.AperFunction,ComponentPad*
%ADD15C,2.200000*%
G04 #@! TD*
G04 #@! TA.AperFunction,ComponentPad*
%ADD16R,1.800000X1.800000*%
G04 #@! TD*
G04 #@! TA.AperFunction,ComponentPad*
%ADD17C,1.800000*%
G04 #@! TD*
G04 APERTURE END LIST*
D10*
X185000000Y-89960000D03*
D11*
X185000000Y-92500000D03*
X185000000Y-95040000D03*
X185000000Y-97580000D03*
X185000000Y-100120000D03*
X185000000Y-102660000D03*
X185000000Y-105200000D03*
X185000000Y-107740000D03*
X185000000Y-110280000D03*
X185000000Y-112820000D03*
X185000000Y-115360000D03*
X185000000Y-117900000D03*
X185000000Y-120440000D03*
X185000000Y-122980000D03*
X185000000Y-125520000D03*
X185000000Y-128060000D03*
X185000000Y-130600000D03*
X185000000Y-133140000D03*
X185000000Y-135680000D03*
X185000000Y-138220000D03*
D12*
X100000000Y-92000000D03*
D13*
X100000000Y-92000000D03*
D14*
X177080000Y-137250000D03*
X166920000Y-137250000D03*
D10*
X202750000Y-138210000D03*
D11*
X202750000Y-135670000D03*
X202750000Y-133130000D03*
X202750000Y-130590000D03*
X202750000Y-128050000D03*
X202750000Y-125510000D03*
X202750000Y-122970000D03*
X202750000Y-120430000D03*
X202750000Y-117890000D03*
X202750000Y-115350000D03*
X202750000Y-112810000D03*
X202750000Y-110270000D03*
X202750000Y-107730000D03*
X202750000Y-105190000D03*
X202750000Y-102650000D03*
X202750000Y-100110000D03*
X202750000Y-97570000D03*
X202750000Y-95030000D03*
X202750000Y-92490000D03*
X202750000Y-89950000D03*
D15*
X152500000Y-119200000D03*
X146150000Y-121740000D03*
D14*
X149330000Y-137250000D03*
X139170000Y-137250000D03*
D15*
X114320000Y-119200000D03*
X107970000Y-121740000D03*
D16*
X128730000Y-137250000D03*
D17*
X131270000Y-137250000D03*
D15*
X171620000Y-99820000D03*
X165270000Y-102360000D03*
X114380000Y-99820000D03*
X108030000Y-102360000D03*
X133520000Y-99820000D03*
X127170000Y-102360000D03*
D12*
X195000000Y-136000000D03*
D13*
X195000000Y-136000000D03*
D16*
X158980000Y-137250000D03*
D17*
X161520000Y-137250000D03*
D15*
X133500000Y-119200000D03*
X127150000Y-121740000D03*
X152560000Y-99820000D03*
X146210000Y-102360000D03*
D12*
X195000000Y-92000000D03*
D13*
X195000000Y-92000000D03*
D15*
X171520000Y-119200000D03*
X165170000Y-121740000D03*
D12*
X100000000Y-136000000D03*
D13*
X100000000Y-136000000D03*
M02*
