%TF.GenerationSoftware,KiCad,Pcbnew,9.0.4*%
%TF.CreationDate,2025-09-20T14:29:12-07:00*%
%TF.ProjectId,Macro_Pad,4d616372-6f5f-4506-9164-2e6b69636164,rev?*%
%TF.SameCoordinates,Original*%
%TF.FileFunction,Drillmap*%
%TF.FilePolarity,Positive*%
%FSLAX45Y45*%
G04 Gerber Fmt 4.5, Leading zero omitted, Abs format (unit mm)*
G04 Created by KiCad (PCBNEW 9.0.4) date 2025-09-20 14:29:12*
%MOMM*%
%LPD*%
G01*
G04 APERTURE LIST*
%ADD10C,0.100000*%
%ADD11C,0.200000*%
%ADD12C,0.170000*%
%ADD13C,0.400000*%
G04 APERTURE END LIST*
D10*
X20380000Y-8675000D02*
X9740000Y-8675000D01*
X9705000Y-14071107D02*
X20361244Y-14074342D01*
X9535287Y-8874830D02*
G75*
G02*
X9740000Y-8675001I195173J4830D01*
G01*
X20510054Y-13929911D02*
X20512002Y-8814988D01*
X9705000Y-14071107D02*
G75*
G02*
X9533893Y-13899830I0J171107D01*
G01*
X9535287Y-8874830D02*
X9533893Y-13899830D01*
X20380000Y-8675000D02*
G75*
G02*
X20512002Y-8814988I0J-132230D01*
G01*
X20510054Y-13930003D02*
G75*
G02*
X20361244Y-14074335I-144364J-37D01*
G01*
D11*
D12*
X10585000Y-12343000D02*
X10755000Y-12513000D01*
X10755000Y-12343000D02*
X10585000Y-12513000D01*
X10591000Y-10405000D02*
X10761000Y-10575000D01*
X10761000Y-10405000D02*
X10591000Y-10575000D01*
X11601000Y-12343000D02*
X11771000Y-12513000D01*
X11771000Y-12343000D02*
X11601000Y-12513000D01*
X11607000Y-10405000D02*
X11777000Y-10575000D01*
X11777000Y-10405000D02*
X11607000Y-10575000D01*
X12503000Y-12343000D02*
X12673000Y-12513000D01*
X12673000Y-12343000D02*
X12503000Y-12513000D01*
X12505000Y-10405000D02*
X12675000Y-10575000D01*
X12675000Y-10405000D02*
X12505000Y-10575000D01*
X13519000Y-12343000D02*
X13689000Y-12513000D01*
X13689000Y-12343000D02*
X13519000Y-12513000D01*
X13521000Y-10405000D02*
X13691000Y-10575000D01*
X13691000Y-10405000D02*
X13521000Y-10575000D01*
X14403000Y-12343000D02*
X14573000Y-12513000D01*
X14573000Y-12343000D02*
X14403000Y-12513000D01*
X14409000Y-10405000D02*
X14579000Y-10575000D01*
X14579000Y-10405000D02*
X14409000Y-10575000D01*
X15419000Y-12343000D02*
X15589000Y-12513000D01*
X15589000Y-12343000D02*
X15419000Y-12513000D01*
X15425000Y-10405000D02*
X15595000Y-10575000D01*
X15595000Y-10405000D02*
X15425000Y-10575000D01*
X16305000Y-12343000D02*
X16475000Y-12513000D01*
X16475000Y-12343000D02*
X16305000Y-12513000D01*
X16315000Y-10405000D02*
X16485000Y-10575000D01*
X16485000Y-10405000D02*
X16315000Y-10575000D01*
X17321000Y-12343000D02*
X17491000Y-12513000D01*
X17491000Y-12343000D02*
X17321000Y-12513000D01*
X17331000Y-10405000D02*
X17501000Y-10575000D01*
X17501000Y-10405000D02*
X17331000Y-10575000D01*
D13*
X11378000Y-12428000D02*
G75*
G02*
X10978000Y-12428000I-200000J0D01*
G01*
X10978000Y-12428000D02*
G75*
G02*
X11378000Y-12428000I200000J0D01*
G01*
X11384000Y-10490000D02*
G75*
G02*
X10984000Y-10490000I-200000J0D01*
G01*
X10984000Y-10490000D02*
G75*
G02*
X11384000Y-10490000I200000J0D01*
G01*
X13296000Y-12428000D02*
G75*
G02*
X12896000Y-12428000I-200000J0D01*
G01*
X12896000Y-12428000D02*
G75*
G02*
X13296000Y-12428000I200000J0D01*
G01*
X13298000Y-10490000D02*
G75*
G02*
X12898000Y-10490000I-200000J0D01*
G01*
X12898000Y-10490000D02*
G75*
G02*
X13298000Y-10490000I200000J0D01*
G01*
X15196000Y-12428000D02*
G75*
G02*
X14796000Y-12428000I-200000J0D01*
G01*
X14796000Y-12428000D02*
G75*
G02*
X15196000Y-12428000I200000J0D01*
G01*
X15202000Y-10490000D02*
G75*
G02*
X14802000Y-10490000I-200000J0D01*
G01*
X14802000Y-10490000D02*
G75*
G02*
X15202000Y-10490000I200000J0D01*
G01*
X17098000Y-12428000D02*
G75*
G02*
X16698000Y-12428000I-200000J0D01*
G01*
X16698000Y-12428000D02*
G75*
G02*
X17098000Y-12428000I200000J0D01*
G01*
X17108000Y-10490000D02*
G75*
G02*
X16708000Y-10490000I-200000J0D01*
G01*
X16708000Y-10490000D02*
G75*
G02*
X17108000Y-10490000I200000J0D01*
G01*
D11*
X9789670Y-14390887D02*
X9789670Y-14190887D01*
X9789670Y-14190887D02*
X9837289Y-14190887D01*
X9837289Y-14190887D02*
X9865860Y-14200411D01*
X9865860Y-14200411D02*
X9884908Y-14219459D01*
X9884908Y-14219459D02*
X9894432Y-14238506D01*
X9894432Y-14238506D02*
X9903955Y-14276602D01*
X9903955Y-14276602D02*
X9903955Y-14305173D01*
X9903955Y-14305173D02*
X9894432Y-14343268D01*
X9894432Y-14343268D02*
X9884908Y-14362316D01*
X9884908Y-14362316D02*
X9865860Y-14381364D01*
X9865860Y-14381364D02*
X9837289Y-14390887D01*
X9837289Y-14390887D02*
X9789670Y-14390887D01*
X9989670Y-14390887D02*
X9989670Y-14257554D01*
X9989670Y-14295649D02*
X9999193Y-14276602D01*
X9999193Y-14276602D02*
X10008717Y-14267078D01*
X10008717Y-14267078D02*
X10027765Y-14257554D01*
X10027765Y-14257554D02*
X10046813Y-14257554D01*
X10113479Y-14390887D02*
X10113479Y-14257554D01*
X10113479Y-14190887D02*
X10103955Y-14200411D01*
X10103955Y-14200411D02*
X10113479Y-14209935D01*
X10113479Y-14209935D02*
X10123003Y-14200411D01*
X10123003Y-14200411D02*
X10113479Y-14190887D01*
X10113479Y-14190887D02*
X10113479Y-14209935D01*
X10237289Y-14390887D02*
X10218241Y-14381364D01*
X10218241Y-14381364D02*
X10208717Y-14362316D01*
X10208717Y-14362316D02*
X10208717Y-14190887D01*
X10342051Y-14390887D02*
X10323003Y-14381364D01*
X10323003Y-14381364D02*
X10313479Y-14362316D01*
X10313479Y-14362316D02*
X10313479Y-14190887D01*
X10570622Y-14390887D02*
X10570622Y-14190887D01*
X10570622Y-14190887D02*
X10637289Y-14333744D01*
X10637289Y-14333744D02*
X10703955Y-14190887D01*
X10703955Y-14190887D02*
X10703955Y-14390887D01*
X10884908Y-14390887D02*
X10884908Y-14286125D01*
X10884908Y-14286125D02*
X10875384Y-14267078D01*
X10875384Y-14267078D02*
X10856336Y-14257554D01*
X10856336Y-14257554D02*
X10818241Y-14257554D01*
X10818241Y-14257554D02*
X10799193Y-14267078D01*
X10884908Y-14381364D02*
X10865860Y-14390887D01*
X10865860Y-14390887D02*
X10818241Y-14390887D01*
X10818241Y-14390887D02*
X10799193Y-14381364D01*
X10799193Y-14381364D02*
X10789670Y-14362316D01*
X10789670Y-14362316D02*
X10789670Y-14343268D01*
X10789670Y-14343268D02*
X10799193Y-14324221D01*
X10799193Y-14324221D02*
X10818241Y-14314697D01*
X10818241Y-14314697D02*
X10865860Y-14314697D01*
X10865860Y-14314697D02*
X10884908Y-14305173D01*
X10980146Y-14257554D02*
X10980146Y-14457554D01*
X10980146Y-14267078D02*
X10999193Y-14257554D01*
X10999193Y-14257554D02*
X11037289Y-14257554D01*
X11037289Y-14257554D02*
X11056336Y-14267078D01*
X11056336Y-14267078D02*
X11065860Y-14276602D01*
X11065860Y-14276602D02*
X11075384Y-14295649D01*
X11075384Y-14295649D02*
X11075384Y-14352792D01*
X11075384Y-14352792D02*
X11065860Y-14371840D01*
X11065860Y-14371840D02*
X11056336Y-14381364D01*
X11056336Y-14381364D02*
X11037289Y-14390887D01*
X11037289Y-14390887D02*
X10999193Y-14390887D01*
X10999193Y-14390887D02*
X10980146Y-14381364D01*
X11161098Y-14371840D02*
X11170622Y-14381364D01*
X11170622Y-14381364D02*
X11161098Y-14390887D01*
X11161098Y-14390887D02*
X11151574Y-14381364D01*
X11151574Y-14381364D02*
X11161098Y-14371840D01*
X11161098Y-14371840D02*
X11161098Y-14390887D01*
X11161098Y-14267078D02*
X11170622Y-14276602D01*
X11170622Y-14276602D02*
X11161098Y-14286125D01*
X11161098Y-14286125D02*
X11151574Y-14276602D01*
X11151574Y-14276602D02*
X11161098Y-14267078D01*
X11161098Y-14267078D02*
X11161098Y-14286125D01*
D12*
X9358893Y-14634404D02*
X9528893Y-14804404D01*
X9528893Y-14634404D02*
X9358893Y-14804404D01*
D11*
X9894432Y-14810887D02*
X9780146Y-14810887D01*
X9837289Y-14810887D02*
X9837289Y-14610887D01*
X9837289Y-14610887D02*
X9818241Y-14639459D01*
X9818241Y-14639459D02*
X9799193Y-14658506D01*
X9799193Y-14658506D02*
X9780146Y-14668030D01*
X9980146Y-14791840D02*
X9989670Y-14801364D01*
X9989670Y-14801364D02*
X9980146Y-14810887D01*
X9980146Y-14810887D02*
X9970622Y-14801364D01*
X9970622Y-14801364D02*
X9980146Y-14791840D01*
X9980146Y-14791840D02*
X9980146Y-14810887D01*
X10056336Y-14610887D02*
X10189670Y-14610887D01*
X10189670Y-14610887D02*
X10103955Y-14810887D01*
X10303955Y-14610887D02*
X10323003Y-14610887D01*
X10323003Y-14610887D02*
X10342051Y-14620411D01*
X10342051Y-14620411D02*
X10351574Y-14629935D01*
X10351574Y-14629935D02*
X10361098Y-14648983D01*
X10361098Y-14648983D02*
X10370622Y-14687078D01*
X10370622Y-14687078D02*
X10370622Y-14734697D01*
X10370622Y-14734697D02*
X10361098Y-14772792D01*
X10361098Y-14772792D02*
X10351574Y-14791840D01*
X10351574Y-14791840D02*
X10342051Y-14801364D01*
X10342051Y-14801364D02*
X10323003Y-14810887D01*
X10323003Y-14810887D02*
X10303955Y-14810887D01*
X10303955Y-14810887D02*
X10284908Y-14801364D01*
X10284908Y-14801364D02*
X10275384Y-14791840D01*
X10275384Y-14791840D02*
X10265860Y-14772792D01*
X10265860Y-14772792D02*
X10256336Y-14734697D01*
X10256336Y-14734697D02*
X10256336Y-14687078D01*
X10256336Y-14687078D02*
X10265860Y-14648983D01*
X10265860Y-14648983D02*
X10275384Y-14629935D01*
X10275384Y-14629935D02*
X10284908Y-14620411D01*
X10284908Y-14620411D02*
X10303955Y-14610887D01*
X10494432Y-14610887D02*
X10513479Y-14610887D01*
X10513479Y-14610887D02*
X10532527Y-14620411D01*
X10532527Y-14620411D02*
X10542051Y-14629935D01*
X10542051Y-14629935D02*
X10551574Y-14648983D01*
X10551574Y-14648983D02*
X10561098Y-14687078D01*
X10561098Y-14687078D02*
X10561098Y-14734697D01*
X10561098Y-14734697D02*
X10551574Y-14772792D01*
X10551574Y-14772792D02*
X10542051Y-14791840D01*
X10542051Y-14791840D02*
X10532527Y-14801364D01*
X10532527Y-14801364D02*
X10513479Y-14810887D01*
X10513479Y-14810887D02*
X10494432Y-14810887D01*
X10494432Y-14810887D02*
X10475384Y-14801364D01*
X10475384Y-14801364D02*
X10465860Y-14791840D01*
X10465860Y-14791840D02*
X10456336Y-14772792D01*
X10456336Y-14772792D02*
X10446813Y-14734697D01*
X10446813Y-14734697D02*
X10446813Y-14687078D01*
X10446813Y-14687078D02*
X10456336Y-14648983D01*
X10456336Y-14648983D02*
X10465860Y-14629935D01*
X10465860Y-14629935D02*
X10475384Y-14620411D01*
X10475384Y-14620411D02*
X10494432Y-14610887D01*
X10646813Y-14810887D02*
X10646813Y-14677554D01*
X10646813Y-14696602D02*
X10656336Y-14687078D01*
X10656336Y-14687078D02*
X10675384Y-14677554D01*
X10675384Y-14677554D02*
X10703955Y-14677554D01*
X10703955Y-14677554D02*
X10723003Y-14687078D01*
X10723003Y-14687078D02*
X10732527Y-14706125D01*
X10732527Y-14706125D02*
X10732527Y-14810887D01*
X10732527Y-14706125D02*
X10742051Y-14687078D01*
X10742051Y-14687078D02*
X10761098Y-14677554D01*
X10761098Y-14677554D02*
X10789670Y-14677554D01*
X10789670Y-14677554D02*
X10808717Y-14687078D01*
X10808717Y-14687078D02*
X10818241Y-14706125D01*
X10818241Y-14706125D02*
X10818241Y-14810887D01*
X10913479Y-14810887D02*
X10913479Y-14677554D01*
X10913479Y-14696602D02*
X10923003Y-14687078D01*
X10923003Y-14687078D02*
X10942051Y-14677554D01*
X10942051Y-14677554D02*
X10970622Y-14677554D01*
X10970622Y-14677554D02*
X10989670Y-14687078D01*
X10989670Y-14687078D02*
X10999194Y-14706125D01*
X10999194Y-14706125D02*
X10999194Y-14810887D01*
X10999194Y-14706125D02*
X11008717Y-14687078D01*
X11008717Y-14687078D02*
X11027765Y-14677554D01*
X11027765Y-14677554D02*
X11056336Y-14677554D01*
X11056336Y-14677554D02*
X11075384Y-14687078D01*
X11075384Y-14687078D02*
X11084908Y-14706125D01*
X11084908Y-14706125D02*
X11084908Y-14810887D01*
X11475384Y-14601364D02*
X11303955Y-14858506D01*
X11732527Y-14610887D02*
X11751575Y-14610887D01*
X11751575Y-14610887D02*
X11770622Y-14620411D01*
X11770622Y-14620411D02*
X11780146Y-14629935D01*
X11780146Y-14629935D02*
X11789670Y-14648983D01*
X11789670Y-14648983D02*
X11799194Y-14687078D01*
X11799194Y-14687078D02*
X11799194Y-14734697D01*
X11799194Y-14734697D02*
X11789670Y-14772792D01*
X11789670Y-14772792D02*
X11780146Y-14791840D01*
X11780146Y-14791840D02*
X11770622Y-14801364D01*
X11770622Y-14801364D02*
X11751575Y-14810887D01*
X11751575Y-14810887D02*
X11732527Y-14810887D01*
X11732527Y-14810887D02*
X11713479Y-14801364D01*
X11713479Y-14801364D02*
X11703955Y-14791840D01*
X11703955Y-14791840D02*
X11694432Y-14772792D01*
X11694432Y-14772792D02*
X11684908Y-14734697D01*
X11684908Y-14734697D02*
X11684908Y-14687078D01*
X11684908Y-14687078D02*
X11694432Y-14648983D01*
X11694432Y-14648983D02*
X11703955Y-14629935D01*
X11703955Y-14629935D02*
X11713479Y-14620411D01*
X11713479Y-14620411D02*
X11732527Y-14610887D01*
X11884908Y-14791840D02*
X11894432Y-14801364D01*
X11894432Y-14801364D02*
X11884908Y-14810887D01*
X11884908Y-14810887D02*
X11875384Y-14801364D01*
X11875384Y-14801364D02*
X11884908Y-14791840D01*
X11884908Y-14791840D02*
X11884908Y-14810887D01*
X12018241Y-14610887D02*
X12037289Y-14610887D01*
X12037289Y-14610887D02*
X12056336Y-14620411D01*
X12056336Y-14620411D02*
X12065860Y-14629935D01*
X12065860Y-14629935D02*
X12075384Y-14648983D01*
X12075384Y-14648983D02*
X12084908Y-14687078D01*
X12084908Y-14687078D02*
X12084908Y-14734697D01*
X12084908Y-14734697D02*
X12075384Y-14772792D01*
X12075384Y-14772792D02*
X12065860Y-14791840D01*
X12065860Y-14791840D02*
X12056336Y-14801364D01*
X12056336Y-14801364D02*
X12037289Y-14810887D01*
X12037289Y-14810887D02*
X12018241Y-14810887D01*
X12018241Y-14810887D02*
X11999194Y-14801364D01*
X11999194Y-14801364D02*
X11989670Y-14791840D01*
X11989670Y-14791840D02*
X11980146Y-14772792D01*
X11980146Y-14772792D02*
X11970622Y-14734697D01*
X11970622Y-14734697D02*
X11970622Y-14687078D01*
X11970622Y-14687078D02*
X11980146Y-14648983D01*
X11980146Y-14648983D02*
X11989670Y-14629935D01*
X11989670Y-14629935D02*
X11999194Y-14620411D01*
X11999194Y-14620411D02*
X12018241Y-14610887D01*
X12256336Y-14610887D02*
X12218241Y-14610887D01*
X12218241Y-14610887D02*
X12199194Y-14620411D01*
X12199194Y-14620411D02*
X12189670Y-14629935D01*
X12189670Y-14629935D02*
X12170622Y-14658506D01*
X12170622Y-14658506D02*
X12161098Y-14696602D01*
X12161098Y-14696602D02*
X12161098Y-14772792D01*
X12161098Y-14772792D02*
X12170622Y-14791840D01*
X12170622Y-14791840D02*
X12180146Y-14801364D01*
X12180146Y-14801364D02*
X12199194Y-14810887D01*
X12199194Y-14810887D02*
X12237289Y-14810887D01*
X12237289Y-14810887D02*
X12256336Y-14801364D01*
X12256336Y-14801364D02*
X12265860Y-14791840D01*
X12265860Y-14791840D02*
X12275384Y-14772792D01*
X12275384Y-14772792D02*
X12275384Y-14725173D01*
X12275384Y-14725173D02*
X12265860Y-14706125D01*
X12265860Y-14706125D02*
X12256336Y-14696602D01*
X12256336Y-14696602D02*
X12237289Y-14687078D01*
X12237289Y-14687078D02*
X12199194Y-14687078D01*
X12199194Y-14687078D02*
X12180146Y-14696602D01*
X12180146Y-14696602D02*
X12170622Y-14706125D01*
X12170622Y-14706125D02*
X12161098Y-14725173D01*
X12446813Y-14610887D02*
X12408717Y-14610887D01*
X12408717Y-14610887D02*
X12389670Y-14620411D01*
X12389670Y-14620411D02*
X12380146Y-14629935D01*
X12380146Y-14629935D02*
X12361098Y-14658506D01*
X12361098Y-14658506D02*
X12351575Y-14696602D01*
X12351575Y-14696602D02*
X12351575Y-14772792D01*
X12351575Y-14772792D02*
X12361098Y-14791840D01*
X12361098Y-14791840D02*
X12370622Y-14801364D01*
X12370622Y-14801364D02*
X12389670Y-14810887D01*
X12389670Y-14810887D02*
X12427765Y-14810887D01*
X12427765Y-14810887D02*
X12446813Y-14801364D01*
X12446813Y-14801364D02*
X12456336Y-14791840D01*
X12456336Y-14791840D02*
X12465860Y-14772792D01*
X12465860Y-14772792D02*
X12465860Y-14725173D01*
X12465860Y-14725173D02*
X12456336Y-14706125D01*
X12456336Y-14706125D02*
X12446813Y-14696602D01*
X12446813Y-14696602D02*
X12427765Y-14687078D01*
X12427765Y-14687078D02*
X12389670Y-14687078D01*
X12389670Y-14687078D02*
X12370622Y-14696602D01*
X12370622Y-14696602D02*
X12361098Y-14706125D01*
X12361098Y-14706125D02*
X12351575Y-14725173D01*
X12561098Y-14810887D02*
X12599194Y-14810887D01*
X12599194Y-14810887D02*
X12618241Y-14801364D01*
X12618241Y-14801364D02*
X12627765Y-14791840D01*
X12627765Y-14791840D02*
X12646813Y-14763268D01*
X12646813Y-14763268D02*
X12656336Y-14725173D01*
X12656336Y-14725173D02*
X12656336Y-14648983D01*
X12656336Y-14648983D02*
X12646813Y-14629935D01*
X12646813Y-14629935D02*
X12637289Y-14620411D01*
X12637289Y-14620411D02*
X12618241Y-14610887D01*
X12618241Y-14610887D02*
X12580146Y-14610887D01*
X12580146Y-14610887D02*
X12561098Y-14620411D01*
X12561098Y-14620411D02*
X12551575Y-14629935D01*
X12551575Y-14629935D02*
X12542051Y-14648983D01*
X12542051Y-14648983D02*
X12542051Y-14696602D01*
X12542051Y-14696602D02*
X12551575Y-14715649D01*
X12551575Y-14715649D02*
X12561098Y-14725173D01*
X12561098Y-14725173D02*
X12580146Y-14734697D01*
X12580146Y-14734697D02*
X12618241Y-14734697D01*
X12618241Y-14734697D02*
X12637289Y-14725173D01*
X12637289Y-14725173D02*
X12646813Y-14715649D01*
X12646813Y-14715649D02*
X12656336Y-14696602D01*
X12732527Y-14610887D02*
X12732527Y-14648983D01*
X12808717Y-14610887D02*
X12808717Y-14648983D01*
X13103956Y-14887078D02*
X13094432Y-14877554D01*
X13094432Y-14877554D02*
X13075384Y-14848983D01*
X13075384Y-14848983D02*
X13065860Y-14829935D01*
X13065860Y-14829935D02*
X13056337Y-14801364D01*
X13056337Y-14801364D02*
X13046813Y-14753744D01*
X13046813Y-14753744D02*
X13046813Y-14715649D01*
X13046813Y-14715649D02*
X13056337Y-14668030D01*
X13056337Y-14668030D02*
X13065860Y-14639459D01*
X13065860Y-14639459D02*
X13075384Y-14620411D01*
X13075384Y-14620411D02*
X13094432Y-14591840D01*
X13094432Y-14591840D02*
X13103956Y-14582316D01*
X13284908Y-14810887D02*
X13170622Y-14810887D01*
X13227765Y-14810887D02*
X13227765Y-14610887D01*
X13227765Y-14610887D02*
X13208717Y-14639459D01*
X13208717Y-14639459D02*
X13189670Y-14658506D01*
X13189670Y-14658506D02*
X13170622Y-14668030D01*
X13456337Y-14610887D02*
X13418241Y-14610887D01*
X13418241Y-14610887D02*
X13399194Y-14620411D01*
X13399194Y-14620411D02*
X13389670Y-14629935D01*
X13389670Y-14629935D02*
X13370622Y-14658506D01*
X13370622Y-14658506D02*
X13361098Y-14696602D01*
X13361098Y-14696602D02*
X13361098Y-14772792D01*
X13361098Y-14772792D02*
X13370622Y-14791840D01*
X13370622Y-14791840D02*
X13380146Y-14801364D01*
X13380146Y-14801364D02*
X13399194Y-14810887D01*
X13399194Y-14810887D02*
X13437289Y-14810887D01*
X13437289Y-14810887D02*
X13456337Y-14801364D01*
X13456337Y-14801364D02*
X13465860Y-14791840D01*
X13465860Y-14791840D02*
X13475384Y-14772792D01*
X13475384Y-14772792D02*
X13475384Y-14725173D01*
X13475384Y-14725173D02*
X13465860Y-14706125D01*
X13465860Y-14706125D02*
X13456337Y-14696602D01*
X13456337Y-14696602D02*
X13437289Y-14687078D01*
X13437289Y-14687078D02*
X13399194Y-14687078D01*
X13399194Y-14687078D02*
X13380146Y-14696602D01*
X13380146Y-14696602D02*
X13370622Y-14706125D01*
X13370622Y-14706125D02*
X13361098Y-14725173D01*
X13713479Y-14810887D02*
X13713479Y-14610887D01*
X13799194Y-14810887D02*
X13799194Y-14706125D01*
X13799194Y-14706125D02*
X13789670Y-14687078D01*
X13789670Y-14687078D02*
X13770622Y-14677554D01*
X13770622Y-14677554D02*
X13742051Y-14677554D01*
X13742051Y-14677554D02*
X13723003Y-14687078D01*
X13723003Y-14687078D02*
X13713479Y-14696602D01*
X13923003Y-14810887D02*
X13903956Y-14801364D01*
X13903956Y-14801364D02*
X13894432Y-14791840D01*
X13894432Y-14791840D02*
X13884908Y-14772792D01*
X13884908Y-14772792D02*
X13884908Y-14715649D01*
X13884908Y-14715649D02*
X13894432Y-14696602D01*
X13894432Y-14696602D02*
X13903956Y-14687078D01*
X13903956Y-14687078D02*
X13923003Y-14677554D01*
X13923003Y-14677554D02*
X13951575Y-14677554D01*
X13951575Y-14677554D02*
X13970622Y-14687078D01*
X13970622Y-14687078D02*
X13980146Y-14696602D01*
X13980146Y-14696602D02*
X13989670Y-14715649D01*
X13989670Y-14715649D02*
X13989670Y-14772792D01*
X13989670Y-14772792D02*
X13980146Y-14791840D01*
X13980146Y-14791840D02*
X13970622Y-14801364D01*
X13970622Y-14801364D02*
X13951575Y-14810887D01*
X13951575Y-14810887D02*
X13923003Y-14810887D01*
X14103956Y-14810887D02*
X14084908Y-14801364D01*
X14084908Y-14801364D02*
X14075384Y-14782316D01*
X14075384Y-14782316D02*
X14075384Y-14610887D01*
X14256337Y-14801364D02*
X14237289Y-14810887D01*
X14237289Y-14810887D02*
X14199194Y-14810887D01*
X14199194Y-14810887D02*
X14180146Y-14801364D01*
X14180146Y-14801364D02*
X14170622Y-14782316D01*
X14170622Y-14782316D02*
X14170622Y-14706125D01*
X14170622Y-14706125D02*
X14180146Y-14687078D01*
X14180146Y-14687078D02*
X14199194Y-14677554D01*
X14199194Y-14677554D02*
X14237289Y-14677554D01*
X14237289Y-14677554D02*
X14256337Y-14687078D01*
X14256337Y-14687078D02*
X14265860Y-14706125D01*
X14265860Y-14706125D02*
X14265860Y-14725173D01*
X14265860Y-14725173D02*
X14170622Y-14744221D01*
X14342051Y-14801364D02*
X14361099Y-14810887D01*
X14361099Y-14810887D02*
X14399194Y-14810887D01*
X14399194Y-14810887D02*
X14418241Y-14801364D01*
X14418241Y-14801364D02*
X14427765Y-14782316D01*
X14427765Y-14782316D02*
X14427765Y-14772792D01*
X14427765Y-14772792D02*
X14418241Y-14753744D01*
X14418241Y-14753744D02*
X14399194Y-14744221D01*
X14399194Y-14744221D02*
X14370622Y-14744221D01*
X14370622Y-14744221D02*
X14351575Y-14734697D01*
X14351575Y-14734697D02*
X14342051Y-14715649D01*
X14342051Y-14715649D02*
X14342051Y-14706125D01*
X14342051Y-14706125D02*
X14351575Y-14687078D01*
X14351575Y-14687078D02*
X14370622Y-14677554D01*
X14370622Y-14677554D02*
X14399194Y-14677554D01*
X14399194Y-14677554D02*
X14418241Y-14687078D01*
X14494432Y-14887078D02*
X14503956Y-14877554D01*
X14503956Y-14877554D02*
X14523003Y-14848983D01*
X14523003Y-14848983D02*
X14532527Y-14829935D01*
X14532527Y-14829935D02*
X14542051Y-14801364D01*
X14542051Y-14801364D02*
X14551575Y-14753744D01*
X14551575Y-14753744D02*
X14551575Y-14715649D01*
X14551575Y-14715649D02*
X14542051Y-14668030D01*
X14542051Y-14668030D02*
X14532527Y-14639459D01*
X14532527Y-14639459D02*
X14523003Y-14620411D01*
X14523003Y-14620411D02*
X14503956Y-14591840D01*
X14503956Y-14591840D02*
X14494432Y-14582316D01*
X14856337Y-14887078D02*
X14846813Y-14877554D01*
X14846813Y-14877554D02*
X14827765Y-14848983D01*
X14827765Y-14848983D02*
X14818241Y-14829935D01*
X14818241Y-14829935D02*
X14808718Y-14801364D01*
X14808718Y-14801364D02*
X14799194Y-14753744D01*
X14799194Y-14753744D02*
X14799194Y-14715649D01*
X14799194Y-14715649D02*
X14808718Y-14668030D01*
X14808718Y-14668030D02*
X14818241Y-14639459D01*
X14818241Y-14639459D02*
X14827765Y-14620411D01*
X14827765Y-14620411D02*
X14846813Y-14591840D01*
X14846813Y-14591840D02*
X14856337Y-14582316D01*
X14932527Y-14677554D02*
X14932527Y-14810887D01*
X14932527Y-14696602D02*
X14942051Y-14687078D01*
X14942051Y-14687078D02*
X14961099Y-14677554D01*
X14961099Y-14677554D02*
X14989670Y-14677554D01*
X14989670Y-14677554D02*
X15008718Y-14687078D01*
X15008718Y-14687078D02*
X15018241Y-14706125D01*
X15018241Y-14706125D02*
X15018241Y-14810887D01*
X15142051Y-14810887D02*
X15123003Y-14801364D01*
X15123003Y-14801364D02*
X15113480Y-14791840D01*
X15113480Y-14791840D02*
X15103956Y-14772792D01*
X15103956Y-14772792D02*
X15103956Y-14715649D01*
X15103956Y-14715649D02*
X15113480Y-14696602D01*
X15113480Y-14696602D02*
X15123003Y-14687078D01*
X15123003Y-14687078D02*
X15142051Y-14677554D01*
X15142051Y-14677554D02*
X15170622Y-14677554D01*
X15170622Y-14677554D02*
X15189670Y-14687078D01*
X15189670Y-14687078D02*
X15199194Y-14696602D01*
X15199194Y-14696602D02*
X15208718Y-14715649D01*
X15208718Y-14715649D02*
X15208718Y-14772792D01*
X15208718Y-14772792D02*
X15199194Y-14791840D01*
X15199194Y-14791840D02*
X15189670Y-14801364D01*
X15189670Y-14801364D02*
X15170622Y-14810887D01*
X15170622Y-14810887D02*
X15142051Y-14810887D01*
X15265861Y-14677554D02*
X15342051Y-14677554D01*
X15294432Y-14610887D02*
X15294432Y-14782316D01*
X15294432Y-14782316D02*
X15303956Y-14801364D01*
X15303956Y-14801364D02*
X15323003Y-14810887D01*
X15323003Y-14810887D02*
X15342051Y-14810887D01*
X15561099Y-14677554D02*
X15561099Y-14877554D01*
X15561099Y-14687078D02*
X15580146Y-14677554D01*
X15580146Y-14677554D02*
X15618242Y-14677554D01*
X15618242Y-14677554D02*
X15637289Y-14687078D01*
X15637289Y-14687078D02*
X15646813Y-14696602D01*
X15646813Y-14696602D02*
X15656337Y-14715649D01*
X15656337Y-14715649D02*
X15656337Y-14772792D01*
X15656337Y-14772792D02*
X15646813Y-14791840D01*
X15646813Y-14791840D02*
X15637289Y-14801364D01*
X15637289Y-14801364D02*
X15618242Y-14810887D01*
X15618242Y-14810887D02*
X15580146Y-14810887D01*
X15580146Y-14810887D02*
X15561099Y-14801364D01*
X15770622Y-14810887D02*
X15751575Y-14801364D01*
X15751575Y-14801364D02*
X15742051Y-14782316D01*
X15742051Y-14782316D02*
X15742051Y-14610887D01*
X15932527Y-14810887D02*
X15932527Y-14706125D01*
X15932527Y-14706125D02*
X15923003Y-14687078D01*
X15923003Y-14687078D02*
X15903956Y-14677554D01*
X15903956Y-14677554D02*
X15865861Y-14677554D01*
X15865861Y-14677554D02*
X15846813Y-14687078D01*
X15932527Y-14801364D02*
X15913480Y-14810887D01*
X15913480Y-14810887D02*
X15865861Y-14810887D01*
X15865861Y-14810887D02*
X15846813Y-14801364D01*
X15846813Y-14801364D02*
X15837289Y-14782316D01*
X15837289Y-14782316D02*
X15837289Y-14763268D01*
X15837289Y-14763268D02*
X15846813Y-14744221D01*
X15846813Y-14744221D02*
X15865861Y-14734697D01*
X15865861Y-14734697D02*
X15913480Y-14734697D01*
X15913480Y-14734697D02*
X15932527Y-14725173D01*
X15999194Y-14677554D02*
X16075384Y-14677554D01*
X16027765Y-14610887D02*
X16027765Y-14782316D01*
X16027765Y-14782316D02*
X16037289Y-14801364D01*
X16037289Y-14801364D02*
X16056337Y-14810887D01*
X16056337Y-14810887D02*
X16075384Y-14810887D01*
X16218242Y-14801364D02*
X16199194Y-14810887D01*
X16199194Y-14810887D02*
X16161099Y-14810887D01*
X16161099Y-14810887D02*
X16142051Y-14801364D01*
X16142051Y-14801364D02*
X16132527Y-14782316D01*
X16132527Y-14782316D02*
X16132527Y-14706125D01*
X16132527Y-14706125D02*
X16142051Y-14687078D01*
X16142051Y-14687078D02*
X16161099Y-14677554D01*
X16161099Y-14677554D02*
X16199194Y-14677554D01*
X16199194Y-14677554D02*
X16218242Y-14687078D01*
X16218242Y-14687078D02*
X16227765Y-14706125D01*
X16227765Y-14706125D02*
X16227765Y-14725173D01*
X16227765Y-14725173D02*
X16132527Y-14744221D01*
X16399194Y-14810887D02*
X16399194Y-14610887D01*
X16399194Y-14801364D02*
X16380146Y-14810887D01*
X16380146Y-14810887D02*
X16342051Y-14810887D01*
X16342051Y-14810887D02*
X16323003Y-14801364D01*
X16323003Y-14801364D02*
X16313480Y-14791840D01*
X16313480Y-14791840D02*
X16303956Y-14772792D01*
X16303956Y-14772792D02*
X16303956Y-14715649D01*
X16303956Y-14715649D02*
X16313480Y-14696602D01*
X16313480Y-14696602D02*
X16323003Y-14687078D01*
X16323003Y-14687078D02*
X16342051Y-14677554D01*
X16342051Y-14677554D02*
X16380146Y-14677554D01*
X16380146Y-14677554D02*
X16399194Y-14687078D01*
X16475384Y-14887078D02*
X16484908Y-14877554D01*
X16484908Y-14877554D02*
X16503956Y-14848983D01*
X16503956Y-14848983D02*
X16513480Y-14829935D01*
X16513480Y-14829935D02*
X16523003Y-14801364D01*
X16523003Y-14801364D02*
X16532527Y-14753744D01*
X16532527Y-14753744D02*
X16532527Y-14715649D01*
X16532527Y-14715649D02*
X16523003Y-14668030D01*
X16523003Y-14668030D02*
X16513480Y-14639459D01*
X16513480Y-14639459D02*
X16503956Y-14620411D01*
X16503956Y-14620411D02*
X16484908Y-14591840D01*
X16484908Y-14591840D02*
X16475384Y-14582316D01*
X9528893Y-15009404D02*
G75*
G02*
X9328893Y-15009404I-100000J0D01*
G01*
X9328893Y-15009404D02*
G75*
G02*
X9528893Y-15009404I100000J0D01*
G01*
X9875384Y-14967554D02*
X9875384Y-15100887D01*
X9827765Y-14891364D02*
X9780146Y-15034221D01*
X9780146Y-15034221D02*
X9903955Y-15034221D01*
X9980146Y-15081840D02*
X9989670Y-15091364D01*
X9989670Y-15091364D02*
X9980146Y-15100887D01*
X9980146Y-15100887D02*
X9970622Y-15091364D01*
X9970622Y-15091364D02*
X9980146Y-15081840D01*
X9980146Y-15081840D02*
X9980146Y-15100887D01*
X10113479Y-14900887D02*
X10132527Y-14900887D01*
X10132527Y-14900887D02*
X10151574Y-14910411D01*
X10151574Y-14910411D02*
X10161098Y-14919935D01*
X10161098Y-14919935D02*
X10170622Y-14938983D01*
X10170622Y-14938983D02*
X10180146Y-14977078D01*
X10180146Y-14977078D02*
X10180146Y-15024697D01*
X10180146Y-15024697D02*
X10170622Y-15062792D01*
X10170622Y-15062792D02*
X10161098Y-15081840D01*
X10161098Y-15081840D02*
X10151574Y-15091364D01*
X10151574Y-15091364D02*
X10132527Y-15100887D01*
X10132527Y-15100887D02*
X10113479Y-15100887D01*
X10113479Y-15100887D02*
X10094432Y-15091364D01*
X10094432Y-15091364D02*
X10084908Y-15081840D01*
X10084908Y-15081840D02*
X10075384Y-15062792D01*
X10075384Y-15062792D02*
X10065860Y-15024697D01*
X10065860Y-15024697D02*
X10065860Y-14977078D01*
X10065860Y-14977078D02*
X10075384Y-14938983D01*
X10075384Y-14938983D02*
X10084908Y-14919935D01*
X10084908Y-14919935D02*
X10094432Y-14910411D01*
X10094432Y-14910411D02*
X10113479Y-14900887D01*
X10303955Y-14900887D02*
X10323003Y-14900887D01*
X10323003Y-14900887D02*
X10342051Y-14910411D01*
X10342051Y-14910411D02*
X10351574Y-14919935D01*
X10351574Y-14919935D02*
X10361098Y-14938983D01*
X10361098Y-14938983D02*
X10370622Y-14977078D01*
X10370622Y-14977078D02*
X10370622Y-15024697D01*
X10370622Y-15024697D02*
X10361098Y-15062792D01*
X10361098Y-15062792D02*
X10351574Y-15081840D01*
X10351574Y-15081840D02*
X10342051Y-15091364D01*
X10342051Y-15091364D02*
X10323003Y-15100887D01*
X10323003Y-15100887D02*
X10303955Y-15100887D01*
X10303955Y-15100887D02*
X10284908Y-15091364D01*
X10284908Y-15091364D02*
X10275384Y-15081840D01*
X10275384Y-15081840D02*
X10265860Y-15062792D01*
X10265860Y-15062792D02*
X10256336Y-15024697D01*
X10256336Y-15024697D02*
X10256336Y-14977078D01*
X10256336Y-14977078D02*
X10265860Y-14938983D01*
X10265860Y-14938983D02*
X10275384Y-14919935D01*
X10275384Y-14919935D02*
X10284908Y-14910411D01*
X10284908Y-14910411D02*
X10303955Y-14900887D01*
X10494432Y-14900887D02*
X10513479Y-14900887D01*
X10513479Y-14900887D02*
X10532527Y-14910411D01*
X10532527Y-14910411D02*
X10542051Y-14919935D01*
X10542051Y-14919935D02*
X10551574Y-14938983D01*
X10551574Y-14938983D02*
X10561098Y-14977078D01*
X10561098Y-14977078D02*
X10561098Y-15024697D01*
X10561098Y-15024697D02*
X10551574Y-15062792D01*
X10551574Y-15062792D02*
X10542051Y-15081840D01*
X10542051Y-15081840D02*
X10532527Y-15091364D01*
X10532527Y-15091364D02*
X10513479Y-15100887D01*
X10513479Y-15100887D02*
X10494432Y-15100887D01*
X10494432Y-15100887D02*
X10475384Y-15091364D01*
X10475384Y-15091364D02*
X10465860Y-15081840D01*
X10465860Y-15081840D02*
X10456336Y-15062792D01*
X10456336Y-15062792D02*
X10446813Y-15024697D01*
X10446813Y-15024697D02*
X10446813Y-14977078D01*
X10446813Y-14977078D02*
X10456336Y-14938983D01*
X10456336Y-14938983D02*
X10465860Y-14919935D01*
X10465860Y-14919935D02*
X10475384Y-14910411D01*
X10475384Y-14910411D02*
X10494432Y-14900887D01*
X10646813Y-15100887D02*
X10646813Y-14967554D01*
X10646813Y-14986602D02*
X10656336Y-14977078D01*
X10656336Y-14977078D02*
X10675384Y-14967554D01*
X10675384Y-14967554D02*
X10703955Y-14967554D01*
X10703955Y-14967554D02*
X10723003Y-14977078D01*
X10723003Y-14977078D02*
X10732527Y-14996125D01*
X10732527Y-14996125D02*
X10732527Y-15100887D01*
X10732527Y-14996125D02*
X10742051Y-14977078D01*
X10742051Y-14977078D02*
X10761098Y-14967554D01*
X10761098Y-14967554D02*
X10789670Y-14967554D01*
X10789670Y-14967554D02*
X10808717Y-14977078D01*
X10808717Y-14977078D02*
X10818241Y-14996125D01*
X10818241Y-14996125D02*
X10818241Y-15100887D01*
X10913479Y-15100887D02*
X10913479Y-14967554D01*
X10913479Y-14986602D02*
X10923003Y-14977078D01*
X10923003Y-14977078D02*
X10942051Y-14967554D01*
X10942051Y-14967554D02*
X10970622Y-14967554D01*
X10970622Y-14967554D02*
X10989670Y-14977078D01*
X10989670Y-14977078D02*
X10999194Y-14996125D01*
X10999194Y-14996125D02*
X10999194Y-15100887D01*
X10999194Y-14996125D02*
X11008717Y-14977078D01*
X11008717Y-14977078D02*
X11027765Y-14967554D01*
X11027765Y-14967554D02*
X11056336Y-14967554D01*
X11056336Y-14967554D02*
X11075384Y-14977078D01*
X11075384Y-14977078D02*
X11084908Y-14996125D01*
X11084908Y-14996125D02*
X11084908Y-15100887D01*
X11475384Y-14891364D02*
X11303955Y-15148506D01*
X11732527Y-14900887D02*
X11751575Y-14900887D01*
X11751575Y-14900887D02*
X11770622Y-14910411D01*
X11770622Y-14910411D02*
X11780146Y-14919935D01*
X11780146Y-14919935D02*
X11789670Y-14938983D01*
X11789670Y-14938983D02*
X11799194Y-14977078D01*
X11799194Y-14977078D02*
X11799194Y-15024697D01*
X11799194Y-15024697D02*
X11789670Y-15062792D01*
X11789670Y-15062792D02*
X11780146Y-15081840D01*
X11780146Y-15081840D02*
X11770622Y-15091364D01*
X11770622Y-15091364D02*
X11751575Y-15100887D01*
X11751575Y-15100887D02*
X11732527Y-15100887D01*
X11732527Y-15100887D02*
X11713479Y-15091364D01*
X11713479Y-15091364D02*
X11703955Y-15081840D01*
X11703955Y-15081840D02*
X11694432Y-15062792D01*
X11694432Y-15062792D02*
X11684908Y-15024697D01*
X11684908Y-15024697D02*
X11684908Y-14977078D01*
X11684908Y-14977078D02*
X11694432Y-14938983D01*
X11694432Y-14938983D02*
X11703955Y-14919935D01*
X11703955Y-14919935D02*
X11713479Y-14910411D01*
X11713479Y-14910411D02*
X11732527Y-14900887D01*
X11884908Y-15081840D02*
X11894432Y-15091364D01*
X11894432Y-15091364D02*
X11884908Y-15100887D01*
X11884908Y-15100887D02*
X11875384Y-15091364D01*
X11875384Y-15091364D02*
X11884908Y-15081840D01*
X11884908Y-15081840D02*
X11884908Y-15100887D01*
X12084908Y-15100887D02*
X11970622Y-15100887D01*
X12027765Y-15100887D02*
X12027765Y-14900887D01*
X12027765Y-14900887D02*
X12008717Y-14929459D01*
X12008717Y-14929459D02*
X11989670Y-14948506D01*
X11989670Y-14948506D02*
X11970622Y-14958030D01*
X12265860Y-14900887D02*
X12170622Y-14900887D01*
X12170622Y-14900887D02*
X12161098Y-14996125D01*
X12161098Y-14996125D02*
X12170622Y-14986602D01*
X12170622Y-14986602D02*
X12189670Y-14977078D01*
X12189670Y-14977078D02*
X12237289Y-14977078D01*
X12237289Y-14977078D02*
X12256336Y-14986602D01*
X12256336Y-14986602D02*
X12265860Y-14996125D01*
X12265860Y-14996125D02*
X12275384Y-15015173D01*
X12275384Y-15015173D02*
X12275384Y-15062792D01*
X12275384Y-15062792D02*
X12265860Y-15081840D01*
X12265860Y-15081840D02*
X12256336Y-15091364D01*
X12256336Y-15091364D02*
X12237289Y-15100887D01*
X12237289Y-15100887D02*
X12189670Y-15100887D01*
X12189670Y-15100887D02*
X12170622Y-15091364D01*
X12170622Y-15091364D02*
X12161098Y-15081840D01*
X12342051Y-14900887D02*
X12475384Y-14900887D01*
X12475384Y-14900887D02*
X12389670Y-15100887D01*
X12646813Y-14900887D02*
X12551575Y-14900887D01*
X12551575Y-14900887D02*
X12542051Y-14996125D01*
X12542051Y-14996125D02*
X12551575Y-14986602D01*
X12551575Y-14986602D02*
X12570622Y-14977078D01*
X12570622Y-14977078D02*
X12618241Y-14977078D01*
X12618241Y-14977078D02*
X12637289Y-14986602D01*
X12637289Y-14986602D02*
X12646813Y-14996125D01*
X12646813Y-14996125D02*
X12656336Y-15015173D01*
X12656336Y-15015173D02*
X12656336Y-15062792D01*
X12656336Y-15062792D02*
X12646813Y-15081840D01*
X12646813Y-15081840D02*
X12637289Y-15091364D01*
X12637289Y-15091364D02*
X12618241Y-15100887D01*
X12618241Y-15100887D02*
X12570622Y-15100887D01*
X12570622Y-15100887D02*
X12551575Y-15091364D01*
X12551575Y-15091364D02*
X12542051Y-15081840D01*
X12732527Y-14900887D02*
X12732527Y-14938983D01*
X12808717Y-14900887D02*
X12808717Y-14938983D01*
X13103956Y-15177078D02*
X13094432Y-15167554D01*
X13094432Y-15167554D02*
X13075384Y-15138983D01*
X13075384Y-15138983D02*
X13065860Y-15119935D01*
X13065860Y-15119935D02*
X13056337Y-15091364D01*
X13056337Y-15091364D02*
X13046813Y-15043744D01*
X13046813Y-15043744D02*
X13046813Y-15005649D01*
X13046813Y-15005649D02*
X13056337Y-14958030D01*
X13056337Y-14958030D02*
X13065860Y-14929459D01*
X13065860Y-14929459D02*
X13075384Y-14910411D01*
X13075384Y-14910411D02*
X13094432Y-14881840D01*
X13094432Y-14881840D02*
X13103956Y-14872316D01*
X13208717Y-14986602D02*
X13189670Y-14977078D01*
X13189670Y-14977078D02*
X13180146Y-14967554D01*
X13180146Y-14967554D02*
X13170622Y-14948506D01*
X13170622Y-14948506D02*
X13170622Y-14938983D01*
X13170622Y-14938983D02*
X13180146Y-14919935D01*
X13180146Y-14919935D02*
X13189670Y-14910411D01*
X13189670Y-14910411D02*
X13208717Y-14900887D01*
X13208717Y-14900887D02*
X13246813Y-14900887D01*
X13246813Y-14900887D02*
X13265860Y-14910411D01*
X13265860Y-14910411D02*
X13275384Y-14919935D01*
X13275384Y-14919935D02*
X13284908Y-14938983D01*
X13284908Y-14938983D02*
X13284908Y-14948506D01*
X13284908Y-14948506D02*
X13275384Y-14967554D01*
X13275384Y-14967554D02*
X13265860Y-14977078D01*
X13265860Y-14977078D02*
X13246813Y-14986602D01*
X13246813Y-14986602D02*
X13208717Y-14986602D01*
X13208717Y-14986602D02*
X13189670Y-14996125D01*
X13189670Y-14996125D02*
X13180146Y-15005649D01*
X13180146Y-15005649D02*
X13170622Y-15024697D01*
X13170622Y-15024697D02*
X13170622Y-15062792D01*
X13170622Y-15062792D02*
X13180146Y-15081840D01*
X13180146Y-15081840D02*
X13189670Y-15091364D01*
X13189670Y-15091364D02*
X13208717Y-15100887D01*
X13208717Y-15100887D02*
X13246813Y-15100887D01*
X13246813Y-15100887D02*
X13265860Y-15091364D01*
X13265860Y-15091364D02*
X13275384Y-15081840D01*
X13275384Y-15081840D02*
X13284908Y-15062792D01*
X13284908Y-15062792D02*
X13284908Y-15024697D01*
X13284908Y-15024697D02*
X13275384Y-15005649D01*
X13275384Y-15005649D02*
X13265860Y-14996125D01*
X13265860Y-14996125D02*
X13246813Y-14986602D01*
X13523003Y-15100887D02*
X13523003Y-14900887D01*
X13608718Y-15100887D02*
X13608718Y-14996125D01*
X13608718Y-14996125D02*
X13599194Y-14977078D01*
X13599194Y-14977078D02*
X13580146Y-14967554D01*
X13580146Y-14967554D02*
X13551575Y-14967554D01*
X13551575Y-14967554D02*
X13532527Y-14977078D01*
X13532527Y-14977078D02*
X13523003Y-14986602D01*
X13732527Y-15100887D02*
X13713479Y-15091364D01*
X13713479Y-15091364D02*
X13703956Y-15081840D01*
X13703956Y-15081840D02*
X13694432Y-15062792D01*
X13694432Y-15062792D02*
X13694432Y-15005649D01*
X13694432Y-15005649D02*
X13703956Y-14986602D01*
X13703956Y-14986602D02*
X13713479Y-14977078D01*
X13713479Y-14977078D02*
X13732527Y-14967554D01*
X13732527Y-14967554D02*
X13761099Y-14967554D01*
X13761099Y-14967554D02*
X13780146Y-14977078D01*
X13780146Y-14977078D02*
X13789670Y-14986602D01*
X13789670Y-14986602D02*
X13799194Y-15005649D01*
X13799194Y-15005649D02*
X13799194Y-15062792D01*
X13799194Y-15062792D02*
X13789670Y-15081840D01*
X13789670Y-15081840D02*
X13780146Y-15091364D01*
X13780146Y-15091364D02*
X13761099Y-15100887D01*
X13761099Y-15100887D02*
X13732527Y-15100887D01*
X13913479Y-15100887D02*
X13894432Y-15091364D01*
X13894432Y-15091364D02*
X13884908Y-15072316D01*
X13884908Y-15072316D02*
X13884908Y-14900887D01*
X14065860Y-15091364D02*
X14046813Y-15100887D01*
X14046813Y-15100887D02*
X14008718Y-15100887D01*
X14008718Y-15100887D02*
X13989670Y-15091364D01*
X13989670Y-15091364D02*
X13980146Y-15072316D01*
X13980146Y-15072316D02*
X13980146Y-14996125D01*
X13980146Y-14996125D02*
X13989670Y-14977078D01*
X13989670Y-14977078D02*
X14008718Y-14967554D01*
X14008718Y-14967554D02*
X14046813Y-14967554D01*
X14046813Y-14967554D02*
X14065860Y-14977078D01*
X14065860Y-14977078D02*
X14075384Y-14996125D01*
X14075384Y-14996125D02*
X14075384Y-15015173D01*
X14075384Y-15015173D02*
X13980146Y-15034221D01*
X14151575Y-15091364D02*
X14170622Y-15100887D01*
X14170622Y-15100887D02*
X14208718Y-15100887D01*
X14208718Y-15100887D02*
X14227765Y-15091364D01*
X14227765Y-15091364D02*
X14237289Y-15072316D01*
X14237289Y-15072316D02*
X14237289Y-15062792D01*
X14237289Y-15062792D02*
X14227765Y-15043744D01*
X14227765Y-15043744D02*
X14208718Y-15034221D01*
X14208718Y-15034221D02*
X14180146Y-15034221D01*
X14180146Y-15034221D02*
X14161099Y-15024697D01*
X14161099Y-15024697D02*
X14151575Y-15005649D01*
X14151575Y-15005649D02*
X14151575Y-14996125D01*
X14151575Y-14996125D02*
X14161099Y-14977078D01*
X14161099Y-14977078D02*
X14180146Y-14967554D01*
X14180146Y-14967554D02*
X14208718Y-14967554D01*
X14208718Y-14967554D02*
X14227765Y-14977078D01*
X14303956Y-15177078D02*
X14313480Y-15167554D01*
X14313480Y-15167554D02*
X14332527Y-15138983D01*
X14332527Y-15138983D02*
X14342051Y-15119935D01*
X14342051Y-15119935D02*
X14351575Y-15091364D01*
X14351575Y-15091364D02*
X14361099Y-15043744D01*
X14361099Y-15043744D02*
X14361099Y-15005649D01*
X14361099Y-15005649D02*
X14351575Y-14958030D01*
X14351575Y-14958030D02*
X14342051Y-14929459D01*
X14342051Y-14929459D02*
X14332527Y-14910411D01*
X14332527Y-14910411D02*
X14313480Y-14881840D01*
X14313480Y-14881840D02*
X14303956Y-14872316D01*
X14665861Y-15177078D02*
X14656337Y-15167554D01*
X14656337Y-15167554D02*
X14637289Y-15138983D01*
X14637289Y-15138983D02*
X14627765Y-15119935D01*
X14627765Y-15119935D02*
X14618241Y-15091364D01*
X14618241Y-15091364D02*
X14608718Y-15043744D01*
X14608718Y-15043744D02*
X14608718Y-15005649D01*
X14608718Y-15005649D02*
X14618241Y-14958030D01*
X14618241Y-14958030D02*
X14627765Y-14929459D01*
X14627765Y-14929459D02*
X14637289Y-14910411D01*
X14637289Y-14910411D02*
X14656337Y-14881840D01*
X14656337Y-14881840D02*
X14665861Y-14872316D01*
X14742051Y-14967554D02*
X14742051Y-15100887D01*
X14742051Y-14986602D02*
X14751575Y-14977078D01*
X14751575Y-14977078D02*
X14770622Y-14967554D01*
X14770622Y-14967554D02*
X14799194Y-14967554D01*
X14799194Y-14967554D02*
X14818241Y-14977078D01*
X14818241Y-14977078D02*
X14827765Y-14996125D01*
X14827765Y-14996125D02*
X14827765Y-15100887D01*
X14951575Y-15100887D02*
X14932527Y-15091364D01*
X14932527Y-15091364D02*
X14923003Y-15081840D01*
X14923003Y-15081840D02*
X14913480Y-15062792D01*
X14913480Y-15062792D02*
X14913480Y-15005649D01*
X14913480Y-15005649D02*
X14923003Y-14986602D01*
X14923003Y-14986602D02*
X14932527Y-14977078D01*
X14932527Y-14977078D02*
X14951575Y-14967554D01*
X14951575Y-14967554D02*
X14980146Y-14967554D01*
X14980146Y-14967554D02*
X14999194Y-14977078D01*
X14999194Y-14977078D02*
X15008718Y-14986602D01*
X15008718Y-14986602D02*
X15018241Y-15005649D01*
X15018241Y-15005649D02*
X15018241Y-15062792D01*
X15018241Y-15062792D02*
X15008718Y-15081840D01*
X15008718Y-15081840D02*
X14999194Y-15091364D01*
X14999194Y-15091364D02*
X14980146Y-15100887D01*
X14980146Y-15100887D02*
X14951575Y-15100887D01*
X15075384Y-14967554D02*
X15151575Y-14967554D01*
X15103956Y-14900887D02*
X15103956Y-15072316D01*
X15103956Y-15072316D02*
X15113480Y-15091364D01*
X15113480Y-15091364D02*
X15132527Y-15100887D01*
X15132527Y-15100887D02*
X15151575Y-15100887D01*
X15370622Y-14967554D02*
X15370622Y-15167554D01*
X15370622Y-14977078D02*
X15389670Y-14967554D01*
X15389670Y-14967554D02*
X15427765Y-14967554D01*
X15427765Y-14967554D02*
X15446813Y-14977078D01*
X15446813Y-14977078D02*
X15456337Y-14986602D01*
X15456337Y-14986602D02*
X15465861Y-15005649D01*
X15465861Y-15005649D02*
X15465861Y-15062792D01*
X15465861Y-15062792D02*
X15456337Y-15081840D01*
X15456337Y-15081840D02*
X15446813Y-15091364D01*
X15446813Y-15091364D02*
X15427765Y-15100887D01*
X15427765Y-15100887D02*
X15389670Y-15100887D01*
X15389670Y-15100887D02*
X15370622Y-15091364D01*
X15580146Y-15100887D02*
X15561099Y-15091364D01*
X15561099Y-15091364D02*
X15551575Y-15072316D01*
X15551575Y-15072316D02*
X15551575Y-14900887D01*
X15742051Y-15100887D02*
X15742051Y-14996125D01*
X15742051Y-14996125D02*
X15732527Y-14977078D01*
X15732527Y-14977078D02*
X15713480Y-14967554D01*
X15713480Y-14967554D02*
X15675384Y-14967554D01*
X15675384Y-14967554D02*
X15656337Y-14977078D01*
X15742051Y-15091364D02*
X15723003Y-15100887D01*
X15723003Y-15100887D02*
X15675384Y-15100887D01*
X15675384Y-15100887D02*
X15656337Y-15091364D01*
X15656337Y-15091364D02*
X15646813Y-15072316D01*
X15646813Y-15072316D02*
X15646813Y-15053268D01*
X15646813Y-15053268D02*
X15656337Y-15034221D01*
X15656337Y-15034221D02*
X15675384Y-15024697D01*
X15675384Y-15024697D02*
X15723003Y-15024697D01*
X15723003Y-15024697D02*
X15742051Y-15015173D01*
X15808718Y-14967554D02*
X15884908Y-14967554D01*
X15837289Y-14900887D02*
X15837289Y-15072316D01*
X15837289Y-15072316D02*
X15846813Y-15091364D01*
X15846813Y-15091364D02*
X15865861Y-15100887D01*
X15865861Y-15100887D02*
X15884908Y-15100887D01*
X16027765Y-15091364D02*
X16008718Y-15100887D01*
X16008718Y-15100887D02*
X15970622Y-15100887D01*
X15970622Y-15100887D02*
X15951575Y-15091364D01*
X15951575Y-15091364D02*
X15942051Y-15072316D01*
X15942051Y-15072316D02*
X15942051Y-14996125D01*
X15942051Y-14996125D02*
X15951575Y-14977078D01*
X15951575Y-14977078D02*
X15970622Y-14967554D01*
X15970622Y-14967554D02*
X16008718Y-14967554D01*
X16008718Y-14967554D02*
X16027765Y-14977078D01*
X16027765Y-14977078D02*
X16037289Y-14996125D01*
X16037289Y-14996125D02*
X16037289Y-15015173D01*
X16037289Y-15015173D02*
X15942051Y-15034221D01*
X16208718Y-15100887D02*
X16208718Y-14900887D01*
X16208718Y-15091364D02*
X16189670Y-15100887D01*
X16189670Y-15100887D02*
X16151575Y-15100887D01*
X16151575Y-15100887D02*
X16132527Y-15091364D01*
X16132527Y-15091364D02*
X16123003Y-15081840D01*
X16123003Y-15081840D02*
X16113480Y-15062792D01*
X16113480Y-15062792D02*
X16113480Y-15005649D01*
X16113480Y-15005649D02*
X16123003Y-14986602D01*
X16123003Y-14986602D02*
X16132527Y-14977078D01*
X16132527Y-14977078D02*
X16151575Y-14967554D01*
X16151575Y-14967554D02*
X16189670Y-14967554D01*
X16189670Y-14967554D02*
X16208718Y-14977078D01*
X16284908Y-15177078D02*
X16294432Y-15167554D01*
X16294432Y-15167554D02*
X16313480Y-15138983D01*
X16313480Y-15138983D02*
X16323003Y-15119935D01*
X16323003Y-15119935D02*
X16332527Y-15091364D01*
X16332527Y-15091364D02*
X16342051Y-15043744D01*
X16342051Y-15043744D02*
X16342051Y-15005649D01*
X16342051Y-15005649D02*
X16332527Y-14958030D01*
X16332527Y-14958030D02*
X16323003Y-14929459D01*
X16323003Y-14929459D02*
X16313480Y-14910411D01*
X16313480Y-14910411D02*
X16294432Y-14881840D01*
X16294432Y-14881840D02*
X16284908Y-14872316D01*
M02*
