M48
; DRILL file {KiCad 9.0.4} date 2025-09-20T14:29:12-0700
; FORMAT={-:-/ absolute / metric / decimal}
; #@! TF.CreationDate,2025-09-20T14:29:12-07:00
; #@! TF.GenerationSoftware,Kicad,Pcbnew,9.0.4
; #@! TF.FileFunction,Plated,1,2,PTH
FMAT,2
METRIC
; #@! TA.AperFunction,Plated,PTH,ComponentDrill
T1C0.800
; #@! TA.AperFunction,Plated,PTH,ComponentDrill
T2C0.900
; #@! TA.AperFunction,Plated,PTH,ComponentDrill
T3C1.040
; #@! TA.AperFunction,Plated,PTH,ComponentDrill
T4C1.500
; #@! TA.AperFunction,Plated,PTH,ComponentDrill
T5C3.200
%
G90
G05
T1
X139.17Y-137.25
X149.33Y-137.25
X166.92Y-137.25
X177.08Y-137.25
T2
X128.73Y-137.25
X131.27Y-137.25
X158.98Y-137.25
X161.52Y-137.25
T3
X185.0Y-89.96
X185.0Y-92.5
X185.0Y-95.04
X185.0Y-97.58
X185.0Y-100.12
X185.0Y-102.66
X185.0Y-105.2
X185.0Y-107.74
X185.0Y-110.28
X185.0Y-112.82
X185.0Y-115.36
X185.0Y-117.9
X185.0Y-120.44
X185.0Y-122.98
X185.0Y-125.52
X185.0Y-128.06
X185.0Y-130.6
X185.0Y-133.14
X185.0Y-135.68
X185.0Y-138.22
X202.75Y-89.95
X202.75Y-92.49
X202.75Y-95.03
X202.75Y-97.57
X202.75Y-100.11
X202.75Y-102.65
X202.75Y-105.19
X202.75Y-107.73
X202.75Y-110.27
X202.75Y-112.81
X202.75Y-115.35
X202.75Y-117.89
X202.75Y-120.43
X202.75Y-122.97
X202.75Y-125.51
X202.75Y-128.05
X202.75Y-130.59
X202.75Y-133.13
X202.75Y-135.67
X202.75Y-138.21
T4
X107.97Y-121.74
X108.03Y-102.36
X114.32Y-119.2
X114.38Y-99.82
X127.15Y-121.74
X127.17Y-102.36
X133.5Y-119.2
X133.52Y-99.82
X146.15Y-121.74
X146.21Y-102.36
X152.5Y-119.2
X152.56Y-99.82
X165.17Y-121.74
X165.27Y-102.36
X171.52Y-119.2
X171.62Y-99.82
T5
X100.0Y-92.0
X100.0Y-136.0
X195.0Y-92.0
X195.0Y-136.0
M30
