G04 #@! TF.GenerationSoftware,KiCad,Pcbnew,9.0.4*
G04 #@! TF.CreationDate,2025-09-21T00:28:26-07:00*
G04 #@! TF.ProjectId,Macro_Pad,4d616372-6f5f-4506-9164-2e6b69636164,rev?*
G04 #@! TF.SameCoordinates,Original*
G04 #@! TF.FileFunction,Soldermask,Bot*
G04 #@! TF.FilePolarity,Negative*
%FSLAX46Y46*%
G04 Gerber Fmt 4.6, Leading zero omitted, Abs format (unit mm)*
G04 Created by KiCad (PCBNEW 9.0.4) date 2025-09-21 00:28:26*
%MOMM*%
%LPD*%
G01*
G04 APERTURE LIST*
G04 Aperture macros list*
%AMRoundRect*
0 Rectangle with rounded corners*
0 $1 Rounding radius*
0 $2 $3 $4 $5 $6 $7 $8 $9 X,Y pos of 4 corners*
0 Add a 4 corners polygon primitive as box body*
4,1,4,$2,$3,$4,$5,$6,$7,$8,$9,$2,$3,0*
0 Add four circle primitives for the rounded corners*
1,1,$1+$1,$2,$3*
1,1,$1+$1,$4,$5*
1,1,$1+$1,$6,$7*
1,1,$1+$1,$8,$9*
0 Add four rect primitives between the rounded corners*
20,1,$1+$1,$2,$3,$4,$5,0*
20,1,$1+$1,$4,$5,$6,$7,0*
20,1,$1+$1,$6,$7,$8,$9,0*
20,1,$1+$1,$8,$9,$2,$3,0*%
G04 Aperture macros list end*
%ADD10C,2.200000*%
%ADD11RoundRect,0.102000X-0.695000X0.695000X-0.695000X-0.695000X0.695000X-0.695000X0.695000X0.695000X0*%
%ADD12C,1.594000*%
%ADD13C,1.600000*%
%ADD14RoundRect,0.102000X0.695000X-0.695000X0.695000X0.695000X-0.695000X0.695000X-0.695000X-0.695000X0*%
%ADD15C,1.700000*%
%ADD16C,4.000000*%
%ADD17R,1.800000X1.800000*%
%ADD18C,1.800000*%
G04 APERTURE END LIST*
D10*
X194000000Y-114250000D03*
X145000000Y-114500000D03*
X194000000Y-91000000D03*
X194000000Y-136000000D03*
X112000000Y-136000000D03*
X112000000Y-91000000D03*
D11*
X185000000Y-89960000D03*
D12*
X185000000Y-92500000D03*
X185000000Y-95040000D03*
X185000000Y-97580000D03*
X185000000Y-100120000D03*
X185000000Y-102660000D03*
X185000000Y-105200000D03*
X185000000Y-107740000D03*
X185000000Y-110280000D03*
X185000000Y-112820000D03*
X185000000Y-115360000D03*
X185000000Y-117900000D03*
X185000000Y-120440000D03*
X185000000Y-122980000D03*
X185000000Y-125520000D03*
X185000000Y-128060000D03*
X185000000Y-130600000D03*
X185000000Y-133140000D03*
X185000000Y-135680000D03*
X185000000Y-138220000D03*
D13*
X177080000Y-137250000D03*
X166920000Y-137250000D03*
D14*
X202750000Y-138210000D03*
D12*
X202750000Y-135670000D03*
X202750000Y-133130000D03*
X202750000Y-130590000D03*
X202750000Y-128050000D03*
X202750000Y-125510000D03*
X202750000Y-122970000D03*
X202750000Y-120430000D03*
X202750000Y-117890000D03*
X202750000Y-115350000D03*
X202750000Y-112810000D03*
X202750000Y-110270000D03*
X202750000Y-107730000D03*
X202750000Y-105190000D03*
X202750000Y-102650000D03*
X202750000Y-100110000D03*
X202750000Y-97570000D03*
X202750000Y-95030000D03*
X202750000Y-92490000D03*
X202750000Y-89950000D03*
D15*
X149360000Y-124280000D03*
D16*
X154440000Y-124280000D03*
D15*
X159520000Y-124280000D03*
D10*
X156980000Y-119200000D03*
X150630000Y-121740000D03*
D13*
X149330000Y-137250000D03*
X139170000Y-137250000D03*
D15*
X111180000Y-124280000D03*
D16*
X116260000Y-124280000D03*
D15*
X121340000Y-124280000D03*
D10*
X118800000Y-119200000D03*
X112450000Y-121740000D03*
D17*
X128730000Y-137250000D03*
D18*
X131270000Y-137250000D03*
D15*
X168480000Y-104900000D03*
D16*
X173560000Y-104900000D03*
D15*
X178640000Y-104900000D03*
D10*
X176100000Y-99820000D03*
X169750000Y-102360000D03*
D15*
X111240000Y-104900000D03*
D16*
X116320000Y-104900000D03*
D15*
X121400000Y-104900000D03*
D10*
X118860000Y-99820000D03*
X112510000Y-102360000D03*
D15*
X130380000Y-104900000D03*
D16*
X135460000Y-104900000D03*
D15*
X140540000Y-104900000D03*
D10*
X138000000Y-99820000D03*
X131650000Y-102360000D03*
D17*
X158980000Y-137250000D03*
D18*
X161520000Y-137250000D03*
D15*
X130360000Y-124280000D03*
D16*
X135440000Y-124280000D03*
D15*
X140520000Y-124280000D03*
D10*
X137980000Y-119200000D03*
X131630000Y-121740000D03*
D15*
X149420000Y-104900000D03*
D16*
X154500000Y-104900000D03*
D15*
X159580000Y-104900000D03*
D10*
X157040000Y-99820000D03*
X150690000Y-102360000D03*
D15*
X168380000Y-124280000D03*
D16*
X173460000Y-124280000D03*
D15*
X178540000Y-124280000D03*
D10*
X176000000Y-119200000D03*
X169650000Y-121740000D03*
M02*
