G04 #@! TF.GenerationSoftware,KiCad,Pcbnew,9.0.4*
G04 #@! TF.CreationDate,2025-09-21T01:01:28-07:00*
G04 #@! TF.ProjectId,Macro_Pad,4d616372-6f5f-4506-9164-2e6b69636164,rev?*
G04 #@! TF.SameCoordinates,Original*
G04 #@! TF.FileFunction,Legend,Top*
G04 #@! TF.FilePolarity,Positive*
%FSLAX46Y46*%
G04 Gerber Fmt 4.6, Leading zero omitted, Abs format (unit mm)*
G04 Created by KiCad (PCBNEW 9.0.4) date 2025-09-21 01:01:28*
%MOMM*%
%LPD*%
G01*
G04 APERTURE LIST*
G04 Aperture macros list*
%AMRoundRect*
0 Rectangle with rounded corners*
0 $1 Rounding radius*
0 $2 $3 $4 $5 $6 $7 $8 $9 X,Y pos of 4 corners*
0 Add a 4 corners polygon primitive as box body*
4,1,4,$2,$3,$4,$5,$6,$7,$8,$9,$2,$3,0*
0 Add four circle primitives for the rounded corners*
1,1,$1+$1,$2,$3*
1,1,$1+$1,$4,$5*
1,1,$1+$1,$6,$7*
1,1,$1+$1,$8,$9*
0 Add four rect primitives between the rounded corners*
20,1,$1+$1,$2,$3,$4,$5,0*
20,1,$1+$1,$4,$5,$6,$7,0*
20,1,$1+$1,$6,$7,$8,$9,0*
20,1,$1+$1,$8,$9,$2,$3,0*%
G04 Aperture macros list end*
%ADD10C,0.100000*%
%ADD11C,0.150000*%
%ADD12C,0.200000*%
%ADD13C,0.120000*%
%ADD14C,2.200000*%
%ADD15RoundRect,0.102000X-0.695000X0.695000X-0.695000X-0.695000X0.695000X-0.695000X0.695000X0.695000X0*%
%ADD16C,1.594000*%
%ADD17C,1.600000*%
%ADD18RoundRect,0.102000X0.695000X-0.695000X0.695000X0.695000X-0.695000X0.695000X-0.695000X-0.695000X0*%
%ADD19C,1.700000*%
%ADD20C,4.000000*%
%ADD21R,1.800000X1.800000*%
%ADD22C,1.800000*%
G04 APERTURE END LIST*
D10*
X187327693Y-124920038D02*
X187232455Y-124872419D01*
X187232455Y-124872419D02*
X187089598Y-124872419D01*
X187089598Y-124872419D02*
X186946741Y-124920038D01*
X186946741Y-124920038D02*
X186851503Y-125015276D01*
X186851503Y-125015276D02*
X186803884Y-125110514D01*
X186803884Y-125110514D02*
X186756265Y-125300990D01*
X186756265Y-125300990D02*
X186756265Y-125443847D01*
X186756265Y-125443847D02*
X186803884Y-125634323D01*
X186803884Y-125634323D02*
X186851503Y-125729561D01*
X186851503Y-125729561D02*
X186946741Y-125824800D01*
X186946741Y-125824800D02*
X187089598Y-125872419D01*
X187089598Y-125872419D02*
X187184836Y-125872419D01*
X187184836Y-125872419D02*
X187327693Y-125824800D01*
X187327693Y-125824800D02*
X187375312Y-125777180D01*
X187375312Y-125777180D02*
X187375312Y-125443847D01*
X187375312Y-125443847D02*
X187184836Y-125443847D01*
X187803884Y-125872419D02*
X187803884Y-124872419D01*
X187803884Y-124872419D02*
X188184836Y-124872419D01*
X188184836Y-124872419D02*
X188280074Y-124920038D01*
X188280074Y-124920038D02*
X188327693Y-124967657D01*
X188327693Y-124967657D02*
X188375312Y-125062895D01*
X188375312Y-125062895D02*
X188375312Y-125205752D01*
X188375312Y-125205752D02*
X188327693Y-125300990D01*
X188327693Y-125300990D02*
X188280074Y-125348609D01*
X188280074Y-125348609D02*
X188184836Y-125396228D01*
X188184836Y-125396228D02*
X187803884Y-125396228D01*
X189327693Y-125872419D02*
X188756265Y-125872419D01*
X189041979Y-125872419D02*
X189041979Y-124872419D01*
X189041979Y-124872419D02*
X188946741Y-125015276D01*
X188946741Y-125015276D02*
X188851503Y-125110514D01*
X188851503Y-125110514D02*
X188756265Y-125158133D01*
X190280074Y-125872419D02*
X189708646Y-125872419D01*
X189994360Y-125872419D02*
X189994360Y-124872419D01*
X189994360Y-124872419D02*
X189899122Y-125015276D01*
X189899122Y-125015276D02*
X189803884Y-125110514D01*
X189803884Y-125110514D02*
X189708646Y-125158133D01*
X187327693Y-117420038D02*
X187232455Y-117372419D01*
X187232455Y-117372419D02*
X187089598Y-117372419D01*
X187089598Y-117372419D02*
X186946741Y-117420038D01*
X186946741Y-117420038D02*
X186851503Y-117515276D01*
X186851503Y-117515276D02*
X186803884Y-117610514D01*
X186803884Y-117610514D02*
X186756265Y-117800990D01*
X186756265Y-117800990D02*
X186756265Y-117943847D01*
X186756265Y-117943847D02*
X186803884Y-118134323D01*
X186803884Y-118134323D02*
X186851503Y-118229561D01*
X186851503Y-118229561D02*
X186946741Y-118324800D01*
X186946741Y-118324800D02*
X187089598Y-118372419D01*
X187089598Y-118372419D02*
X187184836Y-118372419D01*
X187184836Y-118372419D02*
X187327693Y-118324800D01*
X187327693Y-118324800D02*
X187375312Y-118277180D01*
X187375312Y-118277180D02*
X187375312Y-117943847D01*
X187375312Y-117943847D02*
X187184836Y-117943847D01*
X187803884Y-118372419D02*
X187803884Y-117372419D01*
X187803884Y-117372419D02*
X188184836Y-117372419D01*
X188184836Y-117372419D02*
X188280074Y-117420038D01*
X188280074Y-117420038D02*
X188327693Y-117467657D01*
X188327693Y-117467657D02*
X188375312Y-117562895D01*
X188375312Y-117562895D02*
X188375312Y-117705752D01*
X188375312Y-117705752D02*
X188327693Y-117800990D01*
X188327693Y-117800990D02*
X188280074Y-117848609D01*
X188280074Y-117848609D02*
X188184836Y-117896228D01*
X188184836Y-117896228D02*
X187803884Y-117896228D01*
X188851503Y-118372419D02*
X189041979Y-118372419D01*
X189041979Y-118372419D02*
X189137217Y-118324800D01*
X189137217Y-118324800D02*
X189184836Y-118277180D01*
X189184836Y-118277180D02*
X189280074Y-118134323D01*
X189280074Y-118134323D02*
X189327693Y-117943847D01*
X189327693Y-117943847D02*
X189327693Y-117562895D01*
X189327693Y-117562895D02*
X189280074Y-117467657D01*
X189280074Y-117467657D02*
X189232455Y-117420038D01*
X189232455Y-117420038D02*
X189137217Y-117372419D01*
X189137217Y-117372419D02*
X188946741Y-117372419D01*
X188946741Y-117372419D02*
X188851503Y-117420038D01*
X188851503Y-117420038D02*
X188803884Y-117467657D01*
X188803884Y-117467657D02*
X188756265Y-117562895D01*
X188756265Y-117562895D02*
X188756265Y-117800990D01*
X188756265Y-117800990D02*
X188803884Y-117896228D01*
X188803884Y-117896228D02*
X188851503Y-117943847D01*
X188851503Y-117943847D02*
X188946741Y-117991466D01*
X188946741Y-117991466D02*
X189137217Y-117991466D01*
X189137217Y-117991466D02*
X189232455Y-117943847D01*
X189232455Y-117943847D02*
X189280074Y-117896228D01*
X189280074Y-117896228D02*
X189327693Y-117800990D01*
X198827693Y-119920038D02*
X198732455Y-119872419D01*
X198732455Y-119872419D02*
X198589598Y-119872419D01*
X198589598Y-119872419D02*
X198446741Y-119920038D01*
X198446741Y-119920038D02*
X198351503Y-120015276D01*
X198351503Y-120015276D02*
X198303884Y-120110514D01*
X198303884Y-120110514D02*
X198256265Y-120300990D01*
X198256265Y-120300990D02*
X198256265Y-120443847D01*
X198256265Y-120443847D02*
X198303884Y-120634323D01*
X198303884Y-120634323D02*
X198351503Y-120729561D01*
X198351503Y-120729561D02*
X198446741Y-120824800D01*
X198446741Y-120824800D02*
X198589598Y-120872419D01*
X198589598Y-120872419D02*
X198684836Y-120872419D01*
X198684836Y-120872419D02*
X198827693Y-120824800D01*
X198827693Y-120824800D02*
X198875312Y-120777180D01*
X198875312Y-120777180D02*
X198875312Y-120443847D01*
X198875312Y-120443847D02*
X198684836Y-120443847D01*
X199303884Y-120872419D02*
X199303884Y-119872419D01*
X199303884Y-119872419D02*
X199875312Y-120872419D01*
X199875312Y-120872419D02*
X199875312Y-119872419D01*
X200351503Y-120872419D02*
X200351503Y-119872419D01*
X200351503Y-119872419D02*
X200589598Y-119872419D01*
X200589598Y-119872419D02*
X200732455Y-119920038D01*
X200732455Y-119920038D02*
X200827693Y-120015276D01*
X200827693Y-120015276D02*
X200875312Y-120110514D01*
X200875312Y-120110514D02*
X200922931Y-120300990D01*
X200922931Y-120300990D02*
X200922931Y-120443847D01*
X200922931Y-120443847D02*
X200875312Y-120634323D01*
X200875312Y-120634323D02*
X200827693Y-120729561D01*
X200827693Y-120729561D02*
X200732455Y-120824800D01*
X200732455Y-120824800D02*
X200589598Y-120872419D01*
X200589598Y-120872419D02*
X200351503Y-120872419D01*
X187327693Y-104670038D02*
X187232455Y-104622419D01*
X187232455Y-104622419D02*
X187089598Y-104622419D01*
X187089598Y-104622419D02*
X186946741Y-104670038D01*
X186946741Y-104670038D02*
X186851503Y-104765276D01*
X186851503Y-104765276D02*
X186803884Y-104860514D01*
X186803884Y-104860514D02*
X186756265Y-105050990D01*
X186756265Y-105050990D02*
X186756265Y-105193847D01*
X186756265Y-105193847D02*
X186803884Y-105384323D01*
X186803884Y-105384323D02*
X186851503Y-105479561D01*
X186851503Y-105479561D02*
X186946741Y-105574800D01*
X186946741Y-105574800D02*
X187089598Y-105622419D01*
X187089598Y-105622419D02*
X187184836Y-105622419D01*
X187184836Y-105622419D02*
X187327693Y-105574800D01*
X187327693Y-105574800D02*
X187375312Y-105527180D01*
X187375312Y-105527180D02*
X187375312Y-105193847D01*
X187375312Y-105193847D02*
X187184836Y-105193847D01*
X187803884Y-105622419D02*
X187803884Y-104622419D01*
X187803884Y-104622419D02*
X188184836Y-104622419D01*
X188184836Y-104622419D02*
X188280074Y-104670038D01*
X188280074Y-104670038D02*
X188327693Y-104717657D01*
X188327693Y-104717657D02*
X188375312Y-104812895D01*
X188375312Y-104812895D02*
X188375312Y-104955752D01*
X188375312Y-104955752D02*
X188327693Y-105050990D01*
X188327693Y-105050990D02*
X188280074Y-105098609D01*
X188280074Y-105098609D02*
X188184836Y-105146228D01*
X188184836Y-105146228D02*
X187803884Y-105146228D01*
X189280074Y-104622419D02*
X188803884Y-104622419D01*
X188803884Y-104622419D02*
X188756265Y-105098609D01*
X188756265Y-105098609D02*
X188803884Y-105050990D01*
X188803884Y-105050990D02*
X188899122Y-105003371D01*
X188899122Y-105003371D02*
X189137217Y-105003371D01*
X189137217Y-105003371D02*
X189232455Y-105050990D01*
X189232455Y-105050990D02*
X189280074Y-105098609D01*
X189280074Y-105098609D02*
X189327693Y-105193847D01*
X189327693Y-105193847D02*
X189327693Y-105431942D01*
X189327693Y-105431942D02*
X189280074Y-105527180D01*
X189280074Y-105527180D02*
X189232455Y-105574800D01*
X189232455Y-105574800D02*
X189137217Y-105622419D01*
X189137217Y-105622419D02*
X188899122Y-105622419D01*
X188899122Y-105622419D02*
X188803884Y-105574800D01*
X188803884Y-105574800D02*
X188756265Y-105527180D01*
X187327693Y-91920038D02*
X187232455Y-91872419D01*
X187232455Y-91872419D02*
X187089598Y-91872419D01*
X187089598Y-91872419D02*
X186946741Y-91920038D01*
X186946741Y-91920038D02*
X186851503Y-92015276D01*
X186851503Y-92015276D02*
X186803884Y-92110514D01*
X186803884Y-92110514D02*
X186756265Y-92300990D01*
X186756265Y-92300990D02*
X186756265Y-92443847D01*
X186756265Y-92443847D02*
X186803884Y-92634323D01*
X186803884Y-92634323D02*
X186851503Y-92729561D01*
X186851503Y-92729561D02*
X186946741Y-92824800D01*
X186946741Y-92824800D02*
X187089598Y-92872419D01*
X187089598Y-92872419D02*
X187184836Y-92872419D01*
X187184836Y-92872419D02*
X187327693Y-92824800D01*
X187327693Y-92824800D02*
X187375312Y-92777180D01*
X187375312Y-92777180D02*
X187375312Y-92443847D01*
X187375312Y-92443847D02*
X187184836Y-92443847D01*
X187803884Y-92872419D02*
X187803884Y-91872419D01*
X187803884Y-91872419D02*
X188184836Y-91872419D01*
X188184836Y-91872419D02*
X188280074Y-91920038D01*
X188280074Y-91920038D02*
X188327693Y-91967657D01*
X188327693Y-91967657D02*
X188375312Y-92062895D01*
X188375312Y-92062895D02*
X188375312Y-92205752D01*
X188375312Y-92205752D02*
X188327693Y-92300990D01*
X188327693Y-92300990D02*
X188280074Y-92348609D01*
X188280074Y-92348609D02*
X188184836Y-92396228D01*
X188184836Y-92396228D02*
X187803884Y-92396228D01*
X189327693Y-92872419D02*
X188756265Y-92872419D01*
X189041979Y-92872419D02*
X189041979Y-91872419D01*
X189041979Y-91872419D02*
X188946741Y-92015276D01*
X188946741Y-92015276D02*
X188851503Y-92110514D01*
X188851503Y-92110514D02*
X188756265Y-92158133D01*
X197411027Y-89372419D02*
X197744360Y-90372419D01*
X197744360Y-90372419D02*
X198077693Y-89372419D01*
X198744360Y-89848609D02*
X198887217Y-89896228D01*
X198887217Y-89896228D02*
X198934836Y-89943847D01*
X198934836Y-89943847D02*
X198982455Y-90039085D01*
X198982455Y-90039085D02*
X198982455Y-90181942D01*
X198982455Y-90181942D02*
X198934836Y-90277180D01*
X198934836Y-90277180D02*
X198887217Y-90324800D01*
X198887217Y-90324800D02*
X198791979Y-90372419D01*
X198791979Y-90372419D02*
X198411027Y-90372419D01*
X198411027Y-90372419D02*
X198411027Y-89372419D01*
X198411027Y-89372419D02*
X198744360Y-89372419D01*
X198744360Y-89372419D02*
X198839598Y-89420038D01*
X198839598Y-89420038D02*
X198887217Y-89467657D01*
X198887217Y-89467657D02*
X198934836Y-89562895D01*
X198934836Y-89562895D02*
X198934836Y-89658133D01*
X198934836Y-89658133D02*
X198887217Y-89753371D01*
X198887217Y-89753371D02*
X198839598Y-89800990D01*
X198839598Y-89800990D02*
X198744360Y-89848609D01*
X198744360Y-89848609D02*
X198411027Y-89848609D01*
X199411027Y-89372419D02*
X199411027Y-90181942D01*
X199411027Y-90181942D02*
X199458646Y-90277180D01*
X199458646Y-90277180D02*
X199506265Y-90324800D01*
X199506265Y-90324800D02*
X199601503Y-90372419D01*
X199601503Y-90372419D02*
X199791979Y-90372419D01*
X199791979Y-90372419D02*
X199887217Y-90324800D01*
X199887217Y-90324800D02*
X199934836Y-90277180D01*
X199934836Y-90277180D02*
X199982455Y-90181942D01*
X199982455Y-90181942D02*
X199982455Y-89372419D01*
X200411027Y-90324800D02*
X200553884Y-90372419D01*
X200553884Y-90372419D02*
X200791979Y-90372419D01*
X200791979Y-90372419D02*
X200887217Y-90324800D01*
X200887217Y-90324800D02*
X200934836Y-90277180D01*
X200934836Y-90277180D02*
X200982455Y-90181942D01*
X200982455Y-90181942D02*
X200982455Y-90086704D01*
X200982455Y-90086704D02*
X200934836Y-89991466D01*
X200934836Y-89991466D02*
X200887217Y-89943847D01*
X200887217Y-89943847D02*
X200791979Y-89896228D01*
X200791979Y-89896228D02*
X200601503Y-89848609D01*
X200601503Y-89848609D02*
X200506265Y-89800990D01*
X200506265Y-89800990D02*
X200458646Y-89753371D01*
X200458646Y-89753371D02*
X200411027Y-89658133D01*
X200411027Y-89658133D02*
X200411027Y-89562895D01*
X200411027Y-89562895D02*
X200458646Y-89467657D01*
X200458646Y-89467657D02*
X200506265Y-89420038D01*
X200506265Y-89420038D02*
X200601503Y-89372419D01*
X200601503Y-89372419D02*
X200839598Y-89372419D01*
X200839598Y-89372419D02*
X200982455Y-89420038D01*
X187327693Y-99420038D02*
X187232455Y-99372419D01*
X187232455Y-99372419D02*
X187089598Y-99372419D01*
X187089598Y-99372419D02*
X186946741Y-99420038D01*
X186946741Y-99420038D02*
X186851503Y-99515276D01*
X186851503Y-99515276D02*
X186803884Y-99610514D01*
X186803884Y-99610514D02*
X186756265Y-99800990D01*
X186756265Y-99800990D02*
X186756265Y-99943847D01*
X186756265Y-99943847D02*
X186803884Y-100134323D01*
X186803884Y-100134323D02*
X186851503Y-100229561D01*
X186851503Y-100229561D02*
X186946741Y-100324800D01*
X186946741Y-100324800D02*
X187089598Y-100372419D01*
X187089598Y-100372419D02*
X187184836Y-100372419D01*
X187184836Y-100372419D02*
X187327693Y-100324800D01*
X187327693Y-100324800D02*
X187375312Y-100277180D01*
X187375312Y-100277180D02*
X187375312Y-99943847D01*
X187375312Y-99943847D02*
X187184836Y-99943847D01*
X187803884Y-100372419D02*
X187803884Y-99372419D01*
X187803884Y-99372419D02*
X188184836Y-99372419D01*
X188184836Y-99372419D02*
X188280074Y-99420038D01*
X188280074Y-99420038D02*
X188327693Y-99467657D01*
X188327693Y-99467657D02*
X188375312Y-99562895D01*
X188375312Y-99562895D02*
X188375312Y-99705752D01*
X188375312Y-99705752D02*
X188327693Y-99800990D01*
X188327693Y-99800990D02*
X188280074Y-99848609D01*
X188280074Y-99848609D02*
X188184836Y-99896228D01*
X188184836Y-99896228D02*
X187803884Y-99896228D01*
X188708646Y-99372419D02*
X189327693Y-99372419D01*
X189327693Y-99372419D02*
X188994360Y-99753371D01*
X188994360Y-99753371D02*
X189137217Y-99753371D01*
X189137217Y-99753371D02*
X189232455Y-99800990D01*
X189232455Y-99800990D02*
X189280074Y-99848609D01*
X189280074Y-99848609D02*
X189327693Y-99943847D01*
X189327693Y-99943847D02*
X189327693Y-100181942D01*
X189327693Y-100181942D02*
X189280074Y-100277180D01*
X189280074Y-100277180D02*
X189232455Y-100324800D01*
X189232455Y-100324800D02*
X189137217Y-100372419D01*
X189137217Y-100372419D02*
X188851503Y-100372419D01*
X188851503Y-100372419D02*
X188756265Y-100324800D01*
X188756265Y-100324800D02*
X188708646Y-100277180D01*
X198327693Y-122420038D02*
X198232455Y-122372419D01*
X198232455Y-122372419D02*
X198089598Y-122372419D01*
X198089598Y-122372419D02*
X197946741Y-122420038D01*
X197946741Y-122420038D02*
X197851503Y-122515276D01*
X197851503Y-122515276D02*
X197803884Y-122610514D01*
X197803884Y-122610514D02*
X197756265Y-122800990D01*
X197756265Y-122800990D02*
X197756265Y-122943847D01*
X197756265Y-122943847D02*
X197803884Y-123134323D01*
X197803884Y-123134323D02*
X197851503Y-123229561D01*
X197851503Y-123229561D02*
X197946741Y-123324800D01*
X197946741Y-123324800D02*
X198089598Y-123372419D01*
X198089598Y-123372419D02*
X198184836Y-123372419D01*
X198184836Y-123372419D02*
X198327693Y-123324800D01*
X198327693Y-123324800D02*
X198375312Y-123277180D01*
X198375312Y-123277180D02*
X198375312Y-122943847D01*
X198375312Y-122943847D02*
X198184836Y-122943847D01*
X198803884Y-123372419D02*
X198803884Y-122372419D01*
X198803884Y-122372419D02*
X199184836Y-122372419D01*
X199184836Y-122372419D02*
X199280074Y-122420038D01*
X199280074Y-122420038D02*
X199327693Y-122467657D01*
X199327693Y-122467657D02*
X199375312Y-122562895D01*
X199375312Y-122562895D02*
X199375312Y-122705752D01*
X199375312Y-122705752D02*
X199327693Y-122800990D01*
X199327693Y-122800990D02*
X199280074Y-122848609D01*
X199280074Y-122848609D02*
X199184836Y-122896228D01*
X199184836Y-122896228D02*
X198803884Y-122896228D01*
X199756265Y-122467657D02*
X199803884Y-122420038D01*
X199803884Y-122420038D02*
X199899122Y-122372419D01*
X199899122Y-122372419D02*
X200137217Y-122372419D01*
X200137217Y-122372419D02*
X200232455Y-122420038D01*
X200232455Y-122420038D02*
X200280074Y-122467657D01*
X200280074Y-122467657D02*
X200327693Y-122562895D01*
X200327693Y-122562895D02*
X200327693Y-122658133D01*
X200327693Y-122658133D02*
X200280074Y-122800990D01*
X200280074Y-122800990D02*
X199708646Y-123372419D01*
X199708646Y-123372419D02*
X200327693Y-123372419D01*
X201280074Y-123372419D02*
X200708646Y-123372419D01*
X200994360Y-123372419D02*
X200994360Y-122372419D01*
X200994360Y-122372419D02*
X200899122Y-122515276D01*
X200899122Y-122515276D02*
X200803884Y-122610514D01*
X200803884Y-122610514D02*
X200708646Y-122658133D01*
X198077693Y-130170038D02*
X197982455Y-130122419D01*
X197982455Y-130122419D02*
X197839598Y-130122419D01*
X197839598Y-130122419D02*
X197696741Y-130170038D01*
X197696741Y-130170038D02*
X197601503Y-130265276D01*
X197601503Y-130265276D02*
X197553884Y-130360514D01*
X197553884Y-130360514D02*
X197506265Y-130550990D01*
X197506265Y-130550990D02*
X197506265Y-130693847D01*
X197506265Y-130693847D02*
X197553884Y-130884323D01*
X197553884Y-130884323D02*
X197601503Y-130979561D01*
X197601503Y-130979561D02*
X197696741Y-131074800D01*
X197696741Y-131074800D02*
X197839598Y-131122419D01*
X197839598Y-131122419D02*
X197934836Y-131122419D01*
X197934836Y-131122419D02*
X198077693Y-131074800D01*
X198077693Y-131074800D02*
X198125312Y-131027180D01*
X198125312Y-131027180D02*
X198125312Y-130693847D01*
X198125312Y-130693847D02*
X197934836Y-130693847D01*
X198553884Y-131122419D02*
X198553884Y-130122419D01*
X198553884Y-130122419D02*
X198934836Y-130122419D01*
X198934836Y-130122419D02*
X199030074Y-130170038D01*
X199030074Y-130170038D02*
X199077693Y-130217657D01*
X199077693Y-130217657D02*
X199125312Y-130312895D01*
X199125312Y-130312895D02*
X199125312Y-130455752D01*
X199125312Y-130455752D02*
X199077693Y-130550990D01*
X199077693Y-130550990D02*
X199030074Y-130598609D01*
X199030074Y-130598609D02*
X198934836Y-130646228D01*
X198934836Y-130646228D02*
X198553884Y-130646228D01*
X200077693Y-131122419D02*
X199506265Y-131122419D01*
X199791979Y-131122419D02*
X199791979Y-130122419D01*
X199791979Y-130122419D02*
X199696741Y-130265276D01*
X199696741Y-130265276D02*
X199601503Y-130360514D01*
X199601503Y-130360514D02*
X199506265Y-130408133D01*
X200649122Y-130550990D02*
X200553884Y-130503371D01*
X200553884Y-130503371D02*
X200506265Y-130455752D01*
X200506265Y-130455752D02*
X200458646Y-130360514D01*
X200458646Y-130360514D02*
X200458646Y-130312895D01*
X200458646Y-130312895D02*
X200506265Y-130217657D01*
X200506265Y-130217657D02*
X200553884Y-130170038D01*
X200553884Y-130170038D02*
X200649122Y-130122419D01*
X200649122Y-130122419D02*
X200839598Y-130122419D01*
X200839598Y-130122419D02*
X200934836Y-130170038D01*
X200934836Y-130170038D02*
X200982455Y-130217657D01*
X200982455Y-130217657D02*
X201030074Y-130312895D01*
X201030074Y-130312895D02*
X201030074Y-130360514D01*
X201030074Y-130360514D02*
X200982455Y-130455752D01*
X200982455Y-130455752D02*
X200934836Y-130503371D01*
X200934836Y-130503371D02*
X200839598Y-130550990D01*
X200839598Y-130550990D02*
X200649122Y-130550990D01*
X200649122Y-130550990D02*
X200553884Y-130598609D01*
X200553884Y-130598609D02*
X200506265Y-130646228D01*
X200506265Y-130646228D02*
X200458646Y-130741466D01*
X200458646Y-130741466D02*
X200458646Y-130931942D01*
X200458646Y-130931942D02*
X200506265Y-131027180D01*
X200506265Y-131027180D02*
X200553884Y-131074800D01*
X200553884Y-131074800D02*
X200649122Y-131122419D01*
X200649122Y-131122419D02*
X200839598Y-131122419D01*
X200839598Y-131122419D02*
X200934836Y-131074800D01*
X200934836Y-131074800D02*
X200982455Y-131027180D01*
X200982455Y-131027180D02*
X201030074Y-130931942D01*
X201030074Y-130931942D02*
X201030074Y-130741466D01*
X201030074Y-130741466D02*
X200982455Y-130646228D01*
X200982455Y-130646228D02*
X200934836Y-130598609D01*
X200934836Y-130598609D02*
X200839598Y-130550990D01*
X187327693Y-132420038D02*
X187232455Y-132372419D01*
X187232455Y-132372419D02*
X187089598Y-132372419D01*
X187089598Y-132372419D02*
X186946741Y-132420038D01*
X186946741Y-132420038D02*
X186851503Y-132515276D01*
X186851503Y-132515276D02*
X186803884Y-132610514D01*
X186803884Y-132610514D02*
X186756265Y-132800990D01*
X186756265Y-132800990D02*
X186756265Y-132943847D01*
X186756265Y-132943847D02*
X186803884Y-133134323D01*
X186803884Y-133134323D02*
X186851503Y-133229561D01*
X186851503Y-133229561D02*
X186946741Y-133324800D01*
X186946741Y-133324800D02*
X187089598Y-133372419D01*
X187089598Y-133372419D02*
X187184836Y-133372419D01*
X187184836Y-133372419D02*
X187327693Y-133324800D01*
X187327693Y-133324800D02*
X187375312Y-133277180D01*
X187375312Y-133277180D02*
X187375312Y-132943847D01*
X187375312Y-132943847D02*
X187184836Y-132943847D01*
X187803884Y-133372419D02*
X187803884Y-132372419D01*
X187803884Y-132372419D02*
X188375312Y-133372419D01*
X188375312Y-133372419D02*
X188375312Y-132372419D01*
X188851503Y-133372419D02*
X188851503Y-132372419D01*
X188851503Y-132372419D02*
X189089598Y-132372419D01*
X189089598Y-132372419D02*
X189232455Y-132420038D01*
X189232455Y-132420038D02*
X189327693Y-132515276D01*
X189327693Y-132515276D02*
X189375312Y-132610514D01*
X189375312Y-132610514D02*
X189422931Y-132800990D01*
X189422931Y-132800990D02*
X189422931Y-132943847D01*
X189422931Y-132943847D02*
X189375312Y-133134323D01*
X189375312Y-133134323D02*
X189327693Y-133229561D01*
X189327693Y-133229561D02*
X189232455Y-133324800D01*
X189232455Y-133324800D02*
X189089598Y-133372419D01*
X189089598Y-133372419D02*
X188851503Y-133372419D01*
X187327693Y-102170038D02*
X187232455Y-102122419D01*
X187232455Y-102122419D02*
X187089598Y-102122419D01*
X187089598Y-102122419D02*
X186946741Y-102170038D01*
X186946741Y-102170038D02*
X186851503Y-102265276D01*
X186851503Y-102265276D02*
X186803884Y-102360514D01*
X186803884Y-102360514D02*
X186756265Y-102550990D01*
X186756265Y-102550990D02*
X186756265Y-102693847D01*
X186756265Y-102693847D02*
X186803884Y-102884323D01*
X186803884Y-102884323D02*
X186851503Y-102979561D01*
X186851503Y-102979561D02*
X186946741Y-103074800D01*
X186946741Y-103074800D02*
X187089598Y-103122419D01*
X187089598Y-103122419D02*
X187184836Y-103122419D01*
X187184836Y-103122419D02*
X187327693Y-103074800D01*
X187327693Y-103074800D02*
X187375312Y-103027180D01*
X187375312Y-103027180D02*
X187375312Y-102693847D01*
X187375312Y-102693847D02*
X187184836Y-102693847D01*
X187803884Y-103122419D02*
X187803884Y-102122419D01*
X187803884Y-102122419D02*
X188184836Y-102122419D01*
X188184836Y-102122419D02*
X188280074Y-102170038D01*
X188280074Y-102170038D02*
X188327693Y-102217657D01*
X188327693Y-102217657D02*
X188375312Y-102312895D01*
X188375312Y-102312895D02*
X188375312Y-102455752D01*
X188375312Y-102455752D02*
X188327693Y-102550990D01*
X188327693Y-102550990D02*
X188280074Y-102598609D01*
X188280074Y-102598609D02*
X188184836Y-102646228D01*
X188184836Y-102646228D02*
X187803884Y-102646228D01*
X189232455Y-102455752D02*
X189232455Y-103122419D01*
X188994360Y-102074800D02*
X188756265Y-102789085D01*
X188756265Y-102789085D02*
X189375312Y-102789085D01*
X187327693Y-130170038D02*
X187232455Y-130122419D01*
X187232455Y-130122419D02*
X187089598Y-130122419D01*
X187089598Y-130122419D02*
X186946741Y-130170038D01*
X186946741Y-130170038D02*
X186851503Y-130265276D01*
X186851503Y-130265276D02*
X186803884Y-130360514D01*
X186803884Y-130360514D02*
X186756265Y-130550990D01*
X186756265Y-130550990D02*
X186756265Y-130693847D01*
X186756265Y-130693847D02*
X186803884Y-130884323D01*
X186803884Y-130884323D02*
X186851503Y-130979561D01*
X186851503Y-130979561D02*
X186946741Y-131074800D01*
X186946741Y-131074800D02*
X187089598Y-131122419D01*
X187089598Y-131122419D02*
X187184836Y-131122419D01*
X187184836Y-131122419D02*
X187327693Y-131074800D01*
X187327693Y-131074800D02*
X187375312Y-131027180D01*
X187375312Y-131027180D02*
X187375312Y-130693847D01*
X187375312Y-130693847D02*
X187184836Y-130693847D01*
X187803884Y-131122419D02*
X187803884Y-130122419D01*
X187803884Y-130122419D02*
X188184836Y-130122419D01*
X188184836Y-130122419D02*
X188280074Y-130170038D01*
X188280074Y-130170038D02*
X188327693Y-130217657D01*
X188327693Y-130217657D02*
X188375312Y-130312895D01*
X188375312Y-130312895D02*
X188375312Y-130455752D01*
X188375312Y-130455752D02*
X188327693Y-130550990D01*
X188327693Y-130550990D02*
X188280074Y-130598609D01*
X188280074Y-130598609D02*
X188184836Y-130646228D01*
X188184836Y-130646228D02*
X187803884Y-130646228D01*
X189327693Y-131122419D02*
X188756265Y-131122419D01*
X189041979Y-131122419D02*
X189041979Y-130122419D01*
X189041979Y-130122419D02*
X188946741Y-130265276D01*
X188946741Y-130265276D02*
X188851503Y-130360514D01*
X188851503Y-130360514D02*
X188756265Y-130408133D01*
X189661027Y-130122419D02*
X190280074Y-130122419D01*
X190280074Y-130122419D02*
X189946741Y-130503371D01*
X189946741Y-130503371D02*
X190089598Y-130503371D01*
X190089598Y-130503371D02*
X190184836Y-130550990D01*
X190184836Y-130550990D02*
X190232455Y-130598609D01*
X190232455Y-130598609D02*
X190280074Y-130693847D01*
X190280074Y-130693847D02*
X190280074Y-130931942D01*
X190280074Y-130931942D02*
X190232455Y-131027180D01*
X190232455Y-131027180D02*
X190184836Y-131074800D01*
X190184836Y-131074800D02*
X190089598Y-131122419D01*
X190089598Y-131122419D02*
X189803884Y-131122419D01*
X189803884Y-131122419D02*
X189708646Y-131074800D01*
X189708646Y-131074800D02*
X189661027Y-131027180D01*
X198077693Y-124920038D02*
X197982455Y-124872419D01*
X197982455Y-124872419D02*
X197839598Y-124872419D01*
X197839598Y-124872419D02*
X197696741Y-124920038D01*
X197696741Y-124920038D02*
X197601503Y-125015276D01*
X197601503Y-125015276D02*
X197553884Y-125110514D01*
X197553884Y-125110514D02*
X197506265Y-125300990D01*
X197506265Y-125300990D02*
X197506265Y-125443847D01*
X197506265Y-125443847D02*
X197553884Y-125634323D01*
X197553884Y-125634323D02*
X197601503Y-125729561D01*
X197601503Y-125729561D02*
X197696741Y-125824800D01*
X197696741Y-125824800D02*
X197839598Y-125872419D01*
X197839598Y-125872419D02*
X197934836Y-125872419D01*
X197934836Y-125872419D02*
X198077693Y-125824800D01*
X198077693Y-125824800D02*
X198125312Y-125777180D01*
X198125312Y-125777180D02*
X198125312Y-125443847D01*
X198125312Y-125443847D02*
X197934836Y-125443847D01*
X198553884Y-125872419D02*
X198553884Y-124872419D01*
X198553884Y-124872419D02*
X198934836Y-124872419D01*
X198934836Y-124872419D02*
X199030074Y-124920038D01*
X199030074Y-124920038D02*
X199077693Y-124967657D01*
X199077693Y-124967657D02*
X199125312Y-125062895D01*
X199125312Y-125062895D02*
X199125312Y-125205752D01*
X199125312Y-125205752D02*
X199077693Y-125300990D01*
X199077693Y-125300990D02*
X199030074Y-125348609D01*
X199030074Y-125348609D02*
X198934836Y-125396228D01*
X198934836Y-125396228D02*
X198553884Y-125396228D01*
X199506265Y-124967657D02*
X199553884Y-124920038D01*
X199553884Y-124920038D02*
X199649122Y-124872419D01*
X199649122Y-124872419D02*
X199887217Y-124872419D01*
X199887217Y-124872419D02*
X199982455Y-124920038D01*
X199982455Y-124920038D02*
X200030074Y-124967657D01*
X200030074Y-124967657D02*
X200077693Y-125062895D01*
X200077693Y-125062895D02*
X200077693Y-125158133D01*
X200077693Y-125158133D02*
X200030074Y-125300990D01*
X200030074Y-125300990D02*
X199458646Y-125872419D01*
X199458646Y-125872419D02*
X200077693Y-125872419D01*
X200696741Y-124872419D02*
X200791979Y-124872419D01*
X200791979Y-124872419D02*
X200887217Y-124920038D01*
X200887217Y-124920038D02*
X200934836Y-124967657D01*
X200934836Y-124967657D02*
X200982455Y-125062895D01*
X200982455Y-125062895D02*
X201030074Y-125253371D01*
X201030074Y-125253371D02*
X201030074Y-125491466D01*
X201030074Y-125491466D02*
X200982455Y-125681942D01*
X200982455Y-125681942D02*
X200934836Y-125777180D01*
X200934836Y-125777180D02*
X200887217Y-125824800D01*
X200887217Y-125824800D02*
X200791979Y-125872419D01*
X200791979Y-125872419D02*
X200696741Y-125872419D01*
X200696741Y-125872419D02*
X200601503Y-125824800D01*
X200601503Y-125824800D02*
X200553884Y-125777180D01*
X200553884Y-125777180D02*
X200506265Y-125681942D01*
X200506265Y-125681942D02*
X200458646Y-125491466D01*
X200458646Y-125491466D02*
X200458646Y-125253371D01*
X200458646Y-125253371D02*
X200506265Y-125062895D01*
X200506265Y-125062895D02*
X200553884Y-124967657D01*
X200553884Y-124967657D02*
X200601503Y-124920038D01*
X200601503Y-124920038D02*
X200696741Y-124872419D01*
X187327693Y-89400038D02*
X187232455Y-89352419D01*
X187232455Y-89352419D02*
X187089598Y-89352419D01*
X187089598Y-89352419D02*
X186946741Y-89400038D01*
X186946741Y-89400038D02*
X186851503Y-89495276D01*
X186851503Y-89495276D02*
X186803884Y-89590514D01*
X186803884Y-89590514D02*
X186756265Y-89780990D01*
X186756265Y-89780990D02*
X186756265Y-89923847D01*
X186756265Y-89923847D02*
X186803884Y-90114323D01*
X186803884Y-90114323D02*
X186851503Y-90209561D01*
X186851503Y-90209561D02*
X186946741Y-90304800D01*
X186946741Y-90304800D02*
X187089598Y-90352419D01*
X187089598Y-90352419D02*
X187184836Y-90352419D01*
X187184836Y-90352419D02*
X187327693Y-90304800D01*
X187327693Y-90304800D02*
X187375312Y-90257180D01*
X187375312Y-90257180D02*
X187375312Y-89923847D01*
X187375312Y-89923847D02*
X187184836Y-89923847D01*
X187803884Y-90352419D02*
X187803884Y-89352419D01*
X187803884Y-89352419D02*
X188184836Y-89352419D01*
X188184836Y-89352419D02*
X188280074Y-89400038D01*
X188280074Y-89400038D02*
X188327693Y-89447657D01*
X188327693Y-89447657D02*
X188375312Y-89542895D01*
X188375312Y-89542895D02*
X188375312Y-89685752D01*
X188375312Y-89685752D02*
X188327693Y-89780990D01*
X188327693Y-89780990D02*
X188280074Y-89828609D01*
X188280074Y-89828609D02*
X188184836Y-89876228D01*
X188184836Y-89876228D02*
X187803884Y-89876228D01*
X188994360Y-89352419D02*
X189089598Y-89352419D01*
X189089598Y-89352419D02*
X189184836Y-89400038D01*
X189184836Y-89400038D02*
X189232455Y-89447657D01*
X189232455Y-89447657D02*
X189280074Y-89542895D01*
X189280074Y-89542895D02*
X189327693Y-89733371D01*
X189327693Y-89733371D02*
X189327693Y-89971466D01*
X189327693Y-89971466D02*
X189280074Y-90161942D01*
X189280074Y-90161942D02*
X189232455Y-90257180D01*
X189232455Y-90257180D02*
X189184836Y-90304800D01*
X189184836Y-90304800D02*
X189089598Y-90352419D01*
X189089598Y-90352419D02*
X188994360Y-90352419D01*
X188994360Y-90352419D02*
X188899122Y-90304800D01*
X188899122Y-90304800D02*
X188851503Y-90257180D01*
X188851503Y-90257180D02*
X188803884Y-90161942D01*
X188803884Y-90161942D02*
X188756265Y-89971466D01*
X188756265Y-89971466D02*
X188756265Y-89733371D01*
X188756265Y-89733371D02*
X188803884Y-89542895D01*
X188803884Y-89542895D02*
X188851503Y-89447657D01*
X188851503Y-89447657D02*
X188899122Y-89400038D01*
X188899122Y-89400038D02*
X188994360Y-89352419D01*
X187327693Y-135170038D02*
X187232455Y-135122419D01*
X187232455Y-135122419D02*
X187089598Y-135122419D01*
X187089598Y-135122419D02*
X186946741Y-135170038D01*
X186946741Y-135170038D02*
X186851503Y-135265276D01*
X186851503Y-135265276D02*
X186803884Y-135360514D01*
X186803884Y-135360514D02*
X186756265Y-135550990D01*
X186756265Y-135550990D02*
X186756265Y-135693847D01*
X186756265Y-135693847D02*
X186803884Y-135884323D01*
X186803884Y-135884323D02*
X186851503Y-135979561D01*
X186851503Y-135979561D02*
X186946741Y-136074800D01*
X186946741Y-136074800D02*
X187089598Y-136122419D01*
X187089598Y-136122419D02*
X187184836Y-136122419D01*
X187184836Y-136122419D02*
X187327693Y-136074800D01*
X187327693Y-136074800D02*
X187375312Y-136027180D01*
X187375312Y-136027180D02*
X187375312Y-135693847D01*
X187375312Y-135693847D02*
X187184836Y-135693847D01*
X187803884Y-136122419D02*
X187803884Y-135122419D01*
X187803884Y-135122419D02*
X188184836Y-135122419D01*
X188184836Y-135122419D02*
X188280074Y-135170038D01*
X188280074Y-135170038D02*
X188327693Y-135217657D01*
X188327693Y-135217657D02*
X188375312Y-135312895D01*
X188375312Y-135312895D02*
X188375312Y-135455752D01*
X188375312Y-135455752D02*
X188327693Y-135550990D01*
X188327693Y-135550990D02*
X188280074Y-135598609D01*
X188280074Y-135598609D02*
X188184836Y-135646228D01*
X188184836Y-135646228D02*
X187803884Y-135646228D01*
X189327693Y-136122419D02*
X188756265Y-136122419D01*
X189041979Y-136122419D02*
X189041979Y-135122419D01*
X189041979Y-135122419D02*
X188946741Y-135265276D01*
X188946741Y-135265276D02*
X188851503Y-135360514D01*
X188851503Y-135360514D02*
X188756265Y-135408133D01*
X190184836Y-135455752D02*
X190184836Y-136122419D01*
X189946741Y-135074800D02*
X189708646Y-135789085D01*
X189708646Y-135789085D02*
X190327693Y-135789085D01*
X198077693Y-127420038D02*
X197982455Y-127372419D01*
X197982455Y-127372419D02*
X197839598Y-127372419D01*
X197839598Y-127372419D02*
X197696741Y-127420038D01*
X197696741Y-127420038D02*
X197601503Y-127515276D01*
X197601503Y-127515276D02*
X197553884Y-127610514D01*
X197553884Y-127610514D02*
X197506265Y-127800990D01*
X197506265Y-127800990D02*
X197506265Y-127943847D01*
X197506265Y-127943847D02*
X197553884Y-128134323D01*
X197553884Y-128134323D02*
X197601503Y-128229561D01*
X197601503Y-128229561D02*
X197696741Y-128324800D01*
X197696741Y-128324800D02*
X197839598Y-128372419D01*
X197839598Y-128372419D02*
X197934836Y-128372419D01*
X197934836Y-128372419D02*
X198077693Y-128324800D01*
X198077693Y-128324800D02*
X198125312Y-128277180D01*
X198125312Y-128277180D02*
X198125312Y-127943847D01*
X198125312Y-127943847D02*
X197934836Y-127943847D01*
X198553884Y-128372419D02*
X198553884Y-127372419D01*
X198553884Y-127372419D02*
X198934836Y-127372419D01*
X198934836Y-127372419D02*
X199030074Y-127420038D01*
X199030074Y-127420038D02*
X199077693Y-127467657D01*
X199077693Y-127467657D02*
X199125312Y-127562895D01*
X199125312Y-127562895D02*
X199125312Y-127705752D01*
X199125312Y-127705752D02*
X199077693Y-127800990D01*
X199077693Y-127800990D02*
X199030074Y-127848609D01*
X199030074Y-127848609D02*
X198934836Y-127896228D01*
X198934836Y-127896228D02*
X198553884Y-127896228D01*
X200077693Y-128372419D02*
X199506265Y-128372419D01*
X199791979Y-128372419D02*
X199791979Y-127372419D01*
X199791979Y-127372419D02*
X199696741Y-127515276D01*
X199696741Y-127515276D02*
X199601503Y-127610514D01*
X199601503Y-127610514D02*
X199506265Y-127658133D01*
X200553884Y-128372419D02*
X200744360Y-128372419D01*
X200744360Y-128372419D02*
X200839598Y-128324800D01*
X200839598Y-128324800D02*
X200887217Y-128277180D01*
X200887217Y-128277180D02*
X200982455Y-128134323D01*
X200982455Y-128134323D02*
X201030074Y-127943847D01*
X201030074Y-127943847D02*
X201030074Y-127562895D01*
X201030074Y-127562895D02*
X200982455Y-127467657D01*
X200982455Y-127467657D02*
X200934836Y-127420038D01*
X200934836Y-127420038D02*
X200839598Y-127372419D01*
X200839598Y-127372419D02*
X200649122Y-127372419D01*
X200649122Y-127372419D02*
X200553884Y-127420038D01*
X200553884Y-127420038D02*
X200506265Y-127467657D01*
X200506265Y-127467657D02*
X200458646Y-127562895D01*
X200458646Y-127562895D02*
X200458646Y-127800990D01*
X200458646Y-127800990D02*
X200506265Y-127896228D01*
X200506265Y-127896228D02*
X200553884Y-127943847D01*
X200553884Y-127943847D02*
X200649122Y-127991466D01*
X200649122Y-127991466D02*
X200839598Y-127991466D01*
X200839598Y-127991466D02*
X200934836Y-127943847D01*
X200934836Y-127943847D02*
X200982455Y-127896228D01*
X200982455Y-127896228D02*
X201030074Y-127800990D01*
X187327693Y-96920038D02*
X187232455Y-96872419D01*
X187232455Y-96872419D02*
X187089598Y-96872419D01*
X187089598Y-96872419D02*
X186946741Y-96920038D01*
X186946741Y-96920038D02*
X186851503Y-97015276D01*
X186851503Y-97015276D02*
X186803884Y-97110514D01*
X186803884Y-97110514D02*
X186756265Y-97300990D01*
X186756265Y-97300990D02*
X186756265Y-97443847D01*
X186756265Y-97443847D02*
X186803884Y-97634323D01*
X186803884Y-97634323D02*
X186851503Y-97729561D01*
X186851503Y-97729561D02*
X186946741Y-97824800D01*
X186946741Y-97824800D02*
X187089598Y-97872419D01*
X187089598Y-97872419D02*
X187184836Y-97872419D01*
X187184836Y-97872419D02*
X187327693Y-97824800D01*
X187327693Y-97824800D02*
X187375312Y-97777180D01*
X187375312Y-97777180D02*
X187375312Y-97443847D01*
X187375312Y-97443847D02*
X187184836Y-97443847D01*
X187803884Y-97872419D02*
X187803884Y-96872419D01*
X187803884Y-96872419D02*
X188184836Y-96872419D01*
X188184836Y-96872419D02*
X188280074Y-96920038D01*
X188280074Y-96920038D02*
X188327693Y-96967657D01*
X188327693Y-96967657D02*
X188375312Y-97062895D01*
X188375312Y-97062895D02*
X188375312Y-97205752D01*
X188375312Y-97205752D02*
X188327693Y-97300990D01*
X188327693Y-97300990D02*
X188280074Y-97348609D01*
X188280074Y-97348609D02*
X188184836Y-97396228D01*
X188184836Y-97396228D02*
X187803884Y-97396228D01*
X188756265Y-96967657D02*
X188803884Y-96920038D01*
X188803884Y-96920038D02*
X188899122Y-96872419D01*
X188899122Y-96872419D02*
X189137217Y-96872419D01*
X189137217Y-96872419D02*
X189232455Y-96920038D01*
X189232455Y-96920038D02*
X189280074Y-96967657D01*
X189280074Y-96967657D02*
X189327693Y-97062895D01*
X189327693Y-97062895D02*
X189327693Y-97158133D01*
X189327693Y-97158133D02*
X189280074Y-97300990D01*
X189280074Y-97300990D02*
X188708646Y-97872419D01*
X188708646Y-97872419D02*
X189327693Y-97872419D01*
X194256265Y-102836704D02*
X194732455Y-102836704D01*
X194161027Y-103122419D02*
X194494360Y-102122419D01*
X194494360Y-102122419D02*
X194827693Y-103122419D01*
X195161027Y-103122419D02*
X195161027Y-102122419D01*
X195161027Y-102122419D02*
X195399122Y-102122419D01*
X195399122Y-102122419D02*
X195541979Y-102170038D01*
X195541979Y-102170038D02*
X195637217Y-102265276D01*
X195637217Y-102265276D02*
X195684836Y-102360514D01*
X195684836Y-102360514D02*
X195732455Y-102550990D01*
X195732455Y-102550990D02*
X195732455Y-102693847D01*
X195732455Y-102693847D02*
X195684836Y-102884323D01*
X195684836Y-102884323D02*
X195637217Y-102979561D01*
X195637217Y-102979561D02*
X195541979Y-103074800D01*
X195541979Y-103074800D02*
X195399122Y-103122419D01*
X195399122Y-103122419D02*
X195161027Y-103122419D01*
X196732455Y-103027180D02*
X196684836Y-103074800D01*
X196684836Y-103074800D02*
X196541979Y-103122419D01*
X196541979Y-103122419D02*
X196446741Y-103122419D01*
X196446741Y-103122419D02*
X196303884Y-103074800D01*
X196303884Y-103074800D02*
X196208646Y-102979561D01*
X196208646Y-102979561D02*
X196161027Y-102884323D01*
X196161027Y-102884323D02*
X196113408Y-102693847D01*
X196113408Y-102693847D02*
X196113408Y-102550990D01*
X196113408Y-102550990D02*
X196161027Y-102360514D01*
X196161027Y-102360514D02*
X196208646Y-102265276D01*
X196208646Y-102265276D02*
X196303884Y-102170038D01*
X196303884Y-102170038D02*
X196446741Y-102122419D01*
X196446741Y-102122419D02*
X196541979Y-102122419D01*
X196541979Y-102122419D02*
X196684836Y-102170038D01*
X196684836Y-102170038D02*
X196732455Y-102217657D01*
X196922932Y-103217657D02*
X197684836Y-103217657D01*
X197780075Y-102122419D02*
X198113408Y-103122419D01*
X198113408Y-103122419D02*
X198446741Y-102122419D01*
X199351503Y-103122419D02*
X199018170Y-102646228D01*
X198780075Y-103122419D02*
X198780075Y-102122419D01*
X198780075Y-102122419D02*
X199161027Y-102122419D01*
X199161027Y-102122419D02*
X199256265Y-102170038D01*
X199256265Y-102170038D02*
X199303884Y-102217657D01*
X199303884Y-102217657D02*
X199351503Y-102312895D01*
X199351503Y-102312895D02*
X199351503Y-102455752D01*
X199351503Y-102455752D02*
X199303884Y-102550990D01*
X199303884Y-102550990D02*
X199256265Y-102598609D01*
X199256265Y-102598609D02*
X199161027Y-102646228D01*
X199161027Y-102646228D02*
X198780075Y-102646228D01*
X199780075Y-102598609D02*
X200113408Y-102598609D01*
X200256265Y-103122419D02*
X199780075Y-103122419D01*
X199780075Y-103122419D02*
X199780075Y-102122419D01*
X199780075Y-102122419D02*
X200256265Y-102122419D01*
X201018170Y-102598609D02*
X200684837Y-102598609D01*
X200684837Y-103122419D02*
X200684837Y-102122419D01*
X200684837Y-102122419D02*
X201161027Y-102122419D01*
X198875312Y-115872419D02*
X198541979Y-115396228D01*
X198303884Y-115872419D02*
X198303884Y-114872419D01*
X198303884Y-114872419D02*
X198684836Y-114872419D01*
X198684836Y-114872419D02*
X198780074Y-114920038D01*
X198780074Y-114920038D02*
X198827693Y-114967657D01*
X198827693Y-114967657D02*
X198875312Y-115062895D01*
X198875312Y-115062895D02*
X198875312Y-115205752D01*
X198875312Y-115205752D02*
X198827693Y-115300990D01*
X198827693Y-115300990D02*
X198780074Y-115348609D01*
X198780074Y-115348609D02*
X198684836Y-115396228D01*
X198684836Y-115396228D02*
X198303884Y-115396228D01*
X199303884Y-114872419D02*
X199303884Y-115681942D01*
X199303884Y-115681942D02*
X199351503Y-115777180D01*
X199351503Y-115777180D02*
X199399122Y-115824800D01*
X199399122Y-115824800D02*
X199494360Y-115872419D01*
X199494360Y-115872419D02*
X199684836Y-115872419D01*
X199684836Y-115872419D02*
X199780074Y-115824800D01*
X199780074Y-115824800D02*
X199827693Y-115777180D01*
X199827693Y-115777180D02*
X199875312Y-115681942D01*
X199875312Y-115681942D02*
X199875312Y-114872419D01*
X200351503Y-115872419D02*
X200351503Y-114872419D01*
X200351503Y-114872419D02*
X200922931Y-115872419D01*
X200922931Y-115872419D02*
X200922931Y-114872419D01*
X195958646Y-97122419D02*
X196577693Y-97122419D01*
X196577693Y-97122419D02*
X196244360Y-97503371D01*
X196244360Y-97503371D02*
X196387217Y-97503371D01*
X196387217Y-97503371D02*
X196482455Y-97550990D01*
X196482455Y-97550990D02*
X196530074Y-97598609D01*
X196530074Y-97598609D02*
X196577693Y-97693847D01*
X196577693Y-97693847D02*
X196577693Y-97931942D01*
X196577693Y-97931942D02*
X196530074Y-98027180D01*
X196530074Y-98027180D02*
X196482455Y-98074800D01*
X196482455Y-98074800D02*
X196387217Y-98122419D01*
X196387217Y-98122419D02*
X196101503Y-98122419D01*
X196101503Y-98122419D02*
X196006265Y-98074800D01*
X196006265Y-98074800D02*
X195958646Y-98027180D01*
X196863408Y-97122419D02*
X197196741Y-98122419D01*
X197196741Y-98122419D02*
X197530074Y-97122419D01*
X197768170Y-97122419D02*
X198387217Y-97122419D01*
X198387217Y-97122419D02*
X198053884Y-97503371D01*
X198053884Y-97503371D02*
X198196741Y-97503371D01*
X198196741Y-97503371D02*
X198291979Y-97550990D01*
X198291979Y-97550990D02*
X198339598Y-97598609D01*
X198339598Y-97598609D02*
X198387217Y-97693847D01*
X198387217Y-97693847D02*
X198387217Y-97931942D01*
X198387217Y-97931942D02*
X198339598Y-98027180D01*
X198339598Y-98027180D02*
X198291979Y-98074800D01*
X198291979Y-98074800D02*
X198196741Y-98122419D01*
X198196741Y-98122419D02*
X197911027Y-98122419D01*
X197911027Y-98122419D02*
X197815789Y-98074800D01*
X197815789Y-98074800D02*
X197768170Y-98027180D01*
X198577694Y-98217657D02*
X199339598Y-98217657D01*
X199577694Y-97598609D02*
X199911027Y-97598609D01*
X200053884Y-98122419D02*
X199577694Y-98122419D01*
X199577694Y-98122419D02*
X199577694Y-97122419D01*
X199577694Y-97122419D02*
X200053884Y-97122419D01*
X200482456Y-98122419D02*
X200482456Y-97122419D01*
X200482456Y-97122419D02*
X201053884Y-98122419D01*
X201053884Y-98122419D02*
X201053884Y-97122419D01*
X198827693Y-94670038D02*
X198732455Y-94622419D01*
X198732455Y-94622419D02*
X198589598Y-94622419D01*
X198589598Y-94622419D02*
X198446741Y-94670038D01*
X198446741Y-94670038D02*
X198351503Y-94765276D01*
X198351503Y-94765276D02*
X198303884Y-94860514D01*
X198303884Y-94860514D02*
X198256265Y-95050990D01*
X198256265Y-95050990D02*
X198256265Y-95193847D01*
X198256265Y-95193847D02*
X198303884Y-95384323D01*
X198303884Y-95384323D02*
X198351503Y-95479561D01*
X198351503Y-95479561D02*
X198446741Y-95574800D01*
X198446741Y-95574800D02*
X198589598Y-95622419D01*
X198589598Y-95622419D02*
X198684836Y-95622419D01*
X198684836Y-95622419D02*
X198827693Y-95574800D01*
X198827693Y-95574800D02*
X198875312Y-95527180D01*
X198875312Y-95527180D02*
X198875312Y-95193847D01*
X198875312Y-95193847D02*
X198684836Y-95193847D01*
X199303884Y-95622419D02*
X199303884Y-94622419D01*
X199303884Y-94622419D02*
X199875312Y-95622419D01*
X199875312Y-95622419D02*
X199875312Y-94622419D01*
X200351503Y-95622419D02*
X200351503Y-94622419D01*
X200351503Y-94622419D02*
X200589598Y-94622419D01*
X200589598Y-94622419D02*
X200732455Y-94670038D01*
X200732455Y-94670038D02*
X200827693Y-94765276D01*
X200827693Y-94765276D02*
X200875312Y-94860514D01*
X200875312Y-94860514D02*
X200922931Y-95050990D01*
X200922931Y-95050990D02*
X200922931Y-95193847D01*
X200922931Y-95193847D02*
X200875312Y-95384323D01*
X200875312Y-95384323D02*
X200827693Y-95479561D01*
X200827693Y-95479561D02*
X200732455Y-95574800D01*
X200732455Y-95574800D02*
X200589598Y-95622419D01*
X200589598Y-95622419D02*
X200351503Y-95622419D01*
X199077693Y-107420038D02*
X198982455Y-107372419D01*
X198982455Y-107372419D02*
X198839598Y-107372419D01*
X198839598Y-107372419D02*
X198696741Y-107420038D01*
X198696741Y-107420038D02*
X198601503Y-107515276D01*
X198601503Y-107515276D02*
X198553884Y-107610514D01*
X198553884Y-107610514D02*
X198506265Y-107800990D01*
X198506265Y-107800990D02*
X198506265Y-107943847D01*
X198506265Y-107943847D02*
X198553884Y-108134323D01*
X198553884Y-108134323D02*
X198601503Y-108229561D01*
X198601503Y-108229561D02*
X198696741Y-108324800D01*
X198696741Y-108324800D02*
X198839598Y-108372419D01*
X198839598Y-108372419D02*
X198934836Y-108372419D01*
X198934836Y-108372419D02*
X199077693Y-108324800D01*
X199077693Y-108324800D02*
X199125312Y-108277180D01*
X199125312Y-108277180D02*
X199125312Y-107943847D01*
X199125312Y-107943847D02*
X198934836Y-107943847D01*
X199553884Y-108372419D02*
X199553884Y-107372419D01*
X199553884Y-107372419D02*
X200125312Y-108372419D01*
X200125312Y-108372419D02*
X200125312Y-107372419D01*
X200601503Y-108372419D02*
X200601503Y-107372419D01*
X200601503Y-107372419D02*
X200839598Y-107372419D01*
X200839598Y-107372419D02*
X200982455Y-107420038D01*
X200982455Y-107420038D02*
X201077693Y-107515276D01*
X201077693Y-107515276D02*
X201125312Y-107610514D01*
X201125312Y-107610514D02*
X201172931Y-107800990D01*
X201172931Y-107800990D02*
X201172931Y-107943847D01*
X201172931Y-107943847D02*
X201125312Y-108134323D01*
X201125312Y-108134323D02*
X201077693Y-108229561D01*
X201077693Y-108229561D02*
X200982455Y-108324800D01*
X200982455Y-108324800D02*
X200839598Y-108372419D01*
X200839598Y-108372419D02*
X200601503Y-108372419D01*
X187327693Y-114920038D02*
X187232455Y-114872419D01*
X187232455Y-114872419D02*
X187089598Y-114872419D01*
X187089598Y-114872419D02*
X186946741Y-114920038D01*
X186946741Y-114920038D02*
X186851503Y-115015276D01*
X186851503Y-115015276D02*
X186803884Y-115110514D01*
X186803884Y-115110514D02*
X186756265Y-115300990D01*
X186756265Y-115300990D02*
X186756265Y-115443847D01*
X186756265Y-115443847D02*
X186803884Y-115634323D01*
X186803884Y-115634323D02*
X186851503Y-115729561D01*
X186851503Y-115729561D02*
X186946741Y-115824800D01*
X186946741Y-115824800D02*
X187089598Y-115872419D01*
X187089598Y-115872419D02*
X187184836Y-115872419D01*
X187184836Y-115872419D02*
X187327693Y-115824800D01*
X187327693Y-115824800D02*
X187375312Y-115777180D01*
X187375312Y-115777180D02*
X187375312Y-115443847D01*
X187375312Y-115443847D02*
X187184836Y-115443847D01*
X187803884Y-115872419D02*
X187803884Y-114872419D01*
X187803884Y-114872419D02*
X188184836Y-114872419D01*
X188184836Y-114872419D02*
X188280074Y-114920038D01*
X188280074Y-114920038D02*
X188327693Y-114967657D01*
X188327693Y-114967657D02*
X188375312Y-115062895D01*
X188375312Y-115062895D02*
X188375312Y-115205752D01*
X188375312Y-115205752D02*
X188327693Y-115300990D01*
X188327693Y-115300990D02*
X188280074Y-115348609D01*
X188280074Y-115348609D02*
X188184836Y-115396228D01*
X188184836Y-115396228D02*
X187803884Y-115396228D01*
X188946741Y-115300990D02*
X188851503Y-115253371D01*
X188851503Y-115253371D02*
X188803884Y-115205752D01*
X188803884Y-115205752D02*
X188756265Y-115110514D01*
X188756265Y-115110514D02*
X188756265Y-115062895D01*
X188756265Y-115062895D02*
X188803884Y-114967657D01*
X188803884Y-114967657D02*
X188851503Y-114920038D01*
X188851503Y-114920038D02*
X188946741Y-114872419D01*
X188946741Y-114872419D02*
X189137217Y-114872419D01*
X189137217Y-114872419D02*
X189232455Y-114920038D01*
X189232455Y-114920038D02*
X189280074Y-114967657D01*
X189280074Y-114967657D02*
X189327693Y-115062895D01*
X189327693Y-115062895D02*
X189327693Y-115110514D01*
X189327693Y-115110514D02*
X189280074Y-115205752D01*
X189280074Y-115205752D02*
X189232455Y-115253371D01*
X189232455Y-115253371D02*
X189137217Y-115300990D01*
X189137217Y-115300990D02*
X188946741Y-115300990D01*
X188946741Y-115300990D02*
X188851503Y-115348609D01*
X188851503Y-115348609D02*
X188803884Y-115396228D01*
X188803884Y-115396228D02*
X188756265Y-115491466D01*
X188756265Y-115491466D02*
X188756265Y-115681942D01*
X188756265Y-115681942D02*
X188803884Y-115777180D01*
X188803884Y-115777180D02*
X188851503Y-115824800D01*
X188851503Y-115824800D02*
X188946741Y-115872419D01*
X188946741Y-115872419D02*
X189137217Y-115872419D01*
X189137217Y-115872419D02*
X189232455Y-115824800D01*
X189232455Y-115824800D02*
X189280074Y-115777180D01*
X189280074Y-115777180D02*
X189327693Y-115681942D01*
X189327693Y-115681942D02*
X189327693Y-115491466D01*
X189327693Y-115491466D02*
X189280074Y-115396228D01*
X189280074Y-115396228D02*
X189232455Y-115348609D01*
X189232455Y-115348609D02*
X189137217Y-115300990D01*
X187327693Y-94420038D02*
X187232455Y-94372419D01*
X187232455Y-94372419D02*
X187089598Y-94372419D01*
X187089598Y-94372419D02*
X186946741Y-94420038D01*
X186946741Y-94420038D02*
X186851503Y-94515276D01*
X186851503Y-94515276D02*
X186803884Y-94610514D01*
X186803884Y-94610514D02*
X186756265Y-94800990D01*
X186756265Y-94800990D02*
X186756265Y-94943847D01*
X186756265Y-94943847D02*
X186803884Y-95134323D01*
X186803884Y-95134323D02*
X186851503Y-95229561D01*
X186851503Y-95229561D02*
X186946741Y-95324800D01*
X186946741Y-95324800D02*
X187089598Y-95372419D01*
X187089598Y-95372419D02*
X187184836Y-95372419D01*
X187184836Y-95372419D02*
X187327693Y-95324800D01*
X187327693Y-95324800D02*
X187375312Y-95277180D01*
X187375312Y-95277180D02*
X187375312Y-94943847D01*
X187375312Y-94943847D02*
X187184836Y-94943847D01*
X187803884Y-95372419D02*
X187803884Y-94372419D01*
X187803884Y-94372419D02*
X188375312Y-95372419D01*
X188375312Y-95372419D02*
X188375312Y-94372419D01*
X188851503Y-95372419D02*
X188851503Y-94372419D01*
X188851503Y-94372419D02*
X189089598Y-94372419D01*
X189089598Y-94372419D02*
X189232455Y-94420038D01*
X189232455Y-94420038D02*
X189327693Y-94515276D01*
X189327693Y-94515276D02*
X189375312Y-94610514D01*
X189375312Y-94610514D02*
X189422931Y-94800990D01*
X189422931Y-94800990D02*
X189422931Y-94943847D01*
X189422931Y-94943847D02*
X189375312Y-95134323D01*
X189375312Y-95134323D02*
X189327693Y-95229561D01*
X189327693Y-95229561D02*
X189232455Y-95324800D01*
X189232455Y-95324800D02*
X189089598Y-95372419D01*
X189089598Y-95372419D02*
X188851503Y-95372419D01*
X187327693Y-119920038D02*
X187232455Y-119872419D01*
X187232455Y-119872419D02*
X187089598Y-119872419D01*
X187089598Y-119872419D02*
X186946741Y-119920038D01*
X186946741Y-119920038D02*
X186851503Y-120015276D01*
X186851503Y-120015276D02*
X186803884Y-120110514D01*
X186803884Y-120110514D02*
X186756265Y-120300990D01*
X186756265Y-120300990D02*
X186756265Y-120443847D01*
X186756265Y-120443847D02*
X186803884Y-120634323D01*
X186803884Y-120634323D02*
X186851503Y-120729561D01*
X186851503Y-120729561D02*
X186946741Y-120824800D01*
X186946741Y-120824800D02*
X187089598Y-120872419D01*
X187089598Y-120872419D02*
X187184836Y-120872419D01*
X187184836Y-120872419D02*
X187327693Y-120824800D01*
X187327693Y-120824800D02*
X187375312Y-120777180D01*
X187375312Y-120777180D02*
X187375312Y-120443847D01*
X187375312Y-120443847D02*
X187184836Y-120443847D01*
X187803884Y-120872419D02*
X187803884Y-119872419D01*
X187803884Y-119872419D02*
X188375312Y-120872419D01*
X188375312Y-120872419D02*
X188375312Y-119872419D01*
X188851503Y-120872419D02*
X188851503Y-119872419D01*
X188851503Y-119872419D02*
X189089598Y-119872419D01*
X189089598Y-119872419D02*
X189232455Y-119920038D01*
X189232455Y-119920038D02*
X189327693Y-120015276D01*
X189327693Y-120015276D02*
X189375312Y-120110514D01*
X189375312Y-120110514D02*
X189422931Y-120300990D01*
X189422931Y-120300990D02*
X189422931Y-120443847D01*
X189422931Y-120443847D02*
X189375312Y-120634323D01*
X189375312Y-120634323D02*
X189327693Y-120729561D01*
X189327693Y-120729561D02*
X189232455Y-120824800D01*
X189232455Y-120824800D02*
X189089598Y-120872419D01*
X189089598Y-120872419D02*
X188851503Y-120872419D01*
X187327693Y-112420038D02*
X187232455Y-112372419D01*
X187232455Y-112372419D02*
X187089598Y-112372419D01*
X187089598Y-112372419D02*
X186946741Y-112420038D01*
X186946741Y-112420038D02*
X186851503Y-112515276D01*
X186851503Y-112515276D02*
X186803884Y-112610514D01*
X186803884Y-112610514D02*
X186756265Y-112800990D01*
X186756265Y-112800990D02*
X186756265Y-112943847D01*
X186756265Y-112943847D02*
X186803884Y-113134323D01*
X186803884Y-113134323D02*
X186851503Y-113229561D01*
X186851503Y-113229561D02*
X186946741Y-113324800D01*
X186946741Y-113324800D02*
X187089598Y-113372419D01*
X187089598Y-113372419D02*
X187184836Y-113372419D01*
X187184836Y-113372419D02*
X187327693Y-113324800D01*
X187327693Y-113324800D02*
X187375312Y-113277180D01*
X187375312Y-113277180D02*
X187375312Y-112943847D01*
X187375312Y-112943847D02*
X187184836Y-112943847D01*
X187803884Y-113372419D02*
X187803884Y-112372419D01*
X187803884Y-112372419D02*
X188184836Y-112372419D01*
X188184836Y-112372419D02*
X188280074Y-112420038D01*
X188280074Y-112420038D02*
X188327693Y-112467657D01*
X188327693Y-112467657D02*
X188375312Y-112562895D01*
X188375312Y-112562895D02*
X188375312Y-112705752D01*
X188375312Y-112705752D02*
X188327693Y-112800990D01*
X188327693Y-112800990D02*
X188280074Y-112848609D01*
X188280074Y-112848609D02*
X188184836Y-112896228D01*
X188184836Y-112896228D02*
X187803884Y-112896228D01*
X188708646Y-112372419D02*
X189375312Y-112372419D01*
X189375312Y-112372419D02*
X188946741Y-113372419D01*
X198077693Y-104920038D02*
X197982455Y-104872419D01*
X197982455Y-104872419D02*
X197839598Y-104872419D01*
X197839598Y-104872419D02*
X197696741Y-104920038D01*
X197696741Y-104920038D02*
X197601503Y-105015276D01*
X197601503Y-105015276D02*
X197553884Y-105110514D01*
X197553884Y-105110514D02*
X197506265Y-105300990D01*
X197506265Y-105300990D02*
X197506265Y-105443847D01*
X197506265Y-105443847D02*
X197553884Y-105634323D01*
X197553884Y-105634323D02*
X197601503Y-105729561D01*
X197601503Y-105729561D02*
X197696741Y-105824800D01*
X197696741Y-105824800D02*
X197839598Y-105872419D01*
X197839598Y-105872419D02*
X197934836Y-105872419D01*
X197934836Y-105872419D02*
X198077693Y-105824800D01*
X198077693Y-105824800D02*
X198125312Y-105777180D01*
X198125312Y-105777180D02*
X198125312Y-105443847D01*
X198125312Y-105443847D02*
X197934836Y-105443847D01*
X198553884Y-105872419D02*
X198553884Y-104872419D01*
X198553884Y-104872419D02*
X198934836Y-104872419D01*
X198934836Y-104872419D02*
X199030074Y-104920038D01*
X199030074Y-104920038D02*
X199077693Y-104967657D01*
X199077693Y-104967657D02*
X199125312Y-105062895D01*
X199125312Y-105062895D02*
X199125312Y-105205752D01*
X199125312Y-105205752D02*
X199077693Y-105300990D01*
X199077693Y-105300990D02*
X199030074Y-105348609D01*
X199030074Y-105348609D02*
X198934836Y-105396228D01*
X198934836Y-105396228D02*
X198553884Y-105396228D01*
X199506265Y-104967657D02*
X199553884Y-104920038D01*
X199553884Y-104920038D02*
X199649122Y-104872419D01*
X199649122Y-104872419D02*
X199887217Y-104872419D01*
X199887217Y-104872419D02*
X199982455Y-104920038D01*
X199982455Y-104920038D02*
X200030074Y-104967657D01*
X200030074Y-104967657D02*
X200077693Y-105062895D01*
X200077693Y-105062895D02*
X200077693Y-105158133D01*
X200077693Y-105158133D02*
X200030074Y-105300990D01*
X200030074Y-105300990D02*
X199458646Y-105872419D01*
X199458646Y-105872419D02*
X200077693Y-105872419D01*
X200649122Y-105300990D02*
X200553884Y-105253371D01*
X200553884Y-105253371D02*
X200506265Y-105205752D01*
X200506265Y-105205752D02*
X200458646Y-105110514D01*
X200458646Y-105110514D02*
X200458646Y-105062895D01*
X200458646Y-105062895D02*
X200506265Y-104967657D01*
X200506265Y-104967657D02*
X200553884Y-104920038D01*
X200553884Y-104920038D02*
X200649122Y-104872419D01*
X200649122Y-104872419D02*
X200839598Y-104872419D01*
X200839598Y-104872419D02*
X200934836Y-104920038D01*
X200934836Y-104920038D02*
X200982455Y-104967657D01*
X200982455Y-104967657D02*
X201030074Y-105062895D01*
X201030074Y-105062895D02*
X201030074Y-105110514D01*
X201030074Y-105110514D02*
X200982455Y-105205752D01*
X200982455Y-105205752D02*
X200934836Y-105253371D01*
X200934836Y-105253371D02*
X200839598Y-105300990D01*
X200839598Y-105300990D02*
X200649122Y-105300990D01*
X200649122Y-105300990D02*
X200553884Y-105348609D01*
X200553884Y-105348609D02*
X200506265Y-105396228D01*
X200506265Y-105396228D02*
X200458646Y-105491466D01*
X200458646Y-105491466D02*
X200458646Y-105681942D01*
X200458646Y-105681942D02*
X200506265Y-105777180D01*
X200506265Y-105777180D02*
X200553884Y-105824800D01*
X200553884Y-105824800D02*
X200649122Y-105872419D01*
X200649122Y-105872419D02*
X200839598Y-105872419D01*
X200839598Y-105872419D02*
X200934836Y-105824800D01*
X200934836Y-105824800D02*
X200982455Y-105777180D01*
X200982455Y-105777180D02*
X201030074Y-105681942D01*
X201030074Y-105681942D02*
X201030074Y-105491466D01*
X201030074Y-105491466D02*
X200982455Y-105396228D01*
X200982455Y-105396228D02*
X200934836Y-105348609D01*
X200934836Y-105348609D02*
X200839598Y-105300990D01*
X198077693Y-117420038D02*
X197982455Y-117372419D01*
X197982455Y-117372419D02*
X197839598Y-117372419D01*
X197839598Y-117372419D02*
X197696741Y-117420038D01*
X197696741Y-117420038D02*
X197601503Y-117515276D01*
X197601503Y-117515276D02*
X197553884Y-117610514D01*
X197553884Y-117610514D02*
X197506265Y-117800990D01*
X197506265Y-117800990D02*
X197506265Y-117943847D01*
X197506265Y-117943847D02*
X197553884Y-118134323D01*
X197553884Y-118134323D02*
X197601503Y-118229561D01*
X197601503Y-118229561D02*
X197696741Y-118324800D01*
X197696741Y-118324800D02*
X197839598Y-118372419D01*
X197839598Y-118372419D02*
X197934836Y-118372419D01*
X197934836Y-118372419D02*
X198077693Y-118324800D01*
X198077693Y-118324800D02*
X198125312Y-118277180D01*
X198125312Y-118277180D02*
X198125312Y-117943847D01*
X198125312Y-117943847D02*
X197934836Y-117943847D01*
X198553884Y-118372419D02*
X198553884Y-117372419D01*
X198553884Y-117372419D02*
X198934836Y-117372419D01*
X198934836Y-117372419D02*
X199030074Y-117420038D01*
X199030074Y-117420038D02*
X199077693Y-117467657D01*
X199077693Y-117467657D02*
X199125312Y-117562895D01*
X199125312Y-117562895D02*
X199125312Y-117705752D01*
X199125312Y-117705752D02*
X199077693Y-117800990D01*
X199077693Y-117800990D02*
X199030074Y-117848609D01*
X199030074Y-117848609D02*
X198934836Y-117896228D01*
X198934836Y-117896228D02*
X198553884Y-117896228D01*
X199506265Y-117467657D02*
X199553884Y-117420038D01*
X199553884Y-117420038D02*
X199649122Y-117372419D01*
X199649122Y-117372419D02*
X199887217Y-117372419D01*
X199887217Y-117372419D02*
X199982455Y-117420038D01*
X199982455Y-117420038D02*
X200030074Y-117467657D01*
X200030074Y-117467657D02*
X200077693Y-117562895D01*
X200077693Y-117562895D02*
X200077693Y-117658133D01*
X200077693Y-117658133D02*
X200030074Y-117800990D01*
X200030074Y-117800990D02*
X199458646Y-118372419D01*
X199458646Y-118372419D02*
X200077693Y-118372419D01*
X200458646Y-117467657D02*
X200506265Y-117420038D01*
X200506265Y-117420038D02*
X200601503Y-117372419D01*
X200601503Y-117372419D02*
X200839598Y-117372419D01*
X200839598Y-117372419D02*
X200934836Y-117420038D01*
X200934836Y-117420038D02*
X200982455Y-117467657D01*
X200982455Y-117467657D02*
X201030074Y-117562895D01*
X201030074Y-117562895D02*
X201030074Y-117658133D01*
X201030074Y-117658133D02*
X200982455Y-117800990D01*
X200982455Y-117800990D02*
X200411027Y-118372419D01*
X200411027Y-118372419D02*
X201030074Y-118372419D01*
X187327693Y-107170038D02*
X187232455Y-107122419D01*
X187232455Y-107122419D02*
X187089598Y-107122419D01*
X187089598Y-107122419D02*
X186946741Y-107170038D01*
X186946741Y-107170038D02*
X186851503Y-107265276D01*
X186851503Y-107265276D02*
X186803884Y-107360514D01*
X186803884Y-107360514D02*
X186756265Y-107550990D01*
X186756265Y-107550990D02*
X186756265Y-107693847D01*
X186756265Y-107693847D02*
X186803884Y-107884323D01*
X186803884Y-107884323D02*
X186851503Y-107979561D01*
X186851503Y-107979561D02*
X186946741Y-108074800D01*
X186946741Y-108074800D02*
X187089598Y-108122419D01*
X187089598Y-108122419D02*
X187184836Y-108122419D01*
X187184836Y-108122419D02*
X187327693Y-108074800D01*
X187327693Y-108074800D02*
X187375312Y-108027180D01*
X187375312Y-108027180D02*
X187375312Y-107693847D01*
X187375312Y-107693847D02*
X187184836Y-107693847D01*
X187803884Y-108122419D02*
X187803884Y-107122419D01*
X187803884Y-107122419D02*
X188375312Y-108122419D01*
X188375312Y-108122419D02*
X188375312Y-107122419D01*
X188851503Y-108122419D02*
X188851503Y-107122419D01*
X188851503Y-107122419D02*
X189089598Y-107122419D01*
X189089598Y-107122419D02*
X189232455Y-107170038D01*
X189232455Y-107170038D02*
X189327693Y-107265276D01*
X189327693Y-107265276D02*
X189375312Y-107360514D01*
X189375312Y-107360514D02*
X189422931Y-107550990D01*
X189422931Y-107550990D02*
X189422931Y-107693847D01*
X189422931Y-107693847D02*
X189375312Y-107884323D01*
X189375312Y-107884323D02*
X189327693Y-107979561D01*
X189327693Y-107979561D02*
X189232455Y-108074800D01*
X189232455Y-108074800D02*
X189089598Y-108122419D01*
X189089598Y-108122419D02*
X188851503Y-108122419D01*
X187327693Y-137670038D02*
X187232455Y-137622419D01*
X187232455Y-137622419D02*
X187089598Y-137622419D01*
X187089598Y-137622419D02*
X186946741Y-137670038D01*
X186946741Y-137670038D02*
X186851503Y-137765276D01*
X186851503Y-137765276D02*
X186803884Y-137860514D01*
X186803884Y-137860514D02*
X186756265Y-138050990D01*
X186756265Y-138050990D02*
X186756265Y-138193847D01*
X186756265Y-138193847D02*
X186803884Y-138384323D01*
X186803884Y-138384323D02*
X186851503Y-138479561D01*
X186851503Y-138479561D02*
X186946741Y-138574800D01*
X186946741Y-138574800D02*
X187089598Y-138622419D01*
X187089598Y-138622419D02*
X187184836Y-138622419D01*
X187184836Y-138622419D02*
X187327693Y-138574800D01*
X187327693Y-138574800D02*
X187375312Y-138527180D01*
X187375312Y-138527180D02*
X187375312Y-138193847D01*
X187375312Y-138193847D02*
X187184836Y-138193847D01*
X187803884Y-138622419D02*
X187803884Y-137622419D01*
X187803884Y-137622419D02*
X188184836Y-137622419D01*
X188184836Y-137622419D02*
X188280074Y-137670038D01*
X188280074Y-137670038D02*
X188327693Y-137717657D01*
X188327693Y-137717657D02*
X188375312Y-137812895D01*
X188375312Y-137812895D02*
X188375312Y-137955752D01*
X188375312Y-137955752D02*
X188327693Y-138050990D01*
X188327693Y-138050990D02*
X188280074Y-138098609D01*
X188280074Y-138098609D02*
X188184836Y-138146228D01*
X188184836Y-138146228D02*
X187803884Y-138146228D01*
X189327693Y-138622419D02*
X188756265Y-138622419D01*
X189041979Y-138622419D02*
X189041979Y-137622419D01*
X189041979Y-137622419D02*
X188946741Y-137765276D01*
X188946741Y-137765276D02*
X188851503Y-137860514D01*
X188851503Y-137860514D02*
X188756265Y-137908133D01*
X190232455Y-137622419D02*
X189756265Y-137622419D01*
X189756265Y-137622419D02*
X189708646Y-138098609D01*
X189708646Y-138098609D02*
X189756265Y-138050990D01*
X189756265Y-138050990D02*
X189851503Y-138003371D01*
X189851503Y-138003371D02*
X190089598Y-138003371D01*
X190089598Y-138003371D02*
X190184836Y-138050990D01*
X190184836Y-138050990D02*
X190232455Y-138098609D01*
X190232455Y-138098609D02*
X190280074Y-138193847D01*
X190280074Y-138193847D02*
X190280074Y-138431942D01*
X190280074Y-138431942D02*
X190232455Y-138527180D01*
X190232455Y-138527180D02*
X190184836Y-138574800D01*
X190184836Y-138574800D02*
X190089598Y-138622419D01*
X190089598Y-138622419D02*
X189851503Y-138622419D01*
X189851503Y-138622419D02*
X189756265Y-138574800D01*
X189756265Y-138574800D02*
X189708646Y-138527180D01*
X197661027Y-92122419D02*
X197994360Y-93122419D01*
X197994360Y-93122419D02*
X198327693Y-92122419D01*
X198613408Y-93074800D02*
X198756265Y-93122419D01*
X198756265Y-93122419D02*
X198994360Y-93122419D01*
X198994360Y-93122419D02*
X199089598Y-93074800D01*
X199089598Y-93074800D02*
X199137217Y-93027180D01*
X199137217Y-93027180D02*
X199184836Y-92931942D01*
X199184836Y-92931942D02*
X199184836Y-92836704D01*
X199184836Y-92836704D02*
X199137217Y-92741466D01*
X199137217Y-92741466D02*
X199089598Y-92693847D01*
X199089598Y-92693847D02*
X198994360Y-92646228D01*
X198994360Y-92646228D02*
X198803884Y-92598609D01*
X198803884Y-92598609D02*
X198708646Y-92550990D01*
X198708646Y-92550990D02*
X198661027Y-92503371D01*
X198661027Y-92503371D02*
X198613408Y-92408133D01*
X198613408Y-92408133D02*
X198613408Y-92312895D01*
X198613408Y-92312895D02*
X198661027Y-92217657D01*
X198661027Y-92217657D02*
X198708646Y-92170038D01*
X198708646Y-92170038D02*
X198803884Y-92122419D01*
X198803884Y-92122419D02*
X199041979Y-92122419D01*
X199041979Y-92122419D02*
X199184836Y-92170038D01*
X199803884Y-92646228D02*
X199803884Y-93122419D01*
X199470551Y-92122419D02*
X199803884Y-92646228D01*
X199803884Y-92646228D02*
X200137217Y-92122419D01*
X200422932Y-93074800D02*
X200565789Y-93122419D01*
X200565789Y-93122419D02*
X200803884Y-93122419D01*
X200803884Y-93122419D02*
X200899122Y-93074800D01*
X200899122Y-93074800D02*
X200946741Y-93027180D01*
X200946741Y-93027180D02*
X200994360Y-92931942D01*
X200994360Y-92931942D02*
X200994360Y-92836704D01*
X200994360Y-92836704D02*
X200946741Y-92741466D01*
X200946741Y-92741466D02*
X200899122Y-92693847D01*
X200899122Y-92693847D02*
X200803884Y-92646228D01*
X200803884Y-92646228D02*
X200613408Y-92598609D01*
X200613408Y-92598609D02*
X200518170Y-92550990D01*
X200518170Y-92550990D02*
X200470551Y-92503371D01*
X200470551Y-92503371D02*
X200422932Y-92408133D01*
X200422932Y-92408133D02*
X200422932Y-92312895D01*
X200422932Y-92312895D02*
X200470551Y-92217657D01*
X200470551Y-92217657D02*
X200518170Y-92170038D01*
X200518170Y-92170038D02*
X200613408Y-92122419D01*
X200613408Y-92122419D02*
X200851503Y-92122419D01*
X200851503Y-92122419D02*
X200994360Y-92170038D01*
X194958646Y-99372419D02*
X195577693Y-99372419D01*
X195577693Y-99372419D02*
X195244360Y-99753371D01*
X195244360Y-99753371D02*
X195387217Y-99753371D01*
X195387217Y-99753371D02*
X195482455Y-99800990D01*
X195482455Y-99800990D02*
X195530074Y-99848609D01*
X195530074Y-99848609D02*
X195577693Y-99943847D01*
X195577693Y-99943847D02*
X195577693Y-100181942D01*
X195577693Y-100181942D02*
X195530074Y-100277180D01*
X195530074Y-100277180D02*
X195482455Y-100324800D01*
X195482455Y-100324800D02*
X195387217Y-100372419D01*
X195387217Y-100372419D02*
X195101503Y-100372419D01*
X195101503Y-100372419D02*
X195006265Y-100324800D01*
X195006265Y-100324800D02*
X194958646Y-100277180D01*
X195863408Y-99372419D02*
X196196741Y-100372419D01*
X196196741Y-100372419D02*
X196530074Y-99372419D01*
X196768170Y-99372419D02*
X197387217Y-99372419D01*
X197387217Y-99372419D02*
X197053884Y-99753371D01*
X197053884Y-99753371D02*
X197196741Y-99753371D01*
X197196741Y-99753371D02*
X197291979Y-99800990D01*
X197291979Y-99800990D02*
X197339598Y-99848609D01*
X197339598Y-99848609D02*
X197387217Y-99943847D01*
X197387217Y-99943847D02*
X197387217Y-100181942D01*
X197387217Y-100181942D02*
X197339598Y-100277180D01*
X197339598Y-100277180D02*
X197291979Y-100324800D01*
X197291979Y-100324800D02*
X197196741Y-100372419D01*
X197196741Y-100372419D02*
X196911027Y-100372419D01*
X196911027Y-100372419D02*
X196815789Y-100324800D01*
X196815789Y-100324800D02*
X196768170Y-100277180D01*
X198101503Y-100753371D02*
X198053884Y-100705752D01*
X198053884Y-100705752D02*
X197958646Y-100562895D01*
X197958646Y-100562895D02*
X197911027Y-100467657D01*
X197911027Y-100467657D02*
X197863408Y-100324800D01*
X197863408Y-100324800D02*
X197815789Y-100086704D01*
X197815789Y-100086704D02*
X197815789Y-99896228D01*
X197815789Y-99896228D02*
X197863408Y-99658133D01*
X197863408Y-99658133D02*
X197911027Y-99515276D01*
X197911027Y-99515276D02*
X197958646Y-99420038D01*
X197958646Y-99420038D02*
X198053884Y-99277180D01*
X198053884Y-99277180D02*
X198101503Y-99229561D01*
X198672932Y-99372419D02*
X198863408Y-99372419D01*
X198863408Y-99372419D02*
X198958646Y-99420038D01*
X198958646Y-99420038D02*
X199053884Y-99515276D01*
X199053884Y-99515276D02*
X199101503Y-99705752D01*
X199101503Y-99705752D02*
X199101503Y-100039085D01*
X199101503Y-100039085D02*
X199053884Y-100229561D01*
X199053884Y-100229561D02*
X198958646Y-100324800D01*
X198958646Y-100324800D02*
X198863408Y-100372419D01*
X198863408Y-100372419D02*
X198672932Y-100372419D01*
X198672932Y-100372419D02*
X198577694Y-100324800D01*
X198577694Y-100324800D02*
X198482456Y-100229561D01*
X198482456Y-100229561D02*
X198434837Y-100039085D01*
X198434837Y-100039085D02*
X198434837Y-99705752D01*
X198434837Y-99705752D02*
X198482456Y-99515276D01*
X198482456Y-99515276D02*
X198577694Y-99420038D01*
X198577694Y-99420038D02*
X198672932Y-99372419D01*
X199958646Y-99705752D02*
X199958646Y-100372419D01*
X199530075Y-99705752D02*
X199530075Y-100229561D01*
X199530075Y-100229561D02*
X199577694Y-100324800D01*
X199577694Y-100324800D02*
X199672932Y-100372419D01*
X199672932Y-100372419D02*
X199815789Y-100372419D01*
X199815789Y-100372419D02*
X199911027Y-100324800D01*
X199911027Y-100324800D02*
X199958646Y-100277180D01*
X200291980Y-99705752D02*
X200672932Y-99705752D01*
X200434837Y-99372419D02*
X200434837Y-100229561D01*
X200434837Y-100229561D02*
X200482456Y-100324800D01*
X200482456Y-100324800D02*
X200577694Y-100372419D01*
X200577694Y-100372419D02*
X200672932Y-100372419D01*
X200911028Y-100753371D02*
X200958647Y-100705752D01*
X200958647Y-100705752D02*
X201053885Y-100562895D01*
X201053885Y-100562895D02*
X201101504Y-100467657D01*
X201101504Y-100467657D02*
X201149123Y-100324800D01*
X201149123Y-100324800D02*
X201196742Y-100086704D01*
X201196742Y-100086704D02*
X201196742Y-99896228D01*
X201196742Y-99896228D02*
X201149123Y-99658133D01*
X201149123Y-99658133D02*
X201101504Y-99515276D01*
X201101504Y-99515276D02*
X201053885Y-99420038D01*
X201053885Y-99420038D02*
X200958647Y-99277180D01*
X200958647Y-99277180D02*
X200911028Y-99229561D01*
X199077693Y-132420038D02*
X198982455Y-132372419D01*
X198982455Y-132372419D02*
X198839598Y-132372419D01*
X198839598Y-132372419D02*
X198696741Y-132420038D01*
X198696741Y-132420038D02*
X198601503Y-132515276D01*
X198601503Y-132515276D02*
X198553884Y-132610514D01*
X198553884Y-132610514D02*
X198506265Y-132800990D01*
X198506265Y-132800990D02*
X198506265Y-132943847D01*
X198506265Y-132943847D02*
X198553884Y-133134323D01*
X198553884Y-133134323D02*
X198601503Y-133229561D01*
X198601503Y-133229561D02*
X198696741Y-133324800D01*
X198696741Y-133324800D02*
X198839598Y-133372419D01*
X198839598Y-133372419D02*
X198934836Y-133372419D01*
X198934836Y-133372419D02*
X199077693Y-133324800D01*
X199077693Y-133324800D02*
X199125312Y-133277180D01*
X199125312Y-133277180D02*
X199125312Y-132943847D01*
X199125312Y-132943847D02*
X198934836Y-132943847D01*
X199553884Y-133372419D02*
X199553884Y-132372419D01*
X199553884Y-132372419D02*
X200125312Y-133372419D01*
X200125312Y-133372419D02*
X200125312Y-132372419D01*
X200601503Y-133372419D02*
X200601503Y-132372419D01*
X200601503Y-132372419D02*
X200839598Y-132372419D01*
X200839598Y-132372419D02*
X200982455Y-132420038D01*
X200982455Y-132420038D02*
X201077693Y-132515276D01*
X201077693Y-132515276D02*
X201125312Y-132610514D01*
X201125312Y-132610514D02*
X201172931Y-132800990D01*
X201172931Y-132800990D02*
X201172931Y-132943847D01*
X201172931Y-132943847D02*
X201125312Y-133134323D01*
X201125312Y-133134323D02*
X201077693Y-133229561D01*
X201077693Y-133229561D02*
X200982455Y-133324800D01*
X200982455Y-133324800D02*
X200839598Y-133372419D01*
X200839598Y-133372419D02*
X200601503Y-133372419D01*
X187327693Y-127420038D02*
X187232455Y-127372419D01*
X187232455Y-127372419D02*
X187089598Y-127372419D01*
X187089598Y-127372419D02*
X186946741Y-127420038D01*
X186946741Y-127420038D02*
X186851503Y-127515276D01*
X186851503Y-127515276D02*
X186803884Y-127610514D01*
X186803884Y-127610514D02*
X186756265Y-127800990D01*
X186756265Y-127800990D02*
X186756265Y-127943847D01*
X186756265Y-127943847D02*
X186803884Y-128134323D01*
X186803884Y-128134323D02*
X186851503Y-128229561D01*
X186851503Y-128229561D02*
X186946741Y-128324800D01*
X186946741Y-128324800D02*
X187089598Y-128372419D01*
X187089598Y-128372419D02*
X187184836Y-128372419D01*
X187184836Y-128372419D02*
X187327693Y-128324800D01*
X187327693Y-128324800D02*
X187375312Y-128277180D01*
X187375312Y-128277180D02*
X187375312Y-127943847D01*
X187375312Y-127943847D02*
X187184836Y-127943847D01*
X187803884Y-128372419D02*
X187803884Y-127372419D01*
X187803884Y-127372419D02*
X188184836Y-127372419D01*
X188184836Y-127372419D02*
X188280074Y-127420038D01*
X188280074Y-127420038D02*
X188327693Y-127467657D01*
X188327693Y-127467657D02*
X188375312Y-127562895D01*
X188375312Y-127562895D02*
X188375312Y-127705752D01*
X188375312Y-127705752D02*
X188327693Y-127800990D01*
X188327693Y-127800990D02*
X188280074Y-127848609D01*
X188280074Y-127848609D02*
X188184836Y-127896228D01*
X188184836Y-127896228D02*
X187803884Y-127896228D01*
X189327693Y-128372419D02*
X188756265Y-128372419D01*
X189041979Y-128372419D02*
X189041979Y-127372419D01*
X189041979Y-127372419D02*
X188946741Y-127515276D01*
X188946741Y-127515276D02*
X188851503Y-127610514D01*
X188851503Y-127610514D02*
X188756265Y-127658133D01*
X189708646Y-127467657D02*
X189756265Y-127420038D01*
X189756265Y-127420038D02*
X189851503Y-127372419D01*
X189851503Y-127372419D02*
X190089598Y-127372419D01*
X190089598Y-127372419D02*
X190184836Y-127420038D01*
X190184836Y-127420038D02*
X190232455Y-127467657D01*
X190232455Y-127467657D02*
X190280074Y-127562895D01*
X190280074Y-127562895D02*
X190280074Y-127658133D01*
X190280074Y-127658133D02*
X190232455Y-127800990D01*
X190232455Y-127800990D02*
X189661027Y-128372419D01*
X189661027Y-128372419D02*
X190280074Y-128372419D01*
X198077693Y-135170038D02*
X197982455Y-135122419D01*
X197982455Y-135122419D02*
X197839598Y-135122419D01*
X197839598Y-135122419D02*
X197696741Y-135170038D01*
X197696741Y-135170038D02*
X197601503Y-135265276D01*
X197601503Y-135265276D02*
X197553884Y-135360514D01*
X197553884Y-135360514D02*
X197506265Y-135550990D01*
X197506265Y-135550990D02*
X197506265Y-135693847D01*
X197506265Y-135693847D02*
X197553884Y-135884323D01*
X197553884Y-135884323D02*
X197601503Y-135979561D01*
X197601503Y-135979561D02*
X197696741Y-136074800D01*
X197696741Y-136074800D02*
X197839598Y-136122419D01*
X197839598Y-136122419D02*
X197934836Y-136122419D01*
X197934836Y-136122419D02*
X198077693Y-136074800D01*
X198077693Y-136074800D02*
X198125312Y-136027180D01*
X198125312Y-136027180D02*
X198125312Y-135693847D01*
X198125312Y-135693847D02*
X197934836Y-135693847D01*
X198553884Y-136122419D02*
X198553884Y-135122419D01*
X198553884Y-135122419D02*
X198934836Y-135122419D01*
X198934836Y-135122419D02*
X199030074Y-135170038D01*
X199030074Y-135170038D02*
X199077693Y-135217657D01*
X199077693Y-135217657D02*
X199125312Y-135312895D01*
X199125312Y-135312895D02*
X199125312Y-135455752D01*
X199125312Y-135455752D02*
X199077693Y-135550990D01*
X199077693Y-135550990D02*
X199030074Y-135598609D01*
X199030074Y-135598609D02*
X198934836Y-135646228D01*
X198934836Y-135646228D02*
X198553884Y-135646228D01*
X200077693Y-136122419D02*
X199506265Y-136122419D01*
X199791979Y-136122419D02*
X199791979Y-135122419D01*
X199791979Y-135122419D02*
X199696741Y-135265276D01*
X199696741Y-135265276D02*
X199601503Y-135360514D01*
X199601503Y-135360514D02*
X199506265Y-135408133D01*
X200411027Y-135122419D02*
X201077693Y-135122419D01*
X201077693Y-135122419D02*
X200649122Y-136122419D01*
X198077693Y-109920038D02*
X197982455Y-109872419D01*
X197982455Y-109872419D02*
X197839598Y-109872419D01*
X197839598Y-109872419D02*
X197696741Y-109920038D01*
X197696741Y-109920038D02*
X197601503Y-110015276D01*
X197601503Y-110015276D02*
X197553884Y-110110514D01*
X197553884Y-110110514D02*
X197506265Y-110300990D01*
X197506265Y-110300990D02*
X197506265Y-110443847D01*
X197506265Y-110443847D02*
X197553884Y-110634323D01*
X197553884Y-110634323D02*
X197601503Y-110729561D01*
X197601503Y-110729561D02*
X197696741Y-110824800D01*
X197696741Y-110824800D02*
X197839598Y-110872419D01*
X197839598Y-110872419D02*
X197934836Y-110872419D01*
X197934836Y-110872419D02*
X198077693Y-110824800D01*
X198077693Y-110824800D02*
X198125312Y-110777180D01*
X198125312Y-110777180D02*
X198125312Y-110443847D01*
X198125312Y-110443847D02*
X197934836Y-110443847D01*
X198553884Y-110872419D02*
X198553884Y-109872419D01*
X198553884Y-109872419D02*
X198934836Y-109872419D01*
X198934836Y-109872419D02*
X199030074Y-109920038D01*
X199030074Y-109920038D02*
X199077693Y-109967657D01*
X199077693Y-109967657D02*
X199125312Y-110062895D01*
X199125312Y-110062895D02*
X199125312Y-110205752D01*
X199125312Y-110205752D02*
X199077693Y-110300990D01*
X199077693Y-110300990D02*
X199030074Y-110348609D01*
X199030074Y-110348609D02*
X198934836Y-110396228D01*
X198934836Y-110396228D02*
X198553884Y-110396228D01*
X199506265Y-109967657D02*
X199553884Y-109920038D01*
X199553884Y-109920038D02*
X199649122Y-109872419D01*
X199649122Y-109872419D02*
X199887217Y-109872419D01*
X199887217Y-109872419D02*
X199982455Y-109920038D01*
X199982455Y-109920038D02*
X200030074Y-109967657D01*
X200030074Y-109967657D02*
X200077693Y-110062895D01*
X200077693Y-110062895D02*
X200077693Y-110158133D01*
X200077693Y-110158133D02*
X200030074Y-110300990D01*
X200030074Y-110300990D02*
X199458646Y-110872419D01*
X199458646Y-110872419D02*
X200077693Y-110872419D01*
X200411027Y-109872419D02*
X201077693Y-109872419D01*
X201077693Y-109872419D02*
X200649122Y-110872419D01*
X198077693Y-112170038D02*
X197982455Y-112122419D01*
X197982455Y-112122419D02*
X197839598Y-112122419D01*
X197839598Y-112122419D02*
X197696741Y-112170038D01*
X197696741Y-112170038D02*
X197601503Y-112265276D01*
X197601503Y-112265276D02*
X197553884Y-112360514D01*
X197553884Y-112360514D02*
X197506265Y-112550990D01*
X197506265Y-112550990D02*
X197506265Y-112693847D01*
X197506265Y-112693847D02*
X197553884Y-112884323D01*
X197553884Y-112884323D02*
X197601503Y-112979561D01*
X197601503Y-112979561D02*
X197696741Y-113074800D01*
X197696741Y-113074800D02*
X197839598Y-113122419D01*
X197839598Y-113122419D02*
X197934836Y-113122419D01*
X197934836Y-113122419D02*
X198077693Y-113074800D01*
X198077693Y-113074800D02*
X198125312Y-113027180D01*
X198125312Y-113027180D02*
X198125312Y-112693847D01*
X198125312Y-112693847D02*
X197934836Y-112693847D01*
X198553884Y-113122419D02*
X198553884Y-112122419D01*
X198553884Y-112122419D02*
X198934836Y-112122419D01*
X198934836Y-112122419D02*
X199030074Y-112170038D01*
X199030074Y-112170038D02*
X199077693Y-112217657D01*
X199077693Y-112217657D02*
X199125312Y-112312895D01*
X199125312Y-112312895D02*
X199125312Y-112455752D01*
X199125312Y-112455752D02*
X199077693Y-112550990D01*
X199077693Y-112550990D02*
X199030074Y-112598609D01*
X199030074Y-112598609D02*
X198934836Y-112646228D01*
X198934836Y-112646228D02*
X198553884Y-112646228D01*
X199506265Y-112217657D02*
X199553884Y-112170038D01*
X199553884Y-112170038D02*
X199649122Y-112122419D01*
X199649122Y-112122419D02*
X199887217Y-112122419D01*
X199887217Y-112122419D02*
X199982455Y-112170038D01*
X199982455Y-112170038D02*
X200030074Y-112217657D01*
X200030074Y-112217657D02*
X200077693Y-112312895D01*
X200077693Y-112312895D02*
X200077693Y-112408133D01*
X200077693Y-112408133D02*
X200030074Y-112550990D01*
X200030074Y-112550990D02*
X199458646Y-113122419D01*
X199458646Y-113122419D02*
X200077693Y-113122419D01*
X200934836Y-112122419D02*
X200744360Y-112122419D01*
X200744360Y-112122419D02*
X200649122Y-112170038D01*
X200649122Y-112170038D02*
X200601503Y-112217657D01*
X200601503Y-112217657D02*
X200506265Y-112360514D01*
X200506265Y-112360514D02*
X200458646Y-112550990D01*
X200458646Y-112550990D02*
X200458646Y-112931942D01*
X200458646Y-112931942D02*
X200506265Y-113027180D01*
X200506265Y-113027180D02*
X200553884Y-113074800D01*
X200553884Y-113074800D02*
X200649122Y-113122419D01*
X200649122Y-113122419D02*
X200839598Y-113122419D01*
X200839598Y-113122419D02*
X200934836Y-113074800D01*
X200934836Y-113074800D02*
X200982455Y-113027180D01*
X200982455Y-113027180D02*
X201030074Y-112931942D01*
X201030074Y-112931942D02*
X201030074Y-112693847D01*
X201030074Y-112693847D02*
X200982455Y-112598609D01*
X200982455Y-112598609D02*
X200934836Y-112550990D01*
X200934836Y-112550990D02*
X200839598Y-112503371D01*
X200839598Y-112503371D02*
X200649122Y-112503371D01*
X200649122Y-112503371D02*
X200553884Y-112550990D01*
X200553884Y-112550990D02*
X200506265Y-112598609D01*
X200506265Y-112598609D02*
X200458646Y-112693847D01*
X187327693Y-109920038D02*
X187232455Y-109872419D01*
X187232455Y-109872419D02*
X187089598Y-109872419D01*
X187089598Y-109872419D02*
X186946741Y-109920038D01*
X186946741Y-109920038D02*
X186851503Y-110015276D01*
X186851503Y-110015276D02*
X186803884Y-110110514D01*
X186803884Y-110110514D02*
X186756265Y-110300990D01*
X186756265Y-110300990D02*
X186756265Y-110443847D01*
X186756265Y-110443847D02*
X186803884Y-110634323D01*
X186803884Y-110634323D02*
X186851503Y-110729561D01*
X186851503Y-110729561D02*
X186946741Y-110824800D01*
X186946741Y-110824800D02*
X187089598Y-110872419D01*
X187089598Y-110872419D02*
X187184836Y-110872419D01*
X187184836Y-110872419D02*
X187327693Y-110824800D01*
X187327693Y-110824800D02*
X187375312Y-110777180D01*
X187375312Y-110777180D02*
X187375312Y-110443847D01*
X187375312Y-110443847D02*
X187184836Y-110443847D01*
X187803884Y-110872419D02*
X187803884Y-109872419D01*
X187803884Y-109872419D02*
X188184836Y-109872419D01*
X188184836Y-109872419D02*
X188280074Y-109920038D01*
X188280074Y-109920038D02*
X188327693Y-109967657D01*
X188327693Y-109967657D02*
X188375312Y-110062895D01*
X188375312Y-110062895D02*
X188375312Y-110205752D01*
X188375312Y-110205752D02*
X188327693Y-110300990D01*
X188327693Y-110300990D02*
X188280074Y-110348609D01*
X188280074Y-110348609D02*
X188184836Y-110396228D01*
X188184836Y-110396228D02*
X187803884Y-110396228D01*
X189232455Y-109872419D02*
X189041979Y-109872419D01*
X189041979Y-109872419D02*
X188946741Y-109920038D01*
X188946741Y-109920038D02*
X188899122Y-109967657D01*
X188899122Y-109967657D02*
X188803884Y-110110514D01*
X188803884Y-110110514D02*
X188756265Y-110300990D01*
X188756265Y-110300990D02*
X188756265Y-110681942D01*
X188756265Y-110681942D02*
X188803884Y-110777180D01*
X188803884Y-110777180D02*
X188851503Y-110824800D01*
X188851503Y-110824800D02*
X188946741Y-110872419D01*
X188946741Y-110872419D02*
X189137217Y-110872419D01*
X189137217Y-110872419D02*
X189232455Y-110824800D01*
X189232455Y-110824800D02*
X189280074Y-110777180D01*
X189280074Y-110777180D02*
X189327693Y-110681942D01*
X189327693Y-110681942D02*
X189327693Y-110443847D01*
X189327693Y-110443847D02*
X189280074Y-110348609D01*
X189280074Y-110348609D02*
X189232455Y-110300990D01*
X189232455Y-110300990D02*
X189137217Y-110253371D01*
X189137217Y-110253371D02*
X188946741Y-110253371D01*
X188946741Y-110253371D02*
X188851503Y-110300990D01*
X188851503Y-110300990D02*
X188803884Y-110348609D01*
X188803884Y-110348609D02*
X188756265Y-110443847D01*
X187327693Y-122420038D02*
X187232455Y-122372419D01*
X187232455Y-122372419D02*
X187089598Y-122372419D01*
X187089598Y-122372419D02*
X186946741Y-122420038D01*
X186946741Y-122420038D02*
X186851503Y-122515276D01*
X186851503Y-122515276D02*
X186803884Y-122610514D01*
X186803884Y-122610514D02*
X186756265Y-122800990D01*
X186756265Y-122800990D02*
X186756265Y-122943847D01*
X186756265Y-122943847D02*
X186803884Y-123134323D01*
X186803884Y-123134323D02*
X186851503Y-123229561D01*
X186851503Y-123229561D02*
X186946741Y-123324800D01*
X186946741Y-123324800D02*
X187089598Y-123372419D01*
X187089598Y-123372419D02*
X187184836Y-123372419D01*
X187184836Y-123372419D02*
X187327693Y-123324800D01*
X187327693Y-123324800D02*
X187375312Y-123277180D01*
X187375312Y-123277180D02*
X187375312Y-122943847D01*
X187375312Y-122943847D02*
X187184836Y-122943847D01*
X187803884Y-123372419D02*
X187803884Y-122372419D01*
X187803884Y-122372419D02*
X188184836Y-122372419D01*
X188184836Y-122372419D02*
X188280074Y-122420038D01*
X188280074Y-122420038D02*
X188327693Y-122467657D01*
X188327693Y-122467657D02*
X188375312Y-122562895D01*
X188375312Y-122562895D02*
X188375312Y-122705752D01*
X188375312Y-122705752D02*
X188327693Y-122800990D01*
X188327693Y-122800990D02*
X188280074Y-122848609D01*
X188280074Y-122848609D02*
X188184836Y-122896228D01*
X188184836Y-122896228D02*
X187803884Y-122896228D01*
X189327693Y-123372419D02*
X188756265Y-123372419D01*
X189041979Y-123372419D02*
X189041979Y-122372419D01*
X189041979Y-122372419D02*
X188946741Y-122515276D01*
X188946741Y-122515276D02*
X188851503Y-122610514D01*
X188851503Y-122610514D02*
X188756265Y-122658133D01*
X189946741Y-122372419D02*
X190041979Y-122372419D01*
X190041979Y-122372419D02*
X190137217Y-122420038D01*
X190137217Y-122420038D02*
X190184836Y-122467657D01*
X190184836Y-122467657D02*
X190232455Y-122562895D01*
X190232455Y-122562895D02*
X190280074Y-122753371D01*
X190280074Y-122753371D02*
X190280074Y-122991466D01*
X190280074Y-122991466D02*
X190232455Y-123181942D01*
X190232455Y-123181942D02*
X190184836Y-123277180D01*
X190184836Y-123277180D02*
X190137217Y-123324800D01*
X190137217Y-123324800D02*
X190041979Y-123372419D01*
X190041979Y-123372419D02*
X189946741Y-123372419D01*
X189946741Y-123372419D02*
X189851503Y-123324800D01*
X189851503Y-123324800D02*
X189803884Y-123277180D01*
X189803884Y-123277180D02*
X189756265Y-123181942D01*
X189756265Y-123181942D02*
X189708646Y-122991466D01*
X189708646Y-122991466D02*
X189708646Y-122753371D01*
X189708646Y-122753371D02*
X189756265Y-122562895D01*
X189756265Y-122562895D02*
X189803884Y-122467657D01*
X189803884Y-122467657D02*
X189851503Y-122420038D01*
X189851503Y-122420038D02*
X189946741Y-122372419D01*
X198077693Y-137670038D02*
X197982455Y-137622419D01*
X197982455Y-137622419D02*
X197839598Y-137622419D01*
X197839598Y-137622419D02*
X197696741Y-137670038D01*
X197696741Y-137670038D02*
X197601503Y-137765276D01*
X197601503Y-137765276D02*
X197553884Y-137860514D01*
X197553884Y-137860514D02*
X197506265Y-138050990D01*
X197506265Y-138050990D02*
X197506265Y-138193847D01*
X197506265Y-138193847D02*
X197553884Y-138384323D01*
X197553884Y-138384323D02*
X197601503Y-138479561D01*
X197601503Y-138479561D02*
X197696741Y-138574800D01*
X197696741Y-138574800D02*
X197839598Y-138622419D01*
X197839598Y-138622419D02*
X197934836Y-138622419D01*
X197934836Y-138622419D02*
X198077693Y-138574800D01*
X198077693Y-138574800D02*
X198125312Y-138527180D01*
X198125312Y-138527180D02*
X198125312Y-138193847D01*
X198125312Y-138193847D02*
X197934836Y-138193847D01*
X198553884Y-138622419D02*
X198553884Y-137622419D01*
X198553884Y-137622419D02*
X198934836Y-137622419D01*
X198934836Y-137622419D02*
X199030074Y-137670038D01*
X199030074Y-137670038D02*
X199077693Y-137717657D01*
X199077693Y-137717657D02*
X199125312Y-137812895D01*
X199125312Y-137812895D02*
X199125312Y-137955752D01*
X199125312Y-137955752D02*
X199077693Y-138050990D01*
X199077693Y-138050990D02*
X199030074Y-138098609D01*
X199030074Y-138098609D02*
X198934836Y-138146228D01*
X198934836Y-138146228D02*
X198553884Y-138146228D01*
X200077693Y-138622419D02*
X199506265Y-138622419D01*
X199791979Y-138622419D02*
X199791979Y-137622419D01*
X199791979Y-137622419D02*
X199696741Y-137765276D01*
X199696741Y-137765276D02*
X199601503Y-137860514D01*
X199601503Y-137860514D02*
X199506265Y-137908133D01*
X200934836Y-137622419D02*
X200744360Y-137622419D01*
X200744360Y-137622419D02*
X200649122Y-137670038D01*
X200649122Y-137670038D02*
X200601503Y-137717657D01*
X200601503Y-137717657D02*
X200506265Y-137860514D01*
X200506265Y-137860514D02*
X200458646Y-138050990D01*
X200458646Y-138050990D02*
X200458646Y-138431942D01*
X200458646Y-138431942D02*
X200506265Y-138527180D01*
X200506265Y-138527180D02*
X200553884Y-138574800D01*
X200553884Y-138574800D02*
X200649122Y-138622419D01*
X200649122Y-138622419D02*
X200839598Y-138622419D01*
X200839598Y-138622419D02*
X200934836Y-138574800D01*
X200934836Y-138574800D02*
X200982455Y-138527180D01*
X200982455Y-138527180D02*
X201030074Y-138431942D01*
X201030074Y-138431942D02*
X201030074Y-138193847D01*
X201030074Y-138193847D02*
X200982455Y-138098609D01*
X200982455Y-138098609D02*
X200934836Y-138050990D01*
X200934836Y-138050990D02*
X200839598Y-138003371D01*
X200839598Y-138003371D02*
X200649122Y-138003371D01*
X200649122Y-138003371D02*
X200553884Y-138050990D01*
X200553884Y-138050990D02*
X200506265Y-138098609D01*
X200506265Y-138098609D02*
X200458646Y-138193847D01*
D11*
X182046666Y-87704819D02*
X182046666Y-88419104D01*
X182046666Y-88419104D02*
X181999047Y-88561961D01*
X181999047Y-88561961D02*
X181903809Y-88657200D01*
X181903809Y-88657200D02*
X181760952Y-88704819D01*
X181760952Y-88704819D02*
X181665714Y-88704819D01*
X183046666Y-88704819D02*
X182475238Y-88704819D01*
X182760952Y-88704819D02*
X182760952Y-87704819D01*
X182760952Y-87704819D02*
X182665714Y-87847676D01*
X182665714Y-87847676D02*
X182570476Y-87942914D01*
X182570476Y-87942914D02*
X182475238Y-87990533D01*
X178913333Y-137704819D02*
X178580000Y-137228628D01*
X178341905Y-137704819D02*
X178341905Y-136704819D01*
X178341905Y-136704819D02*
X178722857Y-136704819D01*
X178722857Y-136704819D02*
X178818095Y-136752438D01*
X178818095Y-136752438D02*
X178865714Y-136800057D01*
X178865714Y-136800057D02*
X178913333Y-136895295D01*
X178913333Y-136895295D02*
X178913333Y-137038152D01*
X178913333Y-137038152D02*
X178865714Y-137133390D01*
X178865714Y-137133390D02*
X178818095Y-137181009D01*
X178818095Y-137181009D02*
X178722857Y-137228628D01*
X178722857Y-137228628D02*
X178341905Y-137228628D01*
X179294286Y-136800057D02*
X179341905Y-136752438D01*
X179341905Y-136752438D02*
X179437143Y-136704819D01*
X179437143Y-136704819D02*
X179675238Y-136704819D01*
X179675238Y-136704819D02*
X179770476Y-136752438D01*
X179770476Y-136752438D02*
X179818095Y-136800057D01*
X179818095Y-136800057D02*
X179865714Y-136895295D01*
X179865714Y-136895295D02*
X179865714Y-136990533D01*
X179865714Y-136990533D02*
X179818095Y-137133390D01*
X179818095Y-137133390D02*
X179246667Y-137704819D01*
X179246667Y-137704819D02*
X179865714Y-137704819D01*
X202214819Y-142483333D02*
X202929104Y-142483333D01*
X202929104Y-142483333D02*
X203071961Y-142530952D01*
X203071961Y-142530952D02*
X203167200Y-142626190D01*
X203167200Y-142626190D02*
X203214819Y-142769047D01*
X203214819Y-142769047D02*
X203214819Y-142864285D01*
X202310057Y-142054761D02*
X202262438Y-142007142D01*
X202262438Y-142007142D02*
X202214819Y-141911904D01*
X202214819Y-141911904D02*
X202214819Y-141673809D01*
X202214819Y-141673809D02*
X202262438Y-141578571D01*
X202262438Y-141578571D02*
X202310057Y-141530952D01*
X202310057Y-141530952D02*
X202405295Y-141483333D01*
X202405295Y-141483333D02*
X202500533Y-141483333D01*
X202500533Y-141483333D02*
X202643390Y-141530952D01*
X202643390Y-141530952D02*
X203214819Y-142102380D01*
X203214819Y-142102380D02*
X203214819Y-141483333D01*
X153106667Y-116813200D02*
X153249524Y-116860819D01*
X153249524Y-116860819D02*
X153487619Y-116860819D01*
X153487619Y-116860819D02*
X153582857Y-116813200D01*
X153582857Y-116813200D02*
X153630476Y-116765580D01*
X153630476Y-116765580D02*
X153678095Y-116670342D01*
X153678095Y-116670342D02*
X153678095Y-116575104D01*
X153678095Y-116575104D02*
X153630476Y-116479866D01*
X153630476Y-116479866D02*
X153582857Y-116432247D01*
X153582857Y-116432247D02*
X153487619Y-116384628D01*
X153487619Y-116384628D02*
X153297143Y-116337009D01*
X153297143Y-116337009D02*
X153201905Y-116289390D01*
X153201905Y-116289390D02*
X153154286Y-116241771D01*
X153154286Y-116241771D02*
X153106667Y-116146533D01*
X153106667Y-116146533D02*
X153106667Y-116051295D01*
X153106667Y-116051295D02*
X153154286Y-115956057D01*
X153154286Y-115956057D02*
X153201905Y-115908438D01*
X153201905Y-115908438D02*
X153297143Y-115860819D01*
X153297143Y-115860819D02*
X153535238Y-115860819D01*
X153535238Y-115860819D02*
X153678095Y-115908438D01*
X154011429Y-115860819D02*
X154249524Y-116860819D01*
X154249524Y-116860819D02*
X154440000Y-116146533D01*
X154440000Y-116146533D02*
X154630476Y-116860819D01*
X154630476Y-116860819D02*
X154868572Y-115860819D01*
X155154286Y-115860819D02*
X155820952Y-115860819D01*
X155820952Y-115860819D02*
X155392381Y-116860819D01*
X151083333Y-137704819D02*
X150750000Y-137228628D01*
X150511905Y-137704819D02*
X150511905Y-136704819D01*
X150511905Y-136704819D02*
X150892857Y-136704819D01*
X150892857Y-136704819D02*
X150988095Y-136752438D01*
X150988095Y-136752438D02*
X151035714Y-136800057D01*
X151035714Y-136800057D02*
X151083333Y-136895295D01*
X151083333Y-136895295D02*
X151083333Y-137038152D01*
X151083333Y-137038152D02*
X151035714Y-137133390D01*
X151035714Y-137133390D02*
X150988095Y-137181009D01*
X150988095Y-137181009D02*
X150892857Y-137228628D01*
X150892857Y-137228628D02*
X150511905Y-137228628D01*
X152035714Y-137704819D02*
X151464286Y-137704819D01*
X151750000Y-137704819D02*
X151750000Y-136704819D01*
X151750000Y-136704819D02*
X151654762Y-136847676D01*
X151654762Y-136847676D02*
X151559524Y-136942914D01*
X151559524Y-136942914D02*
X151464286Y-136990533D01*
X114926667Y-116813200D02*
X115069524Y-116860819D01*
X115069524Y-116860819D02*
X115307619Y-116860819D01*
X115307619Y-116860819D02*
X115402857Y-116813200D01*
X115402857Y-116813200D02*
X115450476Y-116765580D01*
X115450476Y-116765580D02*
X115498095Y-116670342D01*
X115498095Y-116670342D02*
X115498095Y-116575104D01*
X115498095Y-116575104D02*
X115450476Y-116479866D01*
X115450476Y-116479866D02*
X115402857Y-116432247D01*
X115402857Y-116432247D02*
X115307619Y-116384628D01*
X115307619Y-116384628D02*
X115117143Y-116337009D01*
X115117143Y-116337009D02*
X115021905Y-116289390D01*
X115021905Y-116289390D02*
X114974286Y-116241771D01*
X114974286Y-116241771D02*
X114926667Y-116146533D01*
X114926667Y-116146533D02*
X114926667Y-116051295D01*
X114926667Y-116051295D02*
X114974286Y-115956057D01*
X114974286Y-115956057D02*
X115021905Y-115908438D01*
X115021905Y-115908438D02*
X115117143Y-115860819D01*
X115117143Y-115860819D02*
X115355238Y-115860819D01*
X115355238Y-115860819D02*
X115498095Y-115908438D01*
X115831429Y-115860819D02*
X116069524Y-116860819D01*
X116069524Y-116860819D02*
X116260000Y-116146533D01*
X116260000Y-116146533D02*
X116450476Y-116860819D01*
X116450476Y-116860819D02*
X116688572Y-115860819D01*
X117545714Y-115860819D02*
X117069524Y-115860819D01*
X117069524Y-115860819D02*
X117021905Y-116337009D01*
X117021905Y-116337009D02*
X117069524Y-116289390D01*
X117069524Y-116289390D02*
X117164762Y-116241771D01*
X117164762Y-116241771D02*
X117402857Y-116241771D01*
X117402857Y-116241771D02*
X117498095Y-116289390D01*
X117498095Y-116289390D02*
X117545714Y-116337009D01*
X117545714Y-116337009D02*
X117593333Y-116432247D01*
X117593333Y-116432247D02*
X117593333Y-116670342D01*
X117593333Y-116670342D02*
X117545714Y-116765580D01*
X117545714Y-116765580D02*
X117498095Y-116813200D01*
X117498095Y-116813200D02*
X117402857Y-116860819D01*
X117402857Y-116860819D02*
X117164762Y-116860819D01*
X117164762Y-116860819D02*
X117069524Y-116813200D01*
X117069524Y-116813200D02*
X117021905Y-116765580D01*
X132761905Y-137954819D02*
X132761905Y-136954819D01*
X132761905Y-136954819D02*
X133000000Y-136954819D01*
X133000000Y-136954819D02*
X133142857Y-137002438D01*
X133142857Y-137002438D02*
X133238095Y-137097676D01*
X133238095Y-137097676D02*
X133285714Y-137192914D01*
X133285714Y-137192914D02*
X133333333Y-137383390D01*
X133333333Y-137383390D02*
X133333333Y-137526247D01*
X133333333Y-137526247D02*
X133285714Y-137716723D01*
X133285714Y-137716723D02*
X133238095Y-137811961D01*
X133238095Y-137811961D02*
X133142857Y-137907200D01*
X133142857Y-137907200D02*
X133000000Y-137954819D01*
X133000000Y-137954819D02*
X132761905Y-137954819D01*
X134285714Y-137954819D02*
X133714286Y-137954819D01*
X134000000Y-137954819D02*
X134000000Y-136954819D01*
X134000000Y-136954819D02*
X133904762Y-137097676D01*
X133904762Y-137097676D02*
X133809524Y-137192914D01*
X133809524Y-137192914D02*
X133714286Y-137240533D01*
X172226667Y-97433200D02*
X172369524Y-97480819D01*
X172369524Y-97480819D02*
X172607619Y-97480819D01*
X172607619Y-97480819D02*
X172702857Y-97433200D01*
X172702857Y-97433200D02*
X172750476Y-97385580D01*
X172750476Y-97385580D02*
X172798095Y-97290342D01*
X172798095Y-97290342D02*
X172798095Y-97195104D01*
X172798095Y-97195104D02*
X172750476Y-97099866D01*
X172750476Y-97099866D02*
X172702857Y-97052247D01*
X172702857Y-97052247D02*
X172607619Y-97004628D01*
X172607619Y-97004628D02*
X172417143Y-96957009D01*
X172417143Y-96957009D02*
X172321905Y-96909390D01*
X172321905Y-96909390D02*
X172274286Y-96861771D01*
X172274286Y-96861771D02*
X172226667Y-96766533D01*
X172226667Y-96766533D02*
X172226667Y-96671295D01*
X172226667Y-96671295D02*
X172274286Y-96576057D01*
X172274286Y-96576057D02*
X172321905Y-96528438D01*
X172321905Y-96528438D02*
X172417143Y-96480819D01*
X172417143Y-96480819D02*
X172655238Y-96480819D01*
X172655238Y-96480819D02*
X172798095Y-96528438D01*
X173131429Y-96480819D02*
X173369524Y-97480819D01*
X173369524Y-97480819D02*
X173560000Y-96766533D01*
X173560000Y-96766533D02*
X173750476Y-97480819D01*
X173750476Y-97480819D02*
X173988572Y-96480819D01*
X174798095Y-96814152D02*
X174798095Y-97480819D01*
X174560000Y-96433200D02*
X174321905Y-97147485D01*
X174321905Y-97147485D02*
X174940952Y-97147485D01*
X114986667Y-97433200D02*
X115129524Y-97480819D01*
X115129524Y-97480819D02*
X115367619Y-97480819D01*
X115367619Y-97480819D02*
X115462857Y-97433200D01*
X115462857Y-97433200D02*
X115510476Y-97385580D01*
X115510476Y-97385580D02*
X115558095Y-97290342D01*
X115558095Y-97290342D02*
X115558095Y-97195104D01*
X115558095Y-97195104D02*
X115510476Y-97099866D01*
X115510476Y-97099866D02*
X115462857Y-97052247D01*
X115462857Y-97052247D02*
X115367619Y-97004628D01*
X115367619Y-97004628D02*
X115177143Y-96957009D01*
X115177143Y-96957009D02*
X115081905Y-96909390D01*
X115081905Y-96909390D02*
X115034286Y-96861771D01*
X115034286Y-96861771D02*
X114986667Y-96766533D01*
X114986667Y-96766533D02*
X114986667Y-96671295D01*
X114986667Y-96671295D02*
X115034286Y-96576057D01*
X115034286Y-96576057D02*
X115081905Y-96528438D01*
X115081905Y-96528438D02*
X115177143Y-96480819D01*
X115177143Y-96480819D02*
X115415238Y-96480819D01*
X115415238Y-96480819D02*
X115558095Y-96528438D01*
X115891429Y-96480819D02*
X116129524Y-97480819D01*
X116129524Y-97480819D02*
X116320000Y-96766533D01*
X116320000Y-96766533D02*
X116510476Y-97480819D01*
X116510476Y-97480819D02*
X116748572Y-96480819D01*
X117653333Y-97480819D02*
X117081905Y-97480819D01*
X117367619Y-97480819D02*
X117367619Y-96480819D01*
X117367619Y-96480819D02*
X117272381Y-96623676D01*
X117272381Y-96623676D02*
X117177143Y-96718914D01*
X117177143Y-96718914D02*
X117081905Y-96766533D01*
X134126667Y-97433200D02*
X134269524Y-97480819D01*
X134269524Y-97480819D02*
X134507619Y-97480819D01*
X134507619Y-97480819D02*
X134602857Y-97433200D01*
X134602857Y-97433200D02*
X134650476Y-97385580D01*
X134650476Y-97385580D02*
X134698095Y-97290342D01*
X134698095Y-97290342D02*
X134698095Y-97195104D01*
X134698095Y-97195104D02*
X134650476Y-97099866D01*
X134650476Y-97099866D02*
X134602857Y-97052247D01*
X134602857Y-97052247D02*
X134507619Y-97004628D01*
X134507619Y-97004628D02*
X134317143Y-96957009D01*
X134317143Y-96957009D02*
X134221905Y-96909390D01*
X134221905Y-96909390D02*
X134174286Y-96861771D01*
X134174286Y-96861771D02*
X134126667Y-96766533D01*
X134126667Y-96766533D02*
X134126667Y-96671295D01*
X134126667Y-96671295D02*
X134174286Y-96576057D01*
X134174286Y-96576057D02*
X134221905Y-96528438D01*
X134221905Y-96528438D02*
X134317143Y-96480819D01*
X134317143Y-96480819D02*
X134555238Y-96480819D01*
X134555238Y-96480819D02*
X134698095Y-96528438D01*
X135031429Y-96480819D02*
X135269524Y-97480819D01*
X135269524Y-97480819D02*
X135460000Y-96766533D01*
X135460000Y-96766533D02*
X135650476Y-97480819D01*
X135650476Y-97480819D02*
X135888572Y-96480819D01*
X136221905Y-96576057D02*
X136269524Y-96528438D01*
X136269524Y-96528438D02*
X136364762Y-96480819D01*
X136364762Y-96480819D02*
X136602857Y-96480819D01*
X136602857Y-96480819D02*
X136698095Y-96528438D01*
X136698095Y-96528438D02*
X136745714Y-96576057D01*
X136745714Y-96576057D02*
X136793333Y-96671295D01*
X136793333Y-96671295D02*
X136793333Y-96766533D01*
X136793333Y-96766533D02*
X136745714Y-96909390D01*
X136745714Y-96909390D02*
X136174286Y-97480819D01*
X136174286Y-97480819D02*
X136793333Y-97480819D01*
X163011905Y-137704819D02*
X163011905Y-136704819D01*
X163011905Y-136704819D02*
X163250000Y-136704819D01*
X163250000Y-136704819D02*
X163392857Y-136752438D01*
X163392857Y-136752438D02*
X163488095Y-136847676D01*
X163488095Y-136847676D02*
X163535714Y-136942914D01*
X163535714Y-136942914D02*
X163583333Y-137133390D01*
X163583333Y-137133390D02*
X163583333Y-137276247D01*
X163583333Y-137276247D02*
X163535714Y-137466723D01*
X163535714Y-137466723D02*
X163488095Y-137561961D01*
X163488095Y-137561961D02*
X163392857Y-137657200D01*
X163392857Y-137657200D02*
X163250000Y-137704819D01*
X163250000Y-137704819D02*
X163011905Y-137704819D01*
X163964286Y-136800057D02*
X164011905Y-136752438D01*
X164011905Y-136752438D02*
X164107143Y-136704819D01*
X164107143Y-136704819D02*
X164345238Y-136704819D01*
X164345238Y-136704819D02*
X164440476Y-136752438D01*
X164440476Y-136752438D02*
X164488095Y-136800057D01*
X164488095Y-136800057D02*
X164535714Y-136895295D01*
X164535714Y-136895295D02*
X164535714Y-136990533D01*
X164535714Y-136990533D02*
X164488095Y-137133390D01*
X164488095Y-137133390D02*
X163916667Y-137704819D01*
X163916667Y-137704819D02*
X164535714Y-137704819D01*
X134106667Y-116813200D02*
X134249524Y-116860819D01*
X134249524Y-116860819D02*
X134487619Y-116860819D01*
X134487619Y-116860819D02*
X134582857Y-116813200D01*
X134582857Y-116813200D02*
X134630476Y-116765580D01*
X134630476Y-116765580D02*
X134678095Y-116670342D01*
X134678095Y-116670342D02*
X134678095Y-116575104D01*
X134678095Y-116575104D02*
X134630476Y-116479866D01*
X134630476Y-116479866D02*
X134582857Y-116432247D01*
X134582857Y-116432247D02*
X134487619Y-116384628D01*
X134487619Y-116384628D02*
X134297143Y-116337009D01*
X134297143Y-116337009D02*
X134201905Y-116289390D01*
X134201905Y-116289390D02*
X134154286Y-116241771D01*
X134154286Y-116241771D02*
X134106667Y-116146533D01*
X134106667Y-116146533D02*
X134106667Y-116051295D01*
X134106667Y-116051295D02*
X134154286Y-115956057D01*
X134154286Y-115956057D02*
X134201905Y-115908438D01*
X134201905Y-115908438D02*
X134297143Y-115860819D01*
X134297143Y-115860819D02*
X134535238Y-115860819D01*
X134535238Y-115860819D02*
X134678095Y-115908438D01*
X135011429Y-115860819D02*
X135249524Y-116860819D01*
X135249524Y-116860819D02*
X135440000Y-116146533D01*
X135440000Y-116146533D02*
X135630476Y-116860819D01*
X135630476Y-116860819D02*
X135868572Y-115860819D01*
X136678095Y-115860819D02*
X136487619Y-115860819D01*
X136487619Y-115860819D02*
X136392381Y-115908438D01*
X136392381Y-115908438D02*
X136344762Y-115956057D01*
X136344762Y-115956057D02*
X136249524Y-116098914D01*
X136249524Y-116098914D02*
X136201905Y-116289390D01*
X136201905Y-116289390D02*
X136201905Y-116670342D01*
X136201905Y-116670342D02*
X136249524Y-116765580D01*
X136249524Y-116765580D02*
X136297143Y-116813200D01*
X136297143Y-116813200D02*
X136392381Y-116860819D01*
X136392381Y-116860819D02*
X136582857Y-116860819D01*
X136582857Y-116860819D02*
X136678095Y-116813200D01*
X136678095Y-116813200D02*
X136725714Y-116765580D01*
X136725714Y-116765580D02*
X136773333Y-116670342D01*
X136773333Y-116670342D02*
X136773333Y-116432247D01*
X136773333Y-116432247D02*
X136725714Y-116337009D01*
X136725714Y-116337009D02*
X136678095Y-116289390D01*
X136678095Y-116289390D02*
X136582857Y-116241771D01*
X136582857Y-116241771D02*
X136392381Y-116241771D01*
X136392381Y-116241771D02*
X136297143Y-116289390D01*
X136297143Y-116289390D02*
X136249524Y-116337009D01*
X136249524Y-116337009D02*
X136201905Y-116432247D01*
X153166667Y-97433200D02*
X153309524Y-97480819D01*
X153309524Y-97480819D02*
X153547619Y-97480819D01*
X153547619Y-97480819D02*
X153642857Y-97433200D01*
X153642857Y-97433200D02*
X153690476Y-97385580D01*
X153690476Y-97385580D02*
X153738095Y-97290342D01*
X153738095Y-97290342D02*
X153738095Y-97195104D01*
X153738095Y-97195104D02*
X153690476Y-97099866D01*
X153690476Y-97099866D02*
X153642857Y-97052247D01*
X153642857Y-97052247D02*
X153547619Y-97004628D01*
X153547619Y-97004628D02*
X153357143Y-96957009D01*
X153357143Y-96957009D02*
X153261905Y-96909390D01*
X153261905Y-96909390D02*
X153214286Y-96861771D01*
X153214286Y-96861771D02*
X153166667Y-96766533D01*
X153166667Y-96766533D02*
X153166667Y-96671295D01*
X153166667Y-96671295D02*
X153214286Y-96576057D01*
X153214286Y-96576057D02*
X153261905Y-96528438D01*
X153261905Y-96528438D02*
X153357143Y-96480819D01*
X153357143Y-96480819D02*
X153595238Y-96480819D01*
X153595238Y-96480819D02*
X153738095Y-96528438D01*
X154071429Y-96480819D02*
X154309524Y-97480819D01*
X154309524Y-97480819D02*
X154500000Y-96766533D01*
X154500000Y-96766533D02*
X154690476Y-97480819D01*
X154690476Y-97480819D02*
X154928572Y-96480819D01*
X155214286Y-96480819D02*
X155833333Y-96480819D01*
X155833333Y-96480819D02*
X155500000Y-96861771D01*
X155500000Y-96861771D02*
X155642857Y-96861771D01*
X155642857Y-96861771D02*
X155738095Y-96909390D01*
X155738095Y-96909390D02*
X155785714Y-96957009D01*
X155785714Y-96957009D02*
X155833333Y-97052247D01*
X155833333Y-97052247D02*
X155833333Y-97290342D01*
X155833333Y-97290342D02*
X155785714Y-97385580D01*
X155785714Y-97385580D02*
X155738095Y-97433200D01*
X155738095Y-97433200D02*
X155642857Y-97480819D01*
X155642857Y-97480819D02*
X155357143Y-97480819D01*
X155357143Y-97480819D02*
X155261905Y-97433200D01*
X155261905Y-97433200D02*
X155214286Y-97385580D01*
X172126667Y-116813200D02*
X172269524Y-116860819D01*
X172269524Y-116860819D02*
X172507619Y-116860819D01*
X172507619Y-116860819D02*
X172602857Y-116813200D01*
X172602857Y-116813200D02*
X172650476Y-116765580D01*
X172650476Y-116765580D02*
X172698095Y-116670342D01*
X172698095Y-116670342D02*
X172698095Y-116575104D01*
X172698095Y-116575104D02*
X172650476Y-116479866D01*
X172650476Y-116479866D02*
X172602857Y-116432247D01*
X172602857Y-116432247D02*
X172507619Y-116384628D01*
X172507619Y-116384628D02*
X172317143Y-116337009D01*
X172317143Y-116337009D02*
X172221905Y-116289390D01*
X172221905Y-116289390D02*
X172174286Y-116241771D01*
X172174286Y-116241771D02*
X172126667Y-116146533D01*
X172126667Y-116146533D02*
X172126667Y-116051295D01*
X172126667Y-116051295D02*
X172174286Y-115956057D01*
X172174286Y-115956057D02*
X172221905Y-115908438D01*
X172221905Y-115908438D02*
X172317143Y-115860819D01*
X172317143Y-115860819D02*
X172555238Y-115860819D01*
X172555238Y-115860819D02*
X172698095Y-115908438D01*
X173031429Y-115860819D02*
X173269524Y-116860819D01*
X173269524Y-116860819D02*
X173460000Y-116146533D01*
X173460000Y-116146533D02*
X173650476Y-116860819D01*
X173650476Y-116860819D02*
X173888572Y-115860819D01*
X174412381Y-116289390D02*
X174317143Y-116241771D01*
X174317143Y-116241771D02*
X174269524Y-116194152D01*
X174269524Y-116194152D02*
X174221905Y-116098914D01*
X174221905Y-116098914D02*
X174221905Y-116051295D01*
X174221905Y-116051295D02*
X174269524Y-115956057D01*
X174269524Y-115956057D02*
X174317143Y-115908438D01*
X174317143Y-115908438D02*
X174412381Y-115860819D01*
X174412381Y-115860819D02*
X174602857Y-115860819D01*
X174602857Y-115860819D02*
X174698095Y-115908438D01*
X174698095Y-115908438D02*
X174745714Y-115956057D01*
X174745714Y-115956057D02*
X174793333Y-116051295D01*
X174793333Y-116051295D02*
X174793333Y-116098914D01*
X174793333Y-116098914D02*
X174745714Y-116194152D01*
X174745714Y-116194152D02*
X174698095Y-116241771D01*
X174698095Y-116241771D02*
X174602857Y-116289390D01*
X174602857Y-116289390D02*
X174412381Y-116289390D01*
X174412381Y-116289390D02*
X174317143Y-116337009D01*
X174317143Y-116337009D02*
X174269524Y-116384628D01*
X174269524Y-116384628D02*
X174221905Y-116479866D01*
X174221905Y-116479866D02*
X174221905Y-116670342D01*
X174221905Y-116670342D02*
X174269524Y-116765580D01*
X174269524Y-116765580D02*
X174317143Y-116813200D01*
X174317143Y-116813200D02*
X174412381Y-116860819D01*
X174412381Y-116860819D02*
X174602857Y-116860819D01*
X174602857Y-116860819D02*
X174698095Y-116813200D01*
X174698095Y-116813200D02*
X174745714Y-116765580D01*
X174745714Y-116765580D02*
X174793333Y-116670342D01*
X174793333Y-116670342D02*
X174793333Y-116479866D01*
X174793333Y-116479866D02*
X174745714Y-116384628D01*
X174745714Y-116384628D02*
X174698095Y-116337009D01*
X174698095Y-116337009D02*
X174602857Y-116289390D01*
D12*
X183793500Y-88435000D02*
X186206500Y-88435000D01*
X183793500Y-139745000D02*
X183793500Y-88435000D01*
X186206500Y-139745000D02*
X183793500Y-139745000D01*
X186206500Y-139745000D02*
X186206500Y-88435000D01*
X185100000Y-87785000D02*
G75*
G02*
X184900000Y-87785000I-100000J0D01*
G01*
X184900000Y-87785000D02*
G75*
G02*
X185100000Y-87785000I100000J0D01*
G01*
D13*
X167960000Y-137250000D02*
X168730000Y-137250000D01*
X176040000Y-137250000D02*
X175270000Y-137250000D01*
X175270000Y-138620000D02*
X168730000Y-138620000D01*
X168730000Y-135880000D01*
X175270000Y-135880000D01*
X175270000Y-138620000D01*
D12*
X201543500Y-88425000D02*
X201543500Y-139735000D01*
X201543500Y-88425000D02*
X203956500Y-88425000D01*
X203956500Y-88425000D02*
X203956500Y-139735000D01*
X203956500Y-139735000D02*
X201543500Y-139735000D01*
X202850000Y-140385000D02*
G75*
G02*
X202650000Y-140385000I-100000J0D01*
G01*
X202650000Y-140385000D02*
G75*
G02*
X202850000Y-140385000I100000J0D01*
G01*
D13*
X147455000Y-117295000D02*
X161425000Y-117295000D01*
X147455000Y-131265000D02*
X147455000Y-117295000D01*
X161425000Y-117295000D02*
X161425000Y-131265000D01*
X161425000Y-131265000D02*
X147455000Y-131265000D01*
X140210000Y-137250000D02*
X140980000Y-137250000D01*
X148290000Y-137250000D02*
X147520000Y-137250000D01*
X147520000Y-138620000D02*
X140980000Y-138620000D01*
X140980000Y-135880000D01*
X147520000Y-135880000D01*
X147520000Y-138620000D01*
X109275000Y-117295000D02*
X123245000Y-117295000D01*
X109275000Y-131265000D02*
X109275000Y-117295000D01*
X123245000Y-117295000D02*
X123245000Y-131265000D01*
X123245000Y-131265000D02*
X109275000Y-131265000D01*
X128290000Y-135990000D02*
X131710000Y-135990000D01*
X128290000Y-136170000D02*
X128290000Y-135990000D01*
X128290000Y-138510000D02*
X128290000Y-138330000D01*
X128410000Y-135990000D02*
X128410000Y-136170000D01*
X128410000Y-138330000D02*
X128410000Y-138510000D01*
X128530000Y-135990000D02*
X128530000Y-136170000D01*
X128530000Y-138330000D02*
X128530000Y-138510000D01*
X131710000Y-135990000D02*
X131710000Y-136264000D01*
X131710000Y-138236000D02*
X131710000Y-138510000D01*
X131710000Y-138510000D02*
X128290000Y-138510000D01*
X166575000Y-97915000D02*
X180545000Y-97915000D01*
X166575000Y-111885000D02*
X166575000Y-97915000D01*
X180545000Y-97915000D02*
X180545000Y-111885000D01*
X180545000Y-111885000D02*
X166575000Y-111885000D01*
X109335000Y-97915000D02*
X123305000Y-97915000D01*
X109335000Y-111885000D02*
X109335000Y-97915000D01*
X123305000Y-97915000D02*
X123305000Y-111885000D01*
X123305000Y-111885000D02*
X109335000Y-111885000D01*
X128475000Y-97915000D02*
X142445000Y-97915000D01*
X128475000Y-111885000D02*
X128475000Y-97915000D01*
X142445000Y-97915000D02*
X142445000Y-111885000D01*
X142445000Y-111885000D02*
X128475000Y-111885000D01*
X158540000Y-135990000D02*
X161960000Y-135990000D01*
X158540000Y-136170000D02*
X158540000Y-135990000D01*
X158540000Y-138510000D02*
X158540000Y-138330000D01*
X158660000Y-135990000D02*
X158660000Y-136170000D01*
X158660000Y-138330000D02*
X158660000Y-138510000D01*
X158780000Y-135990000D02*
X158780000Y-136170000D01*
X158780000Y-138330000D02*
X158780000Y-138510000D01*
X161960000Y-135990000D02*
X161960000Y-136264000D01*
X161960000Y-138236000D02*
X161960000Y-138510000D01*
X161960000Y-138510000D02*
X158540000Y-138510000D01*
X128455000Y-117295000D02*
X142425000Y-117295000D01*
X128455000Y-131265000D02*
X128455000Y-117295000D01*
X142425000Y-117295000D02*
X142425000Y-131265000D01*
X142425000Y-131265000D02*
X128455000Y-131265000D01*
X147515000Y-97915000D02*
X161485000Y-97915000D01*
X147515000Y-111885000D02*
X147515000Y-97915000D01*
X161485000Y-97915000D02*
X161485000Y-111885000D01*
X161485000Y-111885000D02*
X147515000Y-111885000D01*
X166475000Y-117295000D02*
X180445000Y-117295000D01*
X166475000Y-131265000D02*
X166475000Y-117295000D01*
X180445000Y-117295000D02*
X180445000Y-131265000D01*
X180445000Y-131265000D02*
X166475000Y-131265000D01*
%LPC*%
D14*
X194000000Y-91000000D03*
D15*
X185000000Y-89960000D03*
D16*
X185000000Y-92500000D03*
X185000000Y-95040000D03*
X185000000Y-97580000D03*
X185000000Y-100120000D03*
X185000000Y-102660000D03*
X185000000Y-105200000D03*
X185000000Y-107740000D03*
X185000000Y-110280000D03*
X185000000Y-112820000D03*
X185000000Y-115360000D03*
X185000000Y-117900000D03*
X185000000Y-120440000D03*
X185000000Y-122980000D03*
X185000000Y-125520000D03*
X185000000Y-128060000D03*
X185000000Y-130600000D03*
X185000000Y-133140000D03*
X185000000Y-135680000D03*
X185000000Y-138220000D03*
D14*
X194000000Y-136000000D03*
D17*
X177080000Y-137250000D03*
X166920000Y-137250000D03*
D18*
X202750000Y-138210000D03*
D16*
X202750000Y-135670000D03*
X202750000Y-133130000D03*
X202750000Y-130590000D03*
X202750000Y-128050000D03*
X202750000Y-125510000D03*
X202750000Y-122970000D03*
X202750000Y-120430000D03*
X202750000Y-117890000D03*
X202750000Y-115350000D03*
X202750000Y-112810000D03*
X202750000Y-110270000D03*
X202750000Y-107730000D03*
X202750000Y-105190000D03*
X202750000Y-102650000D03*
X202750000Y-100110000D03*
X202750000Y-97570000D03*
X202750000Y-95030000D03*
X202750000Y-92490000D03*
X202750000Y-89950000D03*
D19*
X149360000Y-124280000D03*
D20*
X154440000Y-124280000D03*
D19*
X159520000Y-124280000D03*
D14*
X156980000Y-119200000D03*
X150630000Y-121740000D03*
D17*
X149330000Y-137250000D03*
X139170000Y-137250000D03*
D19*
X111180000Y-124280000D03*
D20*
X116260000Y-124280000D03*
D19*
X121340000Y-124280000D03*
D14*
X118800000Y-119200000D03*
X112450000Y-121740000D03*
D21*
X128730000Y-137250000D03*
D22*
X131270000Y-137250000D03*
D19*
X168480000Y-104900000D03*
D20*
X173560000Y-104900000D03*
D19*
X178640000Y-104900000D03*
D14*
X176100000Y-99820000D03*
X169750000Y-102360000D03*
D19*
X111240000Y-104900000D03*
D20*
X116320000Y-104900000D03*
D19*
X121400000Y-104900000D03*
D14*
X118860000Y-99820000D03*
X112510000Y-102360000D03*
X194000000Y-114250000D03*
D19*
X130380000Y-104900000D03*
D20*
X135460000Y-104900000D03*
D19*
X140540000Y-104900000D03*
D14*
X138000000Y-99820000D03*
X131650000Y-102360000D03*
X112000000Y-91000000D03*
D21*
X158980000Y-137250000D03*
D22*
X161520000Y-137250000D03*
D14*
X112000000Y-136000000D03*
D19*
X130360000Y-124280000D03*
D20*
X135440000Y-124280000D03*
D19*
X140520000Y-124280000D03*
D14*
X137980000Y-119200000D03*
X131630000Y-121740000D03*
X145000000Y-114500000D03*
D19*
X149420000Y-104900000D03*
D20*
X154500000Y-104900000D03*
D19*
X159580000Y-104900000D03*
D14*
X157040000Y-99820000D03*
X150690000Y-102360000D03*
D19*
X168380000Y-124280000D03*
D20*
X173460000Y-124280000D03*
D19*
X178540000Y-124280000D03*
D14*
X176000000Y-119200000D03*
X169650000Y-121740000D03*
%LPD*%
M02*
