G04 #@! TF.GenerationSoftware,KiCad,Pcbnew,9.0.4*
G04 #@! TF.CreationDate,2025-09-21T01:01:28-07:00*
G04 #@! TF.ProjectId,Macro_Pad,4d616372-6f5f-4506-9164-2e6b69636164,rev?*
G04 #@! TF.SameCoordinates,Original*
G04 #@! TF.FileFunction,Copper,L1,Top*
G04 #@! TF.FilePolarity,Positive*
%FSLAX46Y46*%
G04 Gerber Fmt 4.6, Leading zero omitted, Abs format (unit mm)*
G04 Created by KiCad (PCBNEW 9.0.4) date 2025-09-21 01:01:28*
%MOMM*%
%LPD*%
G01*
G04 APERTURE LIST*
G04 #@! TA.AperFunction,ComponentPad*
%ADD10R,1.390000X1.390000*%
G04 #@! TD*
G04 #@! TA.AperFunction,ComponentPad*
%ADD11C,1.390000*%
G04 #@! TD*
G04 #@! TA.AperFunction,ComponentPad*
%ADD12C,1.600000*%
G04 #@! TD*
G04 #@! TA.AperFunction,ComponentPad*
%ADD13C,2.200000*%
G04 #@! TD*
G04 #@! TA.AperFunction,ComponentPad*
%ADD14R,1.800000X1.800000*%
G04 #@! TD*
G04 #@! TA.AperFunction,ComponentPad*
%ADD15C,1.800000*%
G04 #@! TD*
G04 #@! TA.AperFunction,Conductor*
%ADD16C,0.300000*%
G04 #@! TD*
G04 APERTURE END LIST*
D10*
X185000000Y-89960000D03*
D11*
X185000000Y-92500000D03*
X185000000Y-95040000D03*
X185000000Y-97580000D03*
X185000000Y-100120000D03*
X185000000Y-102660000D03*
X185000000Y-105200000D03*
X185000000Y-107740000D03*
X185000000Y-110280000D03*
X185000000Y-112820000D03*
X185000000Y-115360000D03*
X185000000Y-117900000D03*
X185000000Y-120440000D03*
X185000000Y-122980000D03*
X185000000Y-125520000D03*
X185000000Y-128060000D03*
X185000000Y-130600000D03*
X185000000Y-133140000D03*
X185000000Y-135680000D03*
X185000000Y-138220000D03*
D12*
X177080000Y-137250000D03*
X166920000Y-137250000D03*
D10*
X202750000Y-138210000D03*
D11*
X202750000Y-135670000D03*
X202750000Y-133130000D03*
X202750000Y-130590000D03*
X202750000Y-128050000D03*
X202750000Y-125510000D03*
X202750000Y-122970000D03*
X202750000Y-120430000D03*
X202750000Y-117890000D03*
X202750000Y-115350000D03*
X202750000Y-112810000D03*
X202750000Y-110270000D03*
X202750000Y-107730000D03*
X202750000Y-105190000D03*
X202750000Y-102650000D03*
X202750000Y-100110000D03*
X202750000Y-97570000D03*
X202750000Y-95030000D03*
X202750000Y-92490000D03*
X202750000Y-89950000D03*
D13*
X156980000Y-119200000D03*
X150630000Y-121740000D03*
D12*
X149330000Y-137250000D03*
X139170000Y-137250000D03*
D13*
X118800000Y-119200000D03*
X112450000Y-121740000D03*
D14*
X128730000Y-137250000D03*
D15*
X131270000Y-137250000D03*
D13*
X176100000Y-99820000D03*
X169750000Y-102360000D03*
X118860000Y-99820000D03*
X112510000Y-102360000D03*
X138000000Y-99820000D03*
X131650000Y-102360000D03*
D14*
X158980000Y-137250000D03*
D15*
X161520000Y-137250000D03*
D13*
X137980000Y-119200000D03*
X131630000Y-121740000D03*
X157040000Y-99820000D03*
X150690000Y-102360000D03*
X176000000Y-119200000D03*
X169650000Y-121740000D03*
D16*
X139170000Y-137250000D02*
X131270000Y-137250000D01*
X166920000Y-137250000D02*
X161520000Y-137250000D01*
X176100000Y-99820000D02*
X176420000Y-100140000D01*
X176420000Y-100140000D02*
X184980000Y-100140000D01*
X184980000Y-100140000D02*
X185000000Y-100120000D01*
X164461000Y-126681000D02*
X183839000Y-126681000D01*
X183839000Y-126681000D02*
X185000000Y-125520000D01*
X156980000Y-119200000D02*
X164461000Y-126681000D01*
X185000000Y-92500000D02*
X140840000Y-92500000D01*
X140840000Y-92500000D02*
X138000000Y-95340000D01*
X138000000Y-95340000D02*
X138000000Y-99820000D01*
X149330000Y-137250000D02*
X152120000Y-134460000D01*
X152120000Y-134460000D02*
X183780000Y-134460000D01*
X183780000Y-134460000D02*
X185000000Y-135680000D01*
X180010000Y-137250000D02*
X180980000Y-138220000D01*
X180980000Y-138220000D02*
X185000000Y-138220000D01*
X177080000Y-137250000D02*
X180010000Y-137250000D01*
X185000000Y-89960000D02*
X124240000Y-89960000D01*
X124240000Y-89960000D02*
X118860000Y-95340000D01*
X118860000Y-95340000D02*
X118860000Y-99820000D01*
X183770000Y-129290000D02*
X148070000Y-129290000D01*
X185000000Y-128060000D02*
X183770000Y-129290000D01*
X148070000Y-129290000D02*
X137980000Y-119200000D01*
X130200000Y-130600000D02*
X185000000Y-130600000D01*
X118800000Y-119200000D02*
X130200000Y-130600000D01*
X176000000Y-119200000D02*
X179780000Y-122980000D01*
X179780000Y-122980000D02*
X185000000Y-122980000D01*
X185000000Y-97580000D02*
X159280000Y-97580000D01*
X159280000Y-97580000D02*
X157040000Y-99820000D01*
G04 #@! TA.AperFunction,Conductor*
G36*
X109049867Y-87247715D02*
G01*
X109100486Y-87250193D01*
X109105146Y-87249185D01*
X109110713Y-87248500D01*
X109113258Y-87248918D01*
X109125864Y-87247571D01*
X203722947Y-87250496D01*
X203722979Y-87250500D01*
X203734108Y-87250500D01*
X203793685Y-87250500D01*
X203806271Y-87251140D01*
X203953642Y-87266201D01*
X203978316Y-87271299D01*
X204113513Y-87313941D01*
X204136658Y-87323928D01*
X204208277Y-87363915D01*
X204260434Y-87393036D01*
X204281086Y-87407503D01*
X204388317Y-87500215D01*
X204405615Y-87518559D01*
X204491879Y-87631051D01*
X204505108Y-87652515D01*
X204566833Y-87780128D01*
X204575447Y-87803824D01*
X204610081Y-87941280D01*
X204613724Y-87966231D01*
X204619422Y-88098264D01*
X204619537Y-88103655D01*
X204619527Y-88131479D01*
X204619313Y-88138708D01*
X204616516Y-88186293D01*
X204616949Y-88188392D01*
X204619496Y-88213445D01*
X204600167Y-138952864D01*
X204600060Y-139234107D01*
X204600019Y-139234264D01*
X204600034Y-139293841D01*
X204600034Y-139294720D01*
X204600029Y-139294734D01*
X204599546Y-139305656D01*
X204586160Y-139456119D01*
X204582263Y-139477813D01*
X204543912Y-139618175D01*
X204536237Y-139638837D01*
X204473636Y-139770203D01*
X204462423Y-139789178D01*
X204377559Y-139907379D01*
X204363163Y-139924071D01*
X204258708Y-140025382D01*
X204241587Y-140039259D01*
X204120852Y-140120474D01*
X204101542Y-140131103D01*
X203968326Y-140189662D01*
X203947439Y-140196703D01*
X203805965Y-140230750D01*
X203784164Y-140233982D01*
X203634223Y-140242717D01*
X203626986Y-140242927D01*
X203622099Y-140242926D01*
X203618308Y-140242867D01*
X203570107Y-140241383D01*
X203561989Y-140241133D01*
X203561988Y-140241133D01*
X203561987Y-140241133D01*
X203553898Y-140241945D01*
X203553834Y-140241312D01*
X203540014Y-140242912D01*
X108798938Y-140226173D01*
X108798908Y-140226173D01*
X108789058Y-140226168D01*
X108787012Y-140225639D01*
X108725570Y-140226142D01*
X108724977Y-140226142D01*
X108724834Y-140226100D01*
X108716250Y-140225831D01*
X108538014Y-140213180D01*
X108518650Y-140210255D01*
X108349441Y-140170822D01*
X108330783Y-140164886D01*
X108247048Y-140130755D01*
X108169886Y-140099302D01*
X108152393Y-140090502D01*
X108003825Y-140000403D01*
X107987953Y-139988972D01*
X107855413Y-139876597D01*
X107841529Y-139862798D01*
X107770602Y-139780189D01*
X107728341Y-139730967D01*
X107716811Y-139715166D01*
X107625782Y-139567148D01*
X107616879Y-139549720D01*
X107550300Y-139389240D01*
X107544247Y-139370616D01*
X107534016Y-139327915D01*
X107503760Y-139201642D01*
X107500718Y-139182314D01*
X107486934Y-139003837D01*
X107486567Y-138994248D01*
X107486687Y-138933392D01*
X107486591Y-138933036D01*
X107486595Y-138924568D01*
X107486595Y-138924554D01*
X107486636Y-138846579D01*
X107488161Y-135893713D01*
X110649500Y-135893713D01*
X110649500Y-136106287D01*
X110659534Y-136169644D01*
X110682753Y-136316239D01*
X110682753Y-136316241D01*
X110682754Y-136316243D01*
X110729079Y-136458817D01*
X110748444Y-136518414D01*
X110844951Y-136707820D01*
X110969890Y-136879786D01*
X111120213Y-137030109D01*
X111292179Y-137155048D01*
X111292181Y-137155049D01*
X111292184Y-137155051D01*
X111481588Y-137251557D01*
X111683757Y-137317246D01*
X111893713Y-137350500D01*
X111893714Y-137350500D01*
X112106286Y-137350500D01*
X112106287Y-137350500D01*
X112316243Y-137317246D01*
X112518412Y-137251557D01*
X112707816Y-137155051D01*
X112766954Y-137112085D01*
X112879786Y-137030109D01*
X112879788Y-137030106D01*
X112879792Y-137030104D01*
X113030104Y-136879792D01*
X113030106Y-136879788D01*
X113030109Y-136879786D01*
X113155048Y-136707820D01*
X113155047Y-136707820D01*
X113155051Y-136707816D01*
X113251557Y-136518412D01*
X113317246Y-136316243D01*
X113319477Y-136302155D01*
X127330000Y-136302155D01*
X127330000Y-137000000D01*
X128354722Y-137000000D01*
X128310667Y-137076306D01*
X128280000Y-137190756D01*
X128280000Y-137309244D01*
X128310667Y-137423694D01*
X128354722Y-137500000D01*
X127330000Y-137500000D01*
X127330000Y-138197844D01*
X127336401Y-138257372D01*
X127336403Y-138257379D01*
X127386645Y-138392086D01*
X127386649Y-138392093D01*
X127472809Y-138507187D01*
X127472812Y-138507190D01*
X127587906Y-138593350D01*
X127587913Y-138593354D01*
X127722620Y-138643596D01*
X127722627Y-138643598D01*
X127782155Y-138649999D01*
X127782172Y-138650000D01*
X128480000Y-138650000D01*
X128480000Y-137625277D01*
X128556306Y-137669333D01*
X128670756Y-137700000D01*
X128789244Y-137700000D01*
X128903694Y-137669333D01*
X128980000Y-137625277D01*
X128980000Y-138650000D01*
X129677828Y-138650000D01*
X129677844Y-138649999D01*
X129737372Y-138643598D01*
X129737379Y-138643596D01*
X129872086Y-138593354D01*
X129872093Y-138593350D01*
X129987187Y-138507190D01*
X129987190Y-138507187D01*
X130073350Y-138392093D01*
X130073354Y-138392086D01*
X130103213Y-138312031D01*
X130145084Y-138256097D01*
X130210548Y-138231680D01*
X130278821Y-138246531D01*
X130307076Y-138267683D01*
X130357636Y-138318243D01*
X130357641Y-138318247D01*
X130513192Y-138431260D01*
X130535978Y-138447815D01*
X130638292Y-138499947D01*
X130732393Y-138547895D01*
X130732396Y-138547896D01*
X130837221Y-138581955D01*
X130942049Y-138616015D01*
X131159778Y-138650500D01*
X131159779Y-138650500D01*
X131380221Y-138650500D01*
X131380222Y-138650500D01*
X131597951Y-138616015D01*
X131807606Y-138547895D01*
X132004022Y-138447815D01*
X132182365Y-138318242D01*
X132338242Y-138162365D01*
X132467815Y-137984022D01*
X132475874Y-137968204D01*
X132523848Y-137917409D01*
X132586359Y-137900500D01*
X137971929Y-137900500D01*
X138038968Y-137920185D01*
X138072245Y-137951613D01*
X138178030Y-138097213D01*
X138178034Y-138097219D01*
X138322786Y-138241971D01*
X138477749Y-138354556D01*
X138488390Y-138362287D01*
X138604607Y-138421503D01*
X138670776Y-138455218D01*
X138670778Y-138455218D01*
X138670781Y-138455220D01*
X138775137Y-138489127D01*
X138865465Y-138518477D01*
X138966557Y-138534488D01*
X139067648Y-138550500D01*
X139067649Y-138550500D01*
X139272351Y-138550500D01*
X139272352Y-138550500D01*
X139474534Y-138518477D01*
X139669219Y-138455220D01*
X139851610Y-138362287D01*
X139944590Y-138294732D01*
X140017213Y-138241971D01*
X140017215Y-138241968D01*
X140017219Y-138241966D01*
X140161966Y-138097219D01*
X140161968Y-138097215D01*
X140161971Y-138097213D01*
X140214732Y-138024590D01*
X140282287Y-137931610D01*
X140375220Y-137749219D01*
X140438477Y-137554534D01*
X140470500Y-137352352D01*
X140470500Y-137147648D01*
X140438477Y-136945465D01*
X140401632Y-136832069D01*
X140375220Y-136750781D01*
X140375218Y-136750778D01*
X140375218Y-136750776D01*
X140310876Y-136624499D01*
X140282287Y-136568390D01*
X140267753Y-136548385D01*
X140161971Y-136402786D01*
X140017213Y-136258028D01*
X139851613Y-136137715D01*
X139851612Y-136137714D01*
X139851610Y-136137713D01*
X139789931Y-136106286D01*
X139669223Y-136044781D01*
X139474534Y-135981522D01*
X139288799Y-135952105D01*
X139272352Y-135949500D01*
X139067648Y-135949500D01*
X139051201Y-135952105D01*
X138865465Y-135981522D01*
X138670776Y-136044781D01*
X138488386Y-136137715D01*
X138322786Y-136258028D01*
X138178034Y-136402780D01*
X138137322Y-136458817D01*
X138072246Y-136548386D01*
X138016918Y-136591051D01*
X137971929Y-136599500D01*
X132586359Y-136599500D01*
X132519320Y-136579815D01*
X132475874Y-136531795D01*
X132467812Y-136515973D01*
X132338247Y-136337641D01*
X132338243Y-136337636D01*
X132182363Y-136181756D01*
X132182358Y-136181752D01*
X132004025Y-136052187D01*
X132004024Y-136052186D01*
X132004022Y-136052185D01*
X131941096Y-136020122D01*
X131807606Y-135952104D01*
X131807603Y-135952103D01*
X131597952Y-135883985D01*
X131489086Y-135866742D01*
X131380222Y-135849500D01*
X131159778Y-135849500D01*
X131087201Y-135860995D01*
X130942047Y-135883985D01*
X130732396Y-135952103D01*
X130732393Y-135952104D01*
X130535974Y-136052187D01*
X130357641Y-136181752D01*
X130357636Y-136181756D01*
X130307075Y-136232317D01*
X130245752Y-136265801D01*
X130176060Y-136260816D01*
X130120127Y-136218945D01*
X130103213Y-136187968D01*
X130073354Y-136107913D01*
X130073350Y-136107906D01*
X129987190Y-135992812D01*
X129987187Y-135992809D01*
X129872093Y-135906649D01*
X129872086Y-135906645D01*
X129737379Y-135856403D01*
X129737372Y-135856401D01*
X129677844Y-135850000D01*
X128980000Y-135850000D01*
X128980000Y-136874722D01*
X128903694Y-136830667D01*
X128789244Y-136800000D01*
X128670756Y-136800000D01*
X128556306Y-136830667D01*
X128480000Y-136874722D01*
X128480000Y-135850000D01*
X127782155Y-135850000D01*
X127722627Y-135856401D01*
X127722620Y-135856403D01*
X127587913Y-135906645D01*
X127587906Y-135906649D01*
X127472812Y-135992809D01*
X127472809Y-135992812D01*
X127386649Y-136107906D01*
X127386645Y-136107913D01*
X127336403Y-136242620D01*
X127336401Y-136242627D01*
X127330000Y-136302155D01*
X113319477Y-136302155D01*
X113350500Y-136106287D01*
X113350500Y-135893713D01*
X113317246Y-135683757D01*
X113251557Y-135481588D01*
X113155051Y-135292184D01*
X113155049Y-135292181D01*
X113155048Y-135292179D01*
X113030109Y-135120213D01*
X112879786Y-134969890D01*
X112707820Y-134844951D01*
X112518414Y-134748444D01*
X112518413Y-134748443D01*
X112518412Y-134748443D01*
X112316243Y-134682754D01*
X112316241Y-134682753D01*
X112316240Y-134682753D01*
X112154957Y-134657208D01*
X112106287Y-134649500D01*
X111893713Y-134649500D01*
X111845042Y-134657208D01*
X111683760Y-134682753D01*
X111481585Y-134748444D01*
X111292179Y-134844951D01*
X111120213Y-134969890D01*
X110969890Y-135120213D01*
X110844951Y-135292179D01*
X110748444Y-135481585D01*
X110682753Y-135683760D01*
X110655410Y-135856401D01*
X110649500Y-135893713D01*
X107488161Y-135893713D01*
X107494203Y-124193389D01*
X110079500Y-124193389D01*
X110079500Y-124366611D01*
X110106598Y-124537701D01*
X110160127Y-124702445D01*
X110238768Y-124856788D01*
X110340586Y-124996928D01*
X110463072Y-125119414D01*
X110603212Y-125221232D01*
X110757555Y-125299873D01*
X110922299Y-125353402D01*
X111093389Y-125380500D01*
X111093390Y-125380500D01*
X111266610Y-125380500D01*
X111266611Y-125380500D01*
X111437701Y-125353402D01*
X111602445Y-125299873D01*
X111756788Y-125221232D01*
X111896928Y-125119414D01*
X112019414Y-124996928D01*
X112121232Y-124856788D01*
X112199873Y-124702445D01*
X112253402Y-124537701D01*
X112280500Y-124366611D01*
X112280500Y-124193389D01*
X112270854Y-124132486D01*
X114009500Y-124132486D01*
X114009500Y-124427513D01*
X114033279Y-124608123D01*
X114048007Y-124719993D01*
X114122212Y-124996930D01*
X114124361Y-125004951D01*
X114124364Y-125004961D01*
X114237254Y-125277500D01*
X114237258Y-125277510D01*
X114384761Y-125532993D01*
X114564352Y-125767040D01*
X114564358Y-125767047D01*
X114772952Y-125975641D01*
X114772959Y-125975647D01*
X115007006Y-126155238D01*
X115262489Y-126302741D01*
X115262490Y-126302741D01*
X115262493Y-126302743D01*
X115535048Y-126415639D01*
X115820007Y-126491993D01*
X116112494Y-126530500D01*
X116112501Y-126530500D01*
X116407499Y-126530500D01*
X116407506Y-126530500D01*
X116699993Y-126491993D01*
X116984952Y-126415639D01*
X117257507Y-126302743D01*
X117512994Y-126155238D01*
X117747042Y-125975646D01*
X117955646Y-125767042D01*
X118135238Y-125532994D01*
X118282743Y-125277507D01*
X118395639Y-125004952D01*
X118471993Y-124719993D01*
X118510500Y-124427506D01*
X118510500Y-124132494D01*
X118471993Y-123840007D01*
X118395639Y-123555048D01*
X118282743Y-123282493D01*
X118232604Y-123195650D01*
X118135238Y-123027006D01*
X117955647Y-122792959D01*
X117955641Y-122792952D01*
X117747047Y-122584358D01*
X117747040Y-122584352D01*
X117512993Y-122404761D01*
X117257510Y-122257258D01*
X117257500Y-122257254D01*
X116984961Y-122144364D01*
X116984954Y-122144362D01*
X116984952Y-122144361D01*
X116699993Y-122068007D01*
X116651113Y-122061571D01*
X116407513Y-122029500D01*
X116407506Y-122029500D01*
X116112494Y-122029500D01*
X116112486Y-122029500D01*
X115834085Y-122066153D01*
X115820007Y-122068007D01*
X115645861Y-122114669D01*
X115535048Y-122144361D01*
X115535038Y-122144364D01*
X115262499Y-122257254D01*
X115262489Y-122257258D01*
X115007006Y-122404761D01*
X114772959Y-122584352D01*
X114772952Y-122584358D01*
X114564358Y-122792952D01*
X114564352Y-122792959D01*
X114384761Y-123027006D01*
X114237258Y-123282489D01*
X114237254Y-123282499D01*
X114124364Y-123555038D01*
X114124361Y-123555048D01*
X114069762Y-123758818D01*
X114048008Y-123840004D01*
X114048006Y-123840015D01*
X114009500Y-124132486D01*
X112270854Y-124132486D01*
X112253402Y-124022299D01*
X112199873Y-123857555D01*
X112121232Y-123703212D01*
X112019414Y-123563072D01*
X111966882Y-123510540D01*
X111933397Y-123449217D01*
X111938381Y-123379525D01*
X111980253Y-123323592D01*
X112045717Y-123299175D01*
X112073961Y-123300386D01*
X112324072Y-123340000D01*
X112575928Y-123340000D01*
X112824669Y-123300602D01*
X113064184Y-123222780D01*
X113288575Y-123108446D01*
X113288581Y-123108442D01*
X113390697Y-123034250D01*
X113390698Y-123034250D01*
X112774025Y-122417578D01*
X112805258Y-122404641D01*
X112928097Y-122322563D01*
X113032563Y-122218097D01*
X113114641Y-122095258D01*
X113127577Y-122064025D01*
X113744250Y-122680698D01*
X113744250Y-122680697D01*
X113818442Y-122578581D01*
X113818446Y-122578575D01*
X113932780Y-122354184D01*
X114010602Y-122114669D01*
X114050000Y-121865928D01*
X114050000Y-121614071D01*
X114010602Y-121365330D01*
X113932780Y-121125815D01*
X113818442Y-120901416D01*
X113744250Y-120799301D01*
X113744250Y-120799300D01*
X113127577Y-121415973D01*
X113114641Y-121384742D01*
X113032563Y-121261903D01*
X112928097Y-121157437D01*
X112805258Y-121075359D01*
X112774024Y-121062421D01*
X113390698Y-120445748D01*
X113288583Y-120371557D01*
X113064184Y-120257219D01*
X112824669Y-120179397D01*
X112575928Y-120140000D01*
X112324072Y-120140000D01*
X112075330Y-120179397D01*
X111835815Y-120257219D01*
X111611413Y-120371559D01*
X111509301Y-120445747D01*
X111509300Y-120445748D01*
X112125974Y-121062421D01*
X112094742Y-121075359D01*
X111971903Y-121157437D01*
X111867437Y-121261903D01*
X111785359Y-121384742D01*
X111772421Y-121415974D01*
X111155748Y-120799300D01*
X111155747Y-120799301D01*
X111081559Y-120901413D01*
X110967219Y-121125815D01*
X110889397Y-121365330D01*
X110850000Y-121614071D01*
X110850000Y-121865928D01*
X110889397Y-122114669D01*
X110967219Y-122354184D01*
X111081557Y-122578583D01*
X111155748Y-122680697D01*
X111155748Y-122680698D01*
X111772421Y-122064024D01*
X111785359Y-122095258D01*
X111867437Y-122218097D01*
X111971903Y-122322563D01*
X112094742Y-122404641D01*
X112125974Y-122417577D01*
X111509300Y-123034250D01*
X111511598Y-123063449D01*
X111497233Y-123131827D01*
X111448181Y-123181583D01*
X111380016Y-123196921D01*
X111368583Y-123195650D01*
X111266611Y-123179500D01*
X111093389Y-123179500D01*
X111053728Y-123185781D01*
X110922302Y-123206597D01*
X110922299Y-123206598D01*
X110788883Y-123249948D01*
X110757552Y-123260128D01*
X110603211Y-123338768D01*
X110547115Y-123379525D01*
X110463072Y-123440586D01*
X110463070Y-123440588D01*
X110463069Y-123440588D01*
X110340588Y-123563069D01*
X110340588Y-123563070D01*
X110340586Y-123563072D01*
X110308976Y-123606579D01*
X110238768Y-123703211D01*
X110160128Y-123857552D01*
X110106597Y-124022302D01*
X110084550Y-124161506D01*
X110079500Y-124193389D01*
X107494203Y-124193389D01*
X107496847Y-119074038D01*
X117199500Y-119074038D01*
X117199500Y-119325962D01*
X117216880Y-119435696D01*
X117238910Y-119574785D01*
X117316760Y-119814383D01*
X117431132Y-120038848D01*
X117579201Y-120242649D01*
X117579205Y-120242654D01*
X117757345Y-120420794D01*
X117757350Y-120420798D01*
X117935117Y-120549952D01*
X117961155Y-120568870D01*
X118082527Y-120630712D01*
X118185616Y-120683239D01*
X118185618Y-120683239D01*
X118185621Y-120683241D01*
X118425215Y-120761090D01*
X118674038Y-120800500D01*
X118674039Y-120800500D01*
X118925961Y-120800500D01*
X118925962Y-120800500D01*
X119174785Y-120761090D01*
X119303556Y-120719248D01*
X119373394Y-120717254D01*
X119429553Y-120749499D01*
X121671175Y-122991121D01*
X121704660Y-123052444D01*
X121699676Y-123122136D01*
X121657804Y-123178069D01*
X121592340Y-123202486D01*
X121564097Y-123201275D01*
X121426611Y-123179500D01*
X121253389Y-123179500D01*
X121213728Y-123185781D01*
X121082302Y-123206597D01*
X121082299Y-123206598D01*
X120948883Y-123249948D01*
X120917552Y-123260128D01*
X120763211Y-123338768D01*
X120707115Y-123379525D01*
X120623072Y-123440586D01*
X120623070Y-123440588D01*
X120623069Y-123440588D01*
X120500588Y-123563069D01*
X120500588Y-123563070D01*
X120500586Y-123563072D01*
X120468976Y-123606579D01*
X120398768Y-123703211D01*
X120320128Y-123857552D01*
X120266597Y-124022302D01*
X120244550Y-124161506D01*
X120239500Y-124193389D01*
X120239500Y-124366611D01*
X120266598Y-124537701D01*
X120320127Y-124702445D01*
X120398768Y-124856788D01*
X120500586Y-124996928D01*
X120623072Y-125119414D01*
X120763212Y-125221232D01*
X120917555Y-125299873D01*
X121082299Y-125353402D01*
X121253389Y-125380500D01*
X121253390Y-125380500D01*
X121426610Y-125380500D01*
X121426611Y-125380500D01*
X121597701Y-125353402D01*
X121762445Y-125299873D01*
X121916788Y-125221232D01*
X122056928Y-125119414D01*
X122179414Y-124996928D01*
X122281232Y-124856788D01*
X122359873Y-124702445D01*
X122413402Y-124537701D01*
X122440500Y-124366611D01*
X122440500Y-124193389D01*
X122418724Y-124055901D01*
X122427679Y-123986610D01*
X122472675Y-123933158D01*
X122539426Y-123912518D01*
X122606740Y-123931243D01*
X122628878Y-123948824D01*
X129785325Y-131105272D01*
X129785331Y-131105277D01*
X129891874Y-131176466D01*
X129961221Y-131205189D01*
X130010256Y-131225501D01*
X130010259Y-131225501D01*
X130010260Y-131225502D01*
X130135928Y-131250500D01*
X130135931Y-131250500D01*
X130264069Y-131250500D01*
X183931715Y-131250500D01*
X183998754Y-131270185D01*
X184032031Y-131301612D01*
X184088123Y-131378816D01*
X184221184Y-131511877D01*
X184373421Y-131622484D01*
X184455656Y-131664384D01*
X184541086Y-131707914D01*
X184541092Y-131707916D01*
X184677790Y-131752331D01*
X184735466Y-131791768D01*
X184762665Y-131856126D01*
X184750751Y-131924973D01*
X184703507Y-131976449D01*
X184677792Y-131988193D01*
X184541280Y-132032549D01*
X184373681Y-132117945D01*
X184349249Y-132135696D01*
X184349248Y-132135696D01*
X184854260Y-132640707D01*
X184799288Y-132655437D01*
X184680713Y-132723896D01*
X184583896Y-132820713D01*
X184515437Y-132939288D01*
X184500707Y-132994260D01*
X183995696Y-132489248D01*
X183995696Y-132489249D01*
X183977945Y-132513681D01*
X183892548Y-132681281D01*
X183834425Y-132860165D01*
X183834425Y-132860168D01*
X183805000Y-133045951D01*
X183805000Y-133234048D01*
X183834425Y-133419831D01*
X183834425Y-133419834D01*
X183892549Y-133598720D01*
X183892549Y-133598721D01*
X183908082Y-133629206D01*
X183920978Y-133697875D01*
X183894701Y-133762615D01*
X183837595Y-133802872D01*
X183797597Y-133809500D01*
X152055929Y-133809500D01*
X151930261Y-133834497D01*
X151930255Y-133834499D01*
X151811874Y-133883534D01*
X151705326Y-133954726D01*
X149717190Y-135942862D01*
X149655867Y-135976347D01*
X149610111Y-135977654D01*
X149448799Y-135952105D01*
X149432352Y-135949500D01*
X149227648Y-135949500D01*
X149211201Y-135952105D01*
X149025465Y-135981522D01*
X148830776Y-136044781D01*
X148648386Y-136137715D01*
X148482786Y-136258028D01*
X148338028Y-136402786D01*
X148217715Y-136568386D01*
X148124781Y-136750776D01*
X148061522Y-136945465D01*
X148029500Y-137147648D01*
X148029500Y-137352351D01*
X148061522Y-137554534D01*
X148124781Y-137749223D01*
X148188691Y-137874653D01*
X148210477Y-137917409D01*
X148217715Y-137931613D01*
X148338028Y-138097213D01*
X148482786Y-138241971D01*
X148637749Y-138354556D01*
X148648390Y-138362287D01*
X148764607Y-138421503D01*
X148830776Y-138455218D01*
X148830778Y-138455218D01*
X148830781Y-138455220D01*
X148935137Y-138489127D01*
X149025465Y-138518477D01*
X149126557Y-138534488D01*
X149227648Y-138550500D01*
X149227649Y-138550500D01*
X149432351Y-138550500D01*
X149432352Y-138550500D01*
X149634534Y-138518477D01*
X149829219Y-138455220D01*
X150011610Y-138362287D01*
X150104590Y-138294732D01*
X150177213Y-138241971D01*
X150177215Y-138241968D01*
X150177219Y-138241966D01*
X150321966Y-138097219D01*
X150321968Y-138097215D01*
X150321971Y-138097213D01*
X150374732Y-138024590D01*
X150442287Y-137931610D01*
X150535220Y-137749219D01*
X150598477Y-137554534D01*
X150604202Y-137518386D01*
X150618322Y-137429240D01*
X150630500Y-137352351D01*
X150630500Y-137147648D01*
X150602345Y-136969886D01*
X150611300Y-136900593D01*
X150637134Y-136862810D01*
X151197790Y-136302155D01*
X157580000Y-136302155D01*
X157580000Y-137000000D01*
X158604722Y-137000000D01*
X158560667Y-137076306D01*
X158530000Y-137190756D01*
X158530000Y-137309244D01*
X158560667Y-137423694D01*
X158604722Y-137500000D01*
X157580000Y-137500000D01*
X157580000Y-138197844D01*
X157586401Y-138257372D01*
X157586403Y-138257379D01*
X157636645Y-138392086D01*
X157636649Y-138392093D01*
X157722809Y-138507187D01*
X157722812Y-138507190D01*
X157837906Y-138593350D01*
X157837913Y-138593354D01*
X157972620Y-138643596D01*
X157972627Y-138643598D01*
X158032155Y-138649999D01*
X158032172Y-138650000D01*
X158730000Y-138650000D01*
X158730000Y-137625277D01*
X158806306Y-137669333D01*
X158920756Y-137700000D01*
X159039244Y-137700000D01*
X159153694Y-137669333D01*
X159230000Y-137625277D01*
X159230000Y-138650000D01*
X159927828Y-138650000D01*
X159927844Y-138649999D01*
X159987372Y-138643598D01*
X159987379Y-138643596D01*
X160122086Y-138593354D01*
X160122093Y-138593350D01*
X160237187Y-138507190D01*
X160237190Y-138507187D01*
X160323350Y-138392093D01*
X160323354Y-138392086D01*
X160353213Y-138312031D01*
X160395084Y-138256097D01*
X160460548Y-138231680D01*
X160528821Y-138246531D01*
X160557076Y-138267683D01*
X160607636Y-138318243D01*
X160607641Y-138318247D01*
X160763192Y-138431260D01*
X160785978Y-138447815D01*
X160888292Y-138499947D01*
X160982393Y-138547895D01*
X160982396Y-138547896D01*
X161087221Y-138581955D01*
X161192049Y-138616015D01*
X161409778Y-138650500D01*
X161409779Y-138650500D01*
X161630221Y-138650500D01*
X161630222Y-138650500D01*
X161847951Y-138616015D01*
X162057606Y-138547895D01*
X162254022Y-138447815D01*
X162432365Y-138318242D01*
X162588242Y-138162365D01*
X162717815Y-137984022D01*
X162725874Y-137968204D01*
X162773848Y-137917409D01*
X162836359Y-137900500D01*
X165721929Y-137900500D01*
X165788968Y-137920185D01*
X165822245Y-137951613D01*
X165928030Y-138097213D01*
X165928034Y-138097219D01*
X166072786Y-138241971D01*
X166227749Y-138354556D01*
X166238390Y-138362287D01*
X166354607Y-138421503D01*
X166420776Y-138455218D01*
X166420778Y-138455218D01*
X166420781Y-138455220D01*
X166525137Y-138489127D01*
X166615465Y-138518477D01*
X166716557Y-138534488D01*
X166817648Y-138550500D01*
X166817649Y-138550500D01*
X167022351Y-138550500D01*
X167022352Y-138550500D01*
X167224534Y-138518477D01*
X167419219Y-138455220D01*
X167601610Y-138362287D01*
X167694590Y-138294732D01*
X167767213Y-138241971D01*
X167767215Y-138241968D01*
X167767219Y-138241966D01*
X167911966Y-138097219D01*
X167911968Y-138097215D01*
X167911971Y-138097213D01*
X167964732Y-138024590D01*
X168032287Y-137931610D01*
X168125220Y-137749219D01*
X168188477Y-137554534D01*
X168220500Y-137352352D01*
X168220500Y-137147648D01*
X168188477Y-136945465D01*
X168151632Y-136832069D01*
X168125220Y-136750781D01*
X168125218Y-136750778D01*
X168125218Y-136750776D01*
X168060876Y-136624499D01*
X168032287Y-136568390D01*
X168017753Y-136548385D01*
X167911971Y-136402786D01*
X167767213Y-136258028D01*
X167601613Y-136137715D01*
X167601612Y-136137714D01*
X167601610Y-136137713D01*
X167539931Y-136106286D01*
X167419223Y-136044781D01*
X167224534Y-135981522D01*
X167038799Y-135952105D01*
X167022352Y-135949500D01*
X166817648Y-135949500D01*
X166801201Y-135952105D01*
X166615465Y-135981522D01*
X166420776Y-136044781D01*
X166238386Y-136137715D01*
X166072786Y-136258028D01*
X165928034Y-136402780D01*
X165887322Y-136458817D01*
X165822246Y-136548386D01*
X165766918Y-136591051D01*
X165721929Y-136599500D01*
X162836359Y-136599500D01*
X162769320Y-136579815D01*
X162725874Y-136531795D01*
X162717812Y-136515973D01*
X162588247Y-136337641D01*
X162588243Y-136337636D01*
X162432363Y-136181756D01*
X162432358Y-136181752D01*
X162254025Y-136052187D01*
X162254024Y-136052186D01*
X162254022Y-136052185D01*
X162191096Y-136020122D01*
X162057606Y-135952104D01*
X162057603Y-135952103D01*
X161847952Y-135883985D01*
X161739086Y-135866742D01*
X161630222Y-135849500D01*
X161409778Y-135849500D01*
X161337201Y-135860995D01*
X161192047Y-135883985D01*
X160982396Y-135952103D01*
X160982393Y-135952104D01*
X160785974Y-136052187D01*
X160607641Y-136181752D01*
X160607636Y-136181756D01*
X160557075Y-136232317D01*
X160495752Y-136265801D01*
X160426060Y-136260816D01*
X160370127Y-136218945D01*
X160353213Y-136187968D01*
X160323354Y-136107913D01*
X160323350Y-136107906D01*
X160237190Y-135992812D01*
X160237187Y-135992809D01*
X160122093Y-135906649D01*
X160122086Y-135906645D01*
X159987379Y-135856403D01*
X159987372Y-135856401D01*
X159927844Y-135850000D01*
X159230000Y-135850000D01*
X159230000Y-136874722D01*
X159153694Y-136830667D01*
X159039244Y-136800000D01*
X158920756Y-136800000D01*
X158806306Y-136830667D01*
X158730000Y-136874722D01*
X158730000Y-135850000D01*
X158032155Y-135850000D01*
X157972627Y-135856401D01*
X157972620Y-135856403D01*
X157837913Y-135906645D01*
X157837906Y-135906649D01*
X157722812Y-135992809D01*
X157722809Y-135992812D01*
X157636649Y-136107906D01*
X157636645Y-136107913D01*
X157586403Y-136242620D01*
X157586401Y-136242627D01*
X157580000Y-136302155D01*
X151197790Y-136302155D01*
X152353127Y-135146819D01*
X152414450Y-135113334D01*
X152440808Y-135110500D01*
X183459192Y-135110500D01*
X183526231Y-135130185D01*
X183546873Y-135146819D01*
X183784635Y-135384581D01*
X183818120Y-135445904D01*
X183819427Y-135491659D01*
X183804500Y-135585906D01*
X183804500Y-135774093D01*
X183833937Y-135959948D01*
X183892084Y-136138910D01*
X183892085Y-136138913D01*
X183972421Y-136296579D01*
X183977516Y-136306579D01*
X184088123Y-136458816D01*
X184221184Y-136591877D01*
X184373421Y-136702484D01*
X184455656Y-136744384D01*
X184541086Y-136787914D01*
X184541089Y-136787915D01*
X184676982Y-136832069D01*
X184734657Y-136871506D01*
X184761856Y-136935865D01*
X184749942Y-137004711D01*
X184702698Y-137056187D01*
X184676982Y-137067931D01*
X184541089Y-137112084D01*
X184541086Y-137112085D01*
X184373420Y-137197516D01*
X184299043Y-137251555D01*
X184221184Y-137308123D01*
X184221182Y-137308125D01*
X184221181Y-137308125D01*
X184088125Y-137441181D01*
X184088123Y-137441184D01*
X184032031Y-137518386D01*
X183976703Y-137561051D01*
X183931715Y-137569500D01*
X181300807Y-137569500D01*
X181233768Y-137549815D01*
X181213126Y-137533181D01*
X180424674Y-136744727D01*
X180424673Y-136744726D01*
X180376284Y-136712394D01*
X180318127Y-136673535D01*
X180199744Y-136624499D01*
X180199738Y-136624497D01*
X180074071Y-136599500D01*
X180074069Y-136599500D01*
X178278071Y-136599500D01*
X178211032Y-136579815D01*
X178177754Y-136548386D01*
X178071966Y-136402781D01*
X177927219Y-136258034D01*
X177927213Y-136258028D01*
X177761613Y-136137715D01*
X177761612Y-136137714D01*
X177761610Y-136137713D01*
X177699931Y-136106286D01*
X177579223Y-136044781D01*
X177384534Y-135981522D01*
X177198799Y-135952105D01*
X177182352Y-135949500D01*
X176977648Y-135949500D01*
X176961201Y-135952105D01*
X176775465Y-135981522D01*
X176580776Y-136044781D01*
X176398386Y-136137715D01*
X176232786Y-136258028D01*
X176088028Y-136402786D01*
X175967715Y-136568386D01*
X175874781Y-136750776D01*
X175811522Y-136945465D01*
X175779500Y-137147648D01*
X175779500Y-137352351D01*
X175811522Y-137554534D01*
X175874781Y-137749223D01*
X175938691Y-137874653D01*
X175960477Y-137917409D01*
X175967715Y-137931613D01*
X176088028Y-138097213D01*
X176232786Y-138241971D01*
X176387749Y-138354556D01*
X176398390Y-138362287D01*
X176514607Y-138421503D01*
X176580776Y-138455218D01*
X176580778Y-138455218D01*
X176580781Y-138455220D01*
X176685137Y-138489127D01*
X176775465Y-138518477D01*
X176876557Y-138534488D01*
X176977648Y-138550500D01*
X176977649Y-138550500D01*
X177182351Y-138550500D01*
X177182352Y-138550500D01*
X177384534Y-138518477D01*
X177579219Y-138455220D01*
X177761610Y-138362287D01*
X177854590Y-138294732D01*
X177927213Y-138241971D01*
X177927215Y-138241968D01*
X177927219Y-138241966D01*
X178071966Y-138097219D01*
X178177753Y-137951613D01*
X178233082Y-137908949D01*
X178278071Y-137900500D01*
X179689192Y-137900500D01*
X179756231Y-137920185D01*
X179776873Y-137936819D01*
X180152086Y-138312031D01*
X180474724Y-138634669D01*
X180565331Y-138725276D01*
X180565332Y-138725277D01*
X180671866Y-138796461D01*
X180671872Y-138796464D01*
X180671873Y-138796465D01*
X180790256Y-138845501D01*
X180790260Y-138845501D01*
X180790261Y-138845502D01*
X180915928Y-138870500D01*
X180915931Y-138870500D01*
X183931715Y-138870500D01*
X183998754Y-138890185D01*
X184032031Y-138921612D01*
X184088123Y-138998816D01*
X184221184Y-139131877D01*
X184373421Y-139242484D01*
X184412795Y-139262546D01*
X184541086Y-139327914D01*
X184541089Y-139327915D01*
X184605356Y-139348796D01*
X184720053Y-139386063D01*
X184802309Y-139399091D01*
X184905907Y-139415500D01*
X184905912Y-139415500D01*
X185094093Y-139415500D01*
X185184193Y-139401228D01*
X185279947Y-139386063D01*
X185458913Y-139327914D01*
X185626579Y-139242484D01*
X185778816Y-139131877D01*
X185911877Y-138998816D01*
X186022484Y-138846579D01*
X186107914Y-138678913D01*
X186166063Y-138499947D01*
X186183145Y-138392093D01*
X186195500Y-138314093D01*
X186195500Y-138125906D01*
X186178374Y-138017785D01*
X186166063Y-137940053D01*
X186136988Y-137850570D01*
X186107915Y-137761089D01*
X186107914Y-137761086D01*
X186022483Y-137593420D01*
X186005104Y-137569500D01*
X185911877Y-137441184D01*
X185778816Y-137308123D01*
X185626579Y-137197516D01*
X185613312Y-137190756D01*
X185458913Y-137112085D01*
X185458910Y-137112084D01*
X185323017Y-137067931D01*
X185265342Y-137028494D01*
X185238143Y-136964135D01*
X185250057Y-136895289D01*
X185297301Y-136843813D01*
X185323017Y-136832069D01*
X185458910Y-136787915D01*
X185458913Y-136787914D01*
X185626579Y-136702484D01*
X185778816Y-136591877D01*
X185911877Y-136458816D01*
X186022484Y-136306579D01*
X186107914Y-136138913D01*
X186136093Y-136052187D01*
X186166063Y-135959948D01*
X186176554Y-135893713D01*
X192649500Y-135893713D01*
X192649500Y-136106287D01*
X192659534Y-136169644D01*
X192682753Y-136316239D01*
X192682753Y-136316241D01*
X192682754Y-136316243D01*
X192729079Y-136458817D01*
X192748444Y-136518414D01*
X192844951Y-136707820D01*
X192969890Y-136879786D01*
X193120213Y-137030109D01*
X193292179Y-137155048D01*
X193292181Y-137155049D01*
X193292184Y-137155051D01*
X193481588Y-137251557D01*
X193683757Y-137317246D01*
X193893713Y-137350500D01*
X193893714Y-137350500D01*
X194106286Y-137350500D01*
X194106287Y-137350500D01*
X194316243Y-137317246D01*
X194518412Y-137251557D01*
X194707816Y-137155051D01*
X194766954Y-137112085D01*
X194879786Y-137030109D01*
X194879788Y-137030106D01*
X194879792Y-137030104D01*
X195030104Y-136879792D01*
X195030106Y-136879788D01*
X195030109Y-136879786D01*
X195155048Y-136707820D01*
X195155047Y-136707820D01*
X195155051Y-136707816D01*
X195251557Y-136518412D01*
X195317246Y-136316243D01*
X195350500Y-136106287D01*
X195350500Y-135893713D01*
X195317246Y-135683757D01*
X195251557Y-135481588D01*
X195155051Y-135292184D01*
X195155049Y-135292181D01*
X195155048Y-135292179D01*
X195030109Y-135120213D01*
X194879786Y-134969890D01*
X194707820Y-134844951D01*
X194518414Y-134748444D01*
X194518413Y-134748443D01*
X194518412Y-134748443D01*
X194316243Y-134682754D01*
X194316241Y-134682753D01*
X194316240Y-134682753D01*
X194154957Y-134657208D01*
X194106287Y-134649500D01*
X193893713Y-134649500D01*
X193845042Y-134657208D01*
X193683760Y-134682753D01*
X193481585Y-134748444D01*
X193292179Y-134844951D01*
X193120213Y-134969890D01*
X192969890Y-135120213D01*
X192844951Y-135292179D01*
X192748444Y-135481585D01*
X192682753Y-135683760D01*
X192655410Y-135856401D01*
X192649500Y-135893713D01*
X186176554Y-135893713D01*
X186180398Y-135869443D01*
X186195500Y-135774093D01*
X186195500Y-135585906D01*
X186170688Y-135429257D01*
X186166063Y-135400053D01*
X186107914Y-135221087D01*
X186107914Y-135221086D01*
X186022483Y-135053420D01*
X185911877Y-134901184D01*
X185778816Y-134768123D01*
X185626579Y-134657516D01*
X185606953Y-134647516D01*
X185458913Y-134572085D01*
X185458910Y-134572084D01*
X185322208Y-134527668D01*
X185264533Y-134488231D01*
X185237334Y-134423872D01*
X185249248Y-134355026D01*
X185296492Y-134303550D01*
X185322208Y-134291806D01*
X185458718Y-134247451D01*
X185626316Y-134162055D01*
X185650749Y-134144303D01*
X185650749Y-134144302D01*
X185145739Y-133639292D01*
X185200712Y-133624563D01*
X185319287Y-133556104D01*
X185416104Y-133459287D01*
X185484563Y-133340712D01*
X185499292Y-133285739D01*
X186004302Y-133790749D01*
X186004303Y-133790749D01*
X186022055Y-133766316D01*
X186107451Y-133598718D01*
X186165574Y-133419834D01*
X186165574Y-133419831D01*
X186195000Y-133234048D01*
X186195000Y-133045950D01*
X186194999Y-133045949D01*
X186165574Y-132860168D01*
X186165574Y-132860165D01*
X186107451Y-132681281D01*
X186022053Y-132513680D01*
X186004303Y-132489249D01*
X186004302Y-132489248D01*
X185499292Y-132994259D01*
X185484563Y-132939288D01*
X185416104Y-132820713D01*
X185319287Y-132723896D01*
X185200712Y-132655437D01*
X185145739Y-132640707D01*
X185650749Y-132135696D01*
X185626312Y-132117942D01*
X185458719Y-132032549D01*
X185322207Y-131988193D01*
X185264532Y-131948755D01*
X185237334Y-131884396D01*
X185249249Y-131815550D01*
X185296493Y-131764074D01*
X185322206Y-131752332D01*
X185458913Y-131707914D01*
X185626579Y-131622484D01*
X185778816Y-131511877D01*
X185911877Y-131378816D01*
X186022484Y-131226579D01*
X186107914Y-131058913D01*
X186166063Y-130879947D01*
X186181228Y-130784193D01*
X186195500Y-130694093D01*
X186195500Y-130505906D01*
X186178374Y-130397785D01*
X186166063Y-130320053D01*
X186107914Y-130141087D01*
X186107914Y-130141086D01*
X186022483Y-129973420D01*
X185911877Y-129821184D01*
X185778816Y-129688123D01*
X185626579Y-129577516D01*
X185567434Y-129547380D01*
X185458913Y-129492085D01*
X185458910Y-129492084D01*
X185323017Y-129447931D01*
X185265342Y-129408494D01*
X185238143Y-129344135D01*
X185250057Y-129275289D01*
X185297301Y-129223813D01*
X185323017Y-129212069D01*
X185458910Y-129167915D01*
X185458913Y-129167914D01*
X185478539Y-129157914D01*
X185626579Y-129082484D01*
X185778816Y-128971877D01*
X185911877Y-128838816D01*
X186022484Y-128686579D01*
X186107914Y-128518913D01*
X186166063Y-128339947D01*
X186181228Y-128244193D01*
X186195500Y-128154093D01*
X186195500Y-127965906D01*
X186178374Y-127857785D01*
X186166063Y-127780053D01*
X186107914Y-127601087D01*
X186107914Y-127601086D01*
X186064384Y-127515656D01*
X186022484Y-127433421D01*
X185911877Y-127281184D01*
X185778816Y-127148123D01*
X185626579Y-127037516D01*
X185567434Y-127007380D01*
X185458913Y-126952085D01*
X185458910Y-126952084D01*
X185323017Y-126907931D01*
X185265342Y-126868494D01*
X185238143Y-126804135D01*
X185250057Y-126735289D01*
X185297301Y-126683813D01*
X185323017Y-126672069D01*
X185458910Y-126627915D01*
X185458913Y-126627914D01*
X185478539Y-126617914D01*
X185626579Y-126542484D01*
X185778816Y-126431877D01*
X185911877Y-126298816D01*
X186022484Y-126146579D01*
X186107914Y-125978913D01*
X186166063Y-125799947D01*
X186181228Y-125704193D01*
X186195500Y-125614093D01*
X186195500Y-125425906D01*
X186178374Y-125317785D01*
X186166063Y-125240053D01*
X186136988Y-125150570D01*
X186107915Y-125061089D01*
X186107914Y-125061086D01*
X186022483Y-124893420D01*
X185911877Y-124741184D01*
X185778816Y-124608123D01*
X185626579Y-124497516D01*
X185606953Y-124487516D01*
X185458913Y-124412085D01*
X185458910Y-124412084D01*
X185323017Y-124367931D01*
X185265342Y-124328494D01*
X185238143Y-124264135D01*
X185250057Y-124195289D01*
X185297301Y-124143813D01*
X185323017Y-124132069D01*
X185458910Y-124087915D01*
X185458913Y-124087914D01*
X185478539Y-124077914D01*
X185626579Y-124002484D01*
X185778816Y-123891877D01*
X185911877Y-123758816D01*
X186022484Y-123606579D01*
X186107914Y-123438913D01*
X186166063Y-123259947D01*
X186187890Y-123122136D01*
X186195500Y-123074093D01*
X186195500Y-122885905D01*
X186195499Y-122885904D01*
X186166063Y-122700051D01*
X186107915Y-122521089D01*
X186107914Y-122521086D01*
X186064384Y-122435656D01*
X186022484Y-122353421D01*
X185911877Y-122201184D01*
X185778816Y-122068123D01*
X185626579Y-121957516D01*
X185606953Y-121947516D01*
X185458913Y-121872085D01*
X185458910Y-121872084D01*
X185322208Y-121827668D01*
X185264533Y-121788231D01*
X185237334Y-121723872D01*
X185249248Y-121655026D01*
X185296492Y-121603550D01*
X185322208Y-121591806D01*
X185458718Y-121547451D01*
X185626316Y-121462055D01*
X185650749Y-121444303D01*
X185650749Y-121444302D01*
X185145740Y-120939292D01*
X185200712Y-120924563D01*
X185319287Y-120856104D01*
X185416104Y-120759287D01*
X185484563Y-120640712D01*
X185499292Y-120585739D01*
X186004302Y-121090749D01*
X186004303Y-121090749D01*
X186022055Y-121066316D01*
X186107451Y-120898718D01*
X186165574Y-120719834D01*
X186165574Y-120719831D01*
X186195000Y-120534048D01*
X186195000Y-120345950D01*
X186194999Y-120345949D01*
X186165574Y-120160168D01*
X186165574Y-120160165D01*
X186107451Y-119981281D01*
X186022053Y-119813680D01*
X186004303Y-119789249D01*
X186004302Y-119789248D01*
X185499292Y-120294259D01*
X185484563Y-120239288D01*
X185416104Y-120120713D01*
X185319287Y-120023896D01*
X185200712Y-119955437D01*
X185145739Y-119940707D01*
X185650749Y-119435696D01*
X185626312Y-119417942D01*
X185458719Y-119332549D01*
X185322207Y-119288193D01*
X185264532Y-119248755D01*
X185237334Y-119184396D01*
X185249249Y-119115550D01*
X185296493Y-119064074D01*
X185322206Y-119052332D01*
X185458913Y-119007914D01*
X185626579Y-118922484D01*
X185778816Y-118811877D01*
X185911877Y-118678816D01*
X186022484Y-118526579D01*
X186107914Y-118358913D01*
X186166063Y-118179947D01*
X186181228Y-118084193D01*
X186195500Y-117994093D01*
X186195500Y-117805906D01*
X186178374Y-117697785D01*
X186166063Y-117620053D01*
X186107914Y-117441087D01*
X186107914Y-117441086D01*
X186022483Y-117273420D01*
X185911877Y-117121184D01*
X185778816Y-116988123D01*
X185626579Y-116877516D01*
X185606953Y-116867516D01*
X185458913Y-116792085D01*
X185458910Y-116792084D01*
X185323017Y-116747931D01*
X185265342Y-116708494D01*
X185238143Y-116644135D01*
X185250057Y-116575289D01*
X185297301Y-116523813D01*
X185323017Y-116512069D01*
X185458910Y-116467915D01*
X185458913Y-116467914D01*
X185478539Y-116457914D01*
X185626579Y-116382484D01*
X185778816Y-116271877D01*
X185911877Y-116138816D01*
X186022484Y-115986579D01*
X186107914Y-115818913D01*
X186166063Y-115639947D01*
X186187982Y-115501555D01*
X186195500Y-115454093D01*
X186195500Y-115265906D01*
X186173940Y-115129786D01*
X186166063Y-115080053D01*
X186136988Y-114990570D01*
X186107915Y-114901089D01*
X186107914Y-114901086D01*
X186022483Y-114733420D01*
X185911877Y-114581184D01*
X185778816Y-114448123D01*
X185626579Y-114337516D01*
X185606953Y-114327516D01*
X185462411Y-114253868D01*
X185462409Y-114253867D01*
X185458913Y-114252086D01*
X185322804Y-114207862D01*
X185322525Y-114207770D01*
X185294012Y-114188098D01*
X185265342Y-114168494D01*
X185265236Y-114168245D01*
X185265015Y-114168092D01*
X185254831Y-114143713D01*
X192649500Y-114143713D01*
X192649500Y-114356287D01*
X192682754Y-114566243D01*
X192737073Y-114733420D01*
X192748444Y-114768414D01*
X192844951Y-114957820D01*
X192969890Y-115129786D01*
X193120213Y-115280109D01*
X193292179Y-115405048D01*
X193292181Y-115405049D01*
X193292184Y-115405051D01*
X193481588Y-115501557D01*
X193683757Y-115567246D01*
X193893713Y-115600500D01*
X193893714Y-115600500D01*
X194106286Y-115600500D01*
X194106287Y-115600500D01*
X194316243Y-115567246D01*
X194518412Y-115501557D01*
X194707816Y-115405051D01*
X194742591Y-115379786D01*
X194879786Y-115280109D01*
X194879788Y-115280106D01*
X194879792Y-115280104D01*
X195030104Y-115129792D01*
X195030106Y-115129788D01*
X195030109Y-115129786D01*
X195155048Y-114957820D01*
X195155047Y-114957820D01*
X195155051Y-114957816D01*
X195251557Y-114768412D01*
X195317246Y-114566243D01*
X195350500Y-114356287D01*
X195350500Y-114143713D01*
X195317246Y-113933757D01*
X195251557Y-113731588D01*
X195155051Y-113542184D01*
X195155049Y-113542181D01*
X195155048Y-113542179D01*
X195030109Y-113370213D01*
X194879786Y-113219890D01*
X194707820Y-113094951D01*
X194518414Y-112998444D01*
X194518413Y-112998443D01*
X194518412Y-112998443D01*
X194316243Y-112932754D01*
X194316241Y-112932753D01*
X194316240Y-112932753D01*
X194154957Y-112907208D01*
X194106287Y-112899500D01*
X193893713Y-112899500D01*
X193845042Y-112907208D01*
X193683760Y-112932753D01*
X193481585Y-112998444D01*
X193292179Y-113094951D01*
X193120213Y-113219890D01*
X192969890Y-113370213D01*
X192844951Y-113542179D01*
X192748444Y-113731585D01*
X192682753Y-113933760D01*
X192650926Y-114134711D01*
X192649500Y-114143713D01*
X185254831Y-114143713D01*
X185251639Y-114136071D01*
X185238143Y-114104135D01*
X185238188Y-114103869D01*
X185238085Y-114103621D01*
X185244129Y-114069542D01*
X185250057Y-114035289D01*
X185250240Y-114035089D01*
X185250287Y-114034825D01*
X185273770Y-114009450D01*
X185297301Y-113983813D01*
X185297643Y-113983656D01*
X185297746Y-113983546D01*
X185298067Y-113983462D01*
X185323017Y-113972069D01*
X185458910Y-113927915D01*
X185458913Y-113927914D01*
X185478539Y-113917914D01*
X185626579Y-113842484D01*
X185778816Y-113731877D01*
X185911877Y-113598816D01*
X186022484Y-113446579D01*
X186107914Y-113278913D01*
X186166063Y-113099947D01*
X186192544Y-112932753D01*
X186195500Y-112914093D01*
X186195500Y-112725906D01*
X186178374Y-112617785D01*
X186166063Y-112540053D01*
X186107914Y-112361087D01*
X186107914Y-112361086D01*
X186022483Y-112193420D01*
X185911877Y-112041184D01*
X185778816Y-111908123D01*
X185626579Y-111797516D01*
X185606953Y-111787516D01*
X185458913Y-111712085D01*
X185458910Y-111712084D01*
X185323017Y-111667931D01*
X185265342Y-111628494D01*
X185238143Y-111564135D01*
X185250057Y-111495289D01*
X185297301Y-111443813D01*
X185323017Y-111432069D01*
X185458910Y-111387915D01*
X185458913Y-111387914D01*
X185478539Y-111377914D01*
X185626579Y-111302484D01*
X185778816Y-111191877D01*
X185911877Y-111058816D01*
X186022484Y-110906579D01*
X186107914Y-110738913D01*
X186166063Y-110559947D01*
X186181228Y-110464193D01*
X186195500Y-110374093D01*
X186195500Y-110185905D01*
X186195499Y-110185904D01*
X186166063Y-110000051D01*
X186107915Y-109821089D01*
X186107914Y-109821086D01*
X186022483Y-109653420D01*
X185911877Y-109501184D01*
X185778816Y-109368123D01*
X185626579Y-109257516D01*
X185606953Y-109247516D01*
X185458913Y-109172085D01*
X185458910Y-109172084D01*
X185322208Y-109127668D01*
X185264533Y-109088231D01*
X185237334Y-109023872D01*
X185249248Y-108955026D01*
X185296492Y-108903550D01*
X185322208Y-108891806D01*
X185458718Y-108847451D01*
X185626316Y-108762055D01*
X185650749Y-108744303D01*
X185650749Y-108744302D01*
X185145740Y-108239292D01*
X185200712Y-108224563D01*
X185319287Y-108156104D01*
X185416104Y-108059287D01*
X185484563Y-107940712D01*
X185499292Y-107885739D01*
X186004302Y-108390749D01*
X186004303Y-108390749D01*
X186022055Y-108366316D01*
X186107451Y-108198718D01*
X186165574Y-108019834D01*
X186165574Y-108019831D01*
X186195000Y-107834048D01*
X186195000Y-107645950D01*
X186194999Y-107645949D01*
X186165574Y-107460168D01*
X186165574Y-107460165D01*
X186107451Y-107281281D01*
X186022053Y-107113680D01*
X186004303Y-107089249D01*
X186004302Y-107089248D01*
X185499292Y-107594259D01*
X185484563Y-107539288D01*
X185416104Y-107420713D01*
X185319287Y-107323896D01*
X185200712Y-107255437D01*
X185145739Y-107240707D01*
X185650749Y-106735696D01*
X185626312Y-106717942D01*
X185458719Y-106632549D01*
X185322207Y-106588193D01*
X185264532Y-106548755D01*
X185237334Y-106484396D01*
X185249249Y-106415550D01*
X185296493Y-106364074D01*
X185322206Y-106352332D01*
X185458913Y-106307914D01*
X185626579Y-106222484D01*
X185778816Y-106111877D01*
X185911877Y-105978816D01*
X186022484Y-105826579D01*
X186107914Y-105658913D01*
X186166063Y-105479947D01*
X186188229Y-105339995D01*
X186195500Y-105294093D01*
X186195500Y-105105906D01*
X186176605Y-104986611D01*
X186166063Y-104920053D01*
X186116603Y-104767829D01*
X186107915Y-104741089D01*
X186107914Y-104741086D01*
X186022483Y-104573420D01*
X185911877Y-104421184D01*
X185778816Y-104288123D01*
X185626579Y-104177516D01*
X185606953Y-104167516D01*
X185458913Y-104092085D01*
X185458910Y-104092084D01*
X185323017Y-104047931D01*
X185265342Y-104008494D01*
X185238143Y-103944135D01*
X185250057Y-103875289D01*
X185297301Y-103823813D01*
X185323017Y-103812069D01*
X185458910Y-103767915D01*
X185458913Y-103767914D01*
X185478539Y-103757914D01*
X185626579Y-103682484D01*
X185778816Y-103571877D01*
X185911877Y-103438816D01*
X186022484Y-103286579D01*
X186107914Y-103118913D01*
X186166063Y-102939947D01*
X186182194Y-102838097D01*
X186195500Y-102754093D01*
X186195500Y-102565906D01*
X186178374Y-102457785D01*
X186166063Y-102380053D01*
X186107914Y-102201087D01*
X186107914Y-102201086D01*
X186022483Y-102033420D01*
X185911877Y-101881184D01*
X185778816Y-101748123D01*
X185626579Y-101637516D01*
X185572576Y-101610000D01*
X185458913Y-101552085D01*
X185458910Y-101552084D01*
X185323017Y-101507931D01*
X185265342Y-101468494D01*
X185238143Y-101404135D01*
X185250057Y-101335289D01*
X185297301Y-101283813D01*
X185323017Y-101272069D01*
X185458910Y-101227915D01*
X185458913Y-101227914D01*
X185478539Y-101217914D01*
X185626579Y-101142484D01*
X185778816Y-101031877D01*
X185911877Y-100898816D01*
X186022484Y-100746579D01*
X186107914Y-100578913D01*
X186166063Y-100399947D01*
X186181228Y-100304193D01*
X186195500Y-100214093D01*
X186195500Y-100025906D01*
X186178374Y-99917785D01*
X186166063Y-99840053D01*
X186136988Y-99750570D01*
X186107915Y-99661089D01*
X186107914Y-99661086D01*
X186022483Y-99493420D01*
X186019635Y-99489500D01*
X185911877Y-99341184D01*
X185778816Y-99208123D01*
X185626579Y-99097516D01*
X185606953Y-99087516D01*
X185458913Y-99012085D01*
X185458910Y-99012084D01*
X185323017Y-98967931D01*
X185265342Y-98928494D01*
X185238143Y-98864135D01*
X185250057Y-98795289D01*
X185297301Y-98743813D01*
X185323017Y-98732069D01*
X185458910Y-98687915D01*
X185458913Y-98687914D01*
X185478539Y-98677914D01*
X185626579Y-98602484D01*
X185778816Y-98491877D01*
X185911877Y-98358816D01*
X186022484Y-98206579D01*
X186107914Y-98038913D01*
X186166063Y-97859947D01*
X186181228Y-97764193D01*
X186195500Y-97674093D01*
X186195500Y-97485905D01*
X186195499Y-97485904D01*
X186166063Y-97300051D01*
X186107915Y-97121089D01*
X186107914Y-97121086D01*
X186022483Y-96953420D01*
X185911877Y-96801184D01*
X185778816Y-96668123D01*
X185626579Y-96557516D01*
X185606953Y-96547516D01*
X185458913Y-96472085D01*
X185458910Y-96472084D01*
X185322208Y-96427668D01*
X185264533Y-96388231D01*
X185237334Y-96323872D01*
X185249248Y-96255026D01*
X185296492Y-96203550D01*
X185322208Y-96191806D01*
X185458718Y-96147451D01*
X185626316Y-96062055D01*
X185650749Y-96044303D01*
X185650749Y-96044302D01*
X185145740Y-95539292D01*
X185200712Y-95524563D01*
X185319287Y-95456104D01*
X185416104Y-95359287D01*
X185484563Y-95240712D01*
X185499292Y-95185739D01*
X186004302Y-95690749D01*
X186004303Y-95690749D01*
X186022055Y-95666316D01*
X186107451Y-95498718D01*
X186165574Y-95319834D01*
X186165574Y-95319831D01*
X186195000Y-95134048D01*
X186195000Y-94945950D01*
X186194999Y-94945949D01*
X186165574Y-94760168D01*
X186165574Y-94760165D01*
X186107451Y-94581281D01*
X186022053Y-94413680D01*
X186004303Y-94389249D01*
X186004302Y-94389248D01*
X185499292Y-94894259D01*
X185484563Y-94839288D01*
X185416104Y-94720713D01*
X185319287Y-94623896D01*
X185200712Y-94555437D01*
X185145739Y-94540707D01*
X185650749Y-94035696D01*
X185626312Y-94017942D01*
X185458719Y-93932549D01*
X185322207Y-93888193D01*
X185264532Y-93848755D01*
X185237334Y-93784396D01*
X185249249Y-93715550D01*
X185296493Y-93664074D01*
X185322206Y-93652332D01*
X185458913Y-93607914D01*
X185626579Y-93522484D01*
X185778816Y-93411877D01*
X185911877Y-93278816D01*
X186022484Y-93126579D01*
X186107914Y-92958913D01*
X186166063Y-92779947D01*
X186181228Y-92684193D01*
X186195500Y-92594093D01*
X186195500Y-92405906D01*
X186178374Y-92297785D01*
X186166063Y-92220053D01*
X186107914Y-92041087D01*
X186107914Y-92041086D01*
X186022483Y-91873420D01*
X185911877Y-91721184D01*
X185778816Y-91588123D01*
X185626579Y-91477516D01*
X185458913Y-91392086D01*
X185458914Y-91392086D01*
X185454788Y-91389984D01*
X185403992Y-91342009D01*
X185387197Y-91274188D01*
X185409734Y-91208053D01*
X185464450Y-91164602D01*
X185511082Y-91155499D01*
X185742872Y-91155499D01*
X185802483Y-91149091D01*
X185937331Y-91098796D01*
X186052546Y-91012546D01*
X186138796Y-90897331D01*
X186140145Y-90893713D01*
X192649500Y-90893713D01*
X192649500Y-91106287D01*
X192657295Y-91155500D01*
X192679942Y-91298494D01*
X192682754Y-91316243D01*
X192704147Y-91382085D01*
X192748444Y-91518414D01*
X192844951Y-91707820D01*
X192969890Y-91879786D01*
X193120213Y-92030109D01*
X193292179Y-92155048D01*
X193292181Y-92155049D01*
X193292184Y-92155051D01*
X193481588Y-92251557D01*
X193683757Y-92317246D01*
X193893713Y-92350500D01*
X193893714Y-92350500D01*
X194106286Y-92350500D01*
X194106287Y-92350500D01*
X194316243Y-92317246D01*
X194518412Y-92251557D01*
X194707816Y-92155051D01*
X194729789Y-92139086D01*
X194879786Y-92030109D01*
X194879788Y-92030106D01*
X194879792Y-92030104D01*
X195030104Y-91879792D01*
X195030106Y-91879788D01*
X195030109Y-91879786D01*
X195155048Y-91707820D01*
X195155047Y-91707820D01*
X195155051Y-91707816D01*
X195251557Y-91518412D01*
X195317246Y-91316243D01*
X195350500Y-91106287D01*
X195350500Y-90893713D01*
X195317246Y-90683757D01*
X195251557Y-90481588D01*
X195155051Y-90292184D01*
X195155049Y-90292181D01*
X195155048Y-90292179D01*
X195030109Y-90120213D01*
X194879790Y-89969894D01*
X194879785Y-89969890D01*
X194854278Y-89951358D01*
X194722898Y-89855906D01*
X201554500Y-89855906D01*
X201554500Y-90044093D01*
X201583937Y-90229948D01*
X201642084Y-90408910D01*
X201642085Y-90408913D01*
X201727516Y-90576579D01*
X201838123Y-90728816D01*
X201971184Y-90861877D01*
X202123421Y-90972484D01*
X202202043Y-91012544D01*
X202291086Y-91057914D01*
X202291089Y-91057915D01*
X202426982Y-91102069D01*
X202484657Y-91141506D01*
X202511856Y-91205865D01*
X202499942Y-91274711D01*
X202452698Y-91326187D01*
X202426982Y-91337931D01*
X202291089Y-91382084D01*
X202291086Y-91382085D01*
X202123420Y-91467516D01*
X202053369Y-91518412D01*
X201971184Y-91578123D01*
X201971182Y-91578125D01*
X201971181Y-91578125D01*
X201838125Y-91711181D01*
X201838125Y-91711182D01*
X201838123Y-91711184D01*
X201830860Y-91721181D01*
X201727516Y-91863420D01*
X201642085Y-92031086D01*
X201642084Y-92031089D01*
X201583937Y-92210051D01*
X201554500Y-92395906D01*
X201554500Y-92584093D01*
X201583937Y-92769948D01*
X201642084Y-92948910D01*
X201642085Y-92948913D01*
X201727516Y-93116579D01*
X201838123Y-93268816D01*
X201971184Y-93401877D01*
X202123421Y-93512484D01*
X202205656Y-93554384D01*
X202291086Y-93597914D01*
X202291092Y-93597916D01*
X202427790Y-93642331D01*
X202485466Y-93681768D01*
X202512665Y-93746126D01*
X202500751Y-93814973D01*
X202453507Y-93866449D01*
X202427792Y-93878193D01*
X202291280Y-93922549D01*
X202123681Y-94007945D01*
X202099249Y-94025696D01*
X202099248Y-94025696D01*
X202604260Y-94530707D01*
X202549288Y-94545437D01*
X202430713Y-94613896D01*
X202333896Y-94710713D01*
X202265437Y-94829288D01*
X202250707Y-94884260D01*
X201745696Y-94379248D01*
X201745696Y-94379249D01*
X201727945Y-94403681D01*
X201642548Y-94571281D01*
X201584425Y-94750165D01*
X201584425Y-94750168D01*
X201555000Y-94935951D01*
X201555000Y-95124048D01*
X201584425Y-95309831D01*
X201584425Y-95309834D01*
X201642548Y-95488718D01*
X201727942Y-95656312D01*
X201745696Y-95680749D01*
X202250707Y-95175738D01*
X202265437Y-95230712D01*
X202333896Y-95349287D01*
X202430713Y-95446104D01*
X202549288Y-95514563D01*
X202604259Y-95529292D01*
X202099248Y-96034302D01*
X202099249Y-96034303D01*
X202123680Y-96052053D01*
X202291281Y-96137451D01*
X202427791Y-96181806D01*
X202485467Y-96221243D01*
X202512665Y-96285602D01*
X202500750Y-96354448D01*
X202453506Y-96405924D01*
X202427791Y-96417668D01*
X202291089Y-96462084D01*
X202291086Y-96462085D01*
X202123420Y-96547516D01*
X202036563Y-96610621D01*
X201971184Y-96658123D01*
X201971182Y-96658125D01*
X201971181Y-96658125D01*
X201838125Y-96791181D01*
X201838125Y-96791182D01*
X201838123Y-96791184D01*
X201830860Y-96801181D01*
X201727516Y-96943420D01*
X201642085Y-97111086D01*
X201642084Y-97111089D01*
X201583937Y-97290051D01*
X201554500Y-97475906D01*
X201554500Y-97664093D01*
X201583937Y-97849948D01*
X201642084Y-98028910D01*
X201642085Y-98028913D01*
X201727516Y-98196579D01*
X201838123Y-98348816D01*
X201971184Y-98481877D01*
X202123421Y-98592484D01*
X202205656Y-98634384D01*
X202291086Y-98677914D01*
X202291089Y-98677915D01*
X202426982Y-98722069D01*
X202484657Y-98761506D01*
X202511856Y-98825865D01*
X202499942Y-98894711D01*
X202452698Y-98946187D01*
X202426982Y-98957931D01*
X202291089Y-99002084D01*
X202291086Y-99002085D01*
X202123420Y-99087516D01*
X202036563Y-99150621D01*
X201971184Y-99198123D01*
X201971182Y-99198125D01*
X201971181Y-99198125D01*
X201838125Y-99331181D01*
X201838125Y-99331182D01*
X201838123Y-99331184D01*
X201830860Y-99341181D01*
X201727516Y-99483420D01*
X201642085Y-99651086D01*
X201642084Y-99651089D01*
X201583937Y-99830051D01*
X201554500Y-100015906D01*
X201554500Y-100204093D01*
X201583937Y-100389948D01*
X201642084Y-100568910D01*
X201642085Y-100568913D01*
X201687910Y-100658848D01*
X201727516Y-100736579D01*
X201838123Y-100888816D01*
X201971184Y-101021877D01*
X202123421Y-101132484D01*
X202205656Y-101174384D01*
X202291086Y-101217914D01*
X202291089Y-101217915D01*
X202426982Y-101262069D01*
X202484657Y-101301506D01*
X202511856Y-101365865D01*
X202499942Y-101434711D01*
X202452698Y-101486187D01*
X202426982Y-101497931D01*
X202291089Y-101542084D01*
X202291086Y-101542085D01*
X202123420Y-101627516D01*
X202036563Y-101690621D01*
X201971184Y-101738123D01*
X201971182Y-101738125D01*
X201971181Y-101738125D01*
X201838125Y-101871181D01*
X201838125Y-101871182D01*
X201838123Y-101871184D01*
X201790621Y-101936563D01*
X201727516Y-102023420D01*
X201642085Y-102191086D01*
X201642084Y-102191089D01*
X201583937Y-102370051D01*
X201554500Y-102555906D01*
X201554500Y-102744093D01*
X201583937Y-102929948D01*
X201642084Y-103108910D01*
X201642085Y-103108913D01*
X201727516Y-103276579D01*
X201838123Y-103428816D01*
X201971184Y-103561877D01*
X202123421Y-103672484D01*
X202205656Y-103714384D01*
X202291086Y-103757914D01*
X202291089Y-103757915D01*
X202426982Y-103802069D01*
X202484657Y-103841506D01*
X202511856Y-103905865D01*
X202499942Y-103974711D01*
X202452698Y-104026187D01*
X202426982Y-104037931D01*
X202291089Y-104082084D01*
X202291086Y-104082085D01*
X202123420Y-104167516D01*
X202036563Y-104230621D01*
X201971184Y-104278123D01*
X201971182Y-104278125D01*
X201971181Y-104278125D01*
X201838125Y-104411181D01*
X201838125Y-104411182D01*
X201838123Y-104411184D01*
X201830860Y-104421181D01*
X201727516Y-104563420D01*
X201642085Y-104731086D01*
X201642084Y-104731089D01*
X201583937Y-104910051D01*
X201554500Y-105095906D01*
X201554500Y-105284093D01*
X201583937Y-105469948D01*
X201642084Y-105648910D01*
X201642085Y-105648913D01*
X201727516Y-105816579D01*
X201838123Y-105968816D01*
X201971184Y-106101877D01*
X202123421Y-106212484D01*
X202205656Y-106254384D01*
X202291086Y-106297914D01*
X202291092Y-106297916D01*
X202427790Y-106342331D01*
X202485466Y-106381768D01*
X202512665Y-106446126D01*
X202500751Y-106514973D01*
X202453507Y-106566449D01*
X202427792Y-106578193D01*
X202291280Y-106622549D01*
X202123681Y-106707945D01*
X202099249Y-106725696D01*
X202099248Y-106725696D01*
X202604260Y-107230707D01*
X202549288Y-107245437D01*
X202430713Y-107313896D01*
X202333896Y-107410713D01*
X202265437Y-107529288D01*
X202250707Y-107584260D01*
X201745696Y-107079248D01*
X201745696Y-107079249D01*
X201727945Y-107103681D01*
X201642548Y-107271281D01*
X201584425Y-107450165D01*
X201584425Y-107450168D01*
X201555000Y-107635951D01*
X201555000Y-107824048D01*
X201584425Y-108009831D01*
X201584425Y-108009834D01*
X201642548Y-108188718D01*
X201727942Y-108356312D01*
X201745696Y-108380749D01*
X202250707Y-107875738D01*
X202265437Y-107930712D01*
X202333896Y-108049287D01*
X202430713Y-108146104D01*
X202549288Y-108214563D01*
X202604259Y-108229292D01*
X202099248Y-108734302D01*
X202099249Y-108734303D01*
X202123680Y-108752053D01*
X202291281Y-108837451D01*
X202427791Y-108881806D01*
X202485467Y-108921243D01*
X202512665Y-108985602D01*
X202500750Y-109054448D01*
X202453506Y-109105924D01*
X202427791Y-109117668D01*
X202291089Y-109162084D01*
X202291086Y-109162085D01*
X202123420Y-109247516D01*
X202036563Y-109310621D01*
X201971184Y-109358123D01*
X201971182Y-109358125D01*
X201971181Y-109358125D01*
X201838125Y-109491181D01*
X201838125Y-109491182D01*
X201838123Y-109491184D01*
X201830860Y-109501181D01*
X201727516Y-109643420D01*
X201642085Y-109811086D01*
X201642084Y-109811089D01*
X201583937Y-109990051D01*
X201554500Y-110175906D01*
X201554500Y-110364093D01*
X201583937Y-110549948D01*
X201642084Y-110728910D01*
X201642085Y-110728913D01*
X201727516Y-110896579D01*
X201838123Y-111048816D01*
X201971184Y-111181877D01*
X202123421Y-111292484D01*
X202205656Y-111334384D01*
X202291086Y-111377914D01*
X202291089Y-111377915D01*
X202426982Y-111422069D01*
X202484657Y-111461506D01*
X202511856Y-111525865D01*
X202499942Y-111594711D01*
X202452698Y-111646187D01*
X202426982Y-111657931D01*
X202291089Y-111702084D01*
X202291086Y-111702085D01*
X202123420Y-111787516D01*
X202036563Y-111850621D01*
X201971184Y-111898123D01*
X201971182Y-111898125D01*
X201971181Y-111898125D01*
X201838125Y-112031181D01*
X201838125Y-112031182D01*
X201838123Y-112031184D01*
X201830860Y-112041181D01*
X201727516Y-112183420D01*
X201642085Y-112351086D01*
X201642084Y-112351089D01*
X201583937Y-112530051D01*
X201554500Y-112715906D01*
X201554500Y-112904093D01*
X201583937Y-113089948D01*
X201642084Y-113268910D01*
X201642085Y-113268913D01*
X201727516Y-113436579D01*
X201838123Y-113588816D01*
X201971184Y-113721877D01*
X202123421Y-113832484D01*
X202205656Y-113874384D01*
X202291086Y-113917914D01*
X202291089Y-113917915D01*
X202426982Y-113962069D01*
X202484657Y-114001506D01*
X202511856Y-114065865D01*
X202499942Y-114134711D01*
X202452698Y-114186187D01*
X202426982Y-114197931D01*
X202291089Y-114242084D01*
X202291086Y-114242085D01*
X202123420Y-114327516D01*
X202083821Y-114356287D01*
X201971184Y-114438123D01*
X201971182Y-114438125D01*
X201971181Y-114438125D01*
X201838125Y-114571181D01*
X201838125Y-114571182D01*
X201838123Y-114571184D01*
X201830860Y-114581181D01*
X201727516Y-114723420D01*
X201642085Y-114891086D01*
X201642084Y-114891089D01*
X201583937Y-115070051D01*
X201554500Y-115255906D01*
X201554500Y-115444093D01*
X201583937Y-115629948D01*
X201642084Y-115808910D01*
X201642085Y-115808913D01*
X201727516Y-115976579D01*
X201838123Y-116128816D01*
X201971184Y-116261877D01*
X202123421Y-116372484D01*
X202205656Y-116414384D01*
X202291086Y-116457914D01*
X202291089Y-116457915D01*
X202426982Y-116502069D01*
X202484657Y-116541506D01*
X202511856Y-116605865D01*
X202499942Y-116674711D01*
X202452698Y-116726187D01*
X202426982Y-116737931D01*
X202291089Y-116782084D01*
X202291086Y-116782085D01*
X202123420Y-116867516D01*
X202036563Y-116930621D01*
X201971184Y-116978123D01*
X201971182Y-116978125D01*
X201971181Y-116978125D01*
X201838125Y-117111181D01*
X201838125Y-117111182D01*
X201838123Y-117111184D01*
X201830860Y-117121181D01*
X201727516Y-117263420D01*
X201642085Y-117431086D01*
X201642084Y-117431089D01*
X201583937Y-117610051D01*
X201554500Y-117795906D01*
X201554500Y-117984093D01*
X201583937Y-118169948D01*
X201642084Y-118348910D01*
X201642085Y-118348913D01*
X201727516Y-118516579D01*
X201838123Y-118668816D01*
X201971184Y-118801877D01*
X202123421Y-118912484D01*
X202205656Y-118954384D01*
X202291086Y-118997914D01*
X202291092Y-118997916D01*
X202427790Y-119042331D01*
X202485466Y-119081768D01*
X202512665Y-119146126D01*
X202500751Y-119214973D01*
X202453507Y-119266449D01*
X202427792Y-119278193D01*
X202291280Y-119322549D01*
X202123681Y-119407945D01*
X202099249Y-119425696D01*
X202099248Y-119425696D01*
X202604260Y-119930707D01*
X202549288Y-119945437D01*
X202430713Y-120013896D01*
X202333896Y-120110713D01*
X202265437Y-120229288D01*
X202250707Y-120284260D01*
X201745696Y-119779248D01*
X201745696Y-119779249D01*
X201727945Y-119803681D01*
X201642548Y-119971281D01*
X201584425Y-120150165D01*
X201584425Y-120150168D01*
X201555000Y-120335951D01*
X201555000Y-120524048D01*
X201584425Y-120709831D01*
X201584425Y-120709834D01*
X201642548Y-120888718D01*
X201727942Y-121056312D01*
X201745696Y-121080749D01*
X202250707Y-120575738D01*
X202265437Y-120630712D01*
X202333896Y-120749287D01*
X202430713Y-120846104D01*
X202549288Y-120914563D01*
X202604259Y-120929292D01*
X202099248Y-121434302D01*
X202099249Y-121434303D01*
X202123680Y-121452053D01*
X202291281Y-121537451D01*
X202427791Y-121581806D01*
X202485467Y-121621243D01*
X202512665Y-121685602D01*
X202500750Y-121754448D01*
X202453506Y-121805924D01*
X202427791Y-121817668D01*
X202291089Y-121862084D01*
X202291086Y-121862085D01*
X202123420Y-121947516D01*
X202107935Y-121958767D01*
X201971184Y-122058123D01*
X201971182Y-122058125D01*
X201971181Y-122058125D01*
X201838125Y-122191181D01*
X201838125Y-122191182D01*
X201838123Y-122191184D01*
X201790621Y-122256563D01*
X201727516Y-122343420D01*
X201642085Y-122511086D01*
X201642084Y-122511089D01*
X201583937Y-122690051D01*
X201554500Y-122875906D01*
X201554500Y-123064093D01*
X201583937Y-123249948D01*
X201642084Y-123428910D01*
X201642085Y-123428913D01*
X201706350Y-123555038D01*
X201727516Y-123596579D01*
X201838123Y-123748816D01*
X201971184Y-123881877D01*
X202123421Y-123992484D01*
X202181942Y-124022302D01*
X202291086Y-124077914D01*
X202291089Y-124077915D01*
X202426982Y-124122069D01*
X202484657Y-124161506D01*
X202511856Y-124225865D01*
X202499942Y-124294711D01*
X202452698Y-124346187D01*
X202426982Y-124357931D01*
X202291089Y-124402084D01*
X202291086Y-124402085D01*
X202123420Y-124487516D01*
X202054353Y-124537697D01*
X201971184Y-124598123D01*
X201971182Y-124598125D01*
X201971181Y-124598125D01*
X201838125Y-124731181D01*
X201838125Y-124731182D01*
X201838123Y-124731184D01*
X201830860Y-124741181D01*
X201727516Y-124883420D01*
X201642085Y-125051086D01*
X201642084Y-125051089D01*
X201583937Y-125230051D01*
X201554500Y-125415906D01*
X201554500Y-125604093D01*
X201583937Y-125789948D01*
X201642084Y-125968910D01*
X201642085Y-125968913D01*
X201727516Y-126136579D01*
X201838123Y-126288816D01*
X201971184Y-126421877D01*
X202123421Y-126532484D01*
X202205656Y-126574384D01*
X202291086Y-126617914D01*
X202291089Y-126617915D01*
X202426982Y-126662069D01*
X202484657Y-126701506D01*
X202511856Y-126765865D01*
X202499942Y-126834711D01*
X202452698Y-126886187D01*
X202426982Y-126897931D01*
X202291089Y-126942084D01*
X202291086Y-126942085D01*
X202123420Y-127027516D01*
X202036563Y-127090621D01*
X201971184Y-127138123D01*
X201971182Y-127138125D01*
X201971181Y-127138125D01*
X201838125Y-127271181D01*
X201838125Y-127271182D01*
X201838123Y-127271184D01*
X201812464Y-127306501D01*
X201727516Y-127423420D01*
X201642085Y-127591086D01*
X201642084Y-127591089D01*
X201583937Y-127770051D01*
X201554500Y-127955906D01*
X201554500Y-128144093D01*
X201583937Y-128329948D01*
X201642084Y-128508910D01*
X201642085Y-128508913D01*
X201698593Y-128619815D01*
X201727516Y-128676579D01*
X201838123Y-128828816D01*
X201971184Y-128961877D01*
X202123421Y-129072484D01*
X202205656Y-129114384D01*
X202291086Y-129157914D01*
X202291089Y-129157915D01*
X202426982Y-129202069D01*
X202484657Y-129241506D01*
X202511856Y-129305865D01*
X202499942Y-129374711D01*
X202452698Y-129426187D01*
X202426982Y-129437931D01*
X202291089Y-129482084D01*
X202291086Y-129482085D01*
X202123420Y-129567516D01*
X202036563Y-129630621D01*
X201971184Y-129678123D01*
X201971182Y-129678125D01*
X201971181Y-129678125D01*
X201838125Y-129811181D01*
X201838125Y-129811182D01*
X201838123Y-129811184D01*
X201830860Y-129821181D01*
X201727516Y-129963420D01*
X201642085Y-130131086D01*
X201642084Y-130131089D01*
X201583937Y-130310051D01*
X201554500Y-130495906D01*
X201554500Y-130684093D01*
X201583937Y-130869948D01*
X201642084Y-131048910D01*
X201642085Y-131048913D01*
X201721713Y-131205190D01*
X201727516Y-131216579D01*
X201838123Y-131368816D01*
X201971184Y-131501877D01*
X202123421Y-131612484D01*
X202205656Y-131654384D01*
X202291086Y-131697914D01*
X202291092Y-131697916D01*
X202427790Y-131742331D01*
X202485466Y-131781768D01*
X202512665Y-131846126D01*
X202500751Y-131914973D01*
X202453507Y-131966449D01*
X202427792Y-131978193D01*
X202291280Y-132022549D01*
X202123681Y-132107945D01*
X202099249Y-132125696D01*
X202099248Y-132125696D01*
X202604260Y-132630707D01*
X202549288Y-132645437D01*
X202430713Y-132713896D01*
X202333896Y-132810713D01*
X202265437Y-132929288D01*
X202250707Y-132984260D01*
X201745696Y-132479248D01*
X201745696Y-132479249D01*
X201727945Y-132503681D01*
X201642548Y-132671281D01*
X201584425Y-132850165D01*
X201584425Y-132850168D01*
X201555000Y-133035951D01*
X201555000Y-133224048D01*
X201584425Y-133409831D01*
X201584425Y-133409834D01*
X201642548Y-133588718D01*
X201727942Y-133756312D01*
X201745696Y-133780749D01*
X202250707Y-133275738D01*
X202265437Y-133330712D01*
X202333896Y-133449287D01*
X202430713Y-133546104D01*
X202549288Y-133614563D01*
X202604259Y-133629292D01*
X202099248Y-134134302D01*
X202099249Y-134134303D01*
X202123680Y-134152053D01*
X202291281Y-134237451D01*
X202427791Y-134281806D01*
X202485467Y-134321243D01*
X202512665Y-134385602D01*
X202500750Y-134454448D01*
X202453506Y-134505924D01*
X202427791Y-134517668D01*
X202291089Y-134562084D01*
X202291086Y-134562085D01*
X202123420Y-134647516D01*
X202074920Y-134682754D01*
X201971184Y-134758123D01*
X201971182Y-134758125D01*
X201971181Y-134758125D01*
X201838125Y-134891181D01*
X201838125Y-134891182D01*
X201838123Y-134891184D01*
X201830860Y-134901181D01*
X201727516Y-135043420D01*
X201642085Y-135211086D01*
X201642084Y-135211089D01*
X201583937Y-135390051D01*
X201554500Y-135575906D01*
X201554500Y-135764093D01*
X201583937Y-135949948D01*
X201642084Y-136128910D01*
X201642085Y-136128913D01*
X201700026Y-136242627D01*
X201727516Y-136296579D01*
X201838123Y-136448816D01*
X201971184Y-136581877D01*
X202123421Y-136692484D01*
X202291087Y-136777914D01*
X202291088Y-136777914D01*
X202295211Y-136780015D01*
X202346007Y-136827989D01*
X202362802Y-136895810D01*
X202340265Y-136961945D01*
X202285550Y-137005397D01*
X202238917Y-137014500D01*
X202007130Y-137014500D01*
X202007123Y-137014501D01*
X201947516Y-137020908D01*
X201812671Y-137071202D01*
X201812664Y-137071206D01*
X201697455Y-137157452D01*
X201697452Y-137157455D01*
X201611206Y-137272664D01*
X201611202Y-137272671D01*
X201560908Y-137407517D01*
X201557289Y-137441182D01*
X201554501Y-137467123D01*
X201554500Y-137467135D01*
X201554500Y-138952870D01*
X201554501Y-138952876D01*
X201560908Y-139012483D01*
X201611202Y-139147328D01*
X201611206Y-139147335D01*
X201697452Y-139262544D01*
X201697455Y-139262547D01*
X201812664Y-139348793D01*
X201812671Y-139348797D01*
X201947517Y-139399091D01*
X201947516Y-139399091D01*
X201954444Y-139399835D01*
X202007127Y-139405500D01*
X203492872Y-139405499D01*
X203552483Y-139399091D01*
X203687331Y-139348796D01*
X203802546Y-139262546D01*
X203888796Y-139147331D01*
X203939091Y-139012483D01*
X203945500Y-138952873D01*
X203945499Y-137467128D01*
X203939091Y-137407517D01*
X203918515Y-137352351D01*
X203888797Y-137272671D01*
X203888793Y-137272664D01*
X203802547Y-137157455D01*
X203802544Y-137157452D01*
X203687335Y-137071206D01*
X203687328Y-137071202D01*
X203552482Y-137020908D01*
X203552483Y-137020908D01*
X203492883Y-137014501D01*
X203492881Y-137014500D01*
X203492873Y-137014500D01*
X203492865Y-137014500D01*
X203261084Y-137014500D01*
X203194045Y-136994815D01*
X203148290Y-136942011D01*
X203138346Y-136872853D01*
X203167371Y-136809297D01*
X203204789Y-136780015D01*
X203208911Y-136777914D01*
X203208913Y-136777914D01*
X203376579Y-136692484D01*
X203528816Y-136581877D01*
X203661877Y-136448816D01*
X203772484Y-136296579D01*
X203857914Y-136128913D01*
X203916063Y-135949947D01*
X203931972Y-135849500D01*
X203945500Y-135764093D01*
X203945500Y-135575906D01*
X203922272Y-135429257D01*
X203916063Y-135390053D01*
X203857914Y-135211087D01*
X203857914Y-135211086D01*
X203777579Y-135053421D01*
X203772484Y-135043421D01*
X203661877Y-134891184D01*
X203528816Y-134758123D01*
X203376579Y-134647516D01*
X203208913Y-134562085D01*
X203208910Y-134562084D01*
X203072208Y-134517668D01*
X203014533Y-134478231D01*
X202987334Y-134413872D01*
X202999248Y-134345026D01*
X203046492Y-134293550D01*
X203072208Y-134281806D01*
X203208718Y-134237451D01*
X203376316Y-134152055D01*
X203400749Y-134134303D01*
X203400749Y-134134302D01*
X202895740Y-133629292D01*
X202950712Y-133614563D01*
X203069287Y-133546104D01*
X203166104Y-133449287D01*
X203234563Y-133330712D01*
X203249292Y-133275739D01*
X203754302Y-133780749D01*
X203754303Y-133780749D01*
X203772055Y-133756316D01*
X203857451Y-133588718D01*
X203915574Y-133409834D01*
X203915574Y-133409831D01*
X203945000Y-133224048D01*
X203945000Y-133035951D01*
X203915574Y-132850168D01*
X203915574Y-132850165D01*
X203857451Y-132671281D01*
X203772053Y-132503680D01*
X203754303Y-132479249D01*
X203754302Y-132479248D01*
X203249292Y-132984259D01*
X203234563Y-132929288D01*
X203166104Y-132810713D01*
X203069287Y-132713896D01*
X202950712Y-132645437D01*
X202895739Y-132630707D01*
X203400749Y-132125696D01*
X203376312Y-132107942D01*
X203208719Y-132022549D01*
X203072207Y-131978193D01*
X203014532Y-131938755D01*
X202987334Y-131874396D01*
X202999249Y-131805550D01*
X203046493Y-131754074D01*
X203072206Y-131742332D01*
X203208913Y-131697914D01*
X203376579Y-131612484D01*
X203528816Y-131501877D01*
X203661877Y-131368816D01*
X203772484Y-131216579D01*
X203857914Y-131048913D01*
X203916063Y-130869947D01*
X203931228Y-130774193D01*
X203945500Y-130684093D01*
X203945500Y-130495906D01*
X203928374Y-130387785D01*
X203916063Y-130310053D01*
X203857914Y-130131087D01*
X203857914Y-130131086D01*
X203777579Y-129973421D01*
X203772484Y-129963421D01*
X203661877Y-129811184D01*
X203528816Y-129678123D01*
X203376579Y-129567516D01*
X203337060Y-129547380D01*
X203208913Y-129482085D01*
X203208910Y-129482084D01*
X203073017Y-129437931D01*
X203015342Y-129398494D01*
X202988143Y-129334135D01*
X203000057Y-129265289D01*
X203047301Y-129213813D01*
X203073017Y-129202069D01*
X203208910Y-129157915D01*
X203208913Y-129157914D01*
X203376579Y-129072484D01*
X203528816Y-128961877D01*
X203661877Y-128828816D01*
X203772484Y-128676579D01*
X203857914Y-128508913D01*
X203916063Y-128329947D01*
X203931228Y-128234193D01*
X203945500Y-128144093D01*
X203945500Y-127955906D01*
X203928374Y-127847785D01*
X203916063Y-127770053D01*
X203857914Y-127591087D01*
X203857914Y-127591086D01*
X203814384Y-127505656D01*
X203772484Y-127423421D01*
X203661877Y-127271184D01*
X203528816Y-127138123D01*
X203376579Y-127027516D01*
X203337060Y-127007380D01*
X203208913Y-126942085D01*
X203208910Y-126942084D01*
X203073017Y-126897931D01*
X203015342Y-126858494D01*
X202988143Y-126794135D01*
X203000057Y-126725289D01*
X203047301Y-126673813D01*
X203073017Y-126662069D01*
X203208910Y-126617915D01*
X203208913Y-126617914D01*
X203376579Y-126532484D01*
X203528816Y-126421877D01*
X203661877Y-126288816D01*
X203772484Y-126136579D01*
X203857914Y-125968913D01*
X203916063Y-125789947D01*
X203931228Y-125694193D01*
X203945500Y-125604093D01*
X203945500Y-125415906D01*
X203923578Y-125277500D01*
X203916063Y-125230053D01*
X203857914Y-125051087D01*
X203857914Y-125051086D01*
X203777579Y-124893421D01*
X203772484Y-124883421D01*
X203661877Y-124731184D01*
X203528816Y-124598123D01*
X203376579Y-124487516D01*
X203208913Y-124402085D01*
X203208910Y-124402084D01*
X203073017Y-124357931D01*
X203015342Y-124318494D01*
X202988143Y-124254135D01*
X203000057Y-124185289D01*
X203047301Y-124133813D01*
X203073017Y-124122069D01*
X203208910Y-124077915D01*
X203208913Y-124077914D01*
X203252112Y-124055903D01*
X203376579Y-123992484D01*
X203528816Y-123881877D01*
X203661877Y-123748816D01*
X203772484Y-123596579D01*
X203857914Y-123428913D01*
X203916063Y-123249947D01*
X203936306Y-123122136D01*
X203945500Y-123064093D01*
X203945500Y-122875906D01*
X203928374Y-122767785D01*
X203916063Y-122690053D01*
X203857914Y-122511087D01*
X203857914Y-122511086D01*
X203777579Y-122353421D01*
X203772484Y-122343421D01*
X203661877Y-122191184D01*
X203528816Y-122058123D01*
X203376579Y-121947516D01*
X203208913Y-121862085D01*
X203208910Y-121862084D01*
X203072208Y-121817668D01*
X203014533Y-121778231D01*
X202987334Y-121713872D01*
X202999248Y-121645026D01*
X203046492Y-121593550D01*
X203072208Y-121581806D01*
X203208718Y-121537451D01*
X203376316Y-121452055D01*
X203400749Y-121434303D01*
X203400749Y-121434302D01*
X202895740Y-120929292D01*
X202950712Y-120914563D01*
X203069287Y-120846104D01*
X203166104Y-120749287D01*
X203234563Y-120630712D01*
X203249292Y-120575739D01*
X203754302Y-121080749D01*
X203754303Y-121080749D01*
X203772055Y-121056316D01*
X203857451Y-120888718D01*
X203915574Y-120709834D01*
X203915574Y-120709831D01*
X203945000Y-120524048D01*
X203945000Y-120335951D01*
X203915574Y-120150168D01*
X203915574Y-120150165D01*
X203857451Y-119971281D01*
X203772053Y-119803680D01*
X203754303Y-119779249D01*
X203754302Y-119779248D01*
X203249292Y-120284259D01*
X203234563Y-120229288D01*
X203166104Y-120110713D01*
X203069287Y-120013896D01*
X202950712Y-119945437D01*
X202895739Y-119930707D01*
X203400749Y-119425696D01*
X203376312Y-119407942D01*
X203208719Y-119322549D01*
X203072207Y-119278193D01*
X203014532Y-119238755D01*
X202987334Y-119174396D01*
X202999249Y-119105550D01*
X203046493Y-119054074D01*
X203072206Y-119042332D01*
X203208913Y-118997914D01*
X203376579Y-118912484D01*
X203528816Y-118801877D01*
X203661877Y-118668816D01*
X203772484Y-118516579D01*
X203857914Y-118348913D01*
X203916063Y-118169947D01*
X203931228Y-118074193D01*
X203945500Y-117984093D01*
X203945500Y-117795906D01*
X203920633Y-117638910D01*
X203916063Y-117610053D01*
X203857914Y-117431087D01*
X203857914Y-117431086D01*
X203777579Y-117273421D01*
X203772484Y-117263421D01*
X203661877Y-117111184D01*
X203528816Y-116978123D01*
X203376579Y-116867516D01*
X203208913Y-116782085D01*
X203208910Y-116782084D01*
X203073017Y-116737931D01*
X203015342Y-116698494D01*
X202988143Y-116634135D01*
X203000057Y-116565289D01*
X203047301Y-116513813D01*
X203073017Y-116502069D01*
X203208910Y-116457915D01*
X203208913Y-116457914D01*
X203376579Y-116372484D01*
X203528816Y-116261877D01*
X203661877Y-116128816D01*
X203772484Y-115976579D01*
X203857914Y-115808913D01*
X203916063Y-115629947D01*
X203931876Y-115530109D01*
X203945500Y-115444093D01*
X203945500Y-115255906D01*
X203925524Y-115129786D01*
X203916063Y-115070053D01*
X203857914Y-114891087D01*
X203857914Y-114891086D01*
X203777579Y-114733421D01*
X203772484Y-114723421D01*
X203661877Y-114571184D01*
X203528816Y-114438123D01*
X203376579Y-114327516D01*
X203208913Y-114242085D01*
X203208910Y-114242084D01*
X203073017Y-114197931D01*
X203015342Y-114158494D01*
X202988143Y-114094135D01*
X203000057Y-114025289D01*
X203047301Y-113973813D01*
X203073017Y-113962069D01*
X203208910Y-113917915D01*
X203208913Y-113917914D01*
X203376579Y-113832484D01*
X203528816Y-113721877D01*
X203661877Y-113588816D01*
X203772484Y-113436579D01*
X203857914Y-113268913D01*
X203916063Y-113089947D01*
X203940960Y-112932753D01*
X203945500Y-112904093D01*
X203945500Y-112715906D01*
X203928374Y-112607785D01*
X203916063Y-112530053D01*
X203857914Y-112351087D01*
X203857914Y-112351086D01*
X203777579Y-112193421D01*
X203772484Y-112183421D01*
X203661877Y-112031184D01*
X203528816Y-111898123D01*
X203376579Y-111787516D01*
X203208913Y-111702085D01*
X203208910Y-111702084D01*
X203073017Y-111657931D01*
X203015342Y-111618494D01*
X202988143Y-111554135D01*
X203000057Y-111485289D01*
X203047301Y-111433813D01*
X203073017Y-111422069D01*
X203208910Y-111377915D01*
X203208913Y-111377914D01*
X203376579Y-111292484D01*
X203528816Y-111181877D01*
X203661877Y-111048816D01*
X203772484Y-110896579D01*
X203857914Y-110728913D01*
X203916063Y-110549947D01*
X203931228Y-110454193D01*
X203945500Y-110364093D01*
X203945500Y-110175906D01*
X203928374Y-110067785D01*
X203916063Y-109990053D01*
X203857914Y-109811087D01*
X203857914Y-109811086D01*
X203777579Y-109653421D01*
X203772484Y-109643421D01*
X203661877Y-109491184D01*
X203528816Y-109358123D01*
X203376579Y-109247516D01*
X203208913Y-109162085D01*
X203208910Y-109162084D01*
X203072208Y-109117668D01*
X203014533Y-109078231D01*
X202987334Y-109013872D01*
X202999248Y-108945026D01*
X203046492Y-108893550D01*
X203072208Y-108881806D01*
X203208718Y-108837451D01*
X203376316Y-108752055D01*
X203400749Y-108734303D01*
X203400749Y-108734302D01*
X202895740Y-108229292D01*
X202950712Y-108214563D01*
X203069287Y-108146104D01*
X203166104Y-108049287D01*
X203234563Y-107930712D01*
X203249292Y-107875739D01*
X203754302Y-108380749D01*
X203754303Y-108380749D01*
X203772055Y-108356316D01*
X203857451Y-108188718D01*
X203915574Y-108009834D01*
X203915574Y-108009831D01*
X203945000Y-107824048D01*
X203945000Y-107635951D01*
X203915574Y-107450168D01*
X203915574Y-107450165D01*
X203857451Y-107271281D01*
X203772053Y-107103680D01*
X203754303Y-107079249D01*
X203754302Y-107079248D01*
X203249292Y-107584259D01*
X203234563Y-107529288D01*
X203166104Y-107410713D01*
X203069287Y-107313896D01*
X202950712Y-107245437D01*
X202895739Y-107230707D01*
X203400749Y-106725696D01*
X203376312Y-106707942D01*
X203208719Y-106622549D01*
X203072207Y-106578193D01*
X203014532Y-106538755D01*
X202987334Y-106474396D01*
X202999249Y-106405550D01*
X203046493Y-106354074D01*
X203072206Y-106342332D01*
X203208913Y-106297914D01*
X203376579Y-106212484D01*
X203528816Y-106101877D01*
X203661877Y-105968816D01*
X203772484Y-105816579D01*
X203857914Y-105648913D01*
X203916063Y-105469947D01*
X203931228Y-105374193D01*
X203945500Y-105284093D01*
X203945500Y-105095906D01*
X203928188Y-104986610D01*
X203916063Y-104910053D01*
X203884655Y-104813389D01*
X203857915Y-104731089D01*
X203857914Y-104731086D01*
X203777579Y-104573421D01*
X203772484Y-104563421D01*
X203661877Y-104411184D01*
X203528816Y-104278123D01*
X203376579Y-104167516D01*
X203208913Y-104082085D01*
X203208910Y-104082084D01*
X203073017Y-104037931D01*
X203015342Y-103998494D01*
X202988143Y-103934135D01*
X203000057Y-103865289D01*
X203047301Y-103813813D01*
X203073017Y-103802069D01*
X203208910Y-103757915D01*
X203208913Y-103757914D01*
X203266747Y-103728446D01*
X203376579Y-103672484D01*
X203528816Y-103561877D01*
X203661877Y-103428816D01*
X203772484Y-103276579D01*
X203857914Y-103108913D01*
X203916063Y-102929947D01*
X203942289Y-102764364D01*
X203945500Y-102744093D01*
X203945500Y-102555906D01*
X203926170Y-102433869D01*
X203916063Y-102370053D01*
X203871880Y-102234071D01*
X203857915Y-102191089D01*
X203857914Y-102191086D01*
X203777579Y-102033421D01*
X203772484Y-102023421D01*
X203661877Y-101871184D01*
X203528816Y-101738123D01*
X203376579Y-101627516D01*
X203342202Y-101610000D01*
X203208913Y-101542085D01*
X203208910Y-101542084D01*
X203073017Y-101497931D01*
X203015342Y-101458494D01*
X202988143Y-101394135D01*
X203000057Y-101325289D01*
X203047301Y-101273813D01*
X203073017Y-101262069D01*
X203208910Y-101217915D01*
X203208913Y-101217914D01*
X203376579Y-101132484D01*
X203528816Y-101021877D01*
X203661877Y-100888816D01*
X203772484Y-100736579D01*
X203857914Y-100568913D01*
X203916063Y-100389947D01*
X203931228Y-100294193D01*
X203945500Y-100204093D01*
X203945500Y-100015906D01*
X203928374Y-99907785D01*
X203916063Y-99830053D01*
X203886988Y-99740570D01*
X203857915Y-99651089D01*
X203857914Y-99651086D01*
X203777579Y-99493421D01*
X203772484Y-99483421D01*
X203661877Y-99331184D01*
X203528816Y-99198123D01*
X203376579Y-99087516D01*
X203208913Y-99002085D01*
X203208910Y-99002084D01*
X203073017Y-98957931D01*
X203015342Y-98918494D01*
X202988143Y-98854135D01*
X203000057Y-98785289D01*
X203047301Y-98733813D01*
X203073017Y-98722069D01*
X203208910Y-98677915D01*
X203208913Y-98677914D01*
X203376579Y-98592484D01*
X203528816Y-98481877D01*
X203661877Y-98348816D01*
X203772484Y-98196579D01*
X203857914Y-98028913D01*
X203916063Y-97849947D01*
X203931228Y-97754193D01*
X203945500Y-97664093D01*
X203945500Y-97475906D01*
X203928374Y-97367785D01*
X203916063Y-97290053D01*
X203857914Y-97111087D01*
X203857914Y-97111086D01*
X203814384Y-97025656D01*
X203772484Y-96943421D01*
X203661877Y-96791184D01*
X203528816Y-96658123D01*
X203376579Y-96547516D01*
X203208913Y-96462085D01*
X203208910Y-96462084D01*
X203072208Y-96417668D01*
X203014533Y-96378231D01*
X202987334Y-96313872D01*
X202999248Y-96245026D01*
X203046492Y-96193550D01*
X203072208Y-96181806D01*
X203208718Y-96137451D01*
X203376316Y-96052055D01*
X203400749Y-96034303D01*
X203400749Y-96034302D01*
X202895740Y-95529292D01*
X202950712Y-95514563D01*
X203069287Y-95446104D01*
X203166104Y-95349287D01*
X203234563Y-95230712D01*
X203249292Y-95175739D01*
X203754302Y-95680749D01*
X203754303Y-95680749D01*
X203772055Y-95656316D01*
X203857451Y-95488718D01*
X203915574Y-95309834D01*
X203915574Y-95309831D01*
X203945000Y-95124048D01*
X203945000Y-94935951D01*
X203915574Y-94750168D01*
X203915574Y-94750165D01*
X203857451Y-94571281D01*
X203772053Y-94403680D01*
X203754303Y-94379249D01*
X203754302Y-94379248D01*
X203249292Y-94884259D01*
X203234563Y-94829288D01*
X203166104Y-94710713D01*
X203069287Y-94613896D01*
X202950712Y-94545437D01*
X202895739Y-94530707D01*
X203400749Y-94025696D01*
X203376312Y-94007942D01*
X203208719Y-93922549D01*
X203072207Y-93878193D01*
X203014532Y-93838755D01*
X202987334Y-93774396D01*
X202999249Y-93705550D01*
X203046493Y-93654074D01*
X203072206Y-93642332D01*
X203208913Y-93597914D01*
X203376579Y-93512484D01*
X203528816Y-93401877D01*
X203661877Y-93268816D01*
X203772484Y-93116579D01*
X203857914Y-92948913D01*
X203916063Y-92769947D01*
X203931228Y-92674193D01*
X203945500Y-92584093D01*
X203945500Y-92395906D01*
X203928374Y-92287785D01*
X203916063Y-92210053D01*
X203857914Y-92031087D01*
X203857914Y-92031086D01*
X203780822Y-91879786D01*
X203772484Y-91863421D01*
X203661877Y-91711184D01*
X203528816Y-91578123D01*
X203376579Y-91467516D01*
X203208913Y-91382085D01*
X203208910Y-91382084D01*
X203073017Y-91337931D01*
X203015342Y-91298494D01*
X202988143Y-91234135D01*
X203000057Y-91165289D01*
X203047301Y-91113813D01*
X203073017Y-91102069D01*
X203208910Y-91057915D01*
X203208913Y-91057914D01*
X203376579Y-90972484D01*
X203528816Y-90861877D01*
X203661877Y-90728816D01*
X203772484Y-90576579D01*
X203857914Y-90408913D01*
X203916063Y-90229947D01*
X203933444Y-90120208D01*
X203945500Y-90044093D01*
X203945500Y-89855906D01*
X203928374Y-89747785D01*
X203916063Y-89670053D01*
X203857914Y-89491087D01*
X203857914Y-89491086D01*
X203814384Y-89405656D01*
X203772484Y-89323421D01*
X203661877Y-89171184D01*
X203528816Y-89038123D01*
X203376579Y-88927516D01*
X203337207Y-88907455D01*
X203208913Y-88842085D01*
X203208910Y-88842084D01*
X203029948Y-88783937D01*
X202844093Y-88754500D01*
X202844088Y-88754500D01*
X202655912Y-88754500D01*
X202655907Y-88754500D01*
X202470051Y-88783937D01*
X202291089Y-88842084D01*
X202291086Y-88842085D01*
X202123420Y-88927516D01*
X202036563Y-88990621D01*
X201971184Y-89038123D01*
X201971182Y-89038125D01*
X201971181Y-89038125D01*
X201838125Y-89171181D01*
X201838125Y-89171182D01*
X201838123Y-89171184D01*
X201804743Y-89217128D01*
X201727516Y-89323420D01*
X201642085Y-89491086D01*
X201642084Y-89491089D01*
X201583937Y-89670051D01*
X201554500Y-89855906D01*
X194722898Y-89855906D01*
X194707820Y-89844951D01*
X194518414Y-89748444D01*
X194518413Y-89748443D01*
X194518412Y-89748443D01*
X194316243Y-89682754D01*
X194316241Y-89682753D01*
X194316240Y-89682753D01*
X194154957Y-89657208D01*
X194106287Y-89649500D01*
X193893713Y-89649500D01*
X193845042Y-89657208D01*
X193683760Y-89682753D01*
X193481585Y-89748444D01*
X193292179Y-89844951D01*
X193120213Y-89969890D01*
X192969890Y-90120213D01*
X192844951Y-90292179D01*
X192748444Y-90481585D01*
X192682753Y-90683760D01*
X192676816Y-90721246D01*
X192649500Y-90893713D01*
X186140145Y-90893713D01*
X186144407Y-90882284D01*
X186158125Y-90845508D01*
X186189091Y-90762482D01*
X186195500Y-90702873D01*
X186195499Y-89217128D01*
X186189091Y-89157517D01*
X186138796Y-89022669D01*
X186138795Y-89022668D01*
X186138793Y-89022664D01*
X186052547Y-88907455D01*
X186052544Y-88907452D01*
X185937335Y-88821206D01*
X185937328Y-88821202D01*
X185802482Y-88770908D01*
X185802483Y-88770908D01*
X185742883Y-88764501D01*
X185742881Y-88764500D01*
X185742873Y-88764500D01*
X185742864Y-88764500D01*
X184257129Y-88764500D01*
X184257123Y-88764501D01*
X184197516Y-88770908D01*
X184062671Y-88821202D01*
X184062664Y-88821206D01*
X183947455Y-88907452D01*
X183947452Y-88907455D01*
X183861206Y-89022664D01*
X183861202Y-89022671D01*
X183810908Y-89157516D01*
X183806475Y-89198756D01*
X183779737Y-89263307D01*
X183722345Y-89303155D01*
X183683186Y-89309500D01*
X124175929Y-89309500D01*
X124050261Y-89334497D01*
X124050255Y-89334499D01*
X123931874Y-89383534D01*
X123825326Y-89454726D01*
X118354726Y-94925326D01*
X118283534Y-95031874D01*
X118234499Y-95150255D01*
X118234497Y-95150261D01*
X118209500Y-95275928D01*
X118209500Y-98279175D01*
X118189815Y-98346214D01*
X118141796Y-98389659D01*
X118021153Y-98451130D01*
X117817350Y-98599201D01*
X117817345Y-98599205D01*
X117639205Y-98777345D01*
X117639201Y-98777350D01*
X117491132Y-98981151D01*
X117376760Y-99205616D01*
X117298910Y-99445214D01*
X117259500Y-99694038D01*
X117259500Y-99945961D01*
X117298910Y-100194785D01*
X117376760Y-100434383D01*
X117491132Y-100658848D01*
X117639201Y-100862649D01*
X117639205Y-100862654D01*
X117817345Y-101040794D01*
X117817350Y-101040798D01*
X117957310Y-101142484D01*
X118021155Y-101188870D01*
X118164184Y-101261747D01*
X118245616Y-101303239D01*
X118245618Y-101303239D01*
X118245621Y-101303241D01*
X118485215Y-101381090D01*
X118734038Y-101420500D01*
X118734039Y-101420500D01*
X118985961Y-101420500D01*
X118985962Y-101420500D01*
X119234785Y-101381090D01*
X119474379Y-101303241D01*
X119698845Y-101188870D01*
X119902656Y-101040793D01*
X120080793Y-100862656D01*
X120228870Y-100658845D01*
X120343241Y-100434379D01*
X120421090Y-100194785D01*
X120460500Y-99945962D01*
X120460500Y-99694038D01*
X120421090Y-99445215D01*
X120343241Y-99205621D01*
X120343239Y-99205618D01*
X120343239Y-99205616D01*
X120288159Y-99097516D01*
X120228870Y-98981155D01*
X120183344Y-98918494D01*
X120080798Y-98777350D01*
X120080794Y-98777345D01*
X119902654Y-98599205D01*
X119902649Y-98599201D01*
X119698846Y-98451130D01*
X119578204Y-98389659D01*
X119527409Y-98341685D01*
X119510500Y-98279175D01*
X119510500Y-95660808D01*
X119530185Y-95593769D01*
X119546819Y-95573127D01*
X124473127Y-90646819D01*
X124534450Y-90613334D01*
X124560808Y-90610500D01*
X183683186Y-90610500D01*
X183750225Y-90630185D01*
X183795980Y-90682989D01*
X183806476Y-90721246D01*
X183810909Y-90762483D01*
X183861202Y-90897328D01*
X183861206Y-90897335D01*
X183947452Y-91012544D01*
X183947455Y-91012547D01*
X184062664Y-91098793D01*
X184062671Y-91098797D01*
X184197517Y-91149091D01*
X184197516Y-91149091D01*
X184204444Y-91149835D01*
X184257127Y-91155500D01*
X184488916Y-91155499D01*
X184555954Y-91175183D01*
X184601709Y-91227987D01*
X184611653Y-91297146D01*
X184582628Y-91360701D01*
X184545210Y-91389983D01*
X184373425Y-91477512D01*
X184271929Y-91551254D01*
X184221184Y-91588123D01*
X184221182Y-91588125D01*
X184221181Y-91588125D01*
X184088125Y-91721181D01*
X184088123Y-91721184D01*
X184032031Y-91798386D01*
X183976703Y-91841051D01*
X183931715Y-91849500D01*
X140775929Y-91849500D01*
X140650260Y-91874497D01*
X140650253Y-91874499D01*
X140638174Y-91879503D01*
X140637493Y-91879786D01*
X140637483Y-91879790D01*
X140637478Y-91879792D01*
X140531881Y-91923530D01*
X140531863Y-91923540D01*
X140425332Y-91994721D01*
X140425325Y-91994727D01*
X137494726Y-94925326D01*
X137423534Y-95031874D01*
X137374499Y-95150255D01*
X137374497Y-95150261D01*
X137349500Y-95275928D01*
X137349500Y-98279175D01*
X137329815Y-98346214D01*
X137281796Y-98389659D01*
X137161153Y-98451130D01*
X136957350Y-98599201D01*
X136957345Y-98599205D01*
X136779205Y-98777345D01*
X136779201Y-98777350D01*
X136631132Y-98981151D01*
X136516760Y-99205616D01*
X136438910Y-99445214D01*
X136399500Y-99694038D01*
X136399500Y-99945961D01*
X136438910Y-100194785D01*
X136516760Y-100434383D01*
X136631132Y-100658848D01*
X136779201Y-100862649D01*
X136779205Y-100862654D01*
X136957345Y-101040794D01*
X136957350Y-101040798D01*
X137097310Y-101142484D01*
X137161155Y-101188870D01*
X137304184Y-101261747D01*
X137385616Y-101303239D01*
X137385618Y-101303239D01*
X137385621Y-101303241D01*
X137625215Y-101381090D01*
X137874038Y-101420500D01*
X137874039Y-101420500D01*
X138125961Y-101420500D01*
X138125962Y-101420500D01*
X138374785Y-101381090D01*
X138614379Y-101303241D01*
X138838845Y-101188870D01*
X139042656Y-101040793D01*
X139220793Y-100862656D01*
X139368870Y-100658845D01*
X139483241Y-100434379D01*
X139561090Y-100194785D01*
X139600500Y-99945962D01*
X139600500Y-99694038D01*
X139561090Y-99445215D01*
X139483241Y-99205621D01*
X139483239Y-99205618D01*
X139483239Y-99205616D01*
X139428159Y-99097516D01*
X139368870Y-98981155D01*
X139323344Y-98918494D01*
X139220798Y-98777350D01*
X139220794Y-98777345D01*
X139042654Y-98599205D01*
X139042649Y-98599201D01*
X138838846Y-98451130D01*
X138718204Y-98389659D01*
X138667409Y-98341685D01*
X138650500Y-98279175D01*
X138650500Y-95660808D01*
X138670185Y-95593769D01*
X138686819Y-95573127D01*
X141073127Y-93186819D01*
X141134450Y-93153334D01*
X141160808Y-93150500D01*
X183931715Y-93150500D01*
X183998754Y-93170185D01*
X184032031Y-93201612D01*
X184088123Y-93278816D01*
X184221184Y-93411877D01*
X184373421Y-93522484D01*
X184455656Y-93564384D01*
X184541086Y-93607914D01*
X184541092Y-93607916D01*
X184677790Y-93652331D01*
X184735466Y-93691768D01*
X184762665Y-93756126D01*
X184750751Y-93824973D01*
X184703507Y-93876449D01*
X184677792Y-93888193D01*
X184541280Y-93932549D01*
X184373681Y-94017945D01*
X184349249Y-94035696D01*
X184349248Y-94035696D01*
X184854260Y-94540707D01*
X184799288Y-94555437D01*
X184680713Y-94623896D01*
X184583896Y-94720713D01*
X184515437Y-94839288D01*
X184500707Y-94894260D01*
X183995696Y-94389248D01*
X183995696Y-94389249D01*
X183977945Y-94413681D01*
X183892548Y-94581281D01*
X183834425Y-94760165D01*
X183834425Y-94760168D01*
X183805000Y-94945951D01*
X183805000Y-95134048D01*
X183834425Y-95319831D01*
X183834425Y-95319834D01*
X183892548Y-95498718D01*
X183977942Y-95666312D01*
X183995696Y-95690749D01*
X184500707Y-95185738D01*
X184515437Y-95240712D01*
X184583896Y-95359287D01*
X184680713Y-95456104D01*
X184799288Y-95524563D01*
X184854259Y-95539292D01*
X184349248Y-96044302D01*
X184349249Y-96044303D01*
X184373680Y-96062053D01*
X184541281Y-96147451D01*
X184677791Y-96191806D01*
X184735467Y-96231243D01*
X184762665Y-96295602D01*
X184750750Y-96364448D01*
X184703506Y-96415924D01*
X184677791Y-96427668D01*
X184541089Y-96472084D01*
X184541086Y-96472085D01*
X184373420Y-96557516D01*
X184286563Y-96620621D01*
X184221184Y-96668123D01*
X184221182Y-96668125D01*
X184221181Y-96668125D01*
X184088125Y-96801181D01*
X184088123Y-96801184D01*
X184032031Y-96878386D01*
X183976703Y-96921051D01*
X183931715Y-96929500D01*
X159215929Y-96929500D01*
X159090261Y-96954497D01*
X159090255Y-96954499D01*
X158971870Y-97003535D01*
X158865331Y-97074722D01*
X158865324Y-97074728D01*
X157669553Y-98270499D01*
X157608230Y-98303984D01*
X157543554Y-98300749D01*
X157414787Y-98258910D01*
X157235413Y-98230500D01*
X157165962Y-98219500D01*
X156914038Y-98219500D01*
X156824238Y-98233723D01*
X156665214Y-98258910D01*
X156425616Y-98336760D01*
X156201151Y-98451132D01*
X155997350Y-98599201D01*
X155997345Y-98599205D01*
X155819205Y-98777345D01*
X155819201Y-98777350D01*
X155671132Y-98981151D01*
X155556760Y-99205616D01*
X155478910Y-99445214D01*
X155439500Y-99694038D01*
X155439500Y-99945961D01*
X155478910Y-100194785D01*
X155556760Y-100434383D01*
X155671132Y-100658848D01*
X155819201Y-100862649D01*
X155819205Y-100862654D01*
X155997345Y-101040794D01*
X155997350Y-101040798D01*
X156137310Y-101142484D01*
X156201155Y-101188870D01*
X156344184Y-101261747D01*
X156425616Y-101303239D01*
X156425618Y-101303239D01*
X156425621Y-101303241D01*
X156665215Y-101381090D01*
X156914038Y-101420500D01*
X156914039Y-101420500D01*
X157165961Y-101420500D01*
X157165962Y-101420500D01*
X157414785Y-101381090D01*
X157654379Y-101303241D01*
X157878845Y-101188870D01*
X158082656Y-101040793D01*
X158260793Y-100862656D01*
X158408870Y-100658845D01*
X158523241Y-100434379D01*
X158601090Y-100194785D01*
X158640500Y-99945962D01*
X158640500Y-99694038D01*
X158601090Y-99445215D01*
X158559248Y-99316443D01*
X158557254Y-99246603D01*
X158589497Y-99190447D01*
X159513127Y-98266819D01*
X159574450Y-98233334D01*
X159600808Y-98230500D01*
X175183193Y-98230500D01*
X175250232Y-98250185D01*
X175295987Y-98302989D01*
X175305931Y-98372147D01*
X175276906Y-98435703D01*
X175256078Y-98454818D01*
X175057350Y-98599201D01*
X175057345Y-98599205D01*
X174879205Y-98777345D01*
X174879201Y-98777350D01*
X174731132Y-98981151D01*
X174616760Y-99205616D01*
X174538910Y-99445214D01*
X174499500Y-99694038D01*
X174499500Y-99945961D01*
X174538910Y-100194785D01*
X174616760Y-100434383D01*
X174731132Y-100658848D01*
X174879201Y-100862649D01*
X174879205Y-100862654D01*
X175057345Y-101040794D01*
X175057350Y-101040798D01*
X175197310Y-101142484D01*
X175261155Y-101188870D01*
X175404184Y-101261747D01*
X175485616Y-101303239D01*
X175485618Y-101303239D01*
X175485621Y-101303241D01*
X175725215Y-101381090D01*
X175974038Y-101420500D01*
X175974039Y-101420500D01*
X176225961Y-101420500D01*
X176225962Y-101420500D01*
X176474785Y-101381090D01*
X176714379Y-101303241D01*
X176938845Y-101188870D01*
X177142656Y-101040793D01*
X177320793Y-100862656D01*
X177336080Y-100841614D01*
X177391410Y-100798949D01*
X177436399Y-100790500D01*
X183946246Y-100790500D01*
X184013285Y-100810185D01*
X184046564Y-100841615D01*
X184080858Y-100888817D01*
X184088123Y-100898816D01*
X184221184Y-101031877D01*
X184373421Y-101142484D01*
X184455656Y-101184384D01*
X184541086Y-101227914D01*
X184541089Y-101227915D01*
X184676982Y-101272069D01*
X184734657Y-101311506D01*
X184761856Y-101375865D01*
X184749942Y-101444711D01*
X184702698Y-101496187D01*
X184676982Y-101507931D01*
X184541089Y-101552084D01*
X184541086Y-101552085D01*
X184373420Y-101637516D01*
X184293807Y-101695359D01*
X184221184Y-101748123D01*
X184221182Y-101748125D01*
X184221181Y-101748125D01*
X184088125Y-101881181D01*
X184088125Y-101881182D01*
X184088123Y-101881184D01*
X184087601Y-101881903D01*
X183977516Y-102033420D01*
X183892085Y-102201086D01*
X183892084Y-102201089D01*
X183833937Y-102380051D01*
X183804500Y-102565906D01*
X183804500Y-102754093D01*
X183833937Y-102939948D01*
X183892084Y-103118910D01*
X183892085Y-103118913D01*
X183935619Y-103204352D01*
X183977516Y-103286579D01*
X184088123Y-103438816D01*
X184221184Y-103571877D01*
X184373421Y-103682484D01*
X184455656Y-103724384D01*
X184541086Y-103767914D01*
X184541089Y-103767915D01*
X184676982Y-103812069D01*
X184734657Y-103851506D01*
X184761856Y-103915865D01*
X184749942Y-103984711D01*
X184702698Y-104036187D01*
X184676982Y-104047931D01*
X184541089Y-104092084D01*
X184541086Y-104092085D01*
X184373420Y-104177516D01*
X184286563Y-104240621D01*
X184221184Y-104288123D01*
X184221182Y-104288125D01*
X184221181Y-104288125D01*
X184088125Y-104421181D01*
X184088125Y-104421182D01*
X184088123Y-104421184D01*
X184059911Y-104460015D01*
X183977516Y-104573420D01*
X183892085Y-104741086D01*
X183892084Y-104741089D01*
X183833937Y-104920051D01*
X183804500Y-105105906D01*
X183804500Y-105294093D01*
X183833937Y-105479948D01*
X183892084Y-105658910D01*
X183892085Y-105658913D01*
X183933103Y-105739414D01*
X183977516Y-105826579D01*
X184088123Y-105978816D01*
X184221184Y-106111877D01*
X184373421Y-106222484D01*
X184455656Y-106264384D01*
X184541086Y-106307914D01*
X184541092Y-106307916D01*
X184677790Y-106352331D01*
X184735466Y-106391768D01*
X184762665Y-106456126D01*
X184750751Y-106524973D01*
X184703507Y-106576449D01*
X184677792Y-106588193D01*
X184541280Y-106632549D01*
X184373681Y-106717945D01*
X184349249Y-106735696D01*
X184349248Y-106735696D01*
X184854260Y-107240707D01*
X184799288Y-107255437D01*
X184680713Y-107323896D01*
X184583896Y-107420713D01*
X184515437Y-107539288D01*
X184500707Y-107594260D01*
X183995696Y-107089248D01*
X183995696Y-107089249D01*
X183977945Y-107113681D01*
X183892548Y-107281281D01*
X183834425Y-107460165D01*
X183834425Y-107460168D01*
X183805000Y-107645951D01*
X183805000Y-107834048D01*
X183834425Y-108019831D01*
X183834425Y-108019834D01*
X183892548Y-108198718D01*
X183977942Y-108366312D01*
X183995696Y-108390749D01*
X184500707Y-107885738D01*
X184515437Y-107940712D01*
X184583896Y-108059287D01*
X184680713Y-108156104D01*
X184799288Y-108224563D01*
X184854259Y-108239292D01*
X184349248Y-108744302D01*
X184349249Y-108744303D01*
X184373680Y-108762053D01*
X184541281Y-108847451D01*
X184677791Y-108891806D01*
X184735467Y-108931243D01*
X184762665Y-108995602D01*
X184750750Y-109064448D01*
X184703506Y-109115924D01*
X184677791Y-109127668D01*
X184541089Y-109172084D01*
X184541086Y-109172085D01*
X184373420Y-109257516D01*
X184286563Y-109320621D01*
X184221184Y-109368123D01*
X184221182Y-109368125D01*
X184221181Y-109368125D01*
X184088125Y-109501181D01*
X184088125Y-109501182D01*
X184088123Y-109501184D01*
X184040621Y-109566563D01*
X183977516Y-109653420D01*
X183892085Y-109821086D01*
X183892084Y-109821089D01*
X183833937Y-110000051D01*
X183804500Y-110185906D01*
X183804500Y-110374093D01*
X183833937Y-110559948D01*
X183892084Y-110738910D01*
X183892085Y-110738913D01*
X183972421Y-110896579D01*
X183977516Y-110906579D01*
X184088123Y-111058816D01*
X184221184Y-111191877D01*
X184373421Y-111302484D01*
X184455656Y-111344384D01*
X184541086Y-111387914D01*
X184541089Y-111387915D01*
X184676982Y-111432069D01*
X184734657Y-111471506D01*
X184761856Y-111535865D01*
X184749942Y-111604711D01*
X184702698Y-111656187D01*
X184676982Y-111667931D01*
X184541089Y-111712084D01*
X184541086Y-111712085D01*
X184373420Y-111797516D01*
X184286563Y-111860621D01*
X184221184Y-111908123D01*
X184221182Y-111908125D01*
X184221181Y-111908125D01*
X184088125Y-112041181D01*
X184088125Y-112041182D01*
X184088123Y-112041184D01*
X184040621Y-112106563D01*
X183977516Y-112193420D01*
X183892085Y-112361086D01*
X183892084Y-112361089D01*
X183833937Y-112540051D01*
X183804500Y-112725906D01*
X183804500Y-112914093D01*
X183833937Y-113099948D01*
X183892084Y-113278910D01*
X183892085Y-113278913D01*
X183972421Y-113436579D01*
X183977516Y-113446579D01*
X184088123Y-113598816D01*
X184221184Y-113731877D01*
X184373421Y-113842484D01*
X184455656Y-113884384D01*
X184541086Y-113927914D01*
X184541089Y-113927915D01*
X184676982Y-113972069D01*
X184734657Y-114011506D01*
X184761856Y-114075865D01*
X184749942Y-114144711D01*
X184702698Y-114196187D01*
X184676982Y-114207931D01*
X184541089Y-114252084D01*
X184541086Y-114252085D01*
X184373420Y-114337516D01*
X184296073Y-114393713D01*
X184221184Y-114448123D01*
X184221182Y-114448125D01*
X184221181Y-114448125D01*
X184088125Y-114581181D01*
X184088125Y-114581182D01*
X184088123Y-114581184D01*
X184069885Y-114606287D01*
X183977516Y-114733420D01*
X183892085Y-114901086D01*
X183892084Y-114901089D01*
X183833937Y-115080051D01*
X183804500Y-115265906D01*
X183804500Y-115454093D01*
X183833937Y-115639948D01*
X183892084Y-115818910D01*
X183892085Y-115818913D01*
X183908180Y-115850500D01*
X183977516Y-115986579D01*
X184088123Y-116138816D01*
X184221184Y-116271877D01*
X184373421Y-116382484D01*
X184455656Y-116424384D01*
X184541086Y-116467914D01*
X184541089Y-116467915D01*
X184676982Y-116512069D01*
X184734657Y-116551506D01*
X184761856Y-116615865D01*
X184749942Y-116684711D01*
X184702698Y-116736187D01*
X184676982Y-116747931D01*
X184541089Y-116792084D01*
X184541086Y-116792085D01*
X184373420Y-116877516D01*
X184286563Y-116940621D01*
X184221184Y-116988123D01*
X184221182Y-116988125D01*
X184221181Y-116988125D01*
X184088125Y-117121181D01*
X184088125Y-117121182D01*
X184088123Y-117121184D01*
X184040621Y-117186563D01*
X183977516Y-117273420D01*
X183892085Y-117441086D01*
X183892084Y-117441089D01*
X183833937Y-117620051D01*
X183804500Y-117805906D01*
X183804500Y-117994093D01*
X183833937Y-118179948D01*
X183892084Y-118358910D01*
X183892085Y-118358913D01*
X183972421Y-118516579D01*
X183977516Y-118526579D01*
X184088123Y-118678816D01*
X184221184Y-118811877D01*
X184373421Y-118922484D01*
X184455656Y-118964384D01*
X184541086Y-119007914D01*
X184541092Y-119007916D01*
X184677790Y-119052331D01*
X184735466Y-119091768D01*
X184762665Y-119156126D01*
X184750751Y-119224973D01*
X184703507Y-119276449D01*
X184677792Y-119288193D01*
X184541280Y-119332549D01*
X184373681Y-119417945D01*
X184349249Y-119435696D01*
X184349248Y-119435696D01*
X184854260Y-119940707D01*
X184799288Y-119955437D01*
X184680713Y-120023896D01*
X184583896Y-120120713D01*
X184515437Y-120239288D01*
X184500707Y-120294260D01*
X183995696Y-119789248D01*
X183995696Y-119789249D01*
X183977945Y-119813681D01*
X183892548Y-119981281D01*
X183834425Y-120160165D01*
X183834425Y-120160168D01*
X183805000Y-120345951D01*
X183805000Y-120534048D01*
X183834425Y-120719831D01*
X183834425Y-120719834D01*
X183892548Y-120898718D01*
X183977942Y-121066312D01*
X183995696Y-121090749D01*
X184500707Y-120585738D01*
X184515437Y-120640712D01*
X184583896Y-120759287D01*
X184680713Y-120856104D01*
X184799288Y-120924563D01*
X184854259Y-120939292D01*
X184349248Y-121444302D01*
X184349249Y-121444303D01*
X184373680Y-121462053D01*
X184541281Y-121547451D01*
X184677791Y-121591806D01*
X184735467Y-121631243D01*
X184762665Y-121695602D01*
X184750750Y-121764448D01*
X184703506Y-121815924D01*
X184677791Y-121827668D01*
X184541089Y-121872084D01*
X184541086Y-121872085D01*
X184373420Y-121957516D01*
X184286563Y-122020621D01*
X184221184Y-122068123D01*
X184221182Y-122068125D01*
X184221181Y-122068125D01*
X184088125Y-122201181D01*
X184088123Y-122201184D01*
X184032031Y-122278386D01*
X183976703Y-122321051D01*
X183931715Y-122329500D01*
X180100808Y-122329500D01*
X180033769Y-122309815D01*
X180013127Y-122293181D01*
X177549499Y-119829553D01*
X177516014Y-119768230D01*
X177519248Y-119703556D01*
X177561090Y-119574785D01*
X177600500Y-119325962D01*
X177600500Y-119074038D01*
X177561090Y-118825215D01*
X177483241Y-118585621D01*
X177483239Y-118585618D01*
X177483239Y-118585616D01*
X177441747Y-118504184D01*
X177368870Y-118361155D01*
X177237216Y-118179948D01*
X177220798Y-118157350D01*
X177220794Y-118157345D01*
X177042654Y-117979205D01*
X177042649Y-117979201D01*
X176838848Y-117831132D01*
X176838847Y-117831131D01*
X176838845Y-117831130D01*
X176768747Y-117795413D01*
X176614383Y-117716760D01*
X176374785Y-117638910D01*
X176125962Y-117599500D01*
X175874038Y-117599500D01*
X175807410Y-117610053D01*
X175625214Y-117638910D01*
X175385616Y-117716760D01*
X175161151Y-117831132D01*
X174957350Y-117979201D01*
X174957345Y-117979205D01*
X174779205Y-118157345D01*
X174779201Y-118157350D01*
X174631132Y-118361151D01*
X174516760Y-118585616D01*
X174438910Y-118825214D01*
X174438910Y-118825215D01*
X174399500Y-119074038D01*
X174399500Y-119325962D01*
X174416880Y-119435696D01*
X174438910Y-119574785D01*
X174516760Y-119814383D01*
X174631132Y-120038848D01*
X174779201Y-120242649D01*
X174779205Y-120242654D01*
X174957345Y-120420794D01*
X174957350Y-120420798D01*
X175135117Y-120549952D01*
X175161155Y-120568870D01*
X175282527Y-120630712D01*
X175385616Y-120683239D01*
X175385618Y-120683239D01*
X175385621Y-120683241D01*
X175625215Y-120761090D01*
X175874038Y-120800500D01*
X175874039Y-120800500D01*
X176125961Y-120800500D01*
X176125962Y-120800500D01*
X176374785Y-120761090D01*
X176503556Y-120719248D01*
X176573394Y-120717254D01*
X176629553Y-120749499D01*
X178871174Y-122991121D01*
X178904659Y-123052444D01*
X178899675Y-123122136D01*
X178857803Y-123178069D01*
X178792339Y-123202486D01*
X178764096Y-123201275D01*
X178626611Y-123179500D01*
X178453389Y-123179500D01*
X178413728Y-123185781D01*
X178282302Y-123206597D01*
X178282299Y-123206598D01*
X178148883Y-123249948D01*
X178117552Y-123260128D01*
X177963211Y-123338768D01*
X177907115Y-123379525D01*
X177823072Y-123440586D01*
X177823070Y-123440588D01*
X177823069Y-123440588D01*
X177700588Y-123563069D01*
X177700588Y-123563070D01*
X177700586Y-123563072D01*
X177668976Y-123606579D01*
X177598768Y-123703211D01*
X177520128Y-123857552D01*
X177466597Y-124022302D01*
X177444550Y-124161506D01*
X177439500Y-124193389D01*
X177439500Y-124366611D01*
X177466598Y-124537701D01*
X177520127Y-124702445D01*
X177598768Y-124856788D01*
X177700586Y-124996928D01*
X177823072Y-125119414D01*
X177963212Y-125221232D01*
X178117555Y-125299873D01*
X178282299Y-125353402D01*
X178453389Y-125380500D01*
X178453390Y-125380500D01*
X178626610Y-125380500D01*
X178626611Y-125380500D01*
X178797701Y-125353402D01*
X178962445Y-125299873D01*
X179116788Y-125221232D01*
X179256928Y-125119414D01*
X179379414Y-124996928D01*
X179481232Y-124856788D01*
X179559873Y-124702445D01*
X179613402Y-124537701D01*
X179640500Y-124366611D01*
X179640500Y-124193389D01*
X179613402Y-124022299D01*
X179559873Y-123857555D01*
X179529597Y-123798136D01*
X179516702Y-123729468D01*
X179542978Y-123664727D01*
X179600085Y-123624470D01*
X179664275Y-123620225D01*
X179715928Y-123630500D01*
X179715931Y-123630500D01*
X183931715Y-123630500D01*
X183998754Y-123650185D01*
X184032031Y-123681612D01*
X184088123Y-123758816D01*
X184221184Y-123891877D01*
X184373421Y-124002484D01*
X184455656Y-124044384D01*
X184541086Y-124087914D01*
X184541089Y-124087915D01*
X184676982Y-124132069D01*
X184734657Y-124171506D01*
X184761856Y-124235865D01*
X184749942Y-124304711D01*
X184702698Y-124356187D01*
X184676982Y-124367931D01*
X184541089Y-124412084D01*
X184541086Y-124412085D01*
X184373420Y-124497516D01*
X184318111Y-124537701D01*
X184221184Y-124608123D01*
X184221182Y-124608125D01*
X184221181Y-124608125D01*
X184088125Y-124741181D01*
X184088125Y-124741182D01*
X184088123Y-124741184D01*
X184040621Y-124806563D01*
X183977516Y-124893420D01*
X183892085Y-125061086D01*
X183892084Y-125061089D01*
X183833937Y-125240051D01*
X183804500Y-125425906D01*
X183804500Y-125614093D01*
X183819427Y-125708338D01*
X183810472Y-125777631D01*
X183784635Y-125815417D01*
X183605871Y-125994182D01*
X183544551Y-126027666D01*
X183518192Y-126030500D01*
X175191551Y-126030500D01*
X175124512Y-126010815D01*
X175078757Y-125958011D01*
X175068813Y-125888853D01*
X175097838Y-125825297D01*
X175103870Y-125818819D01*
X175155641Y-125767047D01*
X175155646Y-125767042D01*
X175335238Y-125532994D01*
X175482743Y-125277507D01*
X175595639Y-125004952D01*
X175671993Y-124719993D01*
X175710500Y-124427506D01*
X175710500Y-124132494D01*
X175671993Y-123840007D01*
X175595639Y-123555048D01*
X175482743Y-123282493D01*
X175432604Y-123195650D01*
X175335238Y-123027006D01*
X175155647Y-122792959D01*
X175155641Y-122792952D01*
X174947047Y-122584358D01*
X174947040Y-122584352D01*
X174712993Y-122404761D01*
X174457510Y-122257258D01*
X174457500Y-122257254D01*
X174184961Y-122144364D01*
X174184954Y-122144362D01*
X174184952Y-122144361D01*
X173899993Y-122068007D01*
X173851113Y-122061571D01*
X173607513Y-122029500D01*
X173607506Y-122029500D01*
X173312494Y-122029500D01*
X173312486Y-122029500D01*
X173034085Y-122066153D01*
X173020007Y-122068007D01*
X172845861Y-122114669D01*
X172735048Y-122144361D01*
X172735038Y-122144364D01*
X172462499Y-122257254D01*
X172462489Y-122257258D01*
X172207006Y-122404761D01*
X171972959Y-122584352D01*
X171972952Y-122584358D01*
X171764358Y-122792952D01*
X171764352Y-122792959D01*
X171584761Y-123027006D01*
X171437258Y-123282489D01*
X171437254Y-123282499D01*
X171324364Y-123555038D01*
X171324361Y-123555048D01*
X171269762Y-123758818D01*
X171248008Y-123840004D01*
X171248006Y-123840015D01*
X171209500Y-124132486D01*
X171209500Y-124427513D01*
X171233279Y-124608123D01*
X171248007Y-124719993D01*
X171322212Y-124996930D01*
X171324361Y-125004951D01*
X171324364Y-125004961D01*
X171437254Y-125277500D01*
X171437258Y-125277510D01*
X171584761Y-125532993D01*
X171764352Y-125767040D01*
X171764358Y-125767047D01*
X171816130Y-125818819D01*
X171849615Y-125880142D01*
X171844631Y-125949834D01*
X171802759Y-126005767D01*
X171737295Y-126030184D01*
X171728449Y-126030500D01*
X164781808Y-126030500D01*
X164714769Y-126010815D01*
X164694127Y-125994181D01*
X162893335Y-124193389D01*
X167279500Y-124193389D01*
X167279500Y-124366611D01*
X167306598Y-124537701D01*
X167360127Y-124702445D01*
X167438768Y-124856788D01*
X167540586Y-124996928D01*
X167663072Y-125119414D01*
X167803212Y-125221232D01*
X167957555Y-125299873D01*
X168122299Y-125353402D01*
X168293389Y-125380500D01*
X168293390Y-125380500D01*
X168466610Y-125380500D01*
X168466611Y-125380500D01*
X168637701Y-125353402D01*
X168802445Y-125299873D01*
X168956788Y-125221232D01*
X169096928Y-125119414D01*
X169219414Y-124996928D01*
X169321232Y-124856788D01*
X169399873Y-124702445D01*
X169453402Y-124537701D01*
X169480500Y-124366611D01*
X169480500Y-124193389D01*
X169453402Y-124022299D01*
X169399873Y-123857555D01*
X169321232Y-123703212D01*
X169219414Y-123563072D01*
X169166882Y-123510540D01*
X169133397Y-123449217D01*
X169138381Y-123379525D01*
X169180253Y-123323592D01*
X169245717Y-123299175D01*
X169273961Y-123300386D01*
X169524072Y-123340000D01*
X169775928Y-123340000D01*
X170024669Y-123300602D01*
X170264184Y-123222780D01*
X170488575Y-123108446D01*
X170488581Y-123108442D01*
X170590697Y-123034250D01*
X170590698Y-123034250D01*
X169974025Y-122417578D01*
X170005258Y-122404641D01*
X170128097Y-122322563D01*
X170232563Y-122218097D01*
X170314641Y-122095258D01*
X170327577Y-122064025D01*
X170944250Y-122680698D01*
X170944250Y-122680697D01*
X171018442Y-122578581D01*
X171018446Y-122578575D01*
X171132780Y-122354184D01*
X171210602Y-122114669D01*
X171250000Y-121865928D01*
X171250000Y-121614071D01*
X171210602Y-121365330D01*
X171132780Y-121125815D01*
X171018442Y-120901416D01*
X170944250Y-120799301D01*
X170944250Y-120799300D01*
X170327577Y-121415973D01*
X170314641Y-121384742D01*
X170232563Y-121261903D01*
X170128097Y-121157437D01*
X170005258Y-121075359D01*
X169974024Y-121062421D01*
X170590698Y-120445748D01*
X170488583Y-120371557D01*
X170264184Y-120257219D01*
X170024669Y-120179397D01*
X169775928Y-120140000D01*
X169524072Y-120140000D01*
X169275330Y-120179397D01*
X169035815Y-120257219D01*
X168811413Y-120371559D01*
X168709301Y-120445747D01*
X168709300Y-120445748D01*
X169325974Y-121062421D01*
X169294742Y-121075359D01*
X169171903Y-121157437D01*
X169067437Y-121261903D01*
X168985359Y-121384742D01*
X168972421Y-121415974D01*
X168355748Y-120799300D01*
X168355747Y-120799301D01*
X168281559Y-120901413D01*
X168167219Y-121125815D01*
X168089397Y-121365330D01*
X168050000Y-121614071D01*
X168050000Y-121865928D01*
X168089397Y-122114669D01*
X168167219Y-122354184D01*
X168281557Y-122578583D01*
X168355748Y-122680697D01*
X168355748Y-122680698D01*
X168972421Y-122064024D01*
X168985359Y-122095258D01*
X169067437Y-122218097D01*
X169171903Y-122322563D01*
X169294742Y-122404641D01*
X169325974Y-122417577D01*
X168709300Y-123034250D01*
X168711598Y-123063449D01*
X168697233Y-123131827D01*
X168648181Y-123181583D01*
X168580016Y-123196921D01*
X168568583Y-123195650D01*
X168466611Y-123179500D01*
X168293389Y-123179500D01*
X168253728Y-123185781D01*
X168122302Y-123206597D01*
X168122299Y-123206598D01*
X167988883Y-123249948D01*
X167957552Y-123260128D01*
X167803211Y-123338768D01*
X167747115Y-123379525D01*
X167663072Y-123440586D01*
X167663070Y-123440588D01*
X167663069Y-123440588D01*
X167540588Y-123563069D01*
X167540588Y-123563070D01*
X167540586Y-123563072D01*
X167508976Y-123606579D01*
X167438768Y-123703211D01*
X167360128Y-123857552D01*
X167306597Y-124022302D01*
X167284550Y-124161506D01*
X167279500Y-124193389D01*
X162893335Y-124193389D01*
X158529499Y-119829553D01*
X158496014Y-119768230D01*
X158499248Y-119703556D01*
X158541090Y-119574785D01*
X158580500Y-119325962D01*
X158580500Y-119074038D01*
X158541090Y-118825215D01*
X158463241Y-118585621D01*
X158463239Y-118585618D01*
X158463239Y-118585616D01*
X158421747Y-118504184D01*
X158348870Y-118361155D01*
X158217216Y-118179948D01*
X158200798Y-118157350D01*
X158200794Y-118157345D01*
X158022654Y-117979205D01*
X158022649Y-117979201D01*
X157818848Y-117831132D01*
X157818847Y-117831131D01*
X157818845Y-117831130D01*
X157748747Y-117795413D01*
X157594383Y-117716760D01*
X157354785Y-117638910D01*
X157105962Y-117599500D01*
X156854038Y-117599500D01*
X156787410Y-117610053D01*
X156605214Y-117638910D01*
X156365616Y-117716760D01*
X156141151Y-117831132D01*
X155937350Y-117979201D01*
X155937345Y-117979205D01*
X155759205Y-118157345D01*
X155759201Y-118157350D01*
X155611132Y-118361151D01*
X155496760Y-118585616D01*
X155418910Y-118825214D01*
X155418910Y-118825215D01*
X155379500Y-119074038D01*
X155379500Y-119325962D01*
X155396880Y-119435696D01*
X155418910Y-119574785D01*
X155496760Y-119814383D01*
X155611132Y-120038848D01*
X155759201Y-120242649D01*
X155759205Y-120242654D01*
X155937345Y-120420794D01*
X155937350Y-120420798D01*
X156115117Y-120549952D01*
X156141155Y-120568870D01*
X156262527Y-120630712D01*
X156365616Y-120683239D01*
X156365618Y-120683239D01*
X156365621Y-120683241D01*
X156605215Y-120761090D01*
X156854038Y-120800500D01*
X156854039Y-120800500D01*
X157105961Y-120800500D01*
X157105962Y-120800500D01*
X157354785Y-120761090D01*
X157483556Y-120719248D01*
X157553394Y-120717254D01*
X157609553Y-120749499D01*
X159851175Y-122991121D01*
X159884660Y-123052444D01*
X159879676Y-123122136D01*
X159837804Y-123178069D01*
X159772340Y-123202486D01*
X159744097Y-123201275D01*
X159606611Y-123179500D01*
X159433389Y-123179500D01*
X159393728Y-123185781D01*
X159262302Y-123206597D01*
X159262299Y-123206598D01*
X159128883Y-123249948D01*
X159097552Y-123260128D01*
X158943211Y-123338768D01*
X158887115Y-123379525D01*
X158803072Y-123440586D01*
X158803070Y-123440588D01*
X158803069Y-123440588D01*
X158680588Y-123563069D01*
X158680588Y-123563070D01*
X158680586Y-123563072D01*
X158648976Y-123606579D01*
X158578768Y-123703211D01*
X158500128Y-123857552D01*
X158446597Y-124022302D01*
X158424550Y-124161506D01*
X158419500Y-124193389D01*
X158419500Y-124366611D01*
X158446598Y-124537701D01*
X158500127Y-124702445D01*
X158578768Y-124856788D01*
X158680586Y-124996928D01*
X158803072Y-125119414D01*
X158943212Y-125221232D01*
X159097555Y-125299873D01*
X159262299Y-125353402D01*
X159433389Y-125380500D01*
X159433390Y-125380500D01*
X159606610Y-125380500D01*
X159606611Y-125380500D01*
X159777701Y-125353402D01*
X159942445Y-125299873D01*
X160096788Y-125221232D01*
X160236928Y-125119414D01*
X160359414Y-124996928D01*
X160461232Y-124856788D01*
X160539873Y-124702445D01*
X160593402Y-124537701D01*
X160620500Y-124366611D01*
X160620500Y-124193389D01*
X160598724Y-124055902D01*
X160607678Y-123986611D01*
X160652675Y-123933159D01*
X160719426Y-123912519D01*
X160786740Y-123931244D01*
X160808878Y-123948825D01*
X164046325Y-127186272D01*
X164046331Y-127186277D01*
X164152874Y-127257466D01*
X164222221Y-127286189D01*
X164271256Y-127306501D01*
X164271259Y-127306501D01*
X164271260Y-127306502D01*
X164396928Y-127331500D01*
X183827098Y-127331500D01*
X183894137Y-127351185D01*
X183939892Y-127403989D01*
X183949836Y-127473147D01*
X183937583Y-127511792D01*
X183926200Y-127534132D01*
X183892085Y-127601086D01*
X183892084Y-127601089D01*
X183833937Y-127780051D01*
X183804500Y-127965906D01*
X183804500Y-128154093D01*
X183819427Y-128248338D01*
X183810472Y-128317631D01*
X183784635Y-128355417D01*
X183536871Y-128603182D01*
X183475551Y-128636666D01*
X183449192Y-128639500D01*
X148390808Y-128639500D01*
X148323769Y-128619815D01*
X148303127Y-128603181D01*
X143893335Y-124193389D01*
X148259500Y-124193389D01*
X148259500Y-124366611D01*
X148286598Y-124537701D01*
X148340127Y-124702445D01*
X148418768Y-124856788D01*
X148520586Y-124996928D01*
X148643072Y-125119414D01*
X148783212Y-125221232D01*
X148937555Y-125299873D01*
X149102299Y-125353402D01*
X149273389Y-125380500D01*
X149273390Y-125380500D01*
X149446610Y-125380500D01*
X149446611Y-125380500D01*
X149617701Y-125353402D01*
X149782445Y-125299873D01*
X149936788Y-125221232D01*
X150076928Y-125119414D01*
X150199414Y-124996928D01*
X150301232Y-124856788D01*
X150379873Y-124702445D01*
X150433402Y-124537701D01*
X150460500Y-124366611D01*
X150460500Y-124193389D01*
X150450854Y-124132486D01*
X152189500Y-124132486D01*
X152189500Y-124427513D01*
X152213279Y-124608123D01*
X152228007Y-124719993D01*
X152302212Y-124996930D01*
X152304361Y-125004951D01*
X152304364Y-125004961D01*
X152417254Y-125277500D01*
X152417258Y-125277510D01*
X152564761Y-125532993D01*
X152744352Y-125767040D01*
X152744358Y-125767047D01*
X152952952Y-125975641D01*
X152952959Y-125975647D01*
X153187006Y-126155238D01*
X153442489Y-126302741D01*
X153442490Y-126302741D01*
X153442493Y-126302743D01*
X153715048Y-126415639D01*
X154000007Y-126491993D01*
X154292494Y-126530500D01*
X154292501Y-126530500D01*
X154587499Y-126530500D01*
X154587506Y-126530500D01*
X154879993Y-126491993D01*
X155164952Y-126415639D01*
X155437507Y-126302743D01*
X155692994Y-126155238D01*
X155927042Y-125975646D01*
X156135646Y-125767042D01*
X156315238Y-125532994D01*
X156462743Y-125277507D01*
X156575639Y-125004952D01*
X156651993Y-124719993D01*
X156690500Y-124427506D01*
X156690500Y-124132494D01*
X156651993Y-123840007D01*
X156575639Y-123555048D01*
X156462743Y-123282493D01*
X156412604Y-123195650D01*
X156315238Y-123027006D01*
X156135647Y-122792959D01*
X156135641Y-122792952D01*
X155927047Y-122584358D01*
X155927040Y-122584352D01*
X155692993Y-122404761D01*
X155437510Y-122257258D01*
X155437500Y-122257254D01*
X155164961Y-122144364D01*
X155164954Y-122144362D01*
X155164952Y-122144361D01*
X154879993Y-122068007D01*
X154831113Y-122061571D01*
X154587513Y-122029500D01*
X154587506Y-122029500D01*
X154292494Y-122029500D01*
X154292486Y-122029500D01*
X154014085Y-122066153D01*
X154000007Y-122068007D01*
X153825861Y-122114669D01*
X153715048Y-122144361D01*
X153715038Y-122144364D01*
X153442499Y-122257254D01*
X153442489Y-122257258D01*
X153187006Y-122404761D01*
X152952959Y-122584352D01*
X152952952Y-122584358D01*
X152744358Y-122792952D01*
X152744352Y-122792959D01*
X152564761Y-123027006D01*
X152417258Y-123282489D01*
X152417254Y-123282499D01*
X152304364Y-123555038D01*
X152304361Y-123555048D01*
X152249762Y-123758818D01*
X152228008Y-123840004D01*
X152228006Y-123840015D01*
X152189500Y-124132486D01*
X150450854Y-124132486D01*
X150433402Y-124022299D01*
X150379873Y-123857555D01*
X150301232Y-123703212D01*
X150199414Y-123563072D01*
X150146882Y-123510540D01*
X150113397Y-123449217D01*
X150118381Y-123379525D01*
X150160253Y-123323592D01*
X150225717Y-123299175D01*
X150253961Y-123300386D01*
X150504072Y-123340000D01*
X150755928Y-123340000D01*
X151004669Y-123300602D01*
X151244184Y-123222780D01*
X151468575Y-123108446D01*
X151468581Y-123108442D01*
X151570697Y-123034250D01*
X151570698Y-123034250D01*
X150954025Y-122417578D01*
X150985258Y-122404641D01*
X151108097Y-122322563D01*
X151212563Y-122218097D01*
X151294641Y-122095258D01*
X151307577Y-122064025D01*
X151924250Y-122680698D01*
X151924250Y-122680697D01*
X151998442Y-122578581D01*
X151998446Y-122578575D01*
X152112780Y-122354184D01*
X152190602Y-122114669D01*
X152230000Y-121865928D01*
X152230000Y-121614071D01*
X152190602Y-121365330D01*
X152112780Y-121125815D01*
X151998442Y-120901416D01*
X151924250Y-120799301D01*
X151924250Y-120799300D01*
X151307577Y-121415973D01*
X151294641Y-121384742D01*
X151212563Y-121261903D01*
X151108097Y-121157437D01*
X150985258Y-121075359D01*
X150954024Y-121062421D01*
X151570698Y-120445748D01*
X151468583Y-120371557D01*
X151244184Y-120257219D01*
X151004669Y-120179397D01*
X150755928Y-120140000D01*
X150504072Y-120140000D01*
X150255330Y-120179397D01*
X150015815Y-120257219D01*
X149791413Y-120371559D01*
X149689301Y-120445747D01*
X149689300Y-120445748D01*
X150305974Y-121062421D01*
X150274742Y-121075359D01*
X150151903Y-121157437D01*
X150047437Y-121261903D01*
X149965359Y-121384742D01*
X149952422Y-121415974D01*
X149335748Y-120799300D01*
X149335747Y-120799301D01*
X149261559Y-120901413D01*
X149147219Y-121125815D01*
X149069397Y-121365330D01*
X149030000Y-121614071D01*
X149030000Y-121865928D01*
X149069397Y-122114669D01*
X149147219Y-122354184D01*
X149261557Y-122578583D01*
X149335748Y-122680697D01*
X149335748Y-122680698D01*
X149952421Y-122064024D01*
X149965359Y-122095258D01*
X150047437Y-122218097D01*
X150151903Y-122322563D01*
X150274742Y-122404641D01*
X150305974Y-122417577D01*
X149689300Y-123034250D01*
X149691598Y-123063449D01*
X149677233Y-123131827D01*
X149628181Y-123181583D01*
X149560016Y-123196921D01*
X149548583Y-123195650D01*
X149446611Y-123179500D01*
X149273389Y-123179500D01*
X149233728Y-123185781D01*
X149102302Y-123206597D01*
X149102299Y-123206598D01*
X148968883Y-123249948D01*
X148937552Y-123260128D01*
X148783211Y-123338768D01*
X148727115Y-123379525D01*
X148643072Y-123440586D01*
X148643070Y-123440588D01*
X148643069Y-123440588D01*
X148520588Y-123563069D01*
X148520588Y-123563070D01*
X148520586Y-123563072D01*
X148488976Y-123606579D01*
X148418768Y-123703211D01*
X148340128Y-123857552D01*
X148286597Y-124022302D01*
X148264550Y-124161506D01*
X148259500Y-124193389D01*
X143893335Y-124193389D01*
X139529499Y-119829553D01*
X139496014Y-119768230D01*
X139499248Y-119703556D01*
X139541090Y-119574785D01*
X139580500Y-119325962D01*
X139580500Y-119074038D01*
X139541090Y-118825215D01*
X139463241Y-118585621D01*
X139463239Y-118585618D01*
X139463239Y-118585616D01*
X139421747Y-118504184D01*
X139348870Y-118361155D01*
X139217216Y-118179948D01*
X139200798Y-118157350D01*
X139200794Y-118157345D01*
X139022654Y-117979205D01*
X139022649Y-117979201D01*
X138818848Y-117831132D01*
X138818847Y-117831131D01*
X138818845Y-117831130D01*
X138748747Y-117795413D01*
X138594383Y-117716760D01*
X138354785Y-117638910D01*
X138105962Y-117599500D01*
X137854038Y-117599500D01*
X137787410Y-117610053D01*
X137605214Y-117638910D01*
X137365616Y-117716760D01*
X137141151Y-117831132D01*
X136937350Y-117979201D01*
X136937345Y-117979205D01*
X136759205Y-118157345D01*
X136759201Y-118157350D01*
X136611132Y-118361151D01*
X136496760Y-118585616D01*
X136418910Y-118825214D01*
X136418910Y-118825215D01*
X136379500Y-119074038D01*
X136379500Y-119325962D01*
X136396880Y-119435696D01*
X136418910Y-119574785D01*
X136496760Y-119814383D01*
X136611132Y-120038848D01*
X136759201Y-120242649D01*
X136759205Y-120242654D01*
X136937345Y-120420794D01*
X136937350Y-120420798D01*
X137115117Y-120549952D01*
X137141155Y-120568870D01*
X137262527Y-120630712D01*
X137365616Y-120683239D01*
X137365618Y-120683239D01*
X137365621Y-120683241D01*
X137605215Y-120761090D01*
X137854038Y-120800500D01*
X137854039Y-120800500D01*
X138105961Y-120800500D01*
X138105962Y-120800500D01*
X138354785Y-120761090D01*
X138483556Y-120719248D01*
X138553394Y-120717254D01*
X138609553Y-120749499D01*
X140851175Y-122991121D01*
X140884660Y-123052444D01*
X140879676Y-123122136D01*
X140837804Y-123178069D01*
X140772340Y-123202486D01*
X140744097Y-123201275D01*
X140606611Y-123179500D01*
X140433389Y-123179500D01*
X140393728Y-123185781D01*
X140262302Y-123206597D01*
X140262299Y-123206598D01*
X140128883Y-123249948D01*
X140097552Y-123260128D01*
X139943211Y-123338768D01*
X139887115Y-123379525D01*
X139803072Y-123440586D01*
X139803070Y-123440588D01*
X139803069Y-123440588D01*
X139680588Y-123563069D01*
X139680588Y-123563070D01*
X139680586Y-123563072D01*
X139648976Y-123606579D01*
X139578768Y-123703211D01*
X139500128Y-123857552D01*
X139446597Y-124022302D01*
X139424550Y-124161506D01*
X139419500Y-124193389D01*
X139419500Y-124366611D01*
X139446598Y-124537701D01*
X139500127Y-124702445D01*
X139578768Y-124856788D01*
X139680586Y-124996928D01*
X139803072Y-125119414D01*
X139943212Y-125221232D01*
X140097555Y-125299873D01*
X140262299Y-125353402D01*
X140433389Y-125380500D01*
X140433390Y-125380500D01*
X140606610Y-125380500D01*
X140606611Y-125380500D01*
X140777701Y-125353402D01*
X140942445Y-125299873D01*
X141096788Y-125221232D01*
X141236928Y-125119414D01*
X141359414Y-124996928D01*
X141461232Y-124856788D01*
X141539873Y-124702445D01*
X141593402Y-124537701D01*
X141620500Y-124366611D01*
X141620500Y-124193389D01*
X141598724Y-124055901D01*
X141607679Y-123986610D01*
X141652675Y-123933158D01*
X141719426Y-123912518D01*
X141786740Y-123931243D01*
X141808878Y-123948824D01*
X147597872Y-129737819D01*
X147631357Y-129799142D01*
X147626373Y-129868834D01*
X147584501Y-129924767D01*
X147519037Y-129949184D01*
X147510191Y-129949500D01*
X130520808Y-129949500D01*
X130453769Y-129929815D01*
X130433127Y-129913181D01*
X124713335Y-124193389D01*
X129259500Y-124193389D01*
X129259500Y-124366611D01*
X129286598Y-124537701D01*
X129340127Y-124702445D01*
X129418768Y-124856788D01*
X129520586Y-124996928D01*
X129643072Y-125119414D01*
X129783212Y-125221232D01*
X129937555Y-125299873D01*
X130102299Y-125353402D01*
X130273389Y-125380500D01*
X130273390Y-125380500D01*
X130446610Y-125380500D01*
X130446611Y-125380500D01*
X130617701Y-125353402D01*
X130782445Y-125299873D01*
X130936788Y-125221232D01*
X131076928Y-125119414D01*
X131199414Y-124996928D01*
X131301232Y-124856788D01*
X131379873Y-124702445D01*
X131433402Y-124537701D01*
X131460500Y-124366611D01*
X131460500Y-124193389D01*
X131450854Y-124132486D01*
X133189500Y-124132486D01*
X133189500Y-124427513D01*
X133213279Y-124608123D01*
X133228007Y-124719993D01*
X133302212Y-124996930D01*
X133304361Y-125004951D01*
X133304364Y-125004961D01*
X133417254Y-125277500D01*
X133417258Y-125277510D01*
X133564761Y-125532993D01*
X133744352Y-125767040D01*
X133744358Y-125767047D01*
X133952952Y-125975641D01*
X133952959Y-125975647D01*
X134187006Y-126155238D01*
X134442489Y-126302741D01*
X134442490Y-126302741D01*
X134442493Y-126302743D01*
X134715048Y-126415639D01*
X135000007Y-126491993D01*
X135292494Y-126530500D01*
X135292501Y-126530500D01*
X135587499Y-126530500D01*
X135587506Y-126530500D01*
X135879993Y-126491993D01*
X136164952Y-126415639D01*
X136437507Y-126302743D01*
X136692994Y-126155238D01*
X136927042Y-125975646D01*
X137135646Y-125767042D01*
X137315238Y-125532994D01*
X137462743Y-125277507D01*
X137575639Y-125004952D01*
X137651993Y-124719993D01*
X137690500Y-124427506D01*
X137690500Y-124132494D01*
X137651993Y-123840007D01*
X137575639Y-123555048D01*
X137462743Y-123282493D01*
X137412604Y-123195650D01*
X137315238Y-123027006D01*
X137135647Y-122792959D01*
X137135641Y-122792952D01*
X136927047Y-122584358D01*
X136927040Y-122584352D01*
X136692993Y-122404761D01*
X136437510Y-122257258D01*
X136437500Y-122257254D01*
X136164961Y-122144364D01*
X136164954Y-122144362D01*
X136164952Y-122144361D01*
X135879993Y-122068007D01*
X135831113Y-122061571D01*
X135587513Y-122029500D01*
X135587506Y-122029500D01*
X135292494Y-122029500D01*
X135292486Y-122029500D01*
X135014085Y-122066153D01*
X135000007Y-122068007D01*
X134825861Y-122114669D01*
X134715048Y-122144361D01*
X134715038Y-122144364D01*
X134442499Y-122257254D01*
X134442489Y-122257258D01*
X134187006Y-122404761D01*
X133952959Y-122584352D01*
X133952952Y-122584358D01*
X133744358Y-122792952D01*
X133744352Y-122792959D01*
X133564761Y-123027006D01*
X133417258Y-123282489D01*
X133417254Y-123282499D01*
X133304364Y-123555038D01*
X133304361Y-123555048D01*
X133249762Y-123758818D01*
X133228008Y-123840004D01*
X133228006Y-123840015D01*
X133189500Y-124132486D01*
X131450854Y-124132486D01*
X131433402Y-124022299D01*
X131379873Y-123857555D01*
X131301232Y-123703212D01*
X131199414Y-123563072D01*
X131146882Y-123510540D01*
X131113397Y-123449217D01*
X131118381Y-123379525D01*
X131160253Y-123323592D01*
X131225717Y-123299175D01*
X131253961Y-123300386D01*
X131504072Y-123340000D01*
X131755928Y-123340000D01*
X132004669Y-123300602D01*
X132244184Y-123222780D01*
X132468575Y-123108446D01*
X132468581Y-123108442D01*
X132570697Y-123034250D01*
X132570698Y-123034250D01*
X131954025Y-122417578D01*
X131985258Y-122404641D01*
X132108097Y-122322563D01*
X132212563Y-122218097D01*
X132294641Y-122095258D01*
X132307578Y-122064025D01*
X132924250Y-122680698D01*
X132924250Y-122680697D01*
X132998442Y-122578581D01*
X132998446Y-122578575D01*
X133112780Y-122354184D01*
X133190602Y-122114669D01*
X133230000Y-121865928D01*
X133230000Y-121614071D01*
X133190602Y-121365330D01*
X133112780Y-121125815D01*
X132998442Y-120901416D01*
X132924250Y-120799301D01*
X132924250Y-120799300D01*
X132307577Y-121415973D01*
X132294641Y-121384742D01*
X132212563Y-121261903D01*
X132108097Y-121157437D01*
X131985258Y-121075359D01*
X131954024Y-121062421D01*
X132570698Y-120445748D01*
X132468583Y-120371557D01*
X132244184Y-120257219D01*
X132004669Y-120179397D01*
X131755928Y-120140000D01*
X131504072Y-120140000D01*
X131255330Y-120179397D01*
X131015815Y-120257219D01*
X130791413Y-120371559D01*
X130689301Y-120445747D01*
X130689300Y-120445748D01*
X131305974Y-121062421D01*
X131274742Y-121075359D01*
X131151903Y-121157437D01*
X131047437Y-121261903D01*
X130965359Y-121384742D01*
X130952421Y-121415974D01*
X130335748Y-120799300D01*
X130335747Y-120799301D01*
X130261559Y-120901413D01*
X130147219Y-121125815D01*
X130069397Y-121365330D01*
X130030000Y-121614071D01*
X130030000Y-121865928D01*
X130069397Y-122114669D01*
X130147219Y-122354184D01*
X130261557Y-122578583D01*
X130335748Y-122680697D01*
X130335748Y-122680698D01*
X130952421Y-122064024D01*
X130965359Y-122095258D01*
X131047437Y-122218097D01*
X131151903Y-122322563D01*
X131274742Y-122404641D01*
X131305974Y-122417577D01*
X130689300Y-123034250D01*
X130691598Y-123063449D01*
X130677233Y-123131827D01*
X130628181Y-123181583D01*
X130560016Y-123196921D01*
X130548583Y-123195650D01*
X130446611Y-123179500D01*
X130273389Y-123179500D01*
X130233728Y-123185781D01*
X130102302Y-123206597D01*
X130102299Y-123206598D01*
X129968883Y-123249948D01*
X129937552Y-123260128D01*
X129783211Y-123338768D01*
X129727115Y-123379525D01*
X129643072Y-123440586D01*
X129643070Y-123440588D01*
X129643069Y-123440588D01*
X129520588Y-123563069D01*
X129520588Y-123563070D01*
X129520586Y-123563072D01*
X129488976Y-123606579D01*
X129418768Y-123703211D01*
X129340128Y-123857552D01*
X129286597Y-124022302D01*
X129264550Y-124161506D01*
X129259500Y-124193389D01*
X124713335Y-124193389D01*
X120349499Y-119829553D01*
X120316014Y-119768230D01*
X120319248Y-119703556D01*
X120361090Y-119574785D01*
X120400500Y-119325962D01*
X120400500Y-119074038D01*
X120361090Y-118825215D01*
X120283241Y-118585621D01*
X120283239Y-118585618D01*
X120283239Y-118585616D01*
X120241747Y-118504184D01*
X120168870Y-118361155D01*
X120037216Y-118179948D01*
X120020798Y-118157350D01*
X120020794Y-118157345D01*
X119842654Y-117979205D01*
X119842649Y-117979201D01*
X119638848Y-117831132D01*
X119638847Y-117831131D01*
X119638845Y-117831130D01*
X119568747Y-117795413D01*
X119414383Y-117716760D01*
X119174785Y-117638910D01*
X118925962Y-117599500D01*
X118674038Y-117599500D01*
X118607410Y-117610053D01*
X118425214Y-117638910D01*
X118185616Y-117716760D01*
X117961151Y-117831132D01*
X117757350Y-117979201D01*
X117757345Y-117979205D01*
X117579205Y-118157345D01*
X117579201Y-118157350D01*
X117431132Y-118361151D01*
X117316760Y-118585616D01*
X117238910Y-118825214D01*
X117238910Y-118825215D01*
X117199500Y-119074038D01*
X107496847Y-119074038D01*
X107499264Y-114393713D01*
X143649500Y-114393713D01*
X143649500Y-114606286D01*
X143675178Y-114768414D01*
X143682754Y-114816243D01*
X143728755Y-114957820D01*
X143748444Y-115018414D01*
X143844951Y-115207820D01*
X143969890Y-115379786D01*
X144120213Y-115530109D01*
X144292179Y-115655048D01*
X144292181Y-115655049D01*
X144292184Y-115655051D01*
X144481588Y-115751557D01*
X144683757Y-115817246D01*
X144893713Y-115850500D01*
X144893714Y-115850500D01*
X145106286Y-115850500D01*
X145106287Y-115850500D01*
X145316243Y-115817246D01*
X145518412Y-115751557D01*
X145707816Y-115655051D01*
X145782900Y-115600500D01*
X145879786Y-115530109D01*
X145879788Y-115530106D01*
X145879792Y-115530104D01*
X146030104Y-115379792D01*
X146030106Y-115379788D01*
X146030109Y-115379786D01*
X146155048Y-115207820D01*
X146155047Y-115207820D01*
X146155051Y-115207816D01*
X146251557Y-115018412D01*
X146317246Y-114816243D01*
X146350500Y-114606287D01*
X146350500Y-114393713D01*
X146317246Y-114183757D01*
X146251557Y-113981588D01*
X146155051Y-113792184D01*
X146155049Y-113792181D01*
X146155048Y-113792179D01*
X146030109Y-113620213D01*
X145879786Y-113469890D01*
X145707820Y-113344951D01*
X145518414Y-113248444D01*
X145518413Y-113248443D01*
X145518412Y-113248443D01*
X145316243Y-113182754D01*
X145316241Y-113182753D01*
X145316240Y-113182753D01*
X145154957Y-113157208D01*
X145106287Y-113149500D01*
X144893713Y-113149500D01*
X144845042Y-113157208D01*
X144683760Y-113182753D01*
X144481585Y-113248444D01*
X144292179Y-113344951D01*
X144120213Y-113469890D01*
X143969890Y-113620213D01*
X143844951Y-113792179D01*
X143748444Y-113981585D01*
X143748443Y-113981587D01*
X143748443Y-113981588D01*
X143739390Y-114009450D01*
X143682753Y-114183760D01*
X143649500Y-114393713D01*
X107499264Y-114393713D01*
X107504211Y-104813389D01*
X110139500Y-104813389D01*
X110139500Y-104986610D01*
X110156811Y-105095912D01*
X110166598Y-105157701D01*
X110220127Y-105322445D01*
X110298768Y-105476788D01*
X110400586Y-105616928D01*
X110523072Y-105739414D01*
X110663212Y-105841232D01*
X110817555Y-105919873D01*
X110982299Y-105973402D01*
X111153389Y-106000500D01*
X111153390Y-106000500D01*
X111326610Y-106000500D01*
X111326611Y-106000500D01*
X111497701Y-105973402D01*
X111662445Y-105919873D01*
X111816788Y-105841232D01*
X111956928Y-105739414D01*
X112079414Y-105616928D01*
X112181232Y-105476788D01*
X112259873Y-105322445D01*
X112313402Y-105157701D01*
X112340500Y-104986611D01*
X112340500Y-104813389D01*
X112330854Y-104752486D01*
X114069500Y-104752486D01*
X114069500Y-105047513D01*
X114100647Y-105284088D01*
X114108007Y-105339993D01*
X114182212Y-105616930D01*
X114184361Y-105624951D01*
X114184364Y-105624961D01*
X114297254Y-105897500D01*
X114297258Y-105897510D01*
X114444761Y-106152993D01*
X114624352Y-106387040D01*
X114624358Y-106387047D01*
X114832952Y-106595641D01*
X114832959Y-106595647D01*
X115067006Y-106775238D01*
X115322489Y-106922741D01*
X115322490Y-106922741D01*
X115322493Y-106922743D01*
X115595048Y-107035639D01*
X115880007Y-107111993D01*
X116172494Y-107150500D01*
X116172501Y-107150500D01*
X116467499Y-107150500D01*
X116467506Y-107150500D01*
X116759993Y-107111993D01*
X117044952Y-107035639D01*
X117317507Y-106922743D01*
X117572994Y-106775238D01*
X117807042Y-106595646D01*
X118015646Y-106387042D01*
X118195238Y-106152994D01*
X118342743Y-105897507D01*
X118455639Y-105624952D01*
X118531993Y-105339993D01*
X118570500Y-105047506D01*
X118570500Y-104813389D01*
X120299500Y-104813389D01*
X120299500Y-104986610D01*
X120316811Y-105095912D01*
X120326598Y-105157701D01*
X120380127Y-105322445D01*
X120458768Y-105476788D01*
X120560586Y-105616928D01*
X120683072Y-105739414D01*
X120823212Y-105841232D01*
X120977555Y-105919873D01*
X121142299Y-105973402D01*
X121313389Y-106000500D01*
X121313390Y-106000500D01*
X121486610Y-106000500D01*
X121486611Y-106000500D01*
X121657701Y-105973402D01*
X121822445Y-105919873D01*
X121976788Y-105841232D01*
X122116928Y-105739414D01*
X122239414Y-105616928D01*
X122341232Y-105476788D01*
X122419873Y-105322445D01*
X122473402Y-105157701D01*
X122500500Y-104986611D01*
X122500500Y-104813389D01*
X129279500Y-104813389D01*
X129279500Y-104986610D01*
X129296811Y-105095912D01*
X129306598Y-105157701D01*
X129360127Y-105322445D01*
X129438768Y-105476788D01*
X129540586Y-105616928D01*
X129663072Y-105739414D01*
X129803212Y-105841232D01*
X129957555Y-105919873D01*
X130122299Y-105973402D01*
X130293389Y-106000500D01*
X130293390Y-106000500D01*
X130466610Y-106000500D01*
X130466611Y-106000500D01*
X130637701Y-105973402D01*
X130802445Y-105919873D01*
X130956788Y-105841232D01*
X131096928Y-105739414D01*
X131219414Y-105616928D01*
X131321232Y-105476788D01*
X131399873Y-105322445D01*
X131453402Y-105157701D01*
X131480500Y-104986611D01*
X131480500Y-104813389D01*
X131470854Y-104752486D01*
X133209500Y-104752486D01*
X133209500Y-105047513D01*
X133240647Y-105284088D01*
X133248007Y-105339993D01*
X133322212Y-105616930D01*
X133324361Y-105624951D01*
X133324364Y-105624961D01*
X133437254Y-105897500D01*
X133437258Y-105897510D01*
X133584761Y-106152993D01*
X133764352Y-106387040D01*
X133764358Y-106387047D01*
X133972952Y-106595641D01*
X133972959Y-106595647D01*
X134207006Y-106775238D01*
X134462489Y-106922741D01*
X134462490Y-106922741D01*
X134462493Y-106922743D01*
X134735048Y-107035639D01*
X135020007Y-107111993D01*
X135312494Y-107150500D01*
X135312501Y-107150500D01*
X135607499Y-107150500D01*
X135607506Y-107150500D01*
X135899993Y-107111993D01*
X136184952Y-107035639D01*
X136457507Y-106922743D01*
X136712994Y-106775238D01*
X136947042Y-106595646D01*
X137155646Y-106387042D01*
X137335238Y-106152994D01*
X137482743Y-105897507D01*
X137595639Y-105624952D01*
X137671993Y-105339993D01*
X137710500Y-105047506D01*
X137710500Y-104813389D01*
X139439500Y-104813389D01*
X139439500Y-104986610D01*
X139456811Y-105095912D01*
X139466598Y-105157701D01*
X139520127Y-105322445D01*
X139598768Y-105476788D01*
X139700586Y-105616928D01*
X139823072Y-105739414D01*
X139963212Y-105841232D01*
X140117555Y-105919873D01*
X140282299Y-105973402D01*
X140453389Y-106000500D01*
X140453390Y-106000500D01*
X140626610Y-106000500D01*
X140626611Y-106000500D01*
X140797701Y-105973402D01*
X140962445Y-105919873D01*
X141116788Y-105841232D01*
X141256928Y-105739414D01*
X141379414Y-105616928D01*
X141481232Y-105476788D01*
X141559873Y-105322445D01*
X141613402Y-105157701D01*
X141640500Y-104986611D01*
X141640500Y-104813389D01*
X148319500Y-104813389D01*
X148319500Y-104986610D01*
X148336811Y-105095912D01*
X148346598Y-105157701D01*
X148400127Y-105322445D01*
X148478768Y-105476788D01*
X148580586Y-105616928D01*
X148703072Y-105739414D01*
X148843212Y-105841232D01*
X148997555Y-105919873D01*
X149162299Y-105973402D01*
X149333389Y-106000500D01*
X149333390Y-106000500D01*
X149506610Y-106000500D01*
X149506611Y-106000500D01*
X149677701Y-105973402D01*
X149842445Y-105919873D01*
X149996788Y-105841232D01*
X150136928Y-105739414D01*
X150259414Y-105616928D01*
X150361232Y-105476788D01*
X150439873Y-105322445D01*
X150493402Y-105157701D01*
X150520500Y-104986611D01*
X150520500Y-104813389D01*
X150510854Y-104752486D01*
X152249500Y-104752486D01*
X152249500Y-105047513D01*
X152280647Y-105284088D01*
X152288007Y-105339993D01*
X152362212Y-105616930D01*
X152364361Y-105624951D01*
X152364364Y-105624961D01*
X152477254Y-105897500D01*
X152477258Y-105897510D01*
X152624761Y-106152993D01*
X152804352Y-106387040D01*
X152804358Y-106387047D01*
X153012952Y-106595641D01*
X153012959Y-106595647D01*
X153247006Y-106775238D01*
X153502489Y-106922741D01*
X153502490Y-106922741D01*
X153502493Y-106922743D01*
X153775048Y-107035639D01*
X154060007Y-107111993D01*
X154352494Y-107150500D01*
X154352501Y-107150500D01*
X154647499Y-107150500D01*
X154647506Y-107150500D01*
X154939993Y-107111993D01*
X155224952Y-107035639D01*
X155497507Y-106922743D01*
X155752994Y-106775238D01*
X155987042Y-106595646D01*
X156195646Y-106387042D01*
X156375238Y-106152994D01*
X156522743Y-105897507D01*
X156635639Y-105624952D01*
X156711993Y-105339993D01*
X156750500Y-105047506D01*
X156750500Y-104813389D01*
X158479500Y-104813389D01*
X158479500Y-104986610D01*
X158496811Y-105095912D01*
X158506598Y-105157701D01*
X158560127Y-105322445D01*
X158638768Y-105476788D01*
X158740586Y-105616928D01*
X158863072Y-105739414D01*
X159003212Y-105841232D01*
X159157555Y-105919873D01*
X159322299Y-105973402D01*
X159493389Y-106000500D01*
X159493390Y-106000500D01*
X159666610Y-106000500D01*
X159666611Y-106000500D01*
X159837701Y-105973402D01*
X160002445Y-105919873D01*
X160156788Y-105841232D01*
X160296928Y-105739414D01*
X160419414Y-105616928D01*
X160521232Y-105476788D01*
X160599873Y-105322445D01*
X160653402Y-105157701D01*
X160680500Y-104986611D01*
X160680500Y-104813389D01*
X167379500Y-104813389D01*
X167379500Y-104986610D01*
X167396811Y-105095912D01*
X167406598Y-105157701D01*
X167460127Y-105322445D01*
X167538768Y-105476788D01*
X167640586Y-105616928D01*
X167763072Y-105739414D01*
X167903212Y-105841232D01*
X168057555Y-105919873D01*
X168222299Y-105973402D01*
X168393389Y-106000500D01*
X168393390Y-106000500D01*
X168566610Y-106000500D01*
X168566611Y-106000500D01*
X168737701Y-105973402D01*
X168902445Y-105919873D01*
X169056788Y-105841232D01*
X169196928Y-105739414D01*
X169319414Y-105616928D01*
X169421232Y-105476788D01*
X169499873Y-105322445D01*
X169553402Y-105157701D01*
X169580500Y-104986611D01*
X169580500Y-104813389D01*
X169570854Y-104752486D01*
X171309500Y-104752486D01*
X171309500Y-105047513D01*
X171340647Y-105284088D01*
X171348007Y-105339993D01*
X171422212Y-105616930D01*
X171424361Y-105624951D01*
X171424364Y-105624961D01*
X171537254Y-105897500D01*
X171537258Y-105897510D01*
X171684761Y-106152993D01*
X171864352Y-106387040D01*
X171864358Y-106387047D01*
X172072952Y-106595641D01*
X172072959Y-106595647D01*
X172307006Y-106775238D01*
X172562489Y-106922741D01*
X172562490Y-106922741D01*
X172562493Y-106922743D01*
X172835048Y-107035639D01*
X173120007Y-107111993D01*
X173412494Y-107150500D01*
X173412501Y-107150500D01*
X173707499Y-107150500D01*
X173707506Y-107150500D01*
X173999993Y-107111993D01*
X174284952Y-107035639D01*
X174557507Y-106922743D01*
X174812994Y-106775238D01*
X175047042Y-106595646D01*
X175255646Y-106387042D01*
X175435238Y-106152994D01*
X175582743Y-105897507D01*
X175695639Y-105624952D01*
X175771993Y-105339993D01*
X175810500Y-105047506D01*
X175810500Y-104813389D01*
X177539500Y-104813389D01*
X177539500Y-104986610D01*
X177556811Y-105095912D01*
X177566598Y-105157701D01*
X177620127Y-105322445D01*
X177698768Y-105476788D01*
X177800586Y-105616928D01*
X177923072Y-105739414D01*
X178063212Y-105841232D01*
X178217555Y-105919873D01*
X178382299Y-105973402D01*
X178553389Y-106000500D01*
X178553390Y-106000500D01*
X178726610Y-106000500D01*
X178726611Y-106000500D01*
X178897701Y-105973402D01*
X179062445Y-105919873D01*
X179216788Y-105841232D01*
X179356928Y-105739414D01*
X179479414Y-105616928D01*
X179581232Y-105476788D01*
X179659873Y-105322445D01*
X179713402Y-105157701D01*
X179740500Y-104986611D01*
X179740500Y-104813389D01*
X179713402Y-104642299D01*
X179659873Y-104477555D01*
X179581232Y-104323212D01*
X179479414Y-104183072D01*
X179356928Y-104060586D01*
X179216788Y-103958768D01*
X179062445Y-103880127D01*
X178897701Y-103826598D01*
X178897699Y-103826597D01*
X178897698Y-103826597D01*
X178766271Y-103805781D01*
X178726611Y-103799500D01*
X178553389Y-103799500D01*
X178513728Y-103805781D01*
X178382302Y-103826597D01*
X178217552Y-103880128D01*
X178063211Y-103958768D01*
X177994770Y-104008494D01*
X177923072Y-104060586D01*
X177923070Y-104060588D01*
X177923069Y-104060588D01*
X177800588Y-104183069D01*
X177800588Y-104183070D01*
X177800586Y-104183072D01*
X177756859Y-104243256D01*
X177698768Y-104323211D01*
X177620128Y-104477552D01*
X177566597Y-104642302D01*
X177539500Y-104813389D01*
X175810500Y-104813389D01*
X175810500Y-104752494D01*
X175771993Y-104460007D01*
X175695639Y-104175048D01*
X175582743Y-103902493D01*
X175561263Y-103865289D01*
X175435238Y-103647006D01*
X175255647Y-103412959D01*
X175255641Y-103412952D01*
X175047047Y-103204358D01*
X175047040Y-103204352D01*
X174812993Y-103024761D01*
X174557510Y-102877258D01*
X174557500Y-102877254D01*
X174284961Y-102764364D01*
X174284954Y-102764362D01*
X174284952Y-102764361D01*
X173999993Y-102688007D01*
X173951113Y-102681571D01*
X173707513Y-102649500D01*
X173707506Y-102649500D01*
X173412494Y-102649500D01*
X173412486Y-102649500D01*
X173134085Y-102686153D01*
X173120007Y-102688007D01*
X172910690Y-102744093D01*
X172835048Y-102764361D01*
X172835038Y-102764364D01*
X172562499Y-102877254D01*
X172562489Y-102877258D01*
X172307006Y-103024761D01*
X172072959Y-103204352D01*
X172072952Y-103204358D01*
X171864358Y-103412952D01*
X171864352Y-103412959D01*
X171684761Y-103647006D01*
X171537258Y-103902489D01*
X171537254Y-103902499D01*
X171424364Y-104175038D01*
X171424361Y-104175048D01*
X171348008Y-104460004D01*
X171348006Y-104460015D01*
X171309500Y-104752486D01*
X169570854Y-104752486D01*
X169553402Y-104642299D01*
X169499873Y-104477555D01*
X169421232Y-104323212D01*
X169319414Y-104183072D01*
X169266882Y-104130540D01*
X169233397Y-104069217D01*
X169238381Y-103999525D01*
X169280253Y-103943592D01*
X169345717Y-103919175D01*
X169373961Y-103920386D01*
X169624072Y-103960000D01*
X169875928Y-103960000D01*
X170124669Y-103920602D01*
X170364184Y-103842780D01*
X170588575Y-103728446D01*
X170588581Y-103728442D01*
X170690697Y-103654250D01*
X170690698Y-103654250D01*
X170074025Y-103037578D01*
X170105258Y-103024641D01*
X170228097Y-102942563D01*
X170332563Y-102838097D01*
X170414641Y-102715258D01*
X170427577Y-102684025D01*
X171044250Y-103300698D01*
X171044250Y-103300697D01*
X171118442Y-103198581D01*
X171118446Y-103198575D01*
X171232780Y-102974184D01*
X171310602Y-102734669D01*
X171350000Y-102485928D01*
X171350000Y-102234071D01*
X171310602Y-101985330D01*
X171232780Y-101745815D01*
X171118442Y-101521416D01*
X171044250Y-101419301D01*
X171044250Y-101419300D01*
X170427577Y-102035973D01*
X170414641Y-102004742D01*
X170332563Y-101881903D01*
X170228097Y-101777437D01*
X170105258Y-101695359D01*
X170074024Y-101682421D01*
X170690698Y-101065748D01*
X170588583Y-100991557D01*
X170364184Y-100877219D01*
X170124669Y-100799397D01*
X169875928Y-100760000D01*
X169624072Y-100760000D01*
X169375330Y-100799397D01*
X169135815Y-100877219D01*
X168911413Y-100991559D01*
X168809301Y-101065747D01*
X168809300Y-101065748D01*
X169425974Y-101682421D01*
X169394742Y-101695359D01*
X169271903Y-101777437D01*
X169167437Y-101881903D01*
X169085359Y-102004742D01*
X169072421Y-102035974D01*
X168455748Y-101419300D01*
X168455747Y-101419301D01*
X168381559Y-101521413D01*
X168267219Y-101745815D01*
X168189397Y-101985330D01*
X168150000Y-102234071D01*
X168150000Y-102485928D01*
X168189397Y-102734669D01*
X168267219Y-102974184D01*
X168381557Y-103198583D01*
X168455748Y-103300697D01*
X168455748Y-103300698D01*
X169072421Y-102684024D01*
X169085359Y-102715258D01*
X169167437Y-102838097D01*
X169271903Y-102942563D01*
X169394742Y-103024641D01*
X169425974Y-103037577D01*
X168809300Y-103654250D01*
X168811598Y-103683449D01*
X168797233Y-103751827D01*
X168748181Y-103801583D01*
X168680016Y-103816921D01*
X168668583Y-103815650D01*
X168566611Y-103799500D01*
X168393389Y-103799500D01*
X168353728Y-103805781D01*
X168222302Y-103826597D01*
X168057552Y-103880128D01*
X167903211Y-103958768D01*
X167834770Y-104008494D01*
X167763072Y-104060586D01*
X167763070Y-104060588D01*
X167763069Y-104060588D01*
X167640588Y-104183069D01*
X167640588Y-104183070D01*
X167640586Y-104183072D01*
X167596859Y-104243256D01*
X167538768Y-104323211D01*
X167460128Y-104477552D01*
X167406597Y-104642302D01*
X167379500Y-104813389D01*
X160680500Y-104813389D01*
X160653402Y-104642299D01*
X160599873Y-104477555D01*
X160521232Y-104323212D01*
X160419414Y-104183072D01*
X160296928Y-104060586D01*
X160156788Y-103958768D01*
X160002445Y-103880127D01*
X159837701Y-103826598D01*
X159837699Y-103826597D01*
X159837698Y-103826597D01*
X159706271Y-103805781D01*
X159666611Y-103799500D01*
X159493389Y-103799500D01*
X159453728Y-103805781D01*
X159322302Y-103826597D01*
X159157552Y-103880128D01*
X159003211Y-103958768D01*
X158934770Y-104008494D01*
X158863072Y-104060586D01*
X158863070Y-104060588D01*
X158863069Y-104060588D01*
X158740588Y-104183069D01*
X158740588Y-104183070D01*
X158740586Y-104183072D01*
X158696859Y-104243256D01*
X158638768Y-104323211D01*
X158560128Y-104477552D01*
X158506597Y-104642302D01*
X158479500Y-104813389D01*
X156750500Y-104813389D01*
X156750500Y-104752494D01*
X156711993Y-104460007D01*
X156635639Y-104175048D01*
X156522743Y-103902493D01*
X156501263Y-103865289D01*
X156375238Y-103647006D01*
X156195647Y-103412959D01*
X156195641Y-103412952D01*
X155987047Y-103204358D01*
X155987040Y-103204352D01*
X155752993Y-103024761D01*
X155497510Y-102877258D01*
X155497500Y-102877254D01*
X155224961Y-102764364D01*
X155224954Y-102764362D01*
X155224952Y-102764361D01*
X154939993Y-102688007D01*
X154891113Y-102681571D01*
X154647513Y-102649500D01*
X154647506Y-102649500D01*
X154352494Y-102649500D01*
X154352486Y-102649500D01*
X154074085Y-102686153D01*
X154060007Y-102688007D01*
X153850690Y-102744093D01*
X153775048Y-102764361D01*
X153775038Y-102764364D01*
X153502499Y-102877254D01*
X153502489Y-102877258D01*
X153247006Y-103024761D01*
X153012959Y-103204352D01*
X153012952Y-103204358D01*
X152804358Y-103412952D01*
X152804352Y-103412959D01*
X152624761Y-103647006D01*
X152477258Y-103902489D01*
X152477254Y-103902499D01*
X152364364Y-104175038D01*
X152364361Y-104175048D01*
X152288008Y-104460004D01*
X152288006Y-104460015D01*
X152249500Y-104752486D01*
X150510854Y-104752486D01*
X150493402Y-104642299D01*
X150439873Y-104477555D01*
X150361232Y-104323212D01*
X150259414Y-104183072D01*
X150206882Y-104130540D01*
X150173397Y-104069217D01*
X150178381Y-103999525D01*
X150220253Y-103943592D01*
X150285717Y-103919175D01*
X150313961Y-103920386D01*
X150564072Y-103960000D01*
X150815928Y-103960000D01*
X151064669Y-103920602D01*
X151304184Y-103842780D01*
X151528575Y-103728446D01*
X151528581Y-103728442D01*
X151630697Y-103654250D01*
X151630698Y-103654250D01*
X151014025Y-103037578D01*
X151045258Y-103024641D01*
X151168097Y-102942563D01*
X151272563Y-102838097D01*
X151354641Y-102715258D01*
X151367578Y-102684025D01*
X151984250Y-103300698D01*
X151984250Y-103300697D01*
X152058442Y-103198581D01*
X152058446Y-103198575D01*
X152172780Y-102974184D01*
X152250602Y-102734669D01*
X152290000Y-102485928D01*
X152290000Y-102234071D01*
X152250602Y-101985330D01*
X152172780Y-101745815D01*
X152058442Y-101521416D01*
X151984250Y-101419301D01*
X151984250Y-101419300D01*
X151367577Y-102035973D01*
X151354641Y-102004742D01*
X151272563Y-101881903D01*
X151168097Y-101777437D01*
X151045258Y-101695359D01*
X151014024Y-101682421D01*
X151630698Y-101065748D01*
X151528583Y-100991557D01*
X151304184Y-100877219D01*
X151064669Y-100799397D01*
X150815928Y-100760000D01*
X150564072Y-100760000D01*
X150315330Y-100799397D01*
X150075815Y-100877219D01*
X149851413Y-100991559D01*
X149749301Y-101065747D01*
X149749300Y-101065748D01*
X150365974Y-101682421D01*
X150334742Y-101695359D01*
X150211903Y-101777437D01*
X150107437Y-101881903D01*
X150025359Y-102004742D01*
X150012421Y-102035974D01*
X149395748Y-101419300D01*
X149395747Y-101419301D01*
X149321559Y-101521413D01*
X149207219Y-101745815D01*
X149129397Y-101985330D01*
X149090000Y-102234071D01*
X149090000Y-102485928D01*
X149129397Y-102734669D01*
X149207219Y-102974184D01*
X149321557Y-103198583D01*
X149395748Y-103300697D01*
X149395748Y-103300698D01*
X150012421Y-102684024D01*
X150025359Y-102715258D01*
X150107437Y-102838097D01*
X150211903Y-102942563D01*
X150334742Y-103024641D01*
X150365974Y-103037577D01*
X149749300Y-103654250D01*
X149751598Y-103683449D01*
X149737233Y-103751827D01*
X149688181Y-103801583D01*
X149620016Y-103816921D01*
X149608583Y-103815650D01*
X149506611Y-103799500D01*
X149333389Y-103799500D01*
X149293728Y-103805781D01*
X149162302Y-103826597D01*
X148997552Y-103880128D01*
X148843211Y-103958768D01*
X148774770Y-104008494D01*
X148703072Y-104060586D01*
X148703070Y-104060588D01*
X148703069Y-104060588D01*
X148580588Y-104183069D01*
X148580588Y-104183070D01*
X148580586Y-104183072D01*
X148536859Y-104243256D01*
X148478768Y-104323211D01*
X148400128Y-104477552D01*
X148346597Y-104642302D01*
X148319500Y-104813389D01*
X141640500Y-104813389D01*
X141613402Y-104642299D01*
X141559873Y-104477555D01*
X141481232Y-104323212D01*
X141379414Y-104183072D01*
X141256928Y-104060586D01*
X141116788Y-103958768D01*
X140962445Y-103880127D01*
X140797701Y-103826598D01*
X140797699Y-103826597D01*
X140797698Y-103826597D01*
X140666271Y-103805781D01*
X140626611Y-103799500D01*
X140453389Y-103799500D01*
X140413728Y-103805781D01*
X140282302Y-103826597D01*
X140117552Y-103880128D01*
X139963211Y-103958768D01*
X139894770Y-104008494D01*
X139823072Y-104060586D01*
X139823070Y-104060588D01*
X139823069Y-104060588D01*
X139700588Y-104183069D01*
X139700588Y-104183070D01*
X139700586Y-104183072D01*
X139656859Y-104243256D01*
X139598768Y-104323211D01*
X139520128Y-104477552D01*
X139466597Y-104642302D01*
X139439500Y-104813389D01*
X137710500Y-104813389D01*
X137710500Y-104752494D01*
X137671993Y-104460007D01*
X137595639Y-104175048D01*
X137482743Y-103902493D01*
X137461263Y-103865289D01*
X137335238Y-103647006D01*
X137155647Y-103412959D01*
X137155641Y-103412952D01*
X136947047Y-103204358D01*
X136947040Y-103204352D01*
X136712993Y-103024761D01*
X136457510Y-102877258D01*
X136457500Y-102877254D01*
X136184961Y-102764364D01*
X136184954Y-102764362D01*
X136184952Y-102764361D01*
X135899993Y-102688007D01*
X135851113Y-102681571D01*
X135607513Y-102649500D01*
X135607506Y-102649500D01*
X135312494Y-102649500D01*
X135312486Y-102649500D01*
X135034085Y-102686153D01*
X135020007Y-102688007D01*
X134810690Y-102744093D01*
X134735048Y-102764361D01*
X134735038Y-102764364D01*
X134462499Y-102877254D01*
X134462489Y-102877258D01*
X134207006Y-103024761D01*
X133972959Y-103204352D01*
X133972952Y-103204358D01*
X133764358Y-103412952D01*
X133764352Y-103412959D01*
X133584761Y-103647006D01*
X133437258Y-103902489D01*
X133437254Y-103902499D01*
X133324364Y-104175038D01*
X133324361Y-104175048D01*
X133248008Y-104460004D01*
X133248006Y-104460015D01*
X133209500Y-104752486D01*
X131470854Y-104752486D01*
X131453402Y-104642299D01*
X131399873Y-104477555D01*
X131321232Y-104323212D01*
X131219414Y-104183072D01*
X131166882Y-104130540D01*
X131133397Y-104069217D01*
X131138381Y-103999525D01*
X131180253Y-103943592D01*
X131245717Y-103919175D01*
X131273961Y-103920386D01*
X131524072Y-103960000D01*
X131775928Y-103960000D01*
X132024669Y-103920602D01*
X132264184Y-103842780D01*
X132488575Y-103728446D01*
X132488581Y-103728442D01*
X132590697Y-103654250D01*
X132590698Y-103654250D01*
X131974025Y-103037578D01*
X132005258Y-103024641D01*
X132128097Y-102942563D01*
X132232563Y-102838097D01*
X132314641Y-102715258D01*
X132327577Y-102684025D01*
X132944250Y-103300698D01*
X132944250Y-103300697D01*
X133018442Y-103198581D01*
X133018446Y-103198575D01*
X133132780Y-102974184D01*
X133210602Y-102734669D01*
X133250000Y-102485928D01*
X133250000Y-102234071D01*
X133210602Y-101985330D01*
X133132780Y-101745815D01*
X133018442Y-101521416D01*
X132944250Y-101419301D01*
X132944250Y-101419300D01*
X132327577Y-102035973D01*
X132314641Y-102004742D01*
X132232563Y-101881903D01*
X132128097Y-101777437D01*
X132005258Y-101695359D01*
X131974024Y-101682421D01*
X132590698Y-101065748D01*
X132488583Y-100991557D01*
X132264184Y-100877219D01*
X132024669Y-100799397D01*
X131775928Y-100760000D01*
X131524072Y-100760000D01*
X131275330Y-100799397D01*
X131035815Y-100877219D01*
X130811413Y-100991559D01*
X130709301Y-101065747D01*
X130709300Y-101065748D01*
X131325974Y-101682421D01*
X131294742Y-101695359D01*
X131171903Y-101777437D01*
X131067437Y-101881903D01*
X130985359Y-102004742D01*
X130972421Y-102035974D01*
X130355748Y-101419300D01*
X130355747Y-101419301D01*
X130281559Y-101521413D01*
X130167219Y-101745815D01*
X130089397Y-101985330D01*
X130050000Y-102234071D01*
X130050000Y-102485928D01*
X130089397Y-102734669D01*
X130167219Y-102974184D01*
X130281557Y-103198583D01*
X130355748Y-103300697D01*
X130355748Y-103300698D01*
X130972421Y-102684024D01*
X130985359Y-102715258D01*
X131067437Y-102838097D01*
X131171903Y-102942563D01*
X131294742Y-103024641D01*
X131325974Y-103037577D01*
X130709300Y-103654250D01*
X130711598Y-103683449D01*
X130697233Y-103751827D01*
X130648181Y-103801583D01*
X130580016Y-103816921D01*
X130568583Y-103815650D01*
X130466611Y-103799500D01*
X130293389Y-103799500D01*
X130253728Y-103805781D01*
X130122302Y-103826597D01*
X129957552Y-103880128D01*
X129803211Y-103958768D01*
X129734770Y-104008494D01*
X129663072Y-104060586D01*
X129663070Y-104060588D01*
X129663069Y-104060588D01*
X129540588Y-104183069D01*
X129540588Y-104183070D01*
X129540586Y-104183072D01*
X129496859Y-104243256D01*
X129438768Y-104323211D01*
X129360128Y-104477552D01*
X129306597Y-104642302D01*
X129279500Y-104813389D01*
X122500500Y-104813389D01*
X122473402Y-104642299D01*
X122419873Y-104477555D01*
X122341232Y-104323212D01*
X122239414Y-104183072D01*
X122116928Y-104060586D01*
X121976788Y-103958768D01*
X121822445Y-103880127D01*
X121657701Y-103826598D01*
X121657699Y-103826597D01*
X121657698Y-103826597D01*
X121526271Y-103805781D01*
X121486611Y-103799500D01*
X121313389Y-103799500D01*
X121273728Y-103805781D01*
X121142302Y-103826597D01*
X120977552Y-103880128D01*
X120823211Y-103958768D01*
X120754770Y-104008494D01*
X120683072Y-104060586D01*
X120683070Y-104060588D01*
X120683069Y-104060588D01*
X120560588Y-104183069D01*
X120560588Y-104183070D01*
X120560586Y-104183072D01*
X120516859Y-104243256D01*
X120458768Y-104323211D01*
X120380128Y-104477552D01*
X120326597Y-104642302D01*
X120299500Y-104813389D01*
X118570500Y-104813389D01*
X118570500Y-104752494D01*
X118531993Y-104460007D01*
X118455639Y-104175048D01*
X118342743Y-103902493D01*
X118321263Y-103865289D01*
X118195238Y-103647006D01*
X118015647Y-103412959D01*
X118015641Y-103412952D01*
X117807047Y-103204358D01*
X117807040Y-103204352D01*
X117572993Y-103024761D01*
X117317510Y-102877258D01*
X117317500Y-102877254D01*
X117044961Y-102764364D01*
X117044954Y-102764362D01*
X117044952Y-102764361D01*
X116759993Y-102688007D01*
X116711113Y-102681571D01*
X116467513Y-102649500D01*
X116467506Y-102649500D01*
X116172494Y-102649500D01*
X116172486Y-102649500D01*
X115894085Y-102686153D01*
X115880007Y-102688007D01*
X115670690Y-102744093D01*
X115595048Y-102764361D01*
X115595038Y-102764364D01*
X115322499Y-102877254D01*
X115322489Y-102877258D01*
X115067006Y-103024761D01*
X114832959Y-103204352D01*
X114832952Y-103204358D01*
X114624358Y-103412952D01*
X114624352Y-103412959D01*
X114444761Y-103647006D01*
X114297258Y-103902489D01*
X114297254Y-103902499D01*
X114184364Y-104175038D01*
X114184361Y-104175048D01*
X114108008Y-104460004D01*
X114108006Y-104460015D01*
X114069500Y-104752486D01*
X112330854Y-104752486D01*
X112313402Y-104642299D01*
X112259873Y-104477555D01*
X112181232Y-104323212D01*
X112079414Y-104183072D01*
X112026882Y-104130540D01*
X111993397Y-104069217D01*
X111998381Y-103999525D01*
X112040253Y-103943592D01*
X112105717Y-103919175D01*
X112133961Y-103920386D01*
X112384072Y-103960000D01*
X112635928Y-103960000D01*
X112884669Y-103920602D01*
X113124184Y-103842780D01*
X113348575Y-103728446D01*
X113348581Y-103728442D01*
X113450697Y-103654250D01*
X113450698Y-103654250D01*
X112834025Y-103037578D01*
X112865258Y-103024641D01*
X112988097Y-102942563D01*
X113092563Y-102838097D01*
X113174641Y-102715258D01*
X113187577Y-102684025D01*
X113804250Y-103300698D01*
X113804250Y-103300697D01*
X113878442Y-103198581D01*
X113878446Y-103198575D01*
X113992780Y-102974184D01*
X114070602Y-102734669D01*
X114110000Y-102485928D01*
X114110000Y-102234071D01*
X114070602Y-101985330D01*
X113992780Y-101745815D01*
X113878442Y-101521416D01*
X113804250Y-101419301D01*
X113804250Y-101419300D01*
X113187577Y-102035973D01*
X113174641Y-102004742D01*
X113092563Y-101881903D01*
X112988097Y-101777437D01*
X112865258Y-101695359D01*
X112834024Y-101682421D01*
X113450698Y-101065748D01*
X113348583Y-100991557D01*
X113124184Y-100877219D01*
X112884669Y-100799397D01*
X112635928Y-100760000D01*
X112384072Y-100760000D01*
X112135330Y-100799397D01*
X111895815Y-100877219D01*
X111671413Y-100991559D01*
X111569301Y-101065747D01*
X111569300Y-101065748D01*
X112185974Y-101682421D01*
X112154742Y-101695359D01*
X112031903Y-101777437D01*
X111927437Y-101881903D01*
X111845359Y-102004742D01*
X111832421Y-102035974D01*
X111215748Y-101419300D01*
X111215747Y-101419301D01*
X111141559Y-101521413D01*
X111027219Y-101745815D01*
X110949397Y-101985330D01*
X110910000Y-102234071D01*
X110910000Y-102485928D01*
X110949397Y-102734669D01*
X111027219Y-102974184D01*
X111141557Y-103198583D01*
X111215748Y-103300697D01*
X111215748Y-103300698D01*
X111832421Y-102684024D01*
X111845359Y-102715258D01*
X111927437Y-102838097D01*
X112031903Y-102942563D01*
X112154742Y-103024641D01*
X112185974Y-103037577D01*
X111569300Y-103654250D01*
X111571598Y-103683449D01*
X111557233Y-103751827D01*
X111508181Y-103801583D01*
X111440016Y-103816921D01*
X111428583Y-103815650D01*
X111326611Y-103799500D01*
X111153389Y-103799500D01*
X111113728Y-103805781D01*
X110982302Y-103826597D01*
X110817552Y-103880128D01*
X110663211Y-103958768D01*
X110594770Y-104008494D01*
X110523072Y-104060586D01*
X110523070Y-104060588D01*
X110523069Y-104060588D01*
X110400588Y-104183069D01*
X110400588Y-104183070D01*
X110400586Y-104183072D01*
X110356859Y-104243256D01*
X110298768Y-104323211D01*
X110220128Y-104477552D01*
X110166597Y-104642302D01*
X110139500Y-104813389D01*
X107504211Y-104813389D01*
X107511399Y-90893713D01*
X110649500Y-90893713D01*
X110649500Y-91106287D01*
X110657295Y-91155500D01*
X110679942Y-91298494D01*
X110682754Y-91316243D01*
X110704147Y-91382085D01*
X110748444Y-91518414D01*
X110844951Y-91707820D01*
X110969890Y-91879786D01*
X111120213Y-92030109D01*
X111292179Y-92155048D01*
X111292181Y-92155049D01*
X111292184Y-92155051D01*
X111481588Y-92251557D01*
X111683757Y-92317246D01*
X111893713Y-92350500D01*
X111893714Y-92350500D01*
X112106286Y-92350500D01*
X112106287Y-92350500D01*
X112316243Y-92317246D01*
X112518412Y-92251557D01*
X112707816Y-92155051D01*
X112729789Y-92139086D01*
X112879786Y-92030109D01*
X112879788Y-92030106D01*
X112879792Y-92030104D01*
X113030104Y-91879792D01*
X113030106Y-91879788D01*
X113030109Y-91879786D01*
X113155048Y-91707820D01*
X113155047Y-91707820D01*
X113155051Y-91707816D01*
X113251557Y-91518412D01*
X113317246Y-91316243D01*
X113350500Y-91106287D01*
X113350500Y-90893713D01*
X113317246Y-90683757D01*
X113251557Y-90481588D01*
X113155051Y-90292184D01*
X113155049Y-90292181D01*
X113155048Y-90292179D01*
X113030109Y-90120213D01*
X112879786Y-89969890D01*
X112707820Y-89844951D01*
X112518414Y-89748444D01*
X112518413Y-89748443D01*
X112518412Y-89748443D01*
X112316243Y-89682754D01*
X112316241Y-89682753D01*
X112316240Y-89682753D01*
X112154957Y-89657208D01*
X112106287Y-89649500D01*
X111893713Y-89649500D01*
X111845042Y-89657208D01*
X111683760Y-89682753D01*
X111481585Y-89748444D01*
X111292179Y-89844951D01*
X111120213Y-89969890D01*
X110969890Y-90120213D01*
X110844951Y-90292179D01*
X110748444Y-90481585D01*
X110682753Y-90683760D01*
X110676816Y-90721246D01*
X110649500Y-90893713D01*
X107511399Y-90893713D01*
X107512478Y-88805100D01*
X107513985Y-88798864D01*
X107512512Y-88739309D01*
X107512515Y-88732837D01*
X107512670Y-88726729D01*
X107522734Y-88525693D01*
X107525036Y-88507340D01*
X107564334Y-88312996D01*
X107569345Y-88295186D01*
X107637146Y-88108870D01*
X107644760Y-88091992D01*
X107726801Y-87941280D01*
X107739553Y-87917854D01*
X107749584Y-87902313D01*
X107869265Y-87744224D01*
X107881506Y-87730344D01*
X108023389Y-87591851D01*
X108037569Y-87579943D01*
X108056908Y-87566025D01*
X108198489Y-87464130D01*
X108214280Y-87454470D01*
X108390664Y-87363911D01*
X108407704Y-87356715D01*
X108595614Y-87293435D01*
X108613531Y-87288858D01*
X108808768Y-87254271D01*
X108827188Y-87252412D01*
X109012981Y-87247608D01*
X109016178Y-87247568D01*
X109043879Y-87247568D01*
X109049867Y-87247715D01*
G37*
G04 #@! TD.AperFunction*
M02*
