M48
; DRILL file {KiCad 9.0.4} date 2025-09-21T01:01:59-0700
; FORMAT={-:-/ absolute / metric / decimal}
; #@! TF.CreationDate,2025-09-21T01:01:59-07:00
; #@! TF.GenerationSoftware,Kicad,Pcbnew,9.0.4
; #@! TF.FileFunction,NonPlated,1,2,NPTH
FMAT,2
METRIC
; #@! TA.AperFunction,NonPlated,NPTH,ComponentDrill
T1C1.700
; #@! TA.AperFunction,NonPlated,NPTH,ComponentDrill
T2C2.200
; #@! TA.AperFunction,NonPlated,NPTH,ComponentDrill
T3C4.000
%
G90
G05
T1
X111.18Y-124.28
X111.24Y-104.9
X121.34Y-124.28
X121.4Y-104.9
X130.36Y-124.28
X130.38Y-104.9
X140.52Y-124.28
X140.54Y-104.9
X149.36Y-124.28
X149.42Y-104.9
X159.52Y-124.28
X159.58Y-104.9
X168.38Y-124.28
X168.48Y-104.9
X178.54Y-124.28
X178.64Y-104.9
T2
X112.0Y-91.0
X112.0Y-136.0
X145.0Y-114.5
X194.0Y-91.0
X194.0Y-114.25
X194.0Y-136.0
T3
X116.26Y-124.28
X116.32Y-104.9
X135.44Y-124.28
X135.46Y-104.9
X154.44Y-124.28
X154.5Y-104.9
X173.46Y-124.28
X173.56Y-104.9
M30
