%TF.GenerationSoftware,KiCad,Pcbnew,9.0.4*%
%TF.CreationDate,2025-09-21T01:01:59-07:00*%
%TF.ProjectId,Macro_Pad,4d616372-6f5f-4506-9164-2e6b69636164,rev?*%
%TF.SameCoordinates,Original*%
%TF.FileFunction,Drillmap*%
%TF.FilePolarity,Positive*%
%FSLAX45Y45*%
G04 Gerber Fmt 4.5, Leading zero omitted, Abs format (unit mm)*
G04 Created by KiCad (PCBNEW 9.0.4) date 2025-09-21 01:01:59*
%MOMM*%
%LPD*%
G01*
G04 APERTURE LIST*
%ADD10C,0.100000*%
%ADD11C,0.200000*%
%ADD12C,0.170000*%
%ADD13C,0.220000*%
%ADD14C,0.400000*%
G04 APERTURE END LIST*
D10*
X20380000Y-8675000D02*
X10905914Y-8674707D01*
X10872512Y-14072666D02*
X20361244Y-14074342D01*
X10701201Y-8874537D02*
G75*
G02*
X10905914Y-8674715I195169J4827D01*
G01*
X20510054Y-13929911D02*
X20512002Y-8814988D01*
X10872522Y-14072666D02*
G75*
G02*
X10698608Y-13899830I-1412J172496D01*
G01*
X10701201Y-8874534D02*
X10698606Y-13899830D01*
X20380000Y-8675000D02*
G75*
G02*
X20512002Y-8814988I0J-132230D01*
G01*
X20510054Y-13930003D02*
G75*
G02*
X20361244Y-14074335I-144364J-37D01*
G01*
D11*
D12*
X11033000Y-12343000D02*
X11203000Y-12513000D01*
X11203000Y-12343000D02*
X11033000Y-12513000D01*
X11039000Y-10405000D02*
X11209000Y-10575000D01*
X11209000Y-10405000D02*
X11039000Y-10575000D01*
X12049000Y-12343000D02*
X12219000Y-12513000D01*
X12219000Y-12343000D02*
X12049000Y-12513000D01*
X12055000Y-10405000D02*
X12225000Y-10575000D01*
X12225000Y-10405000D02*
X12055000Y-10575000D01*
X12951000Y-12343000D02*
X13121000Y-12513000D01*
X13121000Y-12343000D02*
X12951000Y-12513000D01*
X12953000Y-10405000D02*
X13123000Y-10575000D01*
X13123000Y-10405000D02*
X12953000Y-10575000D01*
X13967000Y-12343000D02*
X14137000Y-12513000D01*
X14137000Y-12343000D02*
X13967000Y-12513000D01*
X13969000Y-10405000D02*
X14139000Y-10575000D01*
X14139000Y-10405000D02*
X13969000Y-10575000D01*
X14851000Y-12343000D02*
X15021000Y-12513000D01*
X15021000Y-12343000D02*
X14851000Y-12513000D01*
X14857000Y-10405000D02*
X15027000Y-10575000D01*
X15027000Y-10405000D02*
X14857000Y-10575000D01*
X15867000Y-12343000D02*
X16037000Y-12513000D01*
X16037000Y-12343000D02*
X15867000Y-12513000D01*
X15873000Y-10405000D02*
X16043000Y-10575000D01*
X16043000Y-10405000D02*
X15873000Y-10575000D01*
X16753000Y-12343000D02*
X16923000Y-12513000D01*
X16923000Y-12343000D02*
X16753000Y-12513000D01*
X16763000Y-10405000D02*
X16933000Y-10575000D01*
X16933000Y-10405000D02*
X16763000Y-10575000D01*
X17769000Y-12343000D02*
X17939000Y-12513000D01*
X17939000Y-12343000D02*
X17769000Y-12513000D01*
X17779000Y-10405000D02*
X17949000Y-10575000D01*
X17949000Y-10405000D02*
X17779000Y-10575000D01*
D13*
X11310000Y-9100000D02*
G75*
G02*
X11090000Y-9100000I-110000J0D01*
G01*
X11090000Y-9100000D02*
G75*
G02*
X11310000Y-9100000I110000J0D01*
G01*
X11310000Y-13600000D02*
G75*
G02*
X11090000Y-13600000I-110000J0D01*
G01*
X11090000Y-13600000D02*
G75*
G02*
X11310000Y-13600000I110000J0D01*
G01*
X14610000Y-11450000D02*
G75*
G02*
X14390000Y-11450000I-110000J0D01*
G01*
X14390000Y-11450000D02*
G75*
G02*
X14610000Y-11450000I110000J0D01*
G01*
X19510000Y-9100000D02*
G75*
G02*
X19290000Y-9100000I-110000J0D01*
G01*
X19290000Y-9100000D02*
G75*
G02*
X19510000Y-9100000I110000J0D01*
G01*
X19510000Y-11425000D02*
G75*
G02*
X19290000Y-11425000I-110000J0D01*
G01*
X19290000Y-11425000D02*
G75*
G02*
X19510000Y-11425000I110000J0D01*
G01*
X19510000Y-13600000D02*
G75*
G02*
X19290000Y-13600000I-110000J0D01*
G01*
X19290000Y-13600000D02*
G75*
G02*
X19510000Y-13600000I110000J0D01*
G01*
D14*
X11626000Y-12228000D02*
X11626000Y-12628000D01*
X11426000Y-12428000D02*
X11826000Y-12428000D01*
X11632000Y-10290000D02*
X11632000Y-10690000D01*
X11432000Y-10490000D02*
X11832000Y-10490000D01*
X13544000Y-12228000D02*
X13544000Y-12628000D01*
X13344000Y-12428000D02*
X13744000Y-12428000D01*
X13546000Y-10290000D02*
X13546000Y-10690000D01*
X13346000Y-10490000D02*
X13746000Y-10490000D01*
X15444000Y-12228000D02*
X15444000Y-12628000D01*
X15244000Y-12428000D02*
X15644000Y-12428000D01*
X15450000Y-10290000D02*
X15450000Y-10690000D01*
X15250000Y-10490000D02*
X15650000Y-10490000D01*
X17346000Y-12228000D02*
X17346000Y-12628000D01*
X17146000Y-12428000D02*
X17546000Y-12428000D01*
X17356000Y-10290000D02*
X17356000Y-10690000D01*
X17156000Y-10490000D02*
X17556000Y-10490000D01*
D11*
X10954383Y-14390887D02*
X10954383Y-14190887D01*
X10954383Y-14190887D02*
X11002002Y-14190887D01*
X11002002Y-14190887D02*
X11030573Y-14200411D01*
X11030573Y-14200411D02*
X11049621Y-14219459D01*
X11049621Y-14219459D02*
X11059145Y-14238506D01*
X11059145Y-14238506D02*
X11068668Y-14276602D01*
X11068668Y-14276602D02*
X11068668Y-14305173D01*
X11068668Y-14305173D02*
X11059145Y-14343268D01*
X11059145Y-14343268D02*
X11049621Y-14362316D01*
X11049621Y-14362316D02*
X11030573Y-14381364D01*
X11030573Y-14381364D02*
X11002002Y-14390887D01*
X11002002Y-14390887D02*
X10954383Y-14390887D01*
X11154383Y-14390887D02*
X11154383Y-14257554D01*
X11154383Y-14295649D02*
X11163906Y-14276602D01*
X11163906Y-14276602D02*
X11173430Y-14267078D01*
X11173430Y-14267078D02*
X11192478Y-14257554D01*
X11192478Y-14257554D02*
X11211525Y-14257554D01*
X11278192Y-14390887D02*
X11278192Y-14257554D01*
X11278192Y-14190887D02*
X11268668Y-14200411D01*
X11268668Y-14200411D02*
X11278192Y-14209935D01*
X11278192Y-14209935D02*
X11287716Y-14200411D01*
X11287716Y-14200411D02*
X11278192Y-14190887D01*
X11278192Y-14190887D02*
X11278192Y-14209935D01*
X11402002Y-14390887D02*
X11382954Y-14381364D01*
X11382954Y-14381364D02*
X11373430Y-14362316D01*
X11373430Y-14362316D02*
X11373430Y-14190887D01*
X11506763Y-14390887D02*
X11487716Y-14381364D01*
X11487716Y-14381364D02*
X11478192Y-14362316D01*
X11478192Y-14362316D02*
X11478192Y-14190887D01*
X11735335Y-14390887D02*
X11735335Y-14190887D01*
X11735335Y-14190887D02*
X11802002Y-14333744D01*
X11802002Y-14333744D02*
X11868668Y-14190887D01*
X11868668Y-14190887D02*
X11868668Y-14390887D01*
X12049621Y-14390887D02*
X12049621Y-14286125D01*
X12049621Y-14286125D02*
X12040097Y-14267078D01*
X12040097Y-14267078D02*
X12021049Y-14257554D01*
X12021049Y-14257554D02*
X11982954Y-14257554D01*
X11982954Y-14257554D02*
X11963906Y-14267078D01*
X12049621Y-14381364D02*
X12030573Y-14390887D01*
X12030573Y-14390887D02*
X11982954Y-14390887D01*
X11982954Y-14390887D02*
X11963906Y-14381364D01*
X11963906Y-14381364D02*
X11954383Y-14362316D01*
X11954383Y-14362316D02*
X11954383Y-14343268D01*
X11954383Y-14343268D02*
X11963906Y-14324221D01*
X11963906Y-14324221D02*
X11982954Y-14314697D01*
X11982954Y-14314697D02*
X12030573Y-14314697D01*
X12030573Y-14314697D02*
X12049621Y-14305173D01*
X12144859Y-14257554D02*
X12144859Y-14457554D01*
X12144859Y-14267078D02*
X12163906Y-14257554D01*
X12163906Y-14257554D02*
X12202002Y-14257554D01*
X12202002Y-14257554D02*
X12221049Y-14267078D01*
X12221049Y-14267078D02*
X12230573Y-14276602D01*
X12230573Y-14276602D02*
X12240097Y-14295649D01*
X12240097Y-14295649D02*
X12240097Y-14352792D01*
X12240097Y-14352792D02*
X12230573Y-14371840D01*
X12230573Y-14371840D02*
X12221049Y-14381364D01*
X12221049Y-14381364D02*
X12202002Y-14390887D01*
X12202002Y-14390887D02*
X12163906Y-14390887D01*
X12163906Y-14390887D02*
X12144859Y-14381364D01*
X12325811Y-14371840D02*
X12335335Y-14381364D01*
X12335335Y-14381364D02*
X12325811Y-14390887D01*
X12325811Y-14390887D02*
X12316287Y-14381364D01*
X12316287Y-14381364D02*
X12325811Y-14371840D01*
X12325811Y-14371840D02*
X12325811Y-14390887D01*
X12325811Y-14267078D02*
X12335335Y-14276602D01*
X12335335Y-14276602D02*
X12325811Y-14286125D01*
X12325811Y-14286125D02*
X12316287Y-14276602D01*
X12316287Y-14276602D02*
X12325811Y-14267078D01*
X12325811Y-14267078D02*
X12325811Y-14286125D01*
D12*
X10523606Y-14634404D02*
X10693606Y-14804404D01*
X10693606Y-14634404D02*
X10523606Y-14804404D01*
D11*
X11059145Y-14810887D02*
X10944859Y-14810887D01*
X11002002Y-14810887D02*
X11002002Y-14610887D01*
X11002002Y-14610887D02*
X10982954Y-14639459D01*
X10982954Y-14639459D02*
X10963906Y-14658506D01*
X10963906Y-14658506D02*
X10944859Y-14668030D01*
X11144859Y-14791840D02*
X11154383Y-14801364D01*
X11154383Y-14801364D02*
X11144859Y-14810887D01*
X11144859Y-14810887D02*
X11135335Y-14801364D01*
X11135335Y-14801364D02*
X11144859Y-14791840D01*
X11144859Y-14791840D02*
X11144859Y-14810887D01*
X11221049Y-14610887D02*
X11354383Y-14610887D01*
X11354383Y-14610887D02*
X11268668Y-14810887D01*
X11468668Y-14610887D02*
X11487716Y-14610887D01*
X11487716Y-14610887D02*
X11506764Y-14620411D01*
X11506764Y-14620411D02*
X11516287Y-14629935D01*
X11516287Y-14629935D02*
X11525811Y-14648983D01*
X11525811Y-14648983D02*
X11535335Y-14687078D01*
X11535335Y-14687078D02*
X11535335Y-14734697D01*
X11535335Y-14734697D02*
X11525811Y-14772792D01*
X11525811Y-14772792D02*
X11516287Y-14791840D01*
X11516287Y-14791840D02*
X11506764Y-14801364D01*
X11506764Y-14801364D02*
X11487716Y-14810887D01*
X11487716Y-14810887D02*
X11468668Y-14810887D01*
X11468668Y-14810887D02*
X11449621Y-14801364D01*
X11449621Y-14801364D02*
X11440097Y-14791840D01*
X11440097Y-14791840D02*
X11430573Y-14772792D01*
X11430573Y-14772792D02*
X11421049Y-14734697D01*
X11421049Y-14734697D02*
X11421049Y-14687078D01*
X11421049Y-14687078D02*
X11430573Y-14648983D01*
X11430573Y-14648983D02*
X11440097Y-14629935D01*
X11440097Y-14629935D02*
X11449621Y-14620411D01*
X11449621Y-14620411D02*
X11468668Y-14610887D01*
X11659144Y-14610887D02*
X11678192Y-14610887D01*
X11678192Y-14610887D02*
X11697240Y-14620411D01*
X11697240Y-14620411D02*
X11706764Y-14629935D01*
X11706764Y-14629935D02*
X11716287Y-14648983D01*
X11716287Y-14648983D02*
X11725811Y-14687078D01*
X11725811Y-14687078D02*
X11725811Y-14734697D01*
X11725811Y-14734697D02*
X11716287Y-14772792D01*
X11716287Y-14772792D02*
X11706764Y-14791840D01*
X11706764Y-14791840D02*
X11697240Y-14801364D01*
X11697240Y-14801364D02*
X11678192Y-14810887D01*
X11678192Y-14810887D02*
X11659144Y-14810887D01*
X11659144Y-14810887D02*
X11640097Y-14801364D01*
X11640097Y-14801364D02*
X11630573Y-14791840D01*
X11630573Y-14791840D02*
X11621049Y-14772792D01*
X11621049Y-14772792D02*
X11611525Y-14734697D01*
X11611525Y-14734697D02*
X11611525Y-14687078D01*
X11611525Y-14687078D02*
X11621049Y-14648983D01*
X11621049Y-14648983D02*
X11630573Y-14629935D01*
X11630573Y-14629935D02*
X11640097Y-14620411D01*
X11640097Y-14620411D02*
X11659144Y-14610887D01*
X11811525Y-14810887D02*
X11811525Y-14677554D01*
X11811525Y-14696602D02*
X11821049Y-14687078D01*
X11821049Y-14687078D02*
X11840097Y-14677554D01*
X11840097Y-14677554D02*
X11868668Y-14677554D01*
X11868668Y-14677554D02*
X11887716Y-14687078D01*
X11887716Y-14687078D02*
X11897240Y-14706125D01*
X11897240Y-14706125D02*
X11897240Y-14810887D01*
X11897240Y-14706125D02*
X11906764Y-14687078D01*
X11906764Y-14687078D02*
X11925811Y-14677554D01*
X11925811Y-14677554D02*
X11954383Y-14677554D01*
X11954383Y-14677554D02*
X11973430Y-14687078D01*
X11973430Y-14687078D02*
X11982954Y-14706125D01*
X11982954Y-14706125D02*
X11982954Y-14810887D01*
X12078192Y-14810887D02*
X12078192Y-14677554D01*
X12078192Y-14696602D02*
X12087716Y-14687078D01*
X12087716Y-14687078D02*
X12106764Y-14677554D01*
X12106764Y-14677554D02*
X12135335Y-14677554D01*
X12135335Y-14677554D02*
X12154383Y-14687078D01*
X12154383Y-14687078D02*
X12163906Y-14706125D01*
X12163906Y-14706125D02*
X12163906Y-14810887D01*
X12163906Y-14706125D02*
X12173430Y-14687078D01*
X12173430Y-14687078D02*
X12192478Y-14677554D01*
X12192478Y-14677554D02*
X12221049Y-14677554D01*
X12221049Y-14677554D02*
X12240097Y-14687078D01*
X12240097Y-14687078D02*
X12249621Y-14706125D01*
X12249621Y-14706125D02*
X12249621Y-14810887D01*
X12640097Y-14601364D02*
X12468668Y-14858506D01*
X12897240Y-14610887D02*
X12916288Y-14610887D01*
X12916288Y-14610887D02*
X12935335Y-14620411D01*
X12935335Y-14620411D02*
X12944859Y-14629935D01*
X12944859Y-14629935D02*
X12954383Y-14648983D01*
X12954383Y-14648983D02*
X12963907Y-14687078D01*
X12963907Y-14687078D02*
X12963907Y-14734697D01*
X12963907Y-14734697D02*
X12954383Y-14772792D01*
X12954383Y-14772792D02*
X12944859Y-14791840D01*
X12944859Y-14791840D02*
X12935335Y-14801364D01*
X12935335Y-14801364D02*
X12916288Y-14810887D01*
X12916288Y-14810887D02*
X12897240Y-14810887D01*
X12897240Y-14810887D02*
X12878192Y-14801364D01*
X12878192Y-14801364D02*
X12868668Y-14791840D01*
X12868668Y-14791840D02*
X12859145Y-14772792D01*
X12859145Y-14772792D02*
X12849621Y-14734697D01*
X12849621Y-14734697D02*
X12849621Y-14687078D01*
X12849621Y-14687078D02*
X12859145Y-14648983D01*
X12859145Y-14648983D02*
X12868668Y-14629935D01*
X12868668Y-14629935D02*
X12878192Y-14620411D01*
X12878192Y-14620411D02*
X12897240Y-14610887D01*
X13049621Y-14791840D02*
X13059145Y-14801364D01*
X13059145Y-14801364D02*
X13049621Y-14810887D01*
X13049621Y-14810887D02*
X13040097Y-14801364D01*
X13040097Y-14801364D02*
X13049621Y-14791840D01*
X13049621Y-14791840D02*
X13049621Y-14810887D01*
X13182954Y-14610887D02*
X13202002Y-14610887D01*
X13202002Y-14610887D02*
X13221049Y-14620411D01*
X13221049Y-14620411D02*
X13230573Y-14629935D01*
X13230573Y-14629935D02*
X13240097Y-14648983D01*
X13240097Y-14648983D02*
X13249621Y-14687078D01*
X13249621Y-14687078D02*
X13249621Y-14734697D01*
X13249621Y-14734697D02*
X13240097Y-14772792D01*
X13240097Y-14772792D02*
X13230573Y-14791840D01*
X13230573Y-14791840D02*
X13221049Y-14801364D01*
X13221049Y-14801364D02*
X13202002Y-14810887D01*
X13202002Y-14810887D02*
X13182954Y-14810887D01*
X13182954Y-14810887D02*
X13163907Y-14801364D01*
X13163907Y-14801364D02*
X13154383Y-14791840D01*
X13154383Y-14791840D02*
X13144859Y-14772792D01*
X13144859Y-14772792D02*
X13135335Y-14734697D01*
X13135335Y-14734697D02*
X13135335Y-14687078D01*
X13135335Y-14687078D02*
X13144859Y-14648983D01*
X13144859Y-14648983D02*
X13154383Y-14629935D01*
X13154383Y-14629935D02*
X13163907Y-14620411D01*
X13163907Y-14620411D02*
X13182954Y-14610887D01*
X13421049Y-14610887D02*
X13382954Y-14610887D01*
X13382954Y-14610887D02*
X13363907Y-14620411D01*
X13363907Y-14620411D02*
X13354383Y-14629935D01*
X13354383Y-14629935D02*
X13335335Y-14658506D01*
X13335335Y-14658506D02*
X13325811Y-14696602D01*
X13325811Y-14696602D02*
X13325811Y-14772792D01*
X13325811Y-14772792D02*
X13335335Y-14791840D01*
X13335335Y-14791840D02*
X13344859Y-14801364D01*
X13344859Y-14801364D02*
X13363907Y-14810887D01*
X13363907Y-14810887D02*
X13402002Y-14810887D01*
X13402002Y-14810887D02*
X13421049Y-14801364D01*
X13421049Y-14801364D02*
X13430573Y-14791840D01*
X13430573Y-14791840D02*
X13440097Y-14772792D01*
X13440097Y-14772792D02*
X13440097Y-14725173D01*
X13440097Y-14725173D02*
X13430573Y-14706125D01*
X13430573Y-14706125D02*
X13421049Y-14696602D01*
X13421049Y-14696602D02*
X13402002Y-14687078D01*
X13402002Y-14687078D02*
X13363907Y-14687078D01*
X13363907Y-14687078D02*
X13344859Y-14696602D01*
X13344859Y-14696602D02*
X13335335Y-14706125D01*
X13335335Y-14706125D02*
X13325811Y-14725173D01*
X13611526Y-14610887D02*
X13573430Y-14610887D01*
X13573430Y-14610887D02*
X13554383Y-14620411D01*
X13554383Y-14620411D02*
X13544859Y-14629935D01*
X13544859Y-14629935D02*
X13525811Y-14658506D01*
X13525811Y-14658506D02*
X13516288Y-14696602D01*
X13516288Y-14696602D02*
X13516288Y-14772792D01*
X13516288Y-14772792D02*
X13525811Y-14791840D01*
X13525811Y-14791840D02*
X13535335Y-14801364D01*
X13535335Y-14801364D02*
X13554383Y-14810887D01*
X13554383Y-14810887D02*
X13592478Y-14810887D01*
X13592478Y-14810887D02*
X13611526Y-14801364D01*
X13611526Y-14801364D02*
X13621049Y-14791840D01*
X13621049Y-14791840D02*
X13630573Y-14772792D01*
X13630573Y-14772792D02*
X13630573Y-14725173D01*
X13630573Y-14725173D02*
X13621049Y-14706125D01*
X13621049Y-14706125D02*
X13611526Y-14696602D01*
X13611526Y-14696602D02*
X13592478Y-14687078D01*
X13592478Y-14687078D02*
X13554383Y-14687078D01*
X13554383Y-14687078D02*
X13535335Y-14696602D01*
X13535335Y-14696602D02*
X13525811Y-14706125D01*
X13525811Y-14706125D02*
X13516288Y-14725173D01*
X13725811Y-14810887D02*
X13763907Y-14810887D01*
X13763907Y-14810887D02*
X13782954Y-14801364D01*
X13782954Y-14801364D02*
X13792478Y-14791840D01*
X13792478Y-14791840D02*
X13811526Y-14763268D01*
X13811526Y-14763268D02*
X13821049Y-14725173D01*
X13821049Y-14725173D02*
X13821049Y-14648983D01*
X13821049Y-14648983D02*
X13811526Y-14629935D01*
X13811526Y-14629935D02*
X13802002Y-14620411D01*
X13802002Y-14620411D02*
X13782954Y-14610887D01*
X13782954Y-14610887D02*
X13744859Y-14610887D01*
X13744859Y-14610887D02*
X13725811Y-14620411D01*
X13725811Y-14620411D02*
X13716288Y-14629935D01*
X13716288Y-14629935D02*
X13706764Y-14648983D01*
X13706764Y-14648983D02*
X13706764Y-14696602D01*
X13706764Y-14696602D02*
X13716288Y-14715649D01*
X13716288Y-14715649D02*
X13725811Y-14725173D01*
X13725811Y-14725173D02*
X13744859Y-14734697D01*
X13744859Y-14734697D02*
X13782954Y-14734697D01*
X13782954Y-14734697D02*
X13802002Y-14725173D01*
X13802002Y-14725173D02*
X13811526Y-14715649D01*
X13811526Y-14715649D02*
X13821049Y-14696602D01*
X13897240Y-14610887D02*
X13897240Y-14648983D01*
X13973430Y-14610887D02*
X13973430Y-14648983D01*
X14268669Y-14887078D02*
X14259145Y-14877554D01*
X14259145Y-14877554D02*
X14240097Y-14848983D01*
X14240097Y-14848983D02*
X14230573Y-14829935D01*
X14230573Y-14829935D02*
X14221050Y-14801364D01*
X14221050Y-14801364D02*
X14211526Y-14753744D01*
X14211526Y-14753744D02*
X14211526Y-14715649D01*
X14211526Y-14715649D02*
X14221050Y-14668030D01*
X14221050Y-14668030D02*
X14230573Y-14639459D01*
X14230573Y-14639459D02*
X14240097Y-14620411D01*
X14240097Y-14620411D02*
X14259145Y-14591840D01*
X14259145Y-14591840D02*
X14268669Y-14582316D01*
X14449621Y-14810887D02*
X14335335Y-14810887D01*
X14392478Y-14810887D02*
X14392478Y-14610887D01*
X14392478Y-14610887D02*
X14373430Y-14639459D01*
X14373430Y-14639459D02*
X14354383Y-14658506D01*
X14354383Y-14658506D02*
X14335335Y-14668030D01*
X14621050Y-14610887D02*
X14582954Y-14610887D01*
X14582954Y-14610887D02*
X14563907Y-14620411D01*
X14563907Y-14620411D02*
X14554383Y-14629935D01*
X14554383Y-14629935D02*
X14535335Y-14658506D01*
X14535335Y-14658506D02*
X14525811Y-14696602D01*
X14525811Y-14696602D02*
X14525811Y-14772792D01*
X14525811Y-14772792D02*
X14535335Y-14791840D01*
X14535335Y-14791840D02*
X14544859Y-14801364D01*
X14544859Y-14801364D02*
X14563907Y-14810887D01*
X14563907Y-14810887D02*
X14602002Y-14810887D01*
X14602002Y-14810887D02*
X14621050Y-14801364D01*
X14621050Y-14801364D02*
X14630573Y-14791840D01*
X14630573Y-14791840D02*
X14640097Y-14772792D01*
X14640097Y-14772792D02*
X14640097Y-14725173D01*
X14640097Y-14725173D02*
X14630573Y-14706125D01*
X14630573Y-14706125D02*
X14621050Y-14696602D01*
X14621050Y-14696602D02*
X14602002Y-14687078D01*
X14602002Y-14687078D02*
X14563907Y-14687078D01*
X14563907Y-14687078D02*
X14544859Y-14696602D01*
X14544859Y-14696602D02*
X14535335Y-14706125D01*
X14535335Y-14706125D02*
X14525811Y-14725173D01*
X14878192Y-14810887D02*
X14878192Y-14610887D01*
X14963907Y-14810887D02*
X14963907Y-14706125D01*
X14963907Y-14706125D02*
X14954383Y-14687078D01*
X14954383Y-14687078D02*
X14935335Y-14677554D01*
X14935335Y-14677554D02*
X14906764Y-14677554D01*
X14906764Y-14677554D02*
X14887716Y-14687078D01*
X14887716Y-14687078D02*
X14878192Y-14696602D01*
X15087716Y-14810887D02*
X15068669Y-14801364D01*
X15068669Y-14801364D02*
X15059145Y-14791840D01*
X15059145Y-14791840D02*
X15049621Y-14772792D01*
X15049621Y-14772792D02*
X15049621Y-14715649D01*
X15049621Y-14715649D02*
X15059145Y-14696602D01*
X15059145Y-14696602D02*
X15068669Y-14687078D01*
X15068669Y-14687078D02*
X15087716Y-14677554D01*
X15087716Y-14677554D02*
X15116288Y-14677554D01*
X15116288Y-14677554D02*
X15135335Y-14687078D01*
X15135335Y-14687078D02*
X15144859Y-14696602D01*
X15144859Y-14696602D02*
X15154383Y-14715649D01*
X15154383Y-14715649D02*
X15154383Y-14772792D01*
X15154383Y-14772792D02*
X15144859Y-14791840D01*
X15144859Y-14791840D02*
X15135335Y-14801364D01*
X15135335Y-14801364D02*
X15116288Y-14810887D01*
X15116288Y-14810887D02*
X15087716Y-14810887D01*
X15268669Y-14810887D02*
X15249621Y-14801364D01*
X15249621Y-14801364D02*
X15240097Y-14782316D01*
X15240097Y-14782316D02*
X15240097Y-14610887D01*
X15421050Y-14801364D02*
X15402002Y-14810887D01*
X15402002Y-14810887D02*
X15363907Y-14810887D01*
X15363907Y-14810887D02*
X15344859Y-14801364D01*
X15344859Y-14801364D02*
X15335335Y-14782316D01*
X15335335Y-14782316D02*
X15335335Y-14706125D01*
X15335335Y-14706125D02*
X15344859Y-14687078D01*
X15344859Y-14687078D02*
X15363907Y-14677554D01*
X15363907Y-14677554D02*
X15402002Y-14677554D01*
X15402002Y-14677554D02*
X15421050Y-14687078D01*
X15421050Y-14687078D02*
X15430573Y-14706125D01*
X15430573Y-14706125D02*
X15430573Y-14725173D01*
X15430573Y-14725173D02*
X15335335Y-14744221D01*
X15506764Y-14801364D02*
X15525812Y-14810887D01*
X15525812Y-14810887D02*
X15563907Y-14810887D01*
X15563907Y-14810887D02*
X15582954Y-14801364D01*
X15582954Y-14801364D02*
X15592478Y-14782316D01*
X15592478Y-14782316D02*
X15592478Y-14772792D01*
X15592478Y-14772792D02*
X15582954Y-14753744D01*
X15582954Y-14753744D02*
X15563907Y-14744221D01*
X15563907Y-14744221D02*
X15535335Y-14744221D01*
X15535335Y-14744221D02*
X15516288Y-14734697D01*
X15516288Y-14734697D02*
X15506764Y-14715649D01*
X15506764Y-14715649D02*
X15506764Y-14706125D01*
X15506764Y-14706125D02*
X15516288Y-14687078D01*
X15516288Y-14687078D02*
X15535335Y-14677554D01*
X15535335Y-14677554D02*
X15563907Y-14677554D01*
X15563907Y-14677554D02*
X15582954Y-14687078D01*
X15659145Y-14887078D02*
X15668669Y-14877554D01*
X15668669Y-14877554D02*
X15687716Y-14848983D01*
X15687716Y-14848983D02*
X15697240Y-14829935D01*
X15697240Y-14829935D02*
X15706764Y-14801364D01*
X15706764Y-14801364D02*
X15716288Y-14753744D01*
X15716288Y-14753744D02*
X15716288Y-14715649D01*
X15716288Y-14715649D02*
X15706764Y-14668030D01*
X15706764Y-14668030D02*
X15697240Y-14639459D01*
X15697240Y-14639459D02*
X15687716Y-14620411D01*
X15687716Y-14620411D02*
X15668669Y-14591840D01*
X15668669Y-14591840D02*
X15659145Y-14582316D01*
X16021050Y-14887078D02*
X16011526Y-14877554D01*
X16011526Y-14877554D02*
X15992478Y-14848983D01*
X15992478Y-14848983D02*
X15982954Y-14829935D01*
X15982954Y-14829935D02*
X15973431Y-14801364D01*
X15973431Y-14801364D02*
X15963907Y-14753744D01*
X15963907Y-14753744D02*
X15963907Y-14715649D01*
X15963907Y-14715649D02*
X15973431Y-14668030D01*
X15973431Y-14668030D02*
X15982954Y-14639459D01*
X15982954Y-14639459D02*
X15992478Y-14620411D01*
X15992478Y-14620411D02*
X16011526Y-14591840D01*
X16011526Y-14591840D02*
X16021050Y-14582316D01*
X16097240Y-14677554D02*
X16097240Y-14810887D01*
X16097240Y-14696602D02*
X16106764Y-14687078D01*
X16106764Y-14687078D02*
X16125812Y-14677554D01*
X16125812Y-14677554D02*
X16154383Y-14677554D01*
X16154383Y-14677554D02*
X16173431Y-14687078D01*
X16173431Y-14687078D02*
X16182954Y-14706125D01*
X16182954Y-14706125D02*
X16182954Y-14810887D01*
X16306764Y-14810887D02*
X16287716Y-14801364D01*
X16287716Y-14801364D02*
X16278193Y-14791840D01*
X16278193Y-14791840D02*
X16268669Y-14772792D01*
X16268669Y-14772792D02*
X16268669Y-14715649D01*
X16268669Y-14715649D02*
X16278193Y-14696602D01*
X16278193Y-14696602D02*
X16287716Y-14687078D01*
X16287716Y-14687078D02*
X16306764Y-14677554D01*
X16306764Y-14677554D02*
X16335335Y-14677554D01*
X16335335Y-14677554D02*
X16354383Y-14687078D01*
X16354383Y-14687078D02*
X16363907Y-14696602D01*
X16363907Y-14696602D02*
X16373431Y-14715649D01*
X16373431Y-14715649D02*
X16373431Y-14772792D01*
X16373431Y-14772792D02*
X16363907Y-14791840D01*
X16363907Y-14791840D02*
X16354383Y-14801364D01*
X16354383Y-14801364D02*
X16335335Y-14810887D01*
X16335335Y-14810887D02*
X16306764Y-14810887D01*
X16430574Y-14677554D02*
X16506764Y-14677554D01*
X16459145Y-14610887D02*
X16459145Y-14782316D01*
X16459145Y-14782316D02*
X16468669Y-14801364D01*
X16468669Y-14801364D02*
X16487716Y-14810887D01*
X16487716Y-14810887D02*
X16506764Y-14810887D01*
X16725812Y-14677554D02*
X16725812Y-14877554D01*
X16725812Y-14687078D02*
X16744859Y-14677554D01*
X16744859Y-14677554D02*
X16782955Y-14677554D01*
X16782955Y-14677554D02*
X16802002Y-14687078D01*
X16802002Y-14687078D02*
X16811526Y-14696602D01*
X16811526Y-14696602D02*
X16821050Y-14715649D01*
X16821050Y-14715649D02*
X16821050Y-14772792D01*
X16821050Y-14772792D02*
X16811526Y-14791840D01*
X16811526Y-14791840D02*
X16802002Y-14801364D01*
X16802002Y-14801364D02*
X16782955Y-14810887D01*
X16782955Y-14810887D02*
X16744859Y-14810887D01*
X16744859Y-14810887D02*
X16725812Y-14801364D01*
X16935336Y-14810887D02*
X16916288Y-14801364D01*
X16916288Y-14801364D02*
X16906764Y-14782316D01*
X16906764Y-14782316D02*
X16906764Y-14610887D01*
X17097240Y-14810887D02*
X17097240Y-14706125D01*
X17097240Y-14706125D02*
X17087717Y-14687078D01*
X17087717Y-14687078D02*
X17068669Y-14677554D01*
X17068669Y-14677554D02*
X17030574Y-14677554D01*
X17030574Y-14677554D02*
X17011526Y-14687078D01*
X17097240Y-14801364D02*
X17078193Y-14810887D01*
X17078193Y-14810887D02*
X17030574Y-14810887D01*
X17030574Y-14810887D02*
X17011526Y-14801364D01*
X17011526Y-14801364D02*
X17002002Y-14782316D01*
X17002002Y-14782316D02*
X17002002Y-14763268D01*
X17002002Y-14763268D02*
X17011526Y-14744221D01*
X17011526Y-14744221D02*
X17030574Y-14734697D01*
X17030574Y-14734697D02*
X17078193Y-14734697D01*
X17078193Y-14734697D02*
X17097240Y-14725173D01*
X17163907Y-14677554D02*
X17240097Y-14677554D01*
X17192478Y-14610887D02*
X17192478Y-14782316D01*
X17192478Y-14782316D02*
X17202002Y-14801364D01*
X17202002Y-14801364D02*
X17221050Y-14810887D01*
X17221050Y-14810887D02*
X17240097Y-14810887D01*
X17382955Y-14801364D02*
X17363907Y-14810887D01*
X17363907Y-14810887D02*
X17325812Y-14810887D01*
X17325812Y-14810887D02*
X17306764Y-14801364D01*
X17306764Y-14801364D02*
X17297240Y-14782316D01*
X17297240Y-14782316D02*
X17297240Y-14706125D01*
X17297240Y-14706125D02*
X17306764Y-14687078D01*
X17306764Y-14687078D02*
X17325812Y-14677554D01*
X17325812Y-14677554D02*
X17363907Y-14677554D01*
X17363907Y-14677554D02*
X17382955Y-14687078D01*
X17382955Y-14687078D02*
X17392478Y-14706125D01*
X17392478Y-14706125D02*
X17392478Y-14725173D01*
X17392478Y-14725173D02*
X17297240Y-14744221D01*
X17563907Y-14810887D02*
X17563907Y-14610887D01*
X17563907Y-14801364D02*
X17544859Y-14810887D01*
X17544859Y-14810887D02*
X17506764Y-14810887D01*
X17506764Y-14810887D02*
X17487717Y-14801364D01*
X17487717Y-14801364D02*
X17478193Y-14791840D01*
X17478193Y-14791840D02*
X17468669Y-14772792D01*
X17468669Y-14772792D02*
X17468669Y-14715649D01*
X17468669Y-14715649D02*
X17478193Y-14696602D01*
X17478193Y-14696602D02*
X17487717Y-14687078D01*
X17487717Y-14687078D02*
X17506764Y-14677554D01*
X17506764Y-14677554D02*
X17544859Y-14677554D01*
X17544859Y-14677554D02*
X17563907Y-14687078D01*
X17640098Y-14887078D02*
X17649621Y-14877554D01*
X17649621Y-14877554D02*
X17668669Y-14848983D01*
X17668669Y-14848983D02*
X17678193Y-14829935D01*
X17678193Y-14829935D02*
X17687717Y-14801364D01*
X17687717Y-14801364D02*
X17697240Y-14753744D01*
X17697240Y-14753744D02*
X17697240Y-14715649D01*
X17697240Y-14715649D02*
X17687717Y-14668030D01*
X17687717Y-14668030D02*
X17678193Y-14639459D01*
X17678193Y-14639459D02*
X17668669Y-14620411D01*
X17668669Y-14620411D02*
X17649621Y-14591840D01*
X17649621Y-14591840D02*
X17640098Y-14582316D01*
X10693606Y-15009404D02*
G75*
G02*
X10493606Y-15009404I-100000J0D01*
G01*
X10493606Y-15009404D02*
G75*
G02*
X10693606Y-15009404I100000J0D01*
G01*
X10944859Y-14919935D02*
X10954383Y-14910411D01*
X10954383Y-14910411D02*
X10973430Y-14900887D01*
X10973430Y-14900887D02*
X11021049Y-14900887D01*
X11021049Y-14900887D02*
X11040097Y-14910411D01*
X11040097Y-14910411D02*
X11049621Y-14919935D01*
X11049621Y-14919935D02*
X11059145Y-14938983D01*
X11059145Y-14938983D02*
X11059145Y-14958030D01*
X11059145Y-14958030D02*
X11049621Y-14986602D01*
X11049621Y-14986602D02*
X10935335Y-15100887D01*
X10935335Y-15100887D02*
X11059145Y-15100887D01*
X11144859Y-15081840D02*
X11154383Y-15091364D01*
X11154383Y-15091364D02*
X11144859Y-15100887D01*
X11144859Y-15100887D02*
X11135335Y-15091364D01*
X11135335Y-15091364D02*
X11144859Y-15081840D01*
X11144859Y-15081840D02*
X11144859Y-15100887D01*
X11230573Y-14919935D02*
X11240097Y-14910411D01*
X11240097Y-14910411D02*
X11259144Y-14900887D01*
X11259144Y-14900887D02*
X11306764Y-14900887D01*
X11306764Y-14900887D02*
X11325811Y-14910411D01*
X11325811Y-14910411D02*
X11335335Y-14919935D01*
X11335335Y-14919935D02*
X11344859Y-14938983D01*
X11344859Y-14938983D02*
X11344859Y-14958030D01*
X11344859Y-14958030D02*
X11335335Y-14986602D01*
X11335335Y-14986602D02*
X11221049Y-15100887D01*
X11221049Y-15100887D02*
X11344859Y-15100887D01*
X11468668Y-14900887D02*
X11487716Y-14900887D01*
X11487716Y-14900887D02*
X11506764Y-14910411D01*
X11506764Y-14910411D02*
X11516287Y-14919935D01*
X11516287Y-14919935D02*
X11525811Y-14938983D01*
X11525811Y-14938983D02*
X11535335Y-14977078D01*
X11535335Y-14977078D02*
X11535335Y-15024697D01*
X11535335Y-15024697D02*
X11525811Y-15062792D01*
X11525811Y-15062792D02*
X11516287Y-15081840D01*
X11516287Y-15081840D02*
X11506764Y-15091364D01*
X11506764Y-15091364D02*
X11487716Y-15100887D01*
X11487716Y-15100887D02*
X11468668Y-15100887D01*
X11468668Y-15100887D02*
X11449621Y-15091364D01*
X11449621Y-15091364D02*
X11440097Y-15081840D01*
X11440097Y-15081840D02*
X11430573Y-15062792D01*
X11430573Y-15062792D02*
X11421049Y-15024697D01*
X11421049Y-15024697D02*
X11421049Y-14977078D01*
X11421049Y-14977078D02*
X11430573Y-14938983D01*
X11430573Y-14938983D02*
X11440097Y-14919935D01*
X11440097Y-14919935D02*
X11449621Y-14910411D01*
X11449621Y-14910411D02*
X11468668Y-14900887D01*
X11659144Y-14900887D02*
X11678192Y-14900887D01*
X11678192Y-14900887D02*
X11697240Y-14910411D01*
X11697240Y-14910411D02*
X11706764Y-14919935D01*
X11706764Y-14919935D02*
X11716287Y-14938983D01*
X11716287Y-14938983D02*
X11725811Y-14977078D01*
X11725811Y-14977078D02*
X11725811Y-15024697D01*
X11725811Y-15024697D02*
X11716287Y-15062792D01*
X11716287Y-15062792D02*
X11706764Y-15081840D01*
X11706764Y-15081840D02*
X11697240Y-15091364D01*
X11697240Y-15091364D02*
X11678192Y-15100887D01*
X11678192Y-15100887D02*
X11659144Y-15100887D01*
X11659144Y-15100887D02*
X11640097Y-15091364D01*
X11640097Y-15091364D02*
X11630573Y-15081840D01*
X11630573Y-15081840D02*
X11621049Y-15062792D01*
X11621049Y-15062792D02*
X11611525Y-15024697D01*
X11611525Y-15024697D02*
X11611525Y-14977078D01*
X11611525Y-14977078D02*
X11621049Y-14938983D01*
X11621049Y-14938983D02*
X11630573Y-14919935D01*
X11630573Y-14919935D02*
X11640097Y-14910411D01*
X11640097Y-14910411D02*
X11659144Y-14900887D01*
X11811525Y-15100887D02*
X11811525Y-14967554D01*
X11811525Y-14986602D02*
X11821049Y-14977078D01*
X11821049Y-14977078D02*
X11840097Y-14967554D01*
X11840097Y-14967554D02*
X11868668Y-14967554D01*
X11868668Y-14967554D02*
X11887716Y-14977078D01*
X11887716Y-14977078D02*
X11897240Y-14996125D01*
X11897240Y-14996125D02*
X11897240Y-15100887D01*
X11897240Y-14996125D02*
X11906764Y-14977078D01*
X11906764Y-14977078D02*
X11925811Y-14967554D01*
X11925811Y-14967554D02*
X11954383Y-14967554D01*
X11954383Y-14967554D02*
X11973430Y-14977078D01*
X11973430Y-14977078D02*
X11982954Y-14996125D01*
X11982954Y-14996125D02*
X11982954Y-15100887D01*
X12078192Y-15100887D02*
X12078192Y-14967554D01*
X12078192Y-14986602D02*
X12087716Y-14977078D01*
X12087716Y-14977078D02*
X12106764Y-14967554D01*
X12106764Y-14967554D02*
X12135335Y-14967554D01*
X12135335Y-14967554D02*
X12154383Y-14977078D01*
X12154383Y-14977078D02*
X12163906Y-14996125D01*
X12163906Y-14996125D02*
X12163906Y-15100887D01*
X12163906Y-14996125D02*
X12173430Y-14977078D01*
X12173430Y-14977078D02*
X12192478Y-14967554D01*
X12192478Y-14967554D02*
X12221049Y-14967554D01*
X12221049Y-14967554D02*
X12240097Y-14977078D01*
X12240097Y-14977078D02*
X12249621Y-14996125D01*
X12249621Y-14996125D02*
X12249621Y-15100887D01*
X12640097Y-14891364D02*
X12468668Y-15148506D01*
X12897240Y-14900887D02*
X12916288Y-14900887D01*
X12916288Y-14900887D02*
X12935335Y-14910411D01*
X12935335Y-14910411D02*
X12944859Y-14919935D01*
X12944859Y-14919935D02*
X12954383Y-14938983D01*
X12954383Y-14938983D02*
X12963907Y-14977078D01*
X12963907Y-14977078D02*
X12963907Y-15024697D01*
X12963907Y-15024697D02*
X12954383Y-15062792D01*
X12954383Y-15062792D02*
X12944859Y-15081840D01*
X12944859Y-15081840D02*
X12935335Y-15091364D01*
X12935335Y-15091364D02*
X12916288Y-15100887D01*
X12916288Y-15100887D02*
X12897240Y-15100887D01*
X12897240Y-15100887D02*
X12878192Y-15091364D01*
X12878192Y-15091364D02*
X12868668Y-15081840D01*
X12868668Y-15081840D02*
X12859145Y-15062792D01*
X12859145Y-15062792D02*
X12849621Y-15024697D01*
X12849621Y-15024697D02*
X12849621Y-14977078D01*
X12849621Y-14977078D02*
X12859145Y-14938983D01*
X12859145Y-14938983D02*
X12868668Y-14919935D01*
X12868668Y-14919935D02*
X12878192Y-14910411D01*
X12878192Y-14910411D02*
X12897240Y-14900887D01*
X13049621Y-15081840D02*
X13059145Y-15091364D01*
X13059145Y-15091364D02*
X13049621Y-15100887D01*
X13049621Y-15100887D02*
X13040097Y-15091364D01*
X13040097Y-15091364D02*
X13049621Y-15081840D01*
X13049621Y-15081840D02*
X13049621Y-15100887D01*
X13182954Y-14900887D02*
X13202002Y-14900887D01*
X13202002Y-14900887D02*
X13221049Y-14910411D01*
X13221049Y-14910411D02*
X13230573Y-14919935D01*
X13230573Y-14919935D02*
X13240097Y-14938983D01*
X13240097Y-14938983D02*
X13249621Y-14977078D01*
X13249621Y-14977078D02*
X13249621Y-15024697D01*
X13249621Y-15024697D02*
X13240097Y-15062792D01*
X13240097Y-15062792D02*
X13230573Y-15081840D01*
X13230573Y-15081840D02*
X13221049Y-15091364D01*
X13221049Y-15091364D02*
X13202002Y-15100887D01*
X13202002Y-15100887D02*
X13182954Y-15100887D01*
X13182954Y-15100887D02*
X13163907Y-15091364D01*
X13163907Y-15091364D02*
X13154383Y-15081840D01*
X13154383Y-15081840D02*
X13144859Y-15062792D01*
X13144859Y-15062792D02*
X13135335Y-15024697D01*
X13135335Y-15024697D02*
X13135335Y-14977078D01*
X13135335Y-14977078D02*
X13144859Y-14938983D01*
X13144859Y-14938983D02*
X13154383Y-14919935D01*
X13154383Y-14919935D02*
X13163907Y-14910411D01*
X13163907Y-14910411D02*
X13182954Y-14900887D01*
X13363907Y-14986602D02*
X13344859Y-14977078D01*
X13344859Y-14977078D02*
X13335335Y-14967554D01*
X13335335Y-14967554D02*
X13325811Y-14948506D01*
X13325811Y-14948506D02*
X13325811Y-14938983D01*
X13325811Y-14938983D02*
X13335335Y-14919935D01*
X13335335Y-14919935D02*
X13344859Y-14910411D01*
X13344859Y-14910411D02*
X13363907Y-14900887D01*
X13363907Y-14900887D02*
X13402002Y-14900887D01*
X13402002Y-14900887D02*
X13421049Y-14910411D01*
X13421049Y-14910411D02*
X13430573Y-14919935D01*
X13430573Y-14919935D02*
X13440097Y-14938983D01*
X13440097Y-14938983D02*
X13440097Y-14948506D01*
X13440097Y-14948506D02*
X13430573Y-14967554D01*
X13430573Y-14967554D02*
X13421049Y-14977078D01*
X13421049Y-14977078D02*
X13402002Y-14986602D01*
X13402002Y-14986602D02*
X13363907Y-14986602D01*
X13363907Y-14986602D02*
X13344859Y-14996125D01*
X13344859Y-14996125D02*
X13335335Y-15005649D01*
X13335335Y-15005649D02*
X13325811Y-15024697D01*
X13325811Y-15024697D02*
X13325811Y-15062792D01*
X13325811Y-15062792D02*
X13335335Y-15081840D01*
X13335335Y-15081840D02*
X13344859Y-15091364D01*
X13344859Y-15091364D02*
X13363907Y-15100887D01*
X13363907Y-15100887D02*
X13402002Y-15100887D01*
X13402002Y-15100887D02*
X13421049Y-15091364D01*
X13421049Y-15091364D02*
X13430573Y-15081840D01*
X13430573Y-15081840D02*
X13440097Y-15062792D01*
X13440097Y-15062792D02*
X13440097Y-15024697D01*
X13440097Y-15024697D02*
X13430573Y-15005649D01*
X13430573Y-15005649D02*
X13421049Y-14996125D01*
X13421049Y-14996125D02*
X13402002Y-14986602D01*
X13611526Y-14900887D02*
X13573430Y-14900887D01*
X13573430Y-14900887D02*
X13554383Y-14910411D01*
X13554383Y-14910411D02*
X13544859Y-14919935D01*
X13544859Y-14919935D02*
X13525811Y-14948506D01*
X13525811Y-14948506D02*
X13516288Y-14986602D01*
X13516288Y-14986602D02*
X13516288Y-15062792D01*
X13516288Y-15062792D02*
X13525811Y-15081840D01*
X13525811Y-15081840D02*
X13535335Y-15091364D01*
X13535335Y-15091364D02*
X13554383Y-15100887D01*
X13554383Y-15100887D02*
X13592478Y-15100887D01*
X13592478Y-15100887D02*
X13611526Y-15091364D01*
X13611526Y-15091364D02*
X13621049Y-15081840D01*
X13621049Y-15081840D02*
X13630573Y-15062792D01*
X13630573Y-15062792D02*
X13630573Y-15015173D01*
X13630573Y-15015173D02*
X13621049Y-14996125D01*
X13621049Y-14996125D02*
X13611526Y-14986602D01*
X13611526Y-14986602D02*
X13592478Y-14977078D01*
X13592478Y-14977078D02*
X13554383Y-14977078D01*
X13554383Y-14977078D02*
X13535335Y-14986602D01*
X13535335Y-14986602D02*
X13525811Y-14996125D01*
X13525811Y-14996125D02*
X13516288Y-15015173D01*
X13802002Y-14900887D02*
X13763907Y-14900887D01*
X13763907Y-14900887D02*
X13744859Y-14910411D01*
X13744859Y-14910411D02*
X13735335Y-14919935D01*
X13735335Y-14919935D02*
X13716288Y-14948506D01*
X13716288Y-14948506D02*
X13706764Y-14986602D01*
X13706764Y-14986602D02*
X13706764Y-15062792D01*
X13706764Y-15062792D02*
X13716288Y-15081840D01*
X13716288Y-15081840D02*
X13725811Y-15091364D01*
X13725811Y-15091364D02*
X13744859Y-15100887D01*
X13744859Y-15100887D02*
X13782954Y-15100887D01*
X13782954Y-15100887D02*
X13802002Y-15091364D01*
X13802002Y-15091364D02*
X13811526Y-15081840D01*
X13811526Y-15081840D02*
X13821049Y-15062792D01*
X13821049Y-15062792D02*
X13821049Y-15015173D01*
X13821049Y-15015173D02*
X13811526Y-14996125D01*
X13811526Y-14996125D02*
X13802002Y-14986602D01*
X13802002Y-14986602D02*
X13782954Y-14977078D01*
X13782954Y-14977078D02*
X13744859Y-14977078D01*
X13744859Y-14977078D02*
X13725811Y-14986602D01*
X13725811Y-14986602D02*
X13716288Y-14996125D01*
X13716288Y-14996125D02*
X13706764Y-15015173D01*
X13897240Y-14900887D02*
X13897240Y-14938983D01*
X13973430Y-14900887D02*
X13973430Y-14938983D01*
X14268669Y-15177078D02*
X14259145Y-15167554D01*
X14259145Y-15167554D02*
X14240097Y-15138983D01*
X14240097Y-15138983D02*
X14230573Y-15119935D01*
X14230573Y-15119935D02*
X14221050Y-15091364D01*
X14221050Y-15091364D02*
X14211526Y-15043744D01*
X14211526Y-15043744D02*
X14211526Y-15005649D01*
X14211526Y-15005649D02*
X14221050Y-14958030D01*
X14221050Y-14958030D02*
X14230573Y-14929459D01*
X14230573Y-14929459D02*
X14240097Y-14910411D01*
X14240097Y-14910411D02*
X14259145Y-14881840D01*
X14259145Y-14881840D02*
X14268669Y-14872316D01*
X14430573Y-14900887D02*
X14392478Y-14900887D01*
X14392478Y-14900887D02*
X14373430Y-14910411D01*
X14373430Y-14910411D02*
X14363907Y-14919935D01*
X14363907Y-14919935D02*
X14344859Y-14948506D01*
X14344859Y-14948506D02*
X14335335Y-14986602D01*
X14335335Y-14986602D02*
X14335335Y-15062792D01*
X14335335Y-15062792D02*
X14344859Y-15081840D01*
X14344859Y-15081840D02*
X14354383Y-15091364D01*
X14354383Y-15091364D02*
X14373430Y-15100887D01*
X14373430Y-15100887D02*
X14411526Y-15100887D01*
X14411526Y-15100887D02*
X14430573Y-15091364D01*
X14430573Y-15091364D02*
X14440097Y-15081840D01*
X14440097Y-15081840D02*
X14449621Y-15062792D01*
X14449621Y-15062792D02*
X14449621Y-15015173D01*
X14449621Y-15015173D02*
X14440097Y-14996125D01*
X14440097Y-14996125D02*
X14430573Y-14986602D01*
X14430573Y-14986602D02*
X14411526Y-14977078D01*
X14411526Y-14977078D02*
X14373430Y-14977078D01*
X14373430Y-14977078D02*
X14354383Y-14986602D01*
X14354383Y-14986602D02*
X14344859Y-14996125D01*
X14344859Y-14996125D02*
X14335335Y-15015173D01*
X14687716Y-15100887D02*
X14687716Y-14900887D01*
X14773431Y-15100887D02*
X14773431Y-14996125D01*
X14773431Y-14996125D02*
X14763907Y-14977078D01*
X14763907Y-14977078D02*
X14744859Y-14967554D01*
X14744859Y-14967554D02*
X14716288Y-14967554D01*
X14716288Y-14967554D02*
X14697240Y-14977078D01*
X14697240Y-14977078D02*
X14687716Y-14986602D01*
X14897240Y-15100887D02*
X14878192Y-15091364D01*
X14878192Y-15091364D02*
X14868669Y-15081840D01*
X14868669Y-15081840D02*
X14859145Y-15062792D01*
X14859145Y-15062792D02*
X14859145Y-15005649D01*
X14859145Y-15005649D02*
X14868669Y-14986602D01*
X14868669Y-14986602D02*
X14878192Y-14977078D01*
X14878192Y-14977078D02*
X14897240Y-14967554D01*
X14897240Y-14967554D02*
X14925812Y-14967554D01*
X14925812Y-14967554D02*
X14944859Y-14977078D01*
X14944859Y-14977078D02*
X14954383Y-14986602D01*
X14954383Y-14986602D02*
X14963907Y-15005649D01*
X14963907Y-15005649D02*
X14963907Y-15062792D01*
X14963907Y-15062792D02*
X14954383Y-15081840D01*
X14954383Y-15081840D02*
X14944859Y-15091364D01*
X14944859Y-15091364D02*
X14925812Y-15100887D01*
X14925812Y-15100887D02*
X14897240Y-15100887D01*
X15078192Y-15100887D02*
X15059145Y-15091364D01*
X15059145Y-15091364D02*
X15049621Y-15072316D01*
X15049621Y-15072316D02*
X15049621Y-14900887D01*
X15230573Y-15091364D02*
X15211526Y-15100887D01*
X15211526Y-15100887D02*
X15173431Y-15100887D01*
X15173431Y-15100887D02*
X15154383Y-15091364D01*
X15154383Y-15091364D02*
X15144859Y-15072316D01*
X15144859Y-15072316D02*
X15144859Y-14996125D01*
X15144859Y-14996125D02*
X15154383Y-14977078D01*
X15154383Y-14977078D02*
X15173431Y-14967554D01*
X15173431Y-14967554D02*
X15211526Y-14967554D01*
X15211526Y-14967554D02*
X15230573Y-14977078D01*
X15230573Y-14977078D02*
X15240097Y-14996125D01*
X15240097Y-14996125D02*
X15240097Y-15015173D01*
X15240097Y-15015173D02*
X15144859Y-15034221D01*
X15316288Y-15091364D02*
X15335335Y-15100887D01*
X15335335Y-15100887D02*
X15373431Y-15100887D01*
X15373431Y-15100887D02*
X15392478Y-15091364D01*
X15392478Y-15091364D02*
X15402002Y-15072316D01*
X15402002Y-15072316D02*
X15402002Y-15062792D01*
X15402002Y-15062792D02*
X15392478Y-15043744D01*
X15392478Y-15043744D02*
X15373431Y-15034221D01*
X15373431Y-15034221D02*
X15344859Y-15034221D01*
X15344859Y-15034221D02*
X15325812Y-15024697D01*
X15325812Y-15024697D02*
X15316288Y-15005649D01*
X15316288Y-15005649D02*
X15316288Y-14996125D01*
X15316288Y-14996125D02*
X15325812Y-14977078D01*
X15325812Y-14977078D02*
X15344859Y-14967554D01*
X15344859Y-14967554D02*
X15373431Y-14967554D01*
X15373431Y-14967554D02*
X15392478Y-14977078D01*
X15468669Y-15177078D02*
X15478193Y-15167554D01*
X15478193Y-15167554D02*
X15497240Y-15138983D01*
X15497240Y-15138983D02*
X15506764Y-15119935D01*
X15506764Y-15119935D02*
X15516288Y-15091364D01*
X15516288Y-15091364D02*
X15525812Y-15043744D01*
X15525812Y-15043744D02*
X15525812Y-15005649D01*
X15525812Y-15005649D02*
X15516288Y-14958030D01*
X15516288Y-14958030D02*
X15506764Y-14929459D01*
X15506764Y-14929459D02*
X15497240Y-14910411D01*
X15497240Y-14910411D02*
X15478193Y-14881840D01*
X15478193Y-14881840D02*
X15468669Y-14872316D01*
X15830574Y-15177078D02*
X15821050Y-15167554D01*
X15821050Y-15167554D02*
X15802002Y-15138983D01*
X15802002Y-15138983D02*
X15792478Y-15119935D01*
X15792478Y-15119935D02*
X15782954Y-15091364D01*
X15782954Y-15091364D02*
X15773431Y-15043744D01*
X15773431Y-15043744D02*
X15773431Y-15005649D01*
X15773431Y-15005649D02*
X15782954Y-14958030D01*
X15782954Y-14958030D02*
X15792478Y-14929459D01*
X15792478Y-14929459D02*
X15802002Y-14910411D01*
X15802002Y-14910411D02*
X15821050Y-14881840D01*
X15821050Y-14881840D02*
X15830574Y-14872316D01*
X15906764Y-14967554D02*
X15906764Y-15100887D01*
X15906764Y-14986602D02*
X15916288Y-14977078D01*
X15916288Y-14977078D02*
X15935335Y-14967554D01*
X15935335Y-14967554D02*
X15963907Y-14967554D01*
X15963907Y-14967554D02*
X15982954Y-14977078D01*
X15982954Y-14977078D02*
X15992478Y-14996125D01*
X15992478Y-14996125D02*
X15992478Y-15100887D01*
X16116288Y-15100887D02*
X16097240Y-15091364D01*
X16097240Y-15091364D02*
X16087716Y-15081840D01*
X16087716Y-15081840D02*
X16078193Y-15062792D01*
X16078193Y-15062792D02*
X16078193Y-15005649D01*
X16078193Y-15005649D02*
X16087716Y-14986602D01*
X16087716Y-14986602D02*
X16097240Y-14977078D01*
X16097240Y-14977078D02*
X16116288Y-14967554D01*
X16116288Y-14967554D02*
X16144859Y-14967554D01*
X16144859Y-14967554D02*
X16163907Y-14977078D01*
X16163907Y-14977078D02*
X16173431Y-14986602D01*
X16173431Y-14986602D02*
X16182954Y-15005649D01*
X16182954Y-15005649D02*
X16182954Y-15062792D01*
X16182954Y-15062792D02*
X16173431Y-15081840D01*
X16173431Y-15081840D02*
X16163907Y-15091364D01*
X16163907Y-15091364D02*
X16144859Y-15100887D01*
X16144859Y-15100887D02*
X16116288Y-15100887D01*
X16240097Y-14967554D02*
X16316288Y-14967554D01*
X16268669Y-14900887D02*
X16268669Y-15072316D01*
X16268669Y-15072316D02*
X16278193Y-15091364D01*
X16278193Y-15091364D02*
X16297240Y-15100887D01*
X16297240Y-15100887D02*
X16316288Y-15100887D01*
X16535335Y-14967554D02*
X16535335Y-15167554D01*
X16535335Y-14977078D02*
X16554383Y-14967554D01*
X16554383Y-14967554D02*
X16592478Y-14967554D01*
X16592478Y-14967554D02*
X16611526Y-14977078D01*
X16611526Y-14977078D02*
X16621050Y-14986602D01*
X16621050Y-14986602D02*
X16630574Y-15005649D01*
X16630574Y-15005649D02*
X16630574Y-15062792D01*
X16630574Y-15062792D02*
X16621050Y-15081840D01*
X16621050Y-15081840D02*
X16611526Y-15091364D01*
X16611526Y-15091364D02*
X16592478Y-15100887D01*
X16592478Y-15100887D02*
X16554383Y-15100887D01*
X16554383Y-15100887D02*
X16535335Y-15091364D01*
X16744859Y-15100887D02*
X16725812Y-15091364D01*
X16725812Y-15091364D02*
X16716288Y-15072316D01*
X16716288Y-15072316D02*
X16716288Y-14900887D01*
X16906764Y-15100887D02*
X16906764Y-14996125D01*
X16906764Y-14996125D02*
X16897240Y-14977078D01*
X16897240Y-14977078D02*
X16878193Y-14967554D01*
X16878193Y-14967554D02*
X16840097Y-14967554D01*
X16840097Y-14967554D02*
X16821050Y-14977078D01*
X16906764Y-15091364D02*
X16887717Y-15100887D01*
X16887717Y-15100887D02*
X16840097Y-15100887D01*
X16840097Y-15100887D02*
X16821050Y-15091364D01*
X16821050Y-15091364D02*
X16811526Y-15072316D01*
X16811526Y-15072316D02*
X16811526Y-15053268D01*
X16811526Y-15053268D02*
X16821050Y-15034221D01*
X16821050Y-15034221D02*
X16840097Y-15024697D01*
X16840097Y-15024697D02*
X16887717Y-15024697D01*
X16887717Y-15024697D02*
X16906764Y-15015173D01*
X16973431Y-14967554D02*
X17049621Y-14967554D01*
X17002002Y-14900887D02*
X17002002Y-15072316D01*
X17002002Y-15072316D02*
X17011526Y-15091364D01*
X17011526Y-15091364D02*
X17030574Y-15100887D01*
X17030574Y-15100887D02*
X17049621Y-15100887D01*
X17192478Y-15091364D02*
X17173431Y-15100887D01*
X17173431Y-15100887D02*
X17135336Y-15100887D01*
X17135336Y-15100887D02*
X17116288Y-15091364D01*
X17116288Y-15091364D02*
X17106764Y-15072316D01*
X17106764Y-15072316D02*
X17106764Y-14996125D01*
X17106764Y-14996125D02*
X17116288Y-14977078D01*
X17116288Y-14977078D02*
X17135336Y-14967554D01*
X17135336Y-14967554D02*
X17173431Y-14967554D01*
X17173431Y-14967554D02*
X17192478Y-14977078D01*
X17192478Y-14977078D02*
X17202002Y-14996125D01*
X17202002Y-14996125D02*
X17202002Y-15015173D01*
X17202002Y-15015173D02*
X17106764Y-15034221D01*
X17373431Y-15100887D02*
X17373431Y-14900887D01*
X17373431Y-15091364D02*
X17354383Y-15100887D01*
X17354383Y-15100887D02*
X17316288Y-15100887D01*
X17316288Y-15100887D02*
X17297240Y-15091364D01*
X17297240Y-15091364D02*
X17287717Y-15081840D01*
X17287717Y-15081840D02*
X17278193Y-15062792D01*
X17278193Y-15062792D02*
X17278193Y-15005649D01*
X17278193Y-15005649D02*
X17287717Y-14986602D01*
X17287717Y-14986602D02*
X17297240Y-14977078D01*
X17297240Y-14977078D02*
X17316288Y-14967554D01*
X17316288Y-14967554D02*
X17354383Y-14967554D01*
X17354383Y-14967554D02*
X17373431Y-14977078D01*
X17449621Y-15177078D02*
X17459145Y-15167554D01*
X17459145Y-15167554D02*
X17478193Y-15138983D01*
X17478193Y-15138983D02*
X17487717Y-15119935D01*
X17487717Y-15119935D02*
X17497240Y-15091364D01*
X17497240Y-15091364D02*
X17506764Y-15043744D01*
X17506764Y-15043744D02*
X17506764Y-15005649D01*
X17506764Y-15005649D02*
X17497240Y-14958030D01*
X17497240Y-14958030D02*
X17487717Y-14929459D01*
X17487717Y-14929459D02*
X17478193Y-14910411D01*
X17478193Y-14910411D02*
X17459145Y-14881840D01*
X17459145Y-14881840D02*
X17449621Y-14872316D01*
X10593606Y-15229404D02*
X10593606Y-15429404D01*
X10493606Y-15329404D02*
X10693606Y-15329404D01*
X11040097Y-15287554D02*
X11040097Y-15420887D01*
X10992478Y-15211364D02*
X10944859Y-15354221D01*
X10944859Y-15354221D02*
X11068668Y-15354221D01*
X11144859Y-15401840D02*
X11154383Y-15411364D01*
X11154383Y-15411364D02*
X11144859Y-15420887D01*
X11144859Y-15420887D02*
X11135335Y-15411364D01*
X11135335Y-15411364D02*
X11144859Y-15401840D01*
X11144859Y-15401840D02*
X11144859Y-15420887D01*
X11278192Y-15220887D02*
X11297240Y-15220887D01*
X11297240Y-15220887D02*
X11316287Y-15230411D01*
X11316287Y-15230411D02*
X11325811Y-15239935D01*
X11325811Y-15239935D02*
X11335335Y-15258983D01*
X11335335Y-15258983D02*
X11344859Y-15297078D01*
X11344859Y-15297078D02*
X11344859Y-15344697D01*
X11344859Y-15344697D02*
X11335335Y-15382792D01*
X11335335Y-15382792D02*
X11325811Y-15401840D01*
X11325811Y-15401840D02*
X11316287Y-15411364D01*
X11316287Y-15411364D02*
X11297240Y-15420887D01*
X11297240Y-15420887D02*
X11278192Y-15420887D01*
X11278192Y-15420887D02*
X11259144Y-15411364D01*
X11259144Y-15411364D02*
X11249621Y-15401840D01*
X11249621Y-15401840D02*
X11240097Y-15382792D01*
X11240097Y-15382792D02*
X11230573Y-15344697D01*
X11230573Y-15344697D02*
X11230573Y-15297078D01*
X11230573Y-15297078D02*
X11240097Y-15258983D01*
X11240097Y-15258983D02*
X11249621Y-15239935D01*
X11249621Y-15239935D02*
X11259144Y-15230411D01*
X11259144Y-15230411D02*
X11278192Y-15220887D01*
X11468668Y-15220887D02*
X11487716Y-15220887D01*
X11487716Y-15220887D02*
X11506764Y-15230411D01*
X11506764Y-15230411D02*
X11516287Y-15239935D01*
X11516287Y-15239935D02*
X11525811Y-15258983D01*
X11525811Y-15258983D02*
X11535335Y-15297078D01*
X11535335Y-15297078D02*
X11535335Y-15344697D01*
X11535335Y-15344697D02*
X11525811Y-15382792D01*
X11525811Y-15382792D02*
X11516287Y-15401840D01*
X11516287Y-15401840D02*
X11506764Y-15411364D01*
X11506764Y-15411364D02*
X11487716Y-15420887D01*
X11487716Y-15420887D02*
X11468668Y-15420887D01*
X11468668Y-15420887D02*
X11449621Y-15411364D01*
X11449621Y-15411364D02*
X11440097Y-15401840D01*
X11440097Y-15401840D02*
X11430573Y-15382792D01*
X11430573Y-15382792D02*
X11421049Y-15344697D01*
X11421049Y-15344697D02*
X11421049Y-15297078D01*
X11421049Y-15297078D02*
X11430573Y-15258983D01*
X11430573Y-15258983D02*
X11440097Y-15239935D01*
X11440097Y-15239935D02*
X11449621Y-15230411D01*
X11449621Y-15230411D02*
X11468668Y-15220887D01*
X11659144Y-15220887D02*
X11678192Y-15220887D01*
X11678192Y-15220887D02*
X11697240Y-15230411D01*
X11697240Y-15230411D02*
X11706764Y-15239935D01*
X11706764Y-15239935D02*
X11716287Y-15258983D01*
X11716287Y-15258983D02*
X11725811Y-15297078D01*
X11725811Y-15297078D02*
X11725811Y-15344697D01*
X11725811Y-15344697D02*
X11716287Y-15382792D01*
X11716287Y-15382792D02*
X11706764Y-15401840D01*
X11706764Y-15401840D02*
X11697240Y-15411364D01*
X11697240Y-15411364D02*
X11678192Y-15420887D01*
X11678192Y-15420887D02*
X11659144Y-15420887D01*
X11659144Y-15420887D02*
X11640097Y-15411364D01*
X11640097Y-15411364D02*
X11630573Y-15401840D01*
X11630573Y-15401840D02*
X11621049Y-15382792D01*
X11621049Y-15382792D02*
X11611525Y-15344697D01*
X11611525Y-15344697D02*
X11611525Y-15297078D01*
X11611525Y-15297078D02*
X11621049Y-15258983D01*
X11621049Y-15258983D02*
X11630573Y-15239935D01*
X11630573Y-15239935D02*
X11640097Y-15230411D01*
X11640097Y-15230411D02*
X11659144Y-15220887D01*
X11811525Y-15420887D02*
X11811525Y-15287554D01*
X11811525Y-15306602D02*
X11821049Y-15297078D01*
X11821049Y-15297078D02*
X11840097Y-15287554D01*
X11840097Y-15287554D02*
X11868668Y-15287554D01*
X11868668Y-15287554D02*
X11887716Y-15297078D01*
X11887716Y-15297078D02*
X11897240Y-15316125D01*
X11897240Y-15316125D02*
X11897240Y-15420887D01*
X11897240Y-15316125D02*
X11906764Y-15297078D01*
X11906764Y-15297078D02*
X11925811Y-15287554D01*
X11925811Y-15287554D02*
X11954383Y-15287554D01*
X11954383Y-15287554D02*
X11973430Y-15297078D01*
X11973430Y-15297078D02*
X11982954Y-15316125D01*
X11982954Y-15316125D02*
X11982954Y-15420887D01*
X12078192Y-15420887D02*
X12078192Y-15287554D01*
X12078192Y-15306602D02*
X12087716Y-15297078D01*
X12087716Y-15297078D02*
X12106764Y-15287554D01*
X12106764Y-15287554D02*
X12135335Y-15287554D01*
X12135335Y-15287554D02*
X12154383Y-15297078D01*
X12154383Y-15297078D02*
X12163906Y-15316125D01*
X12163906Y-15316125D02*
X12163906Y-15420887D01*
X12163906Y-15316125D02*
X12173430Y-15297078D01*
X12173430Y-15297078D02*
X12192478Y-15287554D01*
X12192478Y-15287554D02*
X12221049Y-15287554D01*
X12221049Y-15287554D02*
X12240097Y-15297078D01*
X12240097Y-15297078D02*
X12249621Y-15316125D01*
X12249621Y-15316125D02*
X12249621Y-15420887D01*
X12640097Y-15211364D02*
X12468668Y-15468506D01*
X12897240Y-15220887D02*
X12916288Y-15220887D01*
X12916288Y-15220887D02*
X12935335Y-15230411D01*
X12935335Y-15230411D02*
X12944859Y-15239935D01*
X12944859Y-15239935D02*
X12954383Y-15258983D01*
X12954383Y-15258983D02*
X12963907Y-15297078D01*
X12963907Y-15297078D02*
X12963907Y-15344697D01*
X12963907Y-15344697D02*
X12954383Y-15382792D01*
X12954383Y-15382792D02*
X12944859Y-15401840D01*
X12944859Y-15401840D02*
X12935335Y-15411364D01*
X12935335Y-15411364D02*
X12916288Y-15420887D01*
X12916288Y-15420887D02*
X12897240Y-15420887D01*
X12897240Y-15420887D02*
X12878192Y-15411364D01*
X12878192Y-15411364D02*
X12868668Y-15401840D01*
X12868668Y-15401840D02*
X12859145Y-15382792D01*
X12859145Y-15382792D02*
X12849621Y-15344697D01*
X12849621Y-15344697D02*
X12849621Y-15297078D01*
X12849621Y-15297078D02*
X12859145Y-15258983D01*
X12859145Y-15258983D02*
X12868668Y-15239935D01*
X12868668Y-15239935D02*
X12878192Y-15230411D01*
X12878192Y-15230411D02*
X12897240Y-15220887D01*
X13049621Y-15401840D02*
X13059145Y-15411364D01*
X13059145Y-15411364D02*
X13049621Y-15420887D01*
X13049621Y-15420887D02*
X13040097Y-15411364D01*
X13040097Y-15411364D02*
X13049621Y-15401840D01*
X13049621Y-15401840D02*
X13049621Y-15420887D01*
X13249621Y-15420887D02*
X13135335Y-15420887D01*
X13192478Y-15420887D02*
X13192478Y-15220887D01*
X13192478Y-15220887D02*
X13173430Y-15249459D01*
X13173430Y-15249459D02*
X13154383Y-15268506D01*
X13154383Y-15268506D02*
X13135335Y-15278030D01*
X13430573Y-15220887D02*
X13335335Y-15220887D01*
X13335335Y-15220887D02*
X13325811Y-15316125D01*
X13325811Y-15316125D02*
X13335335Y-15306602D01*
X13335335Y-15306602D02*
X13354383Y-15297078D01*
X13354383Y-15297078D02*
X13402002Y-15297078D01*
X13402002Y-15297078D02*
X13421049Y-15306602D01*
X13421049Y-15306602D02*
X13430573Y-15316125D01*
X13430573Y-15316125D02*
X13440097Y-15335173D01*
X13440097Y-15335173D02*
X13440097Y-15382792D01*
X13440097Y-15382792D02*
X13430573Y-15401840D01*
X13430573Y-15401840D02*
X13421049Y-15411364D01*
X13421049Y-15411364D02*
X13402002Y-15420887D01*
X13402002Y-15420887D02*
X13354383Y-15420887D01*
X13354383Y-15420887D02*
X13335335Y-15411364D01*
X13335335Y-15411364D02*
X13325811Y-15401840D01*
X13506764Y-15220887D02*
X13640097Y-15220887D01*
X13640097Y-15220887D02*
X13554383Y-15420887D01*
X13811526Y-15220887D02*
X13716288Y-15220887D01*
X13716288Y-15220887D02*
X13706764Y-15316125D01*
X13706764Y-15316125D02*
X13716288Y-15306602D01*
X13716288Y-15306602D02*
X13735335Y-15297078D01*
X13735335Y-15297078D02*
X13782954Y-15297078D01*
X13782954Y-15297078D02*
X13802002Y-15306602D01*
X13802002Y-15306602D02*
X13811526Y-15316125D01*
X13811526Y-15316125D02*
X13821049Y-15335173D01*
X13821049Y-15335173D02*
X13821049Y-15382792D01*
X13821049Y-15382792D02*
X13811526Y-15401840D01*
X13811526Y-15401840D02*
X13802002Y-15411364D01*
X13802002Y-15411364D02*
X13782954Y-15420887D01*
X13782954Y-15420887D02*
X13735335Y-15420887D01*
X13735335Y-15420887D02*
X13716288Y-15411364D01*
X13716288Y-15411364D02*
X13706764Y-15401840D01*
X13897240Y-15220887D02*
X13897240Y-15258983D01*
X13973430Y-15220887D02*
X13973430Y-15258983D01*
X14268669Y-15497078D02*
X14259145Y-15487554D01*
X14259145Y-15487554D02*
X14240097Y-15458983D01*
X14240097Y-15458983D02*
X14230573Y-15439935D01*
X14230573Y-15439935D02*
X14221050Y-15411364D01*
X14221050Y-15411364D02*
X14211526Y-15363744D01*
X14211526Y-15363744D02*
X14211526Y-15325649D01*
X14211526Y-15325649D02*
X14221050Y-15278030D01*
X14221050Y-15278030D02*
X14230573Y-15249459D01*
X14230573Y-15249459D02*
X14240097Y-15230411D01*
X14240097Y-15230411D02*
X14259145Y-15201840D01*
X14259145Y-15201840D02*
X14268669Y-15192316D01*
X14373430Y-15306602D02*
X14354383Y-15297078D01*
X14354383Y-15297078D02*
X14344859Y-15287554D01*
X14344859Y-15287554D02*
X14335335Y-15268506D01*
X14335335Y-15268506D02*
X14335335Y-15258983D01*
X14335335Y-15258983D02*
X14344859Y-15239935D01*
X14344859Y-15239935D02*
X14354383Y-15230411D01*
X14354383Y-15230411D02*
X14373430Y-15220887D01*
X14373430Y-15220887D02*
X14411526Y-15220887D01*
X14411526Y-15220887D02*
X14430573Y-15230411D01*
X14430573Y-15230411D02*
X14440097Y-15239935D01*
X14440097Y-15239935D02*
X14449621Y-15258983D01*
X14449621Y-15258983D02*
X14449621Y-15268506D01*
X14449621Y-15268506D02*
X14440097Y-15287554D01*
X14440097Y-15287554D02*
X14430573Y-15297078D01*
X14430573Y-15297078D02*
X14411526Y-15306602D01*
X14411526Y-15306602D02*
X14373430Y-15306602D01*
X14373430Y-15306602D02*
X14354383Y-15316125D01*
X14354383Y-15316125D02*
X14344859Y-15325649D01*
X14344859Y-15325649D02*
X14335335Y-15344697D01*
X14335335Y-15344697D02*
X14335335Y-15382792D01*
X14335335Y-15382792D02*
X14344859Y-15401840D01*
X14344859Y-15401840D02*
X14354383Y-15411364D01*
X14354383Y-15411364D02*
X14373430Y-15420887D01*
X14373430Y-15420887D02*
X14411526Y-15420887D01*
X14411526Y-15420887D02*
X14430573Y-15411364D01*
X14430573Y-15411364D02*
X14440097Y-15401840D01*
X14440097Y-15401840D02*
X14449621Y-15382792D01*
X14449621Y-15382792D02*
X14449621Y-15344697D01*
X14449621Y-15344697D02*
X14440097Y-15325649D01*
X14440097Y-15325649D02*
X14430573Y-15316125D01*
X14430573Y-15316125D02*
X14411526Y-15306602D01*
X14687716Y-15420887D02*
X14687716Y-15220887D01*
X14773431Y-15420887D02*
X14773431Y-15316125D01*
X14773431Y-15316125D02*
X14763907Y-15297078D01*
X14763907Y-15297078D02*
X14744859Y-15287554D01*
X14744859Y-15287554D02*
X14716288Y-15287554D01*
X14716288Y-15287554D02*
X14697240Y-15297078D01*
X14697240Y-15297078D02*
X14687716Y-15306602D01*
X14897240Y-15420887D02*
X14878192Y-15411364D01*
X14878192Y-15411364D02*
X14868669Y-15401840D01*
X14868669Y-15401840D02*
X14859145Y-15382792D01*
X14859145Y-15382792D02*
X14859145Y-15325649D01*
X14859145Y-15325649D02*
X14868669Y-15306602D01*
X14868669Y-15306602D02*
X14878192Y-15297078D01*
X14878192Y-15297078D02*
X14897240Y-15287554D01*
X14897240Y-15287554D02*
X14925812Y-15287554D01*
X14925812Y-15287554D02*
X14944859Y-15297078D01*
X14944859Y-15297078D02*
X14954383Y-15306602D01*
X14954383Y-15306602D02*
X14963907Y-15325649D01*
X14963907Y-15325649D02*
X14963907Y-15382792D01*
X14963907Y-15382792D02*
X14954383Y-15401840D01*
X14954383Y-15401840D02*
X14944859Y-15411364D01*
X14944859Y-15411364D02*
X14925812Y-15420887D01*
X14925812Y-15420887D02*
X14897240Y-15420887D01*
X15078192Y-15420887D02*
X15059145Y-15411364D01*
X15059145Y-15411364D02*
X15049621Y-15392316D01*
X15049621Y-15392316D02*
X15049621Y-15220887D01*
X15230573Y-15411364D02*
X15211526Y-15420887D01*
X15211526Y-15420887D02*
X15173431Y-15420887D01*
X15173431Y-15420887D02*
X15154383Y-15411364D01*
X15154383Y-15411364D02*
X15144859Y-15392316D01*
X15144859Y-15392316D02*
X15144859Y-15316125D01*
X15144859Y-15316125D02*
X15154383Y-15297078D01*
X15154383Y-15297078D02*
X15173431Y-15287554D01*
X15173431Y-15287554D02*
X15211526Y-15287554D01*
X15211526Y-15287554D02*
X15230573Y-15297078D01*
X15230573Y-15297078D02*
X15240097Y-15316125D01*
X15240097Y-15316125D02*
X15240097Y-15335173D01*
X15240097Y-15335173D02*
X15144859Y-15354221D01*
X15316288Y-15411364D02*
X15335335Y-15420887D01*
X15335335Y-15420887D02*
X15373431Y-15420887D01*
X15373431Y-15420887D02*
X15392478Y-15411364D01*
X15392478Y-15411364D02*
X15402002Y-15392316D01*
X15402002Y-15392316D02*
X15402002Y-15382792D01*
X15402002Y-15382792D02*
X15392478Y-15363744D01*
X15392478Y-15363744D02*
X15373431Y-15354221D01*
X15373431Y-15354221D02*
X15344859Y-15354221D01*
X15344859Y-15354221D02*
X15325812Y-15344697D01*
X15325812Y-15344697D02*
X15316288Y-15325649D01*
X15316288Y-15325649D02*
X15316288Y-15316125D01*
X15316288Y-15316125D02*
X15325812Y-15297078D01*
X15325812Y-15297078D02*
X15344859Y-15287554D01*
X15344859Y-15287554D02*
X15373431Y-15287554D01*
X15373431Y-15287554D02*
X15392478Y-15297078D01*
X15468669Y-15497078D02*
X15478193Y-15487554D01*
X15478193Y-15487554D02*
X15497240Y-15458983D01*
X15497240Y-15458983D02*
X15506764Y-15439935D01*
X15506764Y-15439935D02*
X15516288Y-15411364D01*
X15516288Y-15411364D02*
X15525812Y-15363744D01*
X15525812Y-15363744D02*
X15525812Y-15325649D01*
X15525812Y-15325649D02*
X15516288Y-15278030D01*
X15516288Y-15278030D02*
X15506764Y-15249459D01*
X15506764Y-15249459D02*
X15497240Y-15230411D01*
X15497240Y-15230411D02*
X15478193Y-15201840D01*
X15478193Y-15201840D02*
X15468669Y-15192316D01*
X15830574Y-15497078D02*
X15821050Y-15487554D01*
X15821050Y-15487554D02*
X15802002Y-15458983D01*
X15802002Y-15458983D02*
X15792478Y-15439935D01*
X15792478Y-15439935D02*
X15782954Y-15411364D01*
X15782954Y-15411364D02*
X15773431Y-15363744D01*
X15773431Y-15363744D02*
X15773431Y-15325649D01*
X15773431Y-15325649D02*
X15782954Y-15278030D01*
X15782954Y-15278030D02*
X15792478Y-15249459D01*
X15792478Y-15249459D02*
X15802002Y-15230411D01*
X15802002Y-15230411D02*
X15821050Y-15201840D01*
X15821050Y-15201840D02*
X15830574Y-15192316D01*
X15906764Y-15287554D02*
X15906764Y-15420887D01*
X15906764Y-15306602D02*
X15916288Y-15297078D01*
X15916288Y-15297078D02*
X15935335Y-15287554D01*
X15935335Y-15287554D02*
X15963907Y-15287554D01*
X15963907Y-15287554D02*
X15982954Y-15297078D01*
X15982954Y-15297078D02*
X15992478Y-15316125D01*
X15992478Y-15316125D02*
X15992478Y-15420887D01*
X16116288Y-15420887D02*
X16097240Y-15411364D01*
X16097240Y-15411364D02*
X16087716Y-15401840D01*
X16087716Y-15401840D02*
X16078193Y-15382792D01*
X16078193Y-15382792D02*
X16078193Y-15325649D01*
X16078193Y-15325649D02*
X16087716Y-15306602D01*
X16087716Y-15306602D02*
X16097240Y-15297078D01*
X16097240Y-15297078D02*
X16116288Y-15287554D01*
X16116288Y-15287554D02*
X16144859Y-15287554D01*
X16144859Y-15287554D02*
X16163907Y-15297078D01*
X16163907Y-15297078D02*
X16173431Y-15306602D01*
X16173431Y-15306602D02*
X16182954Y-15325649D01*
X16182954Y-15325649D02*
X16182954Y-15382792D01*
X16182954Y-15382792D02*
X16173431Y-15401840D01*
X16173431Y-15401840D02*
X16163907Y-15411364D01*
X16163907Y-15411364D02*
X16144859Y-15420887D01*
X16144859Y-15420887D02*
X16116288Y-15420887D01*
X16240097Y-15287554D02*
X16316288Y-15287554D01*
X16268669Y-15220887D02*
X16268669Y-15392316D01*
X16268669Y-15392316D02*
X16278193Y-15411364D01*
X16278193Y-15411364D02*
X16297240Y-15420887D01*
X16297240Y-15420887D02*
X16316288Y-15420887D01*
X16535335Y-15287554D02*
X16535335Y-15487554D01*
X16535335Y-15297078D02*
X16554383Y-15287554D01*
X16554383Y-15287554D02*
X16592478Y-15287554D01*
X16592478Y-15287554D02*
X16611526Y-15297078D01*
X16611526Y-15297078D02*
X16621050Y-15306602D01*
X16621050Y-15306602D02*
X16630574Y-15325649D01*
X16630574Y-15325649D02*
X16630574Y-15382792D01*
X16630574Y-15382792D02*
X16621050Y-15401840D01*
X16621050Y-15401840D02*
X16611526Y-15411364D01*
X16611526Y-15411364D02*
X16592478Y-15420887D01*
X16592478Y-15420887D02*
X16554383Y-15420887D01*
X16554383Y-15420887D02*
X16535335Y-15411364D01*
X16744859Y-15420887D02*
X16725812Y-15411364D01*
X16725812Y-15411364D02*
X16716288Y-15392316D01*
X16716288Y-15392316D02*
X16716288Y-15220887D01*
X16906764Y-15420887D02*
X16906764Y-15316125D01*
X16906764Y-15316125D02*
X16897240Y-15297078D01*
X16897240Y-15297078D02*
X16878193Y-15287554D01*
X16878193Y-15287554D02*
X16840097Y-15287554D01*
X16840097Y-15287554D02*
X16821050Y-15297078D01*
X16906764Y-15411364D02*
X16887717Y-15420887D01*
X16887717Y-15420887D02*
X16840097Y-15420887D01*
X16840097Y-15420887D02*
X16821050Y-15411364D01*
X16821050Y-15411364D02*
X16811526Y-15392316D01*
X16811526Y-15392316D02*
X16811526Y-15373268D01*
X16811526Y-15373268D02*
X16821050Y-15354221D01*
X16821050Y-15354221D02*
X16840097Y-15344697D01*
X16840097Y-15344697D02*
X16887717Y-15344697D01*
X16887717Y-15344697D02*
X16906764Y-15335173D01*
X16973431Y-15287554D02*
X17049621Y-15287554D01*
X17002002Y-15220887D02*
X17002002Y-15392316D01*
X17002002Y-15392316D02*
X17011526Y-15411364D01*
X17011526Y-15411364D02*
X17030574Y-15420887D01*
X17030574Y-15420887D02*
X17049621Y-15420887D01*
X17192478Y-15411364D02*
X17173431Y-15420887D01*
X17173431Y-15420887D02*
X17135336Y-15420887D01*
X17135336Y-15420887D02*
X17116288Y-15411364D01*
X17116288Y-15411364D02*
X17106764Y-15392316D01*
X17106764Y-15392316D02*
X17106764Y-15316125D01*
X17106764Y-15316125D02*
X17116288Y-15297078D01*
X17116288Y-15297078D02*
X17135336Y-15287554D01*
X17135336Y-15287554D02*
X17173431Y-15287554D01*
X17173431Y-15287554D02*
X17192478Y-15297078D01*
X17192478Y-15297078D02*
X17202002Y-15316125D01*
X17202002Y-15316125D02*
X17202002Y-15335173D01*
X17202002Y-15335173D02*
X17106764Y-15354221D01*
X17373431Y-15420887D02*
X17373431Y-15220887D01*
X17373431Y-15411364D02*
X17354383Y-15420887D01*
X17354383Y-15420887D02*
X17316288Y-15420887D01*
X17316288Y-15420887D02*
X17297240Y-15411364D01*
X17297240Y-15411364D02*
X17287717Y-15401840D01*
X17287717Y-15401840D02*
X17278193Y-15382792D01*
X17278193Y-15382792D02*
X17278193Y-15325649D01*
X17278193Y-15325649D02*
X17287717Y-15306602D01*
X17287717Y-15306602D02*
X17297240Y-15297078D01*
X17297240Y-15297078D02*
X17316288Y-15287554D01*
X17316288Y-15287554D02*
X17354383Y-15287554D01*
X17354383Y-15287554D02*
X17373431Y-15297078D01*
X17449621Y-15497078D02*
X17459145Y-15487554D01*
X17459145Y-15487554D02*
X17478193Y-15458983D01*
X17478193Y-15458983D02*
X17487717Y-15439935D01*
X17487717Y-15439935D02*
X17497240Y-15411364D01*
X17497240Y-15411364D02*
X17506764Y-15363744D01*
X17506764Y-15363744D02*
X17506764Y-15325649D01*
X17506764Y-15325649D02*
X17497240Y-15278030D01*
X17497240Y-15278030D02*
X17487717Y-15249459D01*
X17487717Y-15249459D02*
X17478193Y-15230411D01*
X17478193Y-15230411D02*
X17459145Y-15201840D01*
X17459145Y-15201840D02*
X17449621Y-15192316D01*
M02*
