M48
; DRILL file {KiCad 9.0.4} date 2025-09-20T14:29:12-0700
; FORMAT={-:-/ absolute / metric / decimal}
; #@! TF.CreationDate,2025-09-20T14:29:12-07:00
; #@! TF.GenerationSoftware,Kicad,Pcbnew,9.0.4
; #@! TF.FileFunction,NonPlated,1,2,NPTH
FMAT,2
METRIC
; #@! TA.AperFunction,NonPlated,NPTH,ComponentDrill
T1C1.700
; #@! TA.AperFunction,NonPlated,NPTH,ComponentDrill
T2C4.000
%
G90
G05
T1
X106.7Y-124.28
X106.76Y-104.9
X116.86Y-124.28
X116.92Y-104.9
X125.88Y-124.28
X125.9Y-104.9
X136.04Y-124.28
X136.06Y-104.9
X144.88Y-124.28
X144.94Y-104.9
X155.04Y-124.28
X155.1Y-104.9
X163.9Y-124.28
X164.0Y-104.9
X174.06Y-124.28
X174.16Y-104.9
T2
X111.78Y-124.28
X111.84Y-104.9
X130.96Y-124.28
X130.98Y-104.9
X149.96Y-124.28
X150.02Y-104.9
X168.98Y-124.28
X169.08Y-104.9
M30
